<?xml version="1.0" encoding="us-ascii" standalone="no"?><svg xmlns="http://www.w3.org/2000/svg" xmlns:xlink="http://www.w3.org/1999/xlink" contentStyleType="text/css" height="867px" preserveAspectRatio="none" style="width:1331px;height:867px;background:#FFFFFF;" version="1.1" viewBox="0 0 1331 867" width="1331px" zoomAndPan="magnify"><defs/><g><line style="stroke:#181818;stroke-width:0.5;stroke-dasharray:5.0,5.0;" x1="54" x2="54" y1="81.0986" y2="860.9194"/><line style="stroke:#181818;stroke-width:0.5;stroke-dasharray:5.0,5.0;" x1="277.5" x2="277.5" y1="81.0986" y2="860.9194"/><line style="stroke:#181818;stroke-width:0.5;stroke-dasharray:5.0,5.0;" x1="502.5" x2="502.5" y1="81.0986" y2="860.9194"/><line style="stroke:#181818;stroke-width:0.5;stroke-dasharray:5.0,5.0;" x1="632.5" x2="632.5" y1="81.0986" y2="860.9194"/><line style="stroke:#181818;stroke-width:0.5;stroke-dasharray:5.0,5.0;" x1="764.5" x2="764.5" y1="81.0986" y2="860.9194"/><line style="stroke:#181818;stroke-width:0.5;stroke-dasharray:5.0,5.0;" x1="919.5" x2="919.5" y1="81.0986" y2="860.9194"/><line style="stroke:#181818;stroke-width:0.5;stroke-dasharray:5.0,5.0;" x1="1050.5" x2="1050.5" y1="81.0986" y2="860.9194"/><line style="stroke:#181818;stroke-width:0.5;stroke-dasharray:5.0,5.0;" x1="1174" x2="1174" y1="81.0986" y2="860.9194"/><line style="stroke:#181818;stroke-width:0.5;stroke-dasharray:5.0,5.0;" x1="1276" x2="1276" y1="81.0986" y2="860.9194"/><text fill="#000000" font-family="Arial" font-size="14" lengthAdjust="spacing" textLength="93" x="5" y="78.3608">SPS (OPC UA)</text><ellipse cx="54.5" cy="13.5" fill="#E2E2F0" rx="8" ry="8" style="stroke:#181818;stroke-width:0.5;"/><path d="M54.5,21.5 L54.5,48.5 M41.5,29.5 L67.5,29.5 M54.5,48.5 L41.5,63.5 M54.5,48.5 L67.5,63.5 " fill="none" style="stroke:#181818;stroke-width:0.5;"/><rect fill="#E2E2F0" height="30.0986" rx="2.5" ry="2.5" style="stroke:#181818;stroke-width:0.5;" width="92" x="231.5" y="50"/><text fill="#000000" font-family="Arial" font-size="14" lengthAdjust="spacing" textLength="78" x="238.5" y="70.3608">:PLCMonitor</text><rect fill="#E2E2F0" height="30.0986" rx="2.5" ry="2.5" style="stroke:#181818;stroke-width:0.5;" width="162" x="421.5" y="50"/><text fill="#000000" font-family="Arial" font-size="14" lengthAdjust="spacing" textLength="148" x="428.5" y="70.3608">:InventorySnapshotUtils</text><rect fill="#E2E2F0" height="30.0986" rx="2.5" ry="2.5" style="stroke:#181818;stroke-width:0.5;" width="78" x="593.5" y="50"/><text fill="#000000" font-family="Arial" font-size="14" lengthAdjust="spacing" textLength="64" x="600.5" y="70.3608">:EventBus</text><rect fill="#E2E2F0" height="30.0986" rx="2.5" ry="2.5" style="stroke:#181818;stroke-width:0.5;" width="167" x="681.5" y="50"/><text fill="#000000" font-family="Arial" font-size="14" lengthAdjust="spacing" textLength="153" x="688.5" y="70.3608">:CommandForceFactory</text><rect fill="#E2E2F0" height="30.0986" rx="2.5" ry="2.5" style="stroke:#181818;stroke-width:0.5;" width="122" x="858.5" y="50"/><text fill="#000000" font-family="Arial" font-size="14" lengthAdjust="spacing" textLength="108" x="865.5" y="70.3608">:ICommandForce</text><rect fill="#E2E2F0" height="30.0986" rx="2.5" ry="2.5" style="stroke:#181818;stroke-width:0.5;" width="121" x="990.5" y="50"/><text fill="#000000" font-family="Arial" font-size="14" lengthAdjust="spacing" textLength="107" x="997.5" y="70.3608">:FailureRecorder</text><rect fill="#E2E2F0" height="30.0986" rx="2.5" ry="2.5" style="stroke:#181818;stroke-width:0.5;" width="98" x="1125" y="50"/><text fill="#000000" font-family="Arial" font-size="14" lengthAdjust="spacing" textLength="84" x="1132" y="70.3608">:TimeBlogger</text><rect fill="#E2E2F0" height="30.0986" rx="2.5" ry="2.5" style="stroke:#181818;stroke-width:0.5;" width="86" x="1233" y="50"/><text fill="#000000" font-family="Arial" font-size="14" lengthAdjust="spacing" textLength="72" x="1240" y="70.3608">:AckLogger</text><rect fill="#EEEEEE" height="3" style="stroke:#EEEEEE;stroke-width:1.0;" width="1324" x="0" y="111.573"/><line style="stroke:#000000;stroke-width:1.0;" x1="0" x2="1324" y1="111.573" y2="111.573"/><line style="stroke:#000000;stroke-width:1.0;" x1="0" x2="1324" y1="114.573" y2="114.573"/><rect fill="#EEEEEE" height="22.9487" style="stroke:#000000;stroke-width:2.0;" width="64" x="630" y="101.0986"/><text fill="#000000" font-family="Arial" font-size="13" font-weight="bold" lengthAdjust="spacing" textLength="46" x="636" y="117.5051">Trigger</text><polygon fill="#181818" points="265.5,150.9961,275.5,154.9961,265.5,158.9961,269.5,154.9961" style="stroke:#181818;stroke-width:1.0;"/><line style="stroke:#181818;stroke-width:1.0;" x1="54.5" x2="271.5" y1="154.9961" y2="154.9961"/><text fill="#000000" font-family="Arial" font-size="13" lengthAdjust="spacing" textLength="199" x="61.5" y="150.4539">DataChange TriggerD1|D3 = TRUE</text><line style="stroke:#181818;stroke-width:1.0;" x1="277.5" x2="319.5" y1="183.9448" y2="183.9448"/><line style="stroke:#181818;stroke-width:1.0;" x1="319.5" x2="319.5" y1="183.9448" y2="196.9448"/><line style="stroke:#181818;stroke-width:1.0;" x1="278.5" x2="319.5" y1="196.9448" y2="196.9448"/><polygon fill="#181818" points="288.5,192.9448,278.5,196.9448,288.5,200.9448,284.5,196.9448" style="stroke:#181818;stroke-width:1.0;"/><text fill="#000000" font-family="Arial" font-size="13" lengthAdjust="spacing" textLength="175" x="284.5" y="179.4026">ignore first notify / edge detect</text><line style="stroke:#181818;stroke-width:1.0;" x1="277.5" x2="319.5" y1="225.8936" y2="225.8936"/><line style="stroke:#181818;stroke-width:1.0;" x1="319.5" x2="319.5" y1="225.8936" y2="238.8936"/><line style="stroke:#181818;stroke-width:1.0;" x1="278.5" x2="319.5" y1="238.8936" y2="238.8936"/><polygon fill="#181818" points="288.5,234.8936,278.5,238.8936,288.5,242.8936,284.5,238.8936" style="stroke:#181818;stroke-width:1.0;"/><text fill="#000000" font-family="Arial" font-size="13" lengthAdjust="spacing" textLength="142" x="284.5" y="221.3513">post build-snapshot task</text><polygon fill="#181818" points="490.5,263.8423,500.5,267.8423,490.5,271.8423,494.5,267.8423" style="stroke:#181818;stroke-width:1.0;"/><line style="stroke:#181818;stroke-width:1.0;" x1="277.5" x2="496.5" y1="267.8423" y2="267.8423"/><text fill="#000000" font-family="Arial" font-size="13" lengthAdjust="spacing" textLength="201" x="284.5" y="263.3">buildInventorySnapshotNow("PLC")</text><polygon fill="#181818" points="288.5,292.791,278.5,296.791,288.5,300.791,284.5,296.791" style="stroke:#181818;stroke-width:1.0;"/><line style="stroke:#181818;stroke-width:1.0;stroke-dasharray:2.0,2.0;" x1="282.5" x2="501.5" y1="296.791" y2="296.791"/><text fill="#000000" font-family="Arial" font-size="13" lengthAdjust="spacing" textLength="106" x="294.5" y="292.2488">InventorySnapshot</text><polygon fill="#181818" points="620.5,321.7397,630.5,325.7397,620.5,329.7397,624.5,325.7397" style="stroke:#181818;stroke-width:1.0;"/><line style="stroke:#181818;stroke-width:1.0;" x1="277.5" x2="626.5" y1="325.7397" y2="325.7397"/><text fill="#000000" font-family="Arial" font-size="13" lengthAdjust="spacing" textLength="183" x="284.5" y="321.1975">post evD1|evD3 (corr, snapshot)</text><polygon fill="#181818" points="620.5,350.6885,630.5,354.6885,620.5,358.6885,624.5,354.6885" style="stroke:#181818;stroke-width:1.0;"/><line style="stroke:#181818;stroke-width:1.0;" x1="277.5" x2="626.5" y1="354.6885" y2="354.6885"/><text fill="#000000" font-family="Arial" font-size="13" lengthAdjust="spacing" textLength="147" x="284.5" y="350.1462">post evUnknownFM (corr)</text><rect fill="#EEEEEE" height="3" style="stroke:#EEEEEE;stroke-width:1.0;" width="1324" x="0" y="383.1628"/><line style="stroke:#000000;stroke-width:1.0;" x1="0" x2="1324" y1="383.1628" y2="383.1628"/><line style="stroke:#000000;stroke-width:1.0;" x1="0" x2="1324" y1="386.1628" y2="386.1628"/><rect fill="#EEEEEE" height="22.9487" style="stroke:#000000;stroke-width:2.0;" width="72" x="626" y="372.6885"/><text fill="#000000" font-family="Arial" font-size="13" font-weight="bold" lengthAdjust="spacing" textLength="54" x="632" y="389.095">Dispatch</text><polygon fill="#181818" points="1039,422.5859,1049,426.5859,1039,430.5859,1043,426.5859" style="stroke:#181818;stroke-width:1.0;"/><line style="stroke:#181818;stroke-width:1.0;" x1="632.5" x2="1045" y1="426.5859" y2="426.5859"/><text fill="#000000" font-family="Arial" font-size="13" lengthAdjust="spacing" textLength="113" x="639.5" y="422.0437">onEvent(evD1|evD3)</text><polygon fill="#181818" points="1162,451.5347,1172,455.5347,1162,459.5347,1166,455.5347" style="stroke:#181818;stroke-width:1.0;"/><line style="stroke:#181818;stroke-width:1.0;" x1="632.5" x2="1168" y1="455.5347" y2="455.5347"/><text fill="#000000" font-family="Arial" font-size="13" lengthAdjust="spacing" textLength="113" x="639.5" y="450.9924">onEvent(evD1|evD3)</text><line style="stroke:#181818;stroke-width:1.0;" x1="1051" x2="1093" y1="484.4834" y2="484.4834"/><line style="stroke:#181818;stroke-width:1.0;" x1="1093" x2="1093" y1="484.4834" y2="497.4834"/><line style="stroke:#181818;stroke-width:1.0;" x1="1052" x2="1093" y1="497.4834" y2="497.4834"/><polygon fill="#181818" points="1062,493.4834,1052,497.4834,1062,501.4834,1058,497.4834" style="stroke:#181818;stroke-width:1.0;"/><text fill="#000000" font-family="Arial" font-size="13" lengthAdjust="spacing" textLength="109" x="1058" y="479.9412">set activeCorr(corr)</text><polygon fill="#181818" points="1039,522.4321,1049,526.4321,1039,530.4321,1043,526.4321" style="stroke:#181818;stroke-width:1.0;"/><line style="stroke:#181818;stroke-width:1.0;" x1="632.5" x2="1045" y1="526.4321" y2="526.4321"/><text fill="#000000" font-family="Arial" font-size="13" lengthAdjust="spacing" textLength="138" x="639.5" y="521.8899">onEvent(evUnknownFM)</text><polygon fill="#181818" points="1162,551.3809,1172,555.3809,1162,559.3809,1166,555.3809" style="stroke:#181818;stroke-width:1.0;"/><line style="stroke:#181818;stroke-width:1.0;" x1="632.5" x2="1168" y1="555.3809" y2="555.3809"/><text fill="#000000" font-family="Arial" font-size="13" lengthAdjust="spacing" textLength="138" x="639.5" y="550.8386">onEvent(evUnknownFM)</text><rect fill="#EEEEEE" height="3" style="stroke:#EEEEEE;stroke-width:1.0;" width="1324" x="0" y="583.8552"/><line style="stroke:#000000;stroke-width:1.0;" x1="0" x2="1324" y1="583.8552" y2="583.8552"/><line style="stroke:#000000;stroke-width:1.0;" x1="0" x2="1324" y1="586.8552" y2="586.8552"/><rect fill="#EEEEEE" height="22.9487" style="stroke:#000000;stroke-width:2.0;" width="99" x="612.5" y="573.3809"/><text fill="#000000" font-family="Arial" font-size="13" font-weight="bold" lengthAdjust="spacing" textLength="81" x="618.5" y="589.7874">KG ingestion</text><polygon fill="#181818" points="776,623.2783,766,627.2783,776,631.2783,772,627.2783" style="stroke:#181818;stroke-width:1.0;"/><line style="stroke:#181818;stroke-width:1.0;" x1="770" x2="1050" y1="627.2783" y2="627.2783"/><text fill="#000000" font-family="Arial" font-size="13" lengthAdjust="spacing" textLength="202" x="782" y="622.7361">createForOp(KGIngestion, ..., Bus)</text><polygon fill="#181818" points="907.5,652.2271,917.5,656.2271,907.5,660.2271,911.5,656.2271" style="stroke:#181818;stroke-width:1.0;"/><line style="stroke:#181818;stroke-width:1.0;" x1="765" x2="913.5" y1="656.2271" y2="656.2271"/><text fill="#000000" font-family="Arial" font-size="13" lengthAdjust="spacing" textLength="104" x="772" y="651.6848">KGIngestionForce</text><polygon fill="#181818" points="643.5,681.1758,633.5,685.1758,643.5,689.1758,639.5,685.1758" style="stroke:#181818;stroke-width:1.0;"/><line style="stroke:#181818;stroke-width:1.0;" x1="637.5" x2="918.5" y1="685.1758" y2="685.1758"/><text fill="#000000" font-family="Arial" font-size="13" lengthAdjust="spacing" textLength="174" x="649.5" y="680.6335">post evIngestionPlanned (corr)</text><polygon fill="#181818" points="1264,710.1245,1274,714.1245,1264,718.1245,1268,714.1245" style="stroke:#181818;stroke-width:1.0;"/><line style="stroke:#181818;stroke-width:1.0;" x1="632.5" x2="1270" y1="714.1245" y2="714.1245"/><text fill="#000000" font-family="Arial" font-size="13" lengthAdjust="spacing" textLength="165" x="639.5" y="709.5823">onEvent(evIngestionPlanned)</text><polygon fill="#181818" points="643.5,739.0732,633.5,743.0732,643.5,747.0732,639.5,743.0732" style="stroke:#181818;stroke-width:1.0;"/><line style="stroke:#181818;stroke-width:1.0;" x1="637.5" x2="918.5" y1="743.0732" y2="743.0732"/><text fill="#000000" font-family="Arial" font-size="13" lengthAdjust="spacing" textLength="176" x="649.5" y="738.531">post evIngestionDone (corr, rc)</text><polygon fill="#181818" points="1264,768.022,1274,772.022,1264,776.022,1268,772.022" style="stroke:#181818;stroke-width:1.0;"/><line style="stroke:#181818;stroke-width:1.0;" x1="632.5" x2="1270" y1="772.022" y2="772.022"/><text fill="#000000" font-family="Arial" font-size="13" lengthAdjust="spacing" textLength="148" x="639.5" y="767.4797">onEvent(evIngestionDone)</text><polygon fill="#181818" points="1162,796.9707,1172,800.9707,1162,804.9707,1166,800.9707" style="stroke:#181818;stroke-width:1.0;"/><line style="stroke:#181818;stroke-width:1.0;" x1="632.5" x2="1168" y1="800.9707" y2="800.9707"/><text fill="#000000" font-family="Arial" font-size="13" lengthAdjust="spacing" textLength="66" x="639.5" y="796.4285">onEvent(...)</text><line style="stroke:#181818;stroke-width:1.0;" x1="1174" x2="1216" y1="829.9194" y2="829.9194"/><line style="stroke:#181818;stroke-width:1.0;" x1="1216" x2="1216" y1="829.9194" y2="842.9194"/><line style="stroke:#181818;stroke-width:1.0;" x1="1175" x2="1216" y1="842.9194" y2="842.9194"/><polygon fill="#181818" points="1185,838.9194,1175,842.9194,1185,846.9194,1181,842.9194" style="stroke:#181818;stroke-width:1.0;"/><text fill="#000000" font-family="Arial" font-size="13" lengthAdjust="spacing" textLength="60" x="1181" y="825.3772">finish(corr)</text><!--SRC=[XPJDRjf04CVl-nGZBiLIe8rogI9H2KmSHP04yQ6U5tkCHzYxrku2HUhZz35woujrrc0W3cqlMCpyvki_Ot-2JWUMkDjOww0WHONC8NtxRM1fa1p2I1UbTBIadDpRByUuo2X1IBLsI_r3s3MfKXfPWCraedUaLf3AtEA59y5KRd8NQULUP87GDoJp2__EoF8x9Iw3swzVX92nqmPQiyaCsg-J41Rze0NI0Xi41pYAgPJAGUj-CWwVjIB6Ay3_RH1FQekA_VkPagNDj5iuocr5islHe1yyFDWS_Fnik4DT558baJOnHbMN-ueCewXPzX8zL0kRJ2GftnYSOgnDWeS9eca3cbE1WrolLaTWFcW0_NWzFhlxOo5wFPWRyYRezOHNiVEjaWRkOIYT33EfLbWpmzkVmplWaEdYGLJKcQQLqePNJOQFGsb7wHu-0oOSdQ33s3K3IitWSaDvqh57lS59kpvnNdFcAkJ3QbxqhjrYiXM8YkkS4tzWJnbvItLXtF8m_7C7RPRKt43TGt2TNgYrqZiLFH_ue99kI9RlFSwyTfxce6ZACLfLnz4-5GbgztnmtSrXTR151tmljCMG2nshNSz-Qkfl-Iy0t-_e4VYLG-j8Az_peIfV90V51gL3li7NiZrwVAgn6-XskpTUYq1uqEybzFm5KnskyEQcQYTaaakbC87tu_J7xxfjqi6_Smwrmdfx9lvlKezVruad30HRQdlAdpQR7Llz0m00]--></g></svg>