<?xml version="1.0" encoding="us-ascii" standalone="no"?><svg xmlns="http://www.w3.org/2000/svg" xmlns:xlink="http://www.w3.org/1999/xlink" contentStyleType="text/css" height="1259.2px" preserveAspectRatio="none" style="width:2179px;height:1259px;background:#FFFFFF;" version="1.1" viewBox="0 0 2179 1259" width="2179.2px" zoomAndPan="magnify"><defs/><g><!--class ReactiveObserver--><g id="elem_ReactiveObserver"><rect codeLine="22" fill="#F1F1F1" height="102.5578" id="ReactiveObserver" rx="4" ry="4" style="stroke:#181818;stroke-width:0.8000000000000002;" width="230.4" x="1930.4" y="382.4"/><ellipse cx="1954.4" cy="408" fill="#A9DCDF" rx="17.6" ry="17.6" style="stroke:#181818;stroke-width:1.6000000000000003;"/><path d="M1957.9,410.825 L1951.275,410.825 L1950.6,412.475 L1951.275,412.475 Q1952.25,412.475 1952.675,412.85 Q1953.1,413.225 1953.1,413.85 Q1953.1,414.45 1952.675,414.825 Q1952.25,415.2 1951.275,415.2 L1947.6,415.2 Q1946.625,415.2 1946.2125,414.825 Q1945.8,414.45 1945.8,413.825 Q1945.8,413.225 1946.2375,412.8375 Q1946.675,412.45 1947.675,412.475 L1951.95,401.825 L1950.175,401.825 Q1949.2,401.825 1948.775,401.45 Q1948.35,401.075 1948.35,400.45 Q1948.35,399.85 1948.775,399.475 Q1949.2,399.1 1950.175,399.1 L1956.05,399.1 L1961.475,412.475 Q1962.425,412.475 1962.725,412.7 Q1963.35,413.125 1963.35,413.85 Q1963.35,414.45 1962.9375,414.825 Q1962.525,415.2 1961.55,415.2 L1957.875,415.2 Q1956.9,415.2 1956.475,414.825 Q1956.05,414.45 1956.05,413.825 Q1956.05,413.225 1956.475,412.85 Q1956.9,412.475 1957.875,412.475 L1958.55,412.475 L1957.9,410.825 Z M1956.75,408.1 L1954.575,402.7 L1952.375,408.1 L1956.75,408.1 Z " fill="#000000"/><text fill="#000000" font-family="Arial" font-size="22.4" font-style="italic" lengthAdjust="spacing" textLength="179.2" x="1976.8" y="416.4984">ReactiveObserver</text><line style="stroke:#181818;stroke-width:0.8000000000000002;" x1="1932" x2="2159.2" y1="433.6" y2="433.6"/><line style="stroke:#181818;stroke-width:0.8000000000000002;" x1="1932" x2="2159.2" y1="446.4" y2="446.4"/><text fill="#000000" font-family="Arial" font-size="22.4" font-style="italic" lengthAdjust="spacing" textLength="201.6" x="1940" y="474.1773">+onEvent(ev: Event)</text></g><!--class Event--><g id="elem_Event"><rect codeLine="27" fill="#F1F1F1" height="154.0734" id="Event" rx="4" ry="4" style="stroke:#181818;stroke-width:0.8000000000000002;" width="196.8" x="1947.2" y="492.8"/><ellipse cx="2010.8" cy="518.4" fill="#F1F1F1" rx="17.6" ry="17.6" style="stroke:#181818;stroke-width:1.6000000000000003;"/><path d="M2007.775,525.7 Q2007.425,526.125 2007.2,526.25 Q2006.975,526.375 2006.675,526.375 Q2006.05,526.375 2005.6625,525.95 Q2005.275,525.525 2005.275,524.575 L2005.275,522.725 Q2005.275,521.75 2005.6625,521.3375 Q2006.05,520.925 2006.675,520.925 Q2007.15,520.925 2007.475,521.175 Q2007.8,521.425 2007.975,522.0125 Q2008.15,522.6 2008.325,522.825 Q2008.725,523.225 2009.7,523.65 Q2010.675,524.075 2011.85,524.075 Q2013.675,524.075 2014.825,523.225 Q2015.575,522.7 2015.575,521.95 Q2015.575,521.45 2015.225,521 Q2014.875,520.55 2014.05,520.275 Q2013.525,520.075 2011.675,519.725 Q2009.45,519.3 2008.3,518.725 Q2007.15,518.15 2006.4875,517.0875 Q2005.825,516.025 2005.825,514.775 Q2005.825,512.825 2007.4625,511.3625 Q2009.1,509.9 2011.725,509.9 Q2012.775,509.9 2013.6625,510.125 Q2014.55,510.35 2015.3,510.825 Q2015.825,510.325 2016.35,510.325 Q2016.95,510.325 2017.325,510.7375 Q2017.7,511.15 2017.7,512.125 L2017.7,514.175 Q2017.7,515.15 2017.325,515.5625 Q2016.95,515.975 2016.35,515.975 Q2015.85,515.975 2015.475,515.675 Q2015.175,515.45 2015.0375,514.775 Q2014.9,514.1 2014.675,513.8 Q2014.275,513.3 2013.5125,512.9625 Q2012.75,512.625 2011.725,512.625 Q2010.25,512.625 2009.4,513.3 Q2008.55,513.975 2008.55,514.725 Q2008.55,515.225 2008.9,515.7 Q2009.25,516.175 2009.925,516.45 Q2010.375,516.625 2012.4625,517.0375 Q2014.55,517.45 2015.675,517.9375 Q2016.8,518.425 2017.55,519.475 Q2018.3,520.525 2018.3,521.975 Q2018.3,524 2016.875,525.2 Q2014.975,526.8 2012.05,526.8 Q2010.925,526.8 2009.8625,526.525 Q2008.8,526.25 2007.775,525.7 Z " fill="#000000"/><text fill="#000000" font-family="Arial" font-size="22.4" lengthAdjust="spacing" textLength="57.6" x="2042" y="526.8984">Event</text><line style="stroke:#181818;stroke-width:0.8000000000000002;" x1="1948.8" x2="2142.4" y1="544" y2="544"/><text fill="#000000" font-family="Arial" font-size="22.4" lengthAdjust="spacing" textLength="177.6" x="1956.8" y="571.7773">+type: EventType</text><text fill="#000000" font-family="Arial" font-size="22.4" lengthAdjust="spacing" textLength="30.4" x="1956.8" y="597.5352">+ts</text><text fill="#000000" font-family="Arial" font-size="22.4" lengthAdjust="spacing" textLength="142.4" x="1956.8" y="623.293">+payload: any</text><line style="stroke:#181818;stroke-width:0.8000000000000002;" x1="1948.8" x2="2142.4" y1="634.0734" y2="634.0734"/></g><!--class EventType--><g id="elem_EventType"><rect codeLine="32" fill="#F1F1F1" height="179.8313" id="EventType" rx="4" ry="4" style="stroke:#181818;stroke-width:0.8000000000000002;" width="400" x="264" y="147.2"/><ellipse cx="402.8" cy="172.8" fill="#EB937F" rx="17.6" ry="17.6" style="stroke:#181818;stroke-width:1.6000000000000003;"/><path d="M400.975,174.075 L400.975,178.075 L407.9,178.075 L407.9,176.6 Q407.9,175.625 408.2875,175.2 Q408.675,174.775 409.275,174.775 Q409.875,174.775 410.25,175.2 Q410.625,175.625 410.625,176.6 L410.625,180.8 L397.825,180.8 Q396.825,180.8 396.4125,180.425 Q396,180.05 396,179.425 Q396,178.825 396.425,178.45 Q396.85,178.075 397.825,178.075 L398.25,178.075 L398.25,167.425 L397.825,167.425 Q396.825,167.425 396.4125,167.05 Q396,166.675 396,166.05 Q396,165.45 396.4125,165.075 Q396.825,164.7 397.825,164.7 L410.025,164.7 L410.025,168.85 Q410.025,169.825 409.6625,170.2375 Q409.3,170.65 408.675,170.65 Q408.075,170.65 407.7,170.2375 Q407.325,169.825 407.325,168.85 L407.325,167.425 L400.975,167.425 L400.975,171.35 L403.35,171.35 Q403.35,170.3 403.55,170 Q403.975,169.35 404.725,169.35 Q405.325,169.35 405.7,169.7625 Q406.075,170.175 406.075,171.15 L406.075,174.3 Q406.075,175.175 405.875,175.475 Q405.45,176.1 404.725,176.1 Q403.975,176.1 403.55,175.45 Q403.35,175.15 403.35,174.075 L400.975,174.075 Z " fill="#000000"/><text fill="#000000" font-family="Arial" font-size="22.4" lengthAdjust="spacing" textLength="108.8" x="435.6" y="181.2984">EventType</text><line style="stroke:#181818;stroke-width:0.8000000000000002;" x1="265.6" x2="662.4" y1="198.4" y2="198.4"/><text fill="#000000" font-family="Arial" font-size="22.4" lengthAdjust="spacing" textLength="265.6" x="273.6" y="226.1773">evSRPlanned, evSRDone,</text><text fill="#000000" font-family="Arial" font-size="22.4" lengthAdjust="spacing" textLength="355.2" x="273.6" y="251.9352">evMonActPlanned, evMonActDone,</text><text fill="#000000" font-family="Arial" font-size="22.4" lengthAdjust="spacing" textLength="148.8" x="273.6" y="277.693">evProcessFail,</text><text fill="#000000" font-family="Arial" font-size="22.4" lengthAdjust="spacing" textLength="380.8" x="273.6" y="303.4508">evIngestionPlanned, evIngestionDone</text><line style="stroke:#181818;stroke-width:0.8000000000000002;" x1="265.6" x2="662.4" y1="314.2313" y2="314.2313"/></g><!--class EventBus--><g id="elem_EventBus"><rect codeLine="38" fill="#F1F1F1" height="102.5578" id="EventBus" rx="4" ry="4" style="stroke:#181818;stroke-width:0.8000000000000002;" width="147.2" x="1478.4" y="446.4"/><ellipse cx="1502.4" cy="472" fill="#ADD1B2" rx="17.6" ry="17.6" style="stroke:#181818;stroke-width:1.6000000000000003;"/><path d="M1506.825,465.4 Q1507.075,465.05 1507.375,464.875 Q1507.675,464.7 1508.025,464.7 Q1508.625,464.7 1509,465.1125 Q1509.375,465.525 1509.375,466.5 L1509.375,468.825 Q1509.375,469.8 1509,470.225 Q1508.625,470.65 1508.025,470.65 Q1507.475,470.65 1507.15,470.325 Q1506.825,470.025 1506.65,469.2 Q1506.575,468.625 1506.275,468.325 Q1505.75,467.725 1504.775,467.375 Q1503.8,467.025 1502.8,467.025 Q1501.575,467.025 1500.5625,467.55 Q1499.55,468.075 1498.7625,469.275 Q1497.975,470.475 1497.975,472.125 L1497.975,473.875 Q1497.975,475.85 1499.4,477.1625 Q1500.825,478.475 1503.375,478.475 Q1504.875,478.475 1505.925,478.075 Q1506.55,477.825 1507.225,477.125 Q1507.65,476.7 1507.8875,476.575 Q1508.125,476.45 1508.45,476.45 Q1508.975,476.45 1509.3875,476.8625 Q1509.8,477.275 1509.8,477.825 Q1509.8,478.375 1509.25,479.025 Q1508.45,479.95 1507.175,480.475 Q1505.45,481.2 1503.375,481.2 Q1500.95,481.2 1499.025,480.2 Q1497.45,479.4 1496.35,477.6875 Q1495.25,475.975 1495.25,473.925 L1495.25,472.075 Q1495.25,469.95 1496.2375,468.1125 Q1497.225,466.275 1498.975,465.2875 Q1500.725,464.3 1502.7,464.3 Q1503.875,464.3 1504.9125,464.5625 Q1505.95,464.825 1506.825,465.4 Z " fill="#000000"/><text fill="#000000" font-family="Arial" font-size="22.4" lengthAdjust="spacing" textLength="96" x="1524.8" y="480.4984">EventBus</text><line style="stroke:#181818;stroke-width:0.8000000000000002;" x1="1480" x2="1624" y1="497.6" y2="497.6"/><text fill="#000000" font-family="Arial" font-size="22.4" lengthAdjust="spacing" textLength="19.2" x="1488" y="525.3773">...</text><line style="stroke:#181818;stroke-width:0.8000000000000002;" x1="1480" x2="1624" y1="536.1578" y2="536.1578"/></g><!--class CsvRow--><g id="elem_CsvRow"><rect codeLine="43" fill="#F1F1F1" height="179.8313" id="CsvRow" rx="4" ry="4" style="stroke:#181818;stroke-width:0.8000000000000002;" width="236.8" x="1927.2" y="1030.4"/><ellipse cx="1998" cy="1056" fill="#F1F1F1" rx="17.6" ry="17.6" style="stroke:#181818;stroke-width:1.6000000000000003;"/><path d="M1994.975,1063.3 Q1994.625,1063.725 1994.4,1063.85 Q1994.175,1063.975 1993.875,1063.975 Q1993.25,1063.975 1992.8625,1063.55 Q1992.475,1063.125 1992.475,1062.175 L1992.475,1060.325 Q1992.475,1059.35 1992.8625,1058.9375 Q1993.25,1058.525 1993.875,1058.525 Q1994.35,1058.525 1994.675,1058.775 Q1995,1059.025 1995.175,1059.6125 Q1995.35,1060.2 1995.525,1060.425 Q1995.925,1060.825 1996.9,1061.25 Q1997.875,1061.675 1999.05,1061.675 Q2000.875,1061.675 2002.025,1060.825 Q2002.775,1060.3 2002.775,1059.55 Q2002.775,1059.05 2002.425,1058.6 Q2002.075,1058.15 2001.25,1057.875 Q2000.725,1057.675 1998.875,1057.325 Q1996.65,1056.9 1995.5,1056.325 Q1994.35,1055.75 1993.6875,1054.6875 Q1993.025,1053.625 1993.025,1052.375 Q1993.025,1050.425 1994.6625,1048.9625 Q1996.3,1047.5 1998.925,1047.5 Q1999.975,1047.5 2000.8625,1047.725 Q2001.75,1047.95 2002.5,1048.425 Q2003.025,1047.925 2003.55,1047.925 Q2004.15,1047.925 2004.525,1048.3375 Q2004.9,1048.75 2004.9,1049.725 L2004.9,1051.775 Q2004.9,1052.75 2004.525,1053.1625 Q2004.15,1053.575 2003.55,1053.575 Q2003.05,1053.575 2002.675,1053.275 Q2002.375,1053.05 2002.2375,1052.375 Q2002.1,1051.7 2001.875,1051.4 Q2001.475,1050.9 2000.7125,1050.5625 Q1999.95,1050.225 1998.925,1050.225 Q1997.45,1050.225 1996.6,1050.9 Q1995.75,1051.575 1995.75,1052.325 Q1995.75,1052.825 1996.1,1053.3 Q1996.45,1053.775 1997.125,1054.05 Q1997.575,1054.225 1999.6625,1054.6375 Q2001.75,1055.05 2002.875,1055.5375 Q2004,1056.025 2004.75,1057.075 Q2005.5,1058.125 2005.5,1059.575 Q2005.5,1061.6 2004.075,1062.8 Q2002.175,1064.4 1999.25,1064.4 Q1998.125,1064.4 1997.0625,1064.125 Q1996,1063.85 1994.975,1063.3 Z " fill="#000000"/><text fill="#000000" font-family="Arial" font-size="22.4" lengthAdjust="spacing" textLength="81.6" x="2030.8" y="1064.4984">CsvRow</text><line style="stroke:#181818;stroke-width:0.8000000000000002;" x1="1928.8" x2="2162.4" y1="1081.6" y2="1081.6"/><text fill="#000000" font-family="Arial" font-size="22.4" lengthAdjust="spacing" textLength="126.4" x="1936.8" y="1109.3773">corrId: string</text><text fill="#000000" font-family="Arial" font-size="22.4" lengthAdjust="spacing" textLength="176" x="1936.8" y="1135.1352">eventType: string</text><text fill="#000000" font-family="Arial" font-size="22.4" lengthAdjust="spacing" textLength="217.6" x="1936.8" y="1160.893">durationMs: long long</text><text fill="#000000" font-family="Arial" font-size="22.4" lengthAdjust="spacing" textLength="212.8" x="1936.8" y="1186.6508">durSumMs: long long</text><line style="stroke:#181818;stroke-width:0.8000000000000002;" x1="1928.8" x2="2162.4" y1="1197.4313" y2="1197.4313"/></g><!--class WriteCsvParams--><g id="elem_WriteCsvParams"><rect codeLine="49" fill="#F1F1F1" height="154.0734" id="WriteCsvParams" rx="4" ry="4" style="stroke:#181818;stroke-width:0.8000000000000002;" width="248" x="1428" y="556.8"/><ellipse cx="1464.96" cy="582.4" fill="#F1F1F1" rx="17.6" ry="17.6" style="stroke:#181818;stroke-width:1.6000000000000003;"/><path d="M1461.935,589.7 Q1461.585,590.125 1461.36,590.25 Q1461.135,590.375 1460.835,590.375 Q1460.21,590.375 1459.8225,589.95 Q1459.435,589.525 1459.435,588.575 L1459.435,586.725 Q1459.435,585.75 1459.8225,585.3375 Q1460.21,584.925 1460.835,584.925 Q1461.31,584.925 1461.635,585.175 Q1461.96,585.425 1462.135,586.0125 Q1462.31,586.6 1462.485,586.825 Q1462.885,587.225 1463.86,587.65 Q1464.835,588.075 1466.01,588.075 Q1467.835,588.075 1468.985,587.225 Q1469.735,586.7 1469.735,585.95 Q1469.735,585.45 1469.385,585 Q1469.035,584.55 1468.21,584.275 Q1467.685,584.075 1465.835,583.725 Q1463.61,583.3 1462.46,582.725 Q1461.31,582.15 1460.6475,581.0875 Q1459.985,580.025 1459.985,578.775 Q1459.985,576.825 1461.6225,575.3625 Q1463.26,573.9 1465.885,573.9 Q1466.935,573.9 1467.8225,574.125 Q1468.71,574.35 1469.46,574.825 Q1469.985,574.325 1470.51,574.325 Q1471.11,574.325 1471.485,574.7375 Q1471.86,575.15 1471.86,576.125 L1471.86,578.175 Q1471.86,579.15 1471.485,579.5625 Q1471.11,579.975 1470.51,579.975 Q1470.01,579.975 1469.635,579.675 Q1469.335,579.45 1469.1975,578.775 Q1469.06,578.1 1468.835,577.8 Q1468.435,577.3 1467.6725,576.9625 Q1466.91,576.625 1465.885,576.625 Q1464.41,576.625 1463.56,577.3 Q1462.71,577.975 1462.71,578.725 Q1462.71,579.225 1463.06,579.7 Q1463.41,580.175 1464.085,580.45 Q1464.535,580.625 1466.6225,581.0375 Q1468.71,581.45 1469.835,581.9375 Q1470.96,582.425 1471.71,583.475 Q1472.46,584.525 1472.46,585.975 Q1472.46,588 1471.035,589.2 Q1469.135,590.8 1466.21,590.8 Q1465.085,590.8 1464.0225,590.525 Q1462.96,590.25 1461.935,589.7 Z " fill="#000000"/><text fill="#000000" font-family="Arial" font-size="22.4" lengthAdjust="spacing" textLength="168" x="1490.24" y="590.8984">WriteCsvParams</text><line style="stroke:#181818;stroke-width:0.8000000000000002;" x1="1429.6" x2="1674.4" y1="608" y2="608"/><text fill="#000000" font-family="Arial" font-size="22.4" lengthAdjust="spacing" textLength="137.6" x="1437.6" y="635.7773">outFile: string</text><text fill="#000000" font-family="Arial" font-size="22.4" lengthAdjust="spacing" textLength="228.8" x="1437.6" y="661.5352">rows: vector&lt;CsvRow&gt;</text><text fill="#000000" font-family="Arial" font-size="22.4" lengthAdjust="spacing" textLength="168" x="1437.6" y="687.293">withHeader: bool</text><line style="stroke:#181818;stroke-width:0.8000000000000002;" x1="1429.6" x2="1674.4" y1="698.0734" y2="698.0734"/></g><!--class OpType--><g id="elem_OpType"><rect codeLine="56" fill="#F1F1F1" height="128.3156" id="OpType" rx="4" ry="4" style="stroke:#181818;stroke-width:0.8000000000000002;" width="132.8" x="397.6" y="11.2"/><ellipse cx="421.6" cy="36.8" fill="#EB937F" rx="17.6" ry="17.6" style="stroke:#181818;stroke-width:1.6000000000000003;"/><path d="M419.775,38.075 L419.775,42.075 L426.7,42.075 L426.7,40.6 Q426.7,39.625 427.0875,39.2 Q427.475,38.775 428.075,38.775 Q428.675,38.775 429.05,39.2 Q429.425,39.625 429.425,40.6 L429.425,44.8 L416.625,44.8 Q415.625,44.8 415.2125,44.425 Q414.8,44.05 414.8,43.425 Q414.8,42.825 415.225,42.45 Q415.65,42.075 416.625,42.075 L417.05,42.075 L417.05,31.425 L416.625,31.425 Q415.625,31.425 415.2125,31.05 Q414.8,30.675 414.8,30.05 Q414.8,29.45 415.2125,29.075 Q415.625,28.7 416.625,28.7 L428.825,28.7 L428.825,32.85 Q428.825,33.825 428.4625,34.2375 Q428.1,34.65 427.475,34.65 Q426.875,34.65 426.5,34.2375 Q426.125,33.825 426.125,32.85 L426.125,31.425 L419.775,31.425 L419.775,35.35 L422.15,35.35 Q422.15,34.3 422.35,34 Q422.775,33.35 423.525,33.35 Q424.125,33.35 424.5,33.7625 Q424.875,34.175 424.875,35.15 L424.875,38.3 Q424.875,39.175 424.675,39.475 Q424.25,40.1 423.525,40.1 Q422.775,40.1 422.35,39.45 Q422.15,39.15 422.15,38.075 L419.775,38.075 Z " fill="#000000"/><text fill="#000000" font-family="Arial" font-size="22.4" lengthAdjust="spacing" textLength="81.6" x="444" y="45.2984">OpType</text><line style="stroke:#181818;stroke-width:0.8000000000000002;" x1="399.2" x2="528.8" y1="62.4" y2="62.4"/><text fill="#000000" font-family="Arial" font-size="22.4" lengthAdjust="spacing" textLength="104" x="407.2" y="90.1773">WriteCSV,</text><text fill="#000000" font-family="Arial" font-size="22.4" lengthAdjust="spacing" textLength="19.2" x="407.2" y="115.9352">...</text><line style="stroke:#181818;stroke-width:0.8000000000000002;" x1="399.2" x2="528.8" y1="126.7156" y2="126.7156"/></g><!--class Operation--><g id="elem_Operation"><rect codeLine="60" fill="#F1F1F1" height="205.5891" id="Operation" rx="4" ry="4" style="stroke:#181818;stroke-width:0.8000000000000002;" width="244.8" x="1923.2" y="692.8"/><ellipse cx="1988.96" cy="718.4" fill="#F1F1F1" rx="17.6" ry="17.6" style="stroke:#181818;stroke-width:1.6000000000000003;"/><path d="M1985.935,725.7 Q1985.585,726.125 1985.36,726.25 Q1985.135,726.375 1984.835,726.375 Q1984.21,726.375 1983.8225,725.95 Q1983.435,725.525 1983.435,724.575 L1983.435,722.725 Q1983.435,721.75 1983.8225,721.3375 Q1984.21,720.925 1984.835,720.925 Q1985.31,720.925 1985.635,721.175 Q1985.96,721.425 1986.135,722.0125 Q1986.31,722.6 1986.485,722.825 Q1986.885,723.225 1987.86,723.65 Q1988.835,724.075 1990.01,724.075 Q1991.835,724.075 1992.985,723.225 Q1993.735,722.7 1993.735,721.95 Q1993.735,721.45 1993.385,721 Q1993.035,720.55 1992.21,720.275 Q1991.685,720.075 1989.835,719.725 Q1987.61,719.3 1986.46,718.725 Q1985.31,718.15 1984.6475,717.0875 Q1983.985,716.025 1983.985,714.775 Q1983.985,712.825 1985.6225,711.3625 Q1987.26,709.9 1989.885,709.9 Q1990.935,709.9 1991.8225,710.125 Q1992.71,710.35 1993.46,710.825 Q1993.985,710.325 1994.51,710.325 Q1995.11,710.325 1995.485,710.7375 Q1995.86,711.15 1995.86,712.125 L1995.86,714.175 Q1995.86,715.15 1995.485,715.5625 Q1995.11,715.975 1994.51,715.975 Q1994.01,715.975 1993.635,715.675 Q1993.335,715.45 1993.1975,714.775 Q1993.06,714.1 1992.835,713.8 Q1992.435,713.3 1991.6725,712.9625 Q1990.91,712.625 1989.885,712.625 Q1988.41,712.625 1987.56,713.3 Q1986.71,713.975 1986.71,714.725 Q1986.71,715.225 1987.06,715.7 Q1987.41,716.175 1988.085,716.45 Q1988.535,716.625 1990.6225,717.0375 Q1992.71,717.45 1993.835,717.9375 Q1994.96,718.425 1995.71,719.475 Q1996.46,720.525 1996.46,721.975 Q1996.46,724 1995.035,725.2 Q1993.135,726.8 1990.21,726.8 Q1989.085,726.8 1988.0225,726.525 Q1986.96,726.25 1985.935,725.7 Z " fill="#000000"/><text fill="#000000" font-family="Arial" font-size="22.4" lengthAdjust="spacing" textLength="100.8" x="2020.64" y="726.8984">Operation</text><line style="stroke:#181818;stroke-width:0.8000000000000002;" x1="1924.8" x2="2166.4" y1="744" y2="744"/><text fill="#000000" font-family="Arial" font-size="22.4" lengthAdjust="spacing" textLength="137.6" x="1932.8" y="771.7773">type: OpType</text><text fill="#000000" font-family="Arial" font-size="22.4" lengthAdjust="spacing" textLength="203.2" x="1932.8" y="797.5352">inputs: UAValueMap</text><text fill="#000000" font-family="Arial" font-size="22.4" lengthAdjust="spacing" textLength="225.6" x="1932.8" y="823.293">expOuts: UAValueMap</text><text fill="#000000" font-family="Arial" font-size="22.4" lengthAdjust="spacing" textLength="112" x="1932.8" y="849.0508">attach: any</text><text fill="#000000" font-family="Arial" font-size="22.4" lengthAdjust="spacing" textLength="139.2" x="1932.8" y="874.8086">timeoutMs: int</text><line style="stroke:#181818;stroke-width:0.8000000000000002;" x1="1924.8" x2="2166.4" y1="885.5891" y2="885.5891"/></g><!--class Plan--><g id="elem_Plan"><rect codeLine="67" fill="#F1F1F1" height="154.0734" id="Plan" rx="4" ry="4" style="stroke:#181818;stroke-width:0.8000000000000002;" width="257.6" x="1423.2" y="718.4"/><ellipse cx="1522.8" cy="744" fill="#F1F1F1" rx="17.6" ry="17.6" style="stroke:#181818;stroke-width:1.6000000000000003;"/><path d="M1519.775,751.3 Q1519.425,751.725 1519.2,751.85 Q1518.975,751.975 1518.675,751.975 Q1518.05,751.975 1517.6625,751.55 Q1517.275,751.125 1517.275,750.175 L1517.275,748.325 Q1517.275,747.35 1517.6625,746.9375 Q1518.05,746.525 1518.675,746.525 Q1519.15,746.525 1519.475,746.775 Q1519.8,747.025 1519.975,747.6125 Q1520.15,748.2 1520.325,748.425 Q1520.725,748.825 1521.7,749.25 Q1522.675,749.675 1523.85,749.675 Q1525.675,749.675 1526.825,748.825 Q1527.575,748.3 1527.575,747.55 Q1527.575,747.05 1527.225,746.6 Q1526.875,746.15 1526.05,745.875 Q1525.525,745.675 1523.675,745.325 Q1521.45,744.9 1520.3,744.325 Q1519.15,743.75 1518.4875,742.6875 Q1517.825,741.625 1517.825,740.375 Q1517.825,738.425 1519.4625,736.9625 Q1521.1,735.5 1523.725,735.5 Q1524.775,735.5 1525.6625,735.725 Q1526.55,735.95 1527.3,736.425 Q1527.825,735.925 1528.35,735.925 Q1528.95,735.925 1529.325,736.3375 Q1529.7,736.75 1529.7,737.725 L1529.7,739.775 Q1529.7,740.75 1529.325,741.1625 Q1528.95,741.575 1528.35,741.575 Q1527.85,741.575 1527.475,741.275 Q1527.175,741.05 1527.0375,740.375 Q1526.9,739.7 1526.675,739.4 Q1526.275,738.9 1525.5125,738.5625 Q1524.75,738.225 1523.725,738.225 Q1522.25,738.225 1521.4,738.9 Q1520.55,739.575 1520.55,740.325 Q1520.55,740.825 1520.9,741.3 Q1521.25,741.775 1521.925,742.05 Q1522.375,742.225 1524.4625,742.6375 Q1526.55,743.05 1527.675,743.5375 Q1528.8,744.025 1529.55,745.075 Q1530.3,746.125 1530.3,747.575 Q1530.3,749.6 1528.875,750.8 Q1526.975,752.4 1524.05,752.4 Q1522.925,752.4 1521.8625,752.125 Q1520.8,751.85 1519.775,751.3 Z " fill="#000000"/><text fill="#000000" font-family="Arial" font-size="22.4" lengthAdjust="spacing" textLength="44.8" x="1555.6" y="752.4984">Plan</text><line style="stroke:#181818;stroke-width:0.8000000000000002;" x1="1424.8" x2="1679.2" y1="769.6" y2="769.6"/><text fill="#000000" font-family="Arial" font-size="22.4" lengthAdjust="spacing" textLength="193.6" x="1432.8" y="797.3773">correlationId: string</text><text fill="#000000" font-family="Arial" font-size="22.4" lengthAdjust="spacing" textLength="176" x="1432.8" y="823.1352">resourceId: string</text><text fill="#000000" font-family="Arial" font-size="22.4" lengthAdjust="spacing" textLength="238.4" x="1432.8" y="848.893">ops: vector&lt;Operation&gt;</text><line style="stroke:#181818;stroke-width:0.8000000000000002;" x1="1424.8" x2="1679.2" y1="859.6734" y2="859.6734"/></g><!--class CommandForceFactory--><g id="elem_CommandForceFactory"><rect codeLine="75" fill="#F1F1F1" height="102.5578" id="CommandForceFactory" rx="4" ry="4" style="stroke:#181818;stroke-width:0.8000000000000002;" width="289.6" x="1407.2" y="880"/><ellipse cx="1431.2" cy="905.6" fill="#ADD1B2" rx="17.6" ry="17.6" style="stroke:#181818;stroke-width:1.6000000000000003;"/><path d="M1435.625,899 Q1435.875,898.65 1436.175,898.475 Q1436.475,898.3 1436.825,898.3 Q1437.425,898.3 1437.8,898.7125 Q1438.175,899.125 1438.175,900.1 L1438.175,902.425 Q1438.175,903.4 1437.8,903.825 Q1437.425,904.25 1436.825,904.25 Q1436.275,904.25 1435.95,903.925 Q1435.625,903.625 1435.45,902.8 Q1435.375,902.225 1435.075,901.925 Q1434.55,901.325 1433.575,900.975 Q1432.6,900.625 1431.6,900.625 Q1430.375,900.625 1429.3625,901.15 Q1428.35,901.675 1427.5625,902.875 Q1426.775,904.075 1426.775,905.725 L1426.775,907.475 Q1426.775,909.45 1428.2,910.7625 Q1429.625,912.075 1432.175,912.075 Q1433.675,912.075 1434.725,911.675 Q1435.35,911.425 1436.025,910.725 Q1436.45,910.3 1436.6875,910.175 Q1436.925,910.05 1437.25,910.05 Q1437.775,910.05 1438.1875,910.4625 Q1438.6,910.875 1438.6,911.425 Q1438.6,911.975 1438.05,912.625 Q1437.25,913.55 1435.975,914.075 Q1434.25,914.8 1432.175,914.8 Q1429.75,914.8 1427.825,913.8 Q1426.25,913 1425.15,911.2875 Q1424.05,909.575 1424.05,907.525 L1424.05,905.675 Q1424.05,903.55 1425.0375,901.7125 Q1426.025,899.875 1427.775,898.8875 Q1429.525,897.9 1431.5,897.9 Q1432.675,897.9 1433.7125,898.1625 Q1434.75,898.425 1435.625,899 Z " fill="#000000"/><text fill="#000000" font-family="Arial" font-size="22.4" lengthAdjust="spacing" textLength="238.4" x="1453.6" y="914.0984">CommandForceFactory</text><line style="stroke:#181818;stroke-width:0.8000000000000002;" x1="1408.8" x2="1695.2" y1="931.2" y2="931.2"/><text fill="#000000" font-family="Arial" font-size="22.4" lengthAdjust="spacing" textLength="19.2" x="1416.8" y="958.9773">...</text><line style="stroke:#181818;stroke-width:0.8000000000000002;" x1="1408.8" x2="1695.2" y1="969.7578" y2="969.7578"/></g><!--class Timeline--><g id="elem_Timeline"><rect codeLine="80" fill="#F1F1F1" height="257.1047" id="Timeline" rx="4" ry="4" style="stroke:#181818;stroke-width:0.8000000000000002;" width="521.6" x="1291.2" y="991.2"/><ellipse cx="1502.8" cy="1016.8" fill="#F1F1F1" rx="17.6" ry="17.6" style="stroke:#181818;stroke-width:1.6000000000000003;"/><path d="M1499.775,1024.1 Q1499.425,1024.525 1499.2,1024.65 Q1498.975,1024.775 1498.675,1024.775 Q1498.05,1024.775 1497.6625,1024.35 Q1497.275,1023.925 1497.275,1022.975 L1497.275,1021.125 Q1497.275,1020.15 1497.6625,1019.7375 Q1498.05,1019.325 1498.675,1019.325 Q1499.15,1019.325 1499.475,1019.575 Q1499.8,1019.825 1499.975,1020.4125 Q1500.15,1021 1500.325,1021.225 Q1500.725,1021.625 1501.7,1022.05 Q1502.675,1022.475 1503.85,1022.475 Q1505.675,1022.475 1506.825,1021.625 Q1507.575,1021.1 1507.575,1020.35 Q1507.575,1019.85 1507.225,1019.4 Q1506.875,1018.95 1506.05,1018.675 Q1505.525,1018.475 1503.675,1018.125 Q1501.45,1017.7 1500.3,1017.125 Q1499.15,1016.55 1498.4875,1015.4875 Q1497.825,1014.425 1497.825,1013.175 Q1497.825,1011.225 1499.4625,1009.7625 Q1501.1,1008.3 1503.725,1008.3 Q1504.775,1008.3 1505.6625,1008.525 Q1506.55,1008.75 1507.3,1009.225 Q1507.825,1008.725 1508.35,1008.725 Q1508.95,1008.725 1509.325,1009.1375 Q1509.7,1009.55 1509.7,1010.525 L1509.7,1012.575 Q1509.7,1013.55 1509.325,1013.9625 Q1508.95,1014.375 1508.35,1014.375 Q1507.85,1014.375 1507.475,1014.075 Q1507.175,1013.85 1507.0375,1013.175 Q1506.9,1012.5 1506.675,1012.2 Q1506.275,1011.7 1505.5125,1011.3625 Q1504.75,1011.025 1503.725,1011.025 Q1502.25,1011.025 1501.4,1011.7 Q1500.55,1012.375 1500.55,1013.125 Q1500.55,1013.625 1500.9,1014.1 Q1501.25,1014.575 1501.925,1014.85 Q1502.375,1015.025 1504.4625,1015.4375 Q1506.55,1015.85 1507.675,1016.3375 Q1508.8,1016.825 1509.55,1017.875 Q1510.3,1018.925 1510.3,1020.375 Q1510.3,1022.4 1508.875,1023.6 Q1506.975,1025.2 1504.05,1025.2 Q1502.925,1025.2 1501.8625,1024.925 Q1500.8,1024.65 1499.775,1024.1 Z " fill="#000000"/><text fill="#000000" font-family="Arial" font-size="22.4" lengthAdjust="spacing" textLength="84.8" x="1535.6" y="1025.2984">Timeline</text><line style="stroke:#181818;stroke-width:0.8000000000000002;" x1="1292.8" x2="1811.2" y1="1042.4" y2="1042.4"/><text fill="#000000" font-family="Arial" font-size="22.4" lengthAdjust="spacing" textLength="204.8" x="1300.8" y="1070.1773">t0: Clock::time_point</text><text fill="#000000" font-family="Arial" font-size="22.4" lengthAdjust="spacing" textLength="246.4" x="1300.8" y="1095.9352">lastTs: Clock::time_point</text><text fill="#000000" font-family="Arial" font-size="22.4" lengthAdjust="spacing" textLength="136" x="1300.8" y="1121.693">hasLast: bool</text><text fill="#000000" font-family="Arial" font-size="22.4" lengthAdjust="spacing" textLength="219.2" x="1300.8" y="1147.4508">lastEventName: string</text><text fill="#000000" font-family="Arial" font-size="22.4" lengthAdjust="spacing" textLength="502.4" x="1300.8" y="1173.2086">marks: unordered_map&lt;string, Clock::time_point&gt;</text><text fill="#000000" font-family="Arial" font-size="22.4" lengthAdjust="spacing" textLength="270.4" x="1300.8" y="1198.9664">csvRows: vector&lt;CsvRow&gt;</text><text fill="#000000" font-family="Arial" font-size="22.4" lengthAdjust="spacing" textLength="176" x="1300.8" y="1224.7242">sumMs: long long</text><line style="stroke:#181818;stroke-width:0.8000000000000002;" x1="1292.8" x2="1811.2" y1="1235.5047" y2="1235.5047"/></g><!--class TimeBlogger--><g id="elem_TimeBlogger"><rect codeLine="90" fill="#F1F1F1" height="681.8656" id="TimeBlogger" rx="4" ry="4" style="stroke:#181818;stroke-width:0.8000000000000002;" width="905.6" x="11.2" y="334.4"/><ellipse cx="335.6" cy="366.318" fill="#ADD1B2" rx="17.6" ry="17.6" style="stroke:#181818;stroke-width:1.6000000000000003;"/><path d="M340.025,359.718 Q340.275,359.368 340.575,359.193 Q340.875,359.018 341.225,359.018 Q341.825,359.018 342.2,359.4305 Q342.575,359.843 342.575,360.818 L342.575,363.143 Q342.575,364.118 342.2,364.543 Q341.825,364.968 341.225,364.968 Q340.675,364.968 340.35,364.643 Q340.025,364.343 339.85,363.518 Q339.775,362.943 339.475,362.643 Q338.95,362.043 337.975,361.693 Q337,361.343 336,361.343 Q334.775,361.343 333.7625,361.868 Q332.75,362.393 331.9625,363.593 Q331.175,364.793 331.175,366.443 L331.175,368.193 Q331.175,370.168 332.6,371.4805 Q334.025,372.793 336.575,372.793 Q338.075,372.793 339.125,372.393 Q339.75,372.143 340.425,371.443 Q340.85,371.018 341.0875,370.893 Q341.325,370.768 341.65,370.768 Q342.175,370.768 342.5875,371.1805 Q343,371.593 343,372.143 Q343,372.693 342.45,373.343 Q341.65,374.268 340.375,374.793 Q338.65,375.518 336.575,375.518 Q334.15,375.518 332.225,374.518 Q330.65,373.718 329.55,372.0055 Q328.45,370.293 328.45,368.243 L328.45,366.393 Q328.45,364.268 329.4375,362.4305 Q330.425,360.593 332.175,359.6055 Q333.925,358.618 335.9,358.618 Q337.075,358.618 338.1125,358.8805 Q339.15,359.143 340.025,359.718 Z " fill="#000000"/><text fill="#000000" font-family="Arial" font-size="19.2" font-style="italic" lengthAdjust="spacing" textLength="249.6" x="365.2" y="360.7234">&#171;enable_shared_from_this&#187;</text><text fill="#000000" font-family="Arial" font-size="22.4" lengthAdjust="spacing" textLength="128" x="426" y="385.8555">TimeBlogger</text><line style="stroke:#181818;stroke-width:0.8000000000000002;" x1="12.8" x2="915.2" y1="398.2359" y2="398.2359"/><text fill="#000000" font-family="Arial" font-size="22.4" lengthAdjust="spacing" textLength="412.8" x="20.8" y="426.0133">+using Clock = std::chrono::steady_clock</text><text fill="#000000" font-family="Arial" font-size="22.4" lengthAdjust="spacing" textLength="372.8" x="20.8" y="451.7711">+using TimePoint = Clock::time_point</text><text fill="#000000" font-family="Arial" font-size="22.4" lengthAdjust="spacing" textLength="462.4" x="20.8" y="477.5289">+using DurationMs = std::chrono::milliseconds</text><text fill="#000000" font-family="Arial" font-size="22.4" lengthAdjust="spacing" textLength="6.4" x="20.8" y="503.2867">&#160;</text><text fill="#000000" font-family="Arial" font-size="22.4" lengthAdjust="spacing" textLength="316.8" x="20.8" y="529.0445">+TimeBlogger(bus: EventBus&amp;)</text><text fill="#000000" font-family="Arial" font-size="22.4" lengthAdjust="spacing" textLength="204.8" x="20.8" y="554.8023">+subscribeAll(): void</text><text fill="#000000" font-family="Arial" font-size="22.4" lengthAdjust="spacing" textLength="260.8" x="20.8" y="580.5602">+onEvent(ev: Event): void</text><text fill="#000000" font-family="Arial" font-size="22.4" lengthAdjust="spacing" textLength="6.4" x="20.8" y="606.318">&#160;</text><text fill="#000000" font-family="Arial" font-size="22.4" lengthAdjust="spacing" textLength="388.8" x="20.8" y="632.0758">+mark(corrId: string, label: string): void</text><text fill="#000000" font-family="Arial" font-size="22.4" lengthAdjust="spacing" textLength="787.2" x="20.8" y="657.8336">+delta(corrId: string, fromLabel: string, toLabel: string, out: DurationMs&amp;): bool</text><text fill="#000000" font-family="Arial" font-size="22.4" lengthAdjust="spacing" textLength="262.4" x="20.8" y="683.5914">+finish(corrId: string): void</text><text fill="#000000" font-family="Arial" font-size="22.4" lengthAdjust="spacing" textLength="6.4" x="20.8" y="709.3492">&#160;</text><text fill="#000000" font-family="Arial" font-size="22.4" lengthAdjust="spacing" textLength="886.4" x="20.8" y="767.2648">-printAndCollect_(corr: string, evName: string, durMs: long long, sumMs: long long): void</text><text fill="#000000" font-family="Arial" font-size="22.4" lengthAdjust="spacing" text-decoration="underline" textLength="329.6" x="20.8" y="793.0227">-extractCorrId_(ev: Event): string</text><text fill="#000000" font-family="Arial" font-size="22.4" lengthAdjust="spacing" text-decoration="underline" textLength="368" x="20.8" y="818.7805">-toName_(t: EventType): const char*</text><text fill="#000000" font-family="Arial" font-size="22.4" lengthAdjust="spacing" textLength="582.4" x="20.8" y="844.5383">-recordSegment_(tl: Timeline, from: string, to: string): void</text><text fill="#000000" font-family="Arial" font-size="22.4" lengthAdjust="spacing" textLength="672" x="20.8" y="870.2961">-handleEvent_(ev: Event, corrId: string, evName: const char*): void</text><text fill="#000000" font-family="Arial" font-size="22.4" lengthAdjust="spacing" textLength="6.4" x="20.8" y="896.0539">&#160;</text><line style="stroke:#181818;stroke-width:1.6000000000000003;stroke-dasharray:1.0,2.0;" x1="12.8" x2="426.4" y1="733.0086" y2="733.0086"/><text fill="#000000" font-family="Arial" font-size="22.4" lengthAdjust="spacing" textLength="75.2" x="426.4" y="740.707">helpers</text><line style="stroke:#181818;stroke-width:1.6000000000000003;stroke-dasharray:1.0,2.0;" x1="501.6" x2="915.2" y1="733.0086" y2="733.0086"/><text fill="#000000" font-family="Arial" font-size="22.4" lengthAdjust="spacing" textLength="180.8" x="20.8" y="953.9695">-bus_: EventBus&amp;</text><text fill="#000000" font-family="Arial" font-size="22.4" lengthAdjust="spacing" textLength="120" x="20.8" y="979.7273">-mx_: mutex</text><text fill="#000000" font-family="Arial" font-size="22.4" lengthAdjust="spacing" textLength="456" x="20.8" y="1005.4852">-tlByCorr_: unordered_map&lt;string, Timeline&gt;</text><line style="stroke:#181818;stroke-width:1.6000000000000003;stroke-dasharray:1.0,2.0;" x1="12.8" x2="439.2" y1="919.7133" y2="919.7133"/><text fill="#000000" font-family="Arial" font-size="22.4" lengthAdjust="spacing" textLength="49.6" x="439.2" y="927.4117">state</text><line style="stroke:#181818;stroke-width:1.6000000000000003;stroke-dasharray:1.0,2.0;" x1="488.8" x2="915.2" y1="919.7133" y2="919.7133"/></g><!--reverse link Plan to Operation--><g id="link_Plan_Operation"><path codeLine="72" d="M1700.368,795.2 C1775.008,795.2 1849.504,795.2 1922.976,795.2 " fill="none" id="Plan-backto-Operation" style="stroke:#181818;stroke-width:1.6000000000000003;"/><polygon fill="none" points="1681.168,795.2,1690.768,801.6,1700.368,795.2,1690.768,788.8,1681.168,795.2" style="stroke:#181818;stroke-width:1.6000000000000003;"/></g><!--link TimeBlogger to ReactiveObserver--><g id="link_TimeBlogger_ReactiveObserver"><path codeLine="118" d="M917.216,520.16 C921.36,519.024 925.488,517.904 929.6,516.8 C1087.84,474.24 1128.256,462.096 1291.2,444.8 C1516.72,420.864 1753.5502,423.3362 1901.3262,427.9762 " fill="none" id="TimeBlogger-to-ReactiveObserver" style="stroke:#181818;stroke-width:1.6000000000000003;"/><polygon fill="none" points="1930.112,428.88,1901.6275,418.3809,1901.0249,437.5714,1930.112,428.88" style="stroke:#181818;stroke-width:1.6000000000000003;"/></g><!--link EventBus to ReactiveObserver--><g id="link_EventBus_ReactiveObserver"><path codeLine="119" d="M1625.968,488.16 C1706.16,477.696 1836.544,460.672 1930.384,448.432 " fill="none" id="EventBus-ReactiveObserver" style="stroke:#181818;stroke-width:1.6000000000000003;"/></g><!--link TimeBlogger to EventBus--><g id="link_TimeBlogger_EventBus"><path codeLine="120" d="M917.008,601.296 C1130.512,566.336 1353.9023,529.7759 1468.6703,510.9759 " fill="none" id="TimeBlogger-to-EventBus" style="stroke:#181818;stroke-width:1.6000000000000003;"/><polygon fill="#181818" points="1478.144,509.424,1462.8988,505.436,1470.2492,510.7172,1464.968,518.0676,1478.144,509.424" style="stroke:#181818;stroke-width:1.6000000000000003;"/><text fill="#000000" font-family="Arial" font-size="20.8" lengthAdjust="spacing" textLength="44.8" x="1081.6" y="539.8504">bus_</text></g><!--reverse link TimeBlogger to Timeline--><g id="link_TimeBlogger_Timeline"><path codeLine="121" d="M934.8666,899.8651 C1051.8746,948.7131 1178.56,994.656 1290.64,1033.632 " fill="none" id="TimeBlogger-backto-Timeline" style="stroke:#181818;stroke-width:1.6000000000000003;"/><polygon fill="#181818" points="917.184,892.384,923.5316,902.0187,934.8666,899.8651,928.519,890.2304,917.184,892.384" style="stroke:#181818;stroke-width:1.6000000000000003;"/><text fill="#000000" font-family="Arial" font-size="20.8" lengthAdjust="spacing" textLength="86.4" x="1060.8" y="893.4504">tlByCorr_</text><text fill="#000000" font-family="Arial" font-size="20.8" lengthAdjust="spacing" textLength="308.8" x="969.4971" y="1051.2807">unordered_map&lt;corrId, Timeline&gt;</text></g><!--reverse link Timeline to CsvRow--><g id="link_Timeline_CsvRow"><path codeLine="122" d="M1832.352,1120 C1872.112,1120 1892.144,1120 1926.688,1120 " fill="none" id="Timeline-backto-CsvRow" style="stroke:#181818;stroke-width:1.6000000000000003;"/><polygon fill="#181818" points="1813.152,1120,1822.752,1126.4,1832.352,1120,1822.752,1113.6,1813.152,1120" style="stroke:#181818;stroke-width:1.6000000000000003;"/><text fill="#000000" font-family="Arial" font-size="20.8" lengthAdjust="spacing" textLength="81.6" x="1827.2" y="1115.8504">csvRows</text></g><!--reverse link TimeBlogger to WriteCsvParams--><g id="link_TimeBlogger_WriteCsvParams"><path codeLine="123" d="M936.1939,657.1531 C1122.0659,650.0331 1303.424,643.072 1427.936,638.288 " fill="none" id="TimeBlogger-backto-WriteCsvParams" style="stroke:#181818;stroke-width:1.6000000000000003;"/><polygon fill="#181818" points="917.008,657.888,926.8459,663.9158,936.1939,657.1531,926.356,651.1252,917.008,657.888" style="stroke:#181818;stroke-width:1.6000000000000003;"/><text fill="#000000" font-family="Arial" font-size="20.8" lengthAdjust="spacing" textLength="214.4" x="996.8" y="640.6504">finish() erzeugt Params</text></g><!--link TimeBlogger to Plan--><g id="link_TimeBlogger_Plan"><path codeLine="124" d="M917.008,725.136 C1100.256,745.408 1288.2343,766.1916 1413.0983,780.0156 " fill="none" id="TimeBlogger-to-Plan" style="stroke:#181818;stroke-width:1.6000000000000003;"/><polygon fill="#181818" points="1422.64,781.072,1409.0317,773.1263,1414.6886,780.1917,1407.6232,785.8486,1422.64,781.072" style="stroke:#181818;stroke-width:1.6000000000000003;"/><text fill="#000000" font-family="Arial" font-size="20.8" lengthAdjust="spacing" textLength="155.2" x="1026.4" y="725.4504">finish() baut Plan</text></g><!--reverse link EventBus to Event--><g id="link_EventBus_Event"><path codeLine="125" d="M1644.9642,511.0139 C1729.9402,523.4939 1852.32,541.456 1946.816,555.328 " fill="none" id="EventBus-backto-Event" style="stroke:#181818;stroke-width:1.6000000000000003;"/><polygon fill="none" points="1625.968,508.224,1634.5362,515.951,1644.9642,511.0139,1636.3961,503.2869,1625.968,508.224" style="stroke:#181818;stroke-width:1.6000000000000003;"/><text fill="#000000" font-family="Arial" font-size="20.8" lengthAdjust="spacing" textLength="19.2" x="1858.4" y="535.0504">ev</text></g><!--link TimeBlogger to CommandForceFactory--><g id="link_TimeBlogger_CommandForceFactory"><path codeLine="126" d="M916.816,788.944 C921.088,789.968 925.36,790.992 929.6,792 C1089.856,830.24 1130.432,837.6 1291.2,873.6 C1328.768,882.016 1360.0208,888.9726 1397.7328,897.3566 " fill="none" id="TimeBlogger-to-CommandForceFactory" style="stroke:#181818;stroke-width:1.6000000000000003;"/><polygon fill="#181818" points="1407.104,899.44,1394.4361,890.0675,1399.2947,897.7039,1391.6583,902.5624,1407.104,899.44" style="stroke:#181818;stroke-width:1.6000000000000003;"/><text fill="#000000" font-family="Arial" font-size="20.8" lengthAdjust="spacing" textLength="345.6" x="931.2" y="787.8504">createForOp(op, /*mon*/nullptr, bus_)</text></g><!--SRC=[VLRDRkCs4BxxAGPxsDXPvwSekWSXDP1arzj5DviWJbEW5uEInZPXYXH8oecppRFqqcVeQMzviSvGjaJPQNsmfPdXpCUF7sTy0BSeCY-DlX9QpD724OnDLZdC8LF2ESYbc5jHGDzejQOtYvcd1ujAU0hown8Tl8KbaXDBD-YvfTIbu2Lk8NBp8FKSPa8vZ3mXzRdtLgQLny-PqHFvX73QEu3no_SvGYvSgBNqC1Vw2KoA6b3gf7VGPibB2J-UdiAh7qerU_bkuURhfwEFZwMn7lfohesLI8yfIfZSVuhHvZWJbV9Ze_rNKI2SMobKfrmR4D3-yBvRRcvV_ddv2osHo37mCrLnZjxX2xfKs2LA7-TJKYFJ1wLHQtw9m6YJeyCIVjhTqw_QUDGYTLxeF5fWXLvs5r3m7oXL59m9HQYFtyF_VcZTK-LU_lPFIcOBXCbIAEAiqlFUmKBc25YKVWq55YbQrrCuy-0DM3bV-8q-I4wz0szAjgV6UrD43if_H1-uJecR5P6L2eV1r6EabkIu4UKAcvXlFO1lM_Spl3Fwumgrx-CgWV0qw3qtcOC1tDfv9DqMKij2A5X9V1ZKTIXDHLNgE4xzZizXa-cE7eF9yNSfrig8F06XrrG2TLMqOM4jhYQtDqfeZVaml7mm6eV1SMNqUUOZPsre0swioKWZOo5LRVYiv-YOfcXHO-DrXA6-bm74HUKOm_7nSRJzoyaz156ua_fsXjkShk5E5dYXp3nSyuY7IxUwDGzXCvcnzZFjbZnqRmEapLuZMrvP4Lg6Iq0PkjxyLTidLT6rFc-B_6wbHwfq4v25OgRoOn9ebDcQ1rgz8gKOUrR36f7vGVh5BoXoj0dfoQXeiymJdC1rYJKcwDVrtEQemu5Tb_LfGOy5NYEPt0_36tF7lmtGDXLZh8LH9w1NkcwL9uY_dTyBLU6LA9cZn_9wtogy5zcY5Wxb8UvflqoErBwb9U3VCiyzbGft3i2YCvNDi6CqPKjJWtT4MKCwmxThQssO6WiENyFCM2fM5DGI23bcLTXh8AjMrcNj71kgkbt42BigYyL4EqAhgSTtPCKHtDPg7ayJk5GcMoO9Kp4j3TC0G1NzdNlTjn3k2xatPrx71jbpVuxOAAYtKegAcZj91FDf8SgpsZlSJyo2oeAqNfEQsnVmXfPumsTdt5OLJcd4SS6PDSNKBwGRZUf-KZaUUw4spG7dyoJ95jPeaoJKbKI-dcRiQqCv-mt3e_3NkDY4VMYktcxQGYeb7T8epLsF5qHu-sdbagPZl1smsrMfosZ-uhbI_G4nOMJEzltEkl6Hyu24nzLvZf14AbJqSCMJJVDIFeT-juCCwT1ILDlNg4wEoekzQ2RoIxnYI3Danq3NA8c8U3je1F9kHhtUBNQoHXiuFbwWeflXmgK_AidjptL-QMWZcP-6XMqXNCL26t9_wsXZkAUMTd_VQEPwcJt34Jw6eNKPC4qxl3OARgEzuPhJle-c4KNIiJeF6Qdja87JB2MjJt1UK0W54plRsrPp6DEtJ_xHWkwtmb0WGZI4tUFOCX2Lxx39iB7caYGsZJJ6fkAHB0NzmNlaDwykrap2zBzkwdO7ewZBt6vQugQpT2VOdwEzFmgzPYo6nJlExl9HEqD9GGI_up-a16-wG6js8g1lsXwNGBE_NcFa79lXccnxpbwHdS6Om4R40q3xXDMSPaJmxA4FlJuAJqLLpvEM1DFy6qheBFSolDRf2QX5EbKoNfTzKmxXvB0m-l14LqgLtWu3LOD_0G00]--></g></svg>