<?xml version="1.0" encoding="us-ascii" standalone="no"?><svg xmlns="http://www.w3.org/2000/svg" xmlns:xlink="http://www.w3.org/1999/xlink" contentStyleType="text/css" height="406px" preserveAspectRatio="none" style="width:1364px;height:406px;background:#FFFFFF;" version="1.1" viewBox="0 0 1364 406" width="1364px" zoomAndPan="magnify"><defs/><g><!--class Event--><g id="elem_Event"><rect codeLine="20" fill="#F1F1F1" height="96.2959" id="Event" rx="2.5" ry="2.5" style="stroke:#181818;stroke-width:0.5;" width="123" x="212" y="135"/><ellipse cx="251.75" cy="151" fill="#F1F1F1" rx="11" ry="11" style="stroke:#181818;stroke-width:1.0;"/><path d="M249.8594,155.5625 Q249.6406,155.8281 249.5,155.9063 Q249.3594,155.9844 249.1719,155.9844 Q248.7813,155.9844 248.5391,155.7188 Q248.2969,155.4531 248.2969,154.8594 L248.2969,153.7031 Q248.2969,153.0938 248.5391,152.8359 Q248.7813,152.5781 249.1719,152.5781 Q249.4688,152.5781 249.6719,152.7344 Q249.875,152.8906 249.9844,153.2578 Q250.0938,153.625 250.2031,153.7656 Q250.4531,154.0156 251.0625,154.2813 Q251.6719,154.5469 252.4063,154.5469 Q253.5469,154.5469 254.2656,154.0156 Q254.7344,153.6875 254.7344,153.2188 Q254.7344,152.9063 254.5156,152.625 Q254.2969,152.3438 253.7813,152.1719 Q253.4531,152.0469 252.2969,151.8281 Q250.9063,151.5625 250.1875,151.2031 Q249.4688,150.8438 249.0547,150.1797 Q248.6406,149.5156 248.6406,148.7344 Q248.6406,147.5156 249.6641,146.6016 Q250.6875,145.6875 252.3281,145.6875 Q252.9844,145.6875 253.5391,145.8281 Q254.0938,145.9688 254.5625,146.2656 Q254.8906,145.9531 255.2188,145.9531 Q255.5938,145.9531 255.8281,146.2109 Q256.0625,146.4688 256.0625,147.0781 L256.0625,148.3594 Q256.0625,148.9688 255.8281,149.2266 Q255.5938,149.4844 255.2188,149.4844 Q254.9063,149.4844 254.6719,149.2969 Q254.4844,149.1563 254.3984,148.7344 Q254.3125,148.3125 254.1719,148.125 Q253.9219,147.8125 253.4453,147.6016 Q252.9688,147.3906 252.3281,147.3906 Q251.4063,147.3906 250.875,147.8125 Q250.3438,148.2344 250.3438,148.7031 Q250.3438,149.0156 250.5625,149.3125 Q250.7813,149.6094 251.2031,149.7813 Q251.4844,149.8906 252.7891,150.1484 Q254.0938,150.4063 254.7969,150.7109 Q255.5,151.0156 255.9688,151.6719 Q256.4375,152.3281 256.4375,153.2344 Q256.4375,154.5 255.5469,155.25 Q254.3594,156.25 252.5313,156.25 Q251.8281,156.25 251.1641,156.0781 Q250.5,155.9063 249.8594,155.5625 Z " fill="#000000"/><text fill="#000000" font-family="Arial" font-size="14" lengthAdjust="spacing" textLength="36" x="271.25" y="156.3115">Event</text><line style="stroke:#181818;stroke-width:0.5;" x1="213" x2="334" y1="167" y2="167"/><text fill="#000000" font-family="Arial" font-size="14" lengthAdjust="spacing" textLength="111" x="218" y="184.3608">+type: EventType</text><text fill="#000000" font-family="Arial" font-size="14" lengthAdjust="spacing" textLength="19" x="218" y="200.4595">+ts</text><text fill="#000000" font-family="Arial" font-size="14" lengthAdjust="spacing" textLength="89" x="218" y="216.5581">+payload: any</text><line style="stroke:#181818;stroke-width:0.5;" x1="213" x2="334" y1="223.2959" y2="223.2959"/></g><!--class EventBus--><g id="elem_EventBus"><rect codeLine="25" fill="#F1F1F1" height="64.0986" id="EventBus" rx="2.5" ry="2.5" style="stroke:#181818;stroke-width:0.5;" width="92" x="91.5" y="151"/><ellipse cx="106.5" cy="167" fill="#ADD1B2" rx="11" ry="11" style="stroke:#181818;stroke-width:1.0;"/><path d="M109.2656,162.875 Q109.4219,162.6563 109.6094,162.5469 Q109.7969,162.4375 110.0156,162.4375 Q110.3906,162.4375 110.625,162.6953 Q110.8594,162.9531 110.8594,163.5625 L110.8594,165.0156 Q110.8594,165.625 110.625,165.8906 Q110.3906,166.1563 110.0156,166.1563 Q109.6719,166.1563 109.4688,165.9531 Q109.2656,165.7656 109.1563,165.25 Q109.1094,164.8906 108.9219,164.7031 Q108.5938,164.3281 107.9844,164.1094 Q107.375,163.8906 106.75,163.8906 Q105.9844,163.8906 105.3516,164.2188 Q104.7188,164.5469 104.2266,165.2969 Q103.7344,166.0469 103.7344,167.0781 L103.7344,168.1719 Q103.7344,169.4063 104.625,170.2266 Q105.5156,171.0469 107.1094,171.0469 Q108.0469,171.0469 108.7031,170.7969 Q109.0938,170.6406 109.5156,170.2031 Q109.7813,169.9375 109.9297,169.8594 Q110.0781,169.7813 110.2813,169.7813 Q110.6094,169.7813 110.8672,170.0391 Q111.125,170.2969 111.125,170.6406 Q111.125,170.9844 110.7813,171.3906 Q110.2813,171.9688 109.4844,172.2969 Q108.4063,172.75 107.1094,172.75 Q105.5938,172.75 104.3906,172.125 Q103.4063,171.625 102.7188,170.5547 Q102.0313,169.4844 102.0313,168.2031 L102.0313,167.0469 Q102.0313,165.7188 102.6484,164.5703 Q103.2656,163.4219 104.3594,162.8047 Q105.4531,162.1875 106.6875,162.1875 Q107.4219,162.1875 108.0703,162.3516 Q108.7188,162.5156 109.2656,162.875 Z " fill="#000000"/><text fill="#000000" font-family="Arial" font-size="14" lengthAdjust="spacing" textLength="60" x="120.5" y="172.3115">EventBus</text><line style="stroke:#181818;stroke-width:0.5;" x1="92.5" x2="182.5" y1="183" y2="183"/><text fill="#000000" font-family="Arial" font-size="14" lengthAdjust="spacing" textLength="12" x="97.5" y="200.3608">...</text><line style="stroke:#181818;stroke-width:0.5;" x1="92.5" x2="182.5" y1="207.0986" y2="207.0986"/></g><!--class ICommandForce--><g id="elem_ICommandForce"><rect codeLine="30" fill="#F1F1F1" height="64.0986" id="ICommandForce" rx="2.5" ry="2.5" style="stroke:#181818;stroke-width:0.5;" width="146" x="350.5" y="151"/><ellipse cx="369.55" cy="167" fill="#B4A7E5" rx="11" ry="11" style="stroke:#181818;stroke-width:1.0;"/><path d="M370.5031,163.6406 L370.5031,170.2969 L372.2219,170.2969 Q372.8313,170.2969 373.0969,170.5313 Q373.3625,170.7656 373.3625,171.1563 Q373.3625,171.5313 373.0969,171.7656 Q372.8313,172 372.2219,172 L367.0813,172 Q366.4719,172 366.2063,171.7656 Q365.9406,171.5313 365.9406,171.1406 Q365.9406,170.7656 366.2063,170.5313 Q366.4719,170.2969 367.0813,170.2969 L368.8,170.2969 L368.8,163.6406 L367.0813,163.6406 Q366.4719,163.6406 366.2063,163.4063 Q365.9406,163.1719 365.9406,162.7813 Q365.9406,162.4063 366.2063,162.1719 Q366.4719,161.9375 367.0813,161.9375 L372.2219,161.9375 Q372.8313,161.9375 373.0969,162.1719 Q373.3625,162.4063 373.3625,162.7813 Q373.3625,163.1719 373.0969,163.4063 Q372.8313,163.6406 372.2219,163.6406 L370.5031,163.6406 Z " fill="#000000"/><text fill="#000000" font-family="Arial" font-size="14" font-style="italic" lengthAdjust="spacing" textLength="105" x="384.45" y="172.3115">ICommandForce</text><line style="stroke:#181818;stroke-width:0.5;" x1="351.5" x2="495.5" y1="183" y2="183"/><line style="stroke:#181818;stroke-width:0.5;" x1="351.5" x2="495.5" y1="191" y2="191"/><text fill="#000000" font-family="Arial" font-size="14" lengthAdjust="spacing" textLength="134" x="356.5" y="208.3608">+execute(p: Plan): int</text></g><!--class CommandForceFactory--><g id="elem_CommandForceFactory"><rect codeLine="33" fill="#F1F1F1" height="96.2959" id="CommandForceFactory" rx="2.5" ry="2.5" style="stroke:#181818;stroke-width:0.5;" width="1041" x="7" y="7"/><ellipse cx="448.75" cy="23" fill="#ADD1B2" rx="11" ry="11" style="stroke:#181818;stroke-width:1.0;"/><path d="M451.5156,18.875 Q451.6719,18.6563 451.8594,18.5469 Q452.0469,18.4375 452.2656,18.4375 Q452.6406,18.4375 452.875,18.6953 Q453.1094,18.9531 453.1094,19.5625 L453.1094,21.0156 Q453.1094,21.625 452.875,21.8906 Q452.6406,22.1563 452.2656,22.1563 Q451.9219,22.1563 451.7188,21.9531 Q451.5156,21.7656 451.4063,21.25 Q451.3594,20.8906 451.1719,20.7031 Q450.8438,20.3281 450.2344,20.1094 Q449.625,19.8906 449,19.8906 Q448.2344,19.8906 447.6016,20.2188 Q446.9688,20.5469 446.4766,21.2969 Q445.9844,22.0469 445.9844,23.0781 L445.9844,24.1719 Q445.9844,25.4063 446.875,26.2266 Q447.7656,27.0469 449.3594,27.0469 Q450.2969,27.0469 450.9531,26.7969 Q451.3438,26.6406 451.7656,26.2031 Q452.0313,25.9375 452.1797,25.8594 Q452.3281,25.7813 452.5313,25.7813 Q452.8594,25.7813 453.1172,26.0391 Q453.375,26.2969 453.375,26.6406 Q453.375,26.9844 453.0313,27.3906 Q452.5313,27.9688 451.7344,28.2969 Q450.6563,28.75 449.3594,28.75 Q447.8438,28.75 446.6406,28.125 Q445.6563,27.625 444.9688,26.5547 Q444.2813,25.4844 444.2813,24.2031 L444.2813,23.0469 Q444.2813,21.7188 444.8984,20.5703 Q445.5156,19.4219 446.6094,18.8047 Q447.7031,18.1875 448.9375,18.1875 Q449.6719,18.1875 450.3203,18.3516 Q450.9688,18.5156 451.5156,18.875 Z " fill="#000000"/><text fill="#000000" font-family="Arial" font-size="14" lengthAdjust="spacing" textLength="149" x="469.25" y="28.3115">CommandForceFactory</text><line style="stroke:#181818;stroke-width:0.5;" x1="8" x2="1047" y1="39" y2="39"/><line style="stroke:#181818;stroke-width:0.5;" x1="8" x2="1047" y1="47" y2="47"/><text fill="#000000" font-family="Arial" font-size="14" lengthAdjust="spacing" textLength="787" x="13" y="64.3608">+createForOp(op: Operation, mon: PLCMonitor*, bus: EventBus&amp;, oq: IOrderQueue* = nullptr): unique_ptr&lt;ICommandForce&gt;</text><text fill="#000000" font-family="Arial" font-size="14" lengthAdjust="spacing" textLength="972" x="13" y="80.4595">+createWinnerFilter(mon: PLCMonitor&amp;, bus: EventBus&amp;, fetcher: function&lt;string(const string&amp;)&gt;, defaultTimeoutMs: unsigned): unique_ptr&lt;IWinnerFilter&gt;</text><text fill="#000000" font-family="Arial" font-size="14" lengthAdjust="spacing" textLength="1029" x="13" y="96.5581">+createSystemReactionFilter(mon: PLCMonitor&amp;, bus: EventBus&amp;, fetcher: function&lt;string(const string&amp;)&gt;, defaultTimeoutMs: unsigned): unique_ptr&lt;IWinnerFilter&gt;</text></g><!--class MonitoringActionForce--><g id="elem_MonitoringActionForce"><rect codeLine="39" fill="#F1F1F1" height="64.0986" id="MonitoringActionForce" rx="2.5" ry="2.5" style="stroke:#181818;stroke-width:0.5;" width="506" x="44.5" y="303"/><ellipse cx="222.25" cy="319" fill="#ADD1B2" rx="11" ry="11" style="stroke:#181818;stroke-width:1.0;"/><path d="M225.0156,314.875 Q225.1719,314.6563 225.3594,314.5469 Q225.5469,314.4375 225.7656,314.4375 Q226.1406,314.4375 226.375,314.6953 Q226.6094,314.9531 226.6094,315.5625 L226.6094,317.0156 Q226.6094,317.625 226.375,317.8906 Q226.1406,318.1563 225.7656,318.1563 Q225.4219,318.1563 225.2188,317.9531 Q225.0156,317.7656 224.9063,317.25 Q224.8594,316.8906 224.6719,316.7031 Q224.3438,316.3281 223.7344,316.1094 Q223.125,315.8906 222.5,315.8906 Q221.7344,315.8906 221.1016,316.2188 Q220.4688,316.5469 219.9766,317.2969 Q219.4844,318.0469 219.4844,319.0781 L219.4844,320.1719 Q219.4844,321.4063 220.375,322.2266 Q221.2656,323.0469 222.8594,323.0469 Q223.7969,323.0469 224.4531,322.7969 Q224.8438,322.6406 225.2656,322.2031 Q225.5313,321.9375 225.6797,321.8594 Q225.8281,321.7813 226.0313,321.7813 Q226.3594,321.7813 226.6172,322.0391 Q226.875,322.2969 226.875,322.6406 Q226.875,322.9844 226.5313,323.3906 Q226.0313,323.9688 225.2344,324.2969 Q224.1563,324.75 222.8594,324.75 Q221.3438,324.75 220.1406,324.125 Q219.1563,323.625 218.4688,322.5547 Q217.7813,321.4844 217.7813,320.2031 L217.7813,319.0469 Q217.7813,317.7188 218.3984,316.5703 Q219.0156,315.4219 220.1094,314.8047 Q221.2031,314.1875 222.4375,314.1875 Q223.1719,314.1875 223.8203,314.3516 Q224.4688,314.5156 225.0156,314.875 Z " fill="#000000"/><text fill="#000000" font-family="Arial" font-size="14" lengthAdjust="spacing" textLength="142" x="242.75" y="324.3115">MonitoringActionForce</text><line style="stroke:#181818;stroke-width:0.5;" x1="45.5" x2="549.5" y1="335" y2="335"/><line style="stroke:#181818;stroke-width:0.5;" x1="45.5" x2="549.5" y1="343" y2="343"/><text fill="#000000" font-family="Arial" font-size="14" lengthAdjust="spacing" textLength="494" x="50.5" y="360.3608">+filter(winners: vector&lt;string&gt;, corr:string, processName:string): vector&lt;string&gt;</text></g><!--class IWinnerFilter--><g id="elem_IWinnerFilter"><rect codeLine="47" fill="#F1F1F1" height="64.0986" id="IWinnerFilter" rx="2.5" ry="2.5" style="stroke:#181818;stroke-width:0.5;" width="613" x="512" y="151"/><ellipse cx="773.25" cy="167" fill="#B4A7E5" rx="11" ry="11" style="stroke:#181818;stroke-width:1.0;"/><path d="M774.2031,163.6406 L774.2031,170.2969 L775.9219,170.2969 Q776.5313,170.2969 776.7969,170.5313 Q777.0625,170.7656 777.0625,171.1563 Q777.0625,171.5313 776.7969,171.7656 Q776.5313,172 775.9219,172 L770.7813,172 Q770.1719,172 769.9063,171.7656 Q769.6406,171.5313 769.6406,171.1406 Q769.6406,170.7656 769.9063,170.5313 Q770.1719,170.2969 770.7813,170.2969 L772.5,170.2969 L772.5,163.6406 L770.7813,163.6406 Q770.1719,163.6406 769.9063,163.4063 Q769.6406,163.1719 769.6406,162.7813 Q769.6406,162.4063 769.9063,162.1719 Q770.1719,161.9375 770.7813,161.9375 L775.9219,161.9375 Q776.5313,161.9375 776.7969,162.1719 Q777.0625,162.4063 777.0625,162.7813 Q777.0625,163.1719 776.7969,163.4063 Q776.5313,163.6406 775.9219,163.6406 L774.2031,163.6406 Z " fill="#000000"/><text fill="#000000" font-family="Arial" font-size="14" font-style="italic" lengthAdjust="spacing" textLength="82" x="793.75" y="172.3115">IWinnerFilter</text><line style="stroke:#181818;stroke-width:0.5;" x1="513" x2="1124" y1="183" y2="183"/><line style="stroke:#181818;stroke-width:0.5;" x1="513" x2="1124" y1="191" y2="191"/><text fill="#000000" font-family="Arial" font-size="14" font-style="italic" lengthAdjust="spacing" textLength="601" x="518" y="208.3608">+filter(winners: vector&lt;string&gt;, correlationId: string, processNameForAck: string): vector&lt;string&gt;</text></g><!--class SystemReactionForce--><g id="elem_SystemReactionForce"><rect codeLine="42" fill="#F1F1F1" height="64.0986" id="SystemReactionForce" rx="2.5" ry="2.5" style="stroke:#181818;stroke-width:0.5;" width="506" x="565.5" y="303"/><ellipse cx="744.75" cy="319" fill="#ADD1B2" rx="11" ry="11" style="stroke:#181818;stroke-width:1.0;"/><path d="M747.5156,314.875 Q747.6719,314.6563 747.8594,314.5469 Q748.0469,314.4375 748.2656,314.4375 Q748.6406,314.4375 748.875,314.6953 Q749.1094,314.9531 749.1094,315.5625 L749.1094,317.0156 Q749.1094,317.625 748.875,317.8906 Q748.6406,318.1563 748.2656,318.1563 Q747.9219,318.1563 747.7188,317.9531 Q747.5156,317.7656 747.4063,317.25 Q747.3594,316.8906 747.1719,316.7031 Q746.8438,316.3281 746.2344,316.1094 Q745.625,315.8906 745,315.8906 Q744.2344,315.8906 743.6016,316.2188 Q742.9688,316.5469 742.4766,317.2969 Q741.9844,318.0469 741.9844,319.0781 L741.9844,320.1719 Q741.9844,321.4063 742.875,322.2266 Q743.7656,323.0469 745.3594,323.0469 Q746.2969,323.0469 746.9531,322.7969 Q747.3438,322.6406 747.7656,322.2031 Q748.0313,321.9375 748.1797,321.8594 Q748.3281,321.7813 748.5313,321.7813 Q748.8594,321.7813 749.1172,322.0391 Q749.375,322.2969 749.375,322.6406 Q749.375,322.9844 749.0313,323.3906 Q748.5313,323.9688 747.7344,324.2969 Q746.6563,324.75 745.3594,324.75 Q743.8438,324.75 742.6406,324.125 Q741.6563,323.625 740.9688,322.5547 Q740.2813,321.4844 740.2813,320.2031 L740.2813,319.0469 Q740.2813,317.7188 740.8984,316.5703 Q741.5156,315.4219 742.6094,314.8047 Q743.7031,314.1875 744.9375,314.1875 Q745.6719,314.1875 746.3203,314.3516 Q746.9688,314.5156 747.5156,314.875 Z " fill="#000000"/><text fill="#000000" font-family="Arial" font-size="14" lengthAdjust="spacing" textLength="139" x="765.25" y="324.3115">SystemReactionForce</text><line style="stroke:#181818;stroke-width:0.5;" x1="566.5" x2="1070.5" y1="335" y2="335"/><line style="stroke:#181818;stroke-width:0.5;" x1="566.5" x2="1070.5" y1="343" y2="343"/><text fill="#000000" font-family="Arial" font-size="14" lengthAdjust="spacing" textLength="494" x="571.5" y="360.3608">+filter(winners: vector&lt;string&gt;, corr:string, processName:string): vector&lt;string&gt;</text></g><!--class Plan--><g id="elem_Plan"><rect codeLine="53" fill="#F1F1F1" height="96.2959" id="Plan" rx="2.5" ry="2.5" style="stroke:#181818;stroke-width:0.5;" width="169" x="1166" y="135"/><ellipse cx="1232.25" cy="151" fill="#F1F1F1" rx="11" ry="11" style="stroke:#181818;stroke-width:1.0;"/><path d="M1230.3594,155.5625 Q1230.1406,155.8281 1230,155.9063 Q1229.8594,155.9844 1229.6719,155.9844 Q1229.2813,155.9844 1229.0391,155.7188 Q1228.7969,155.4531 1228.7969,154.8594 L1228.7969,153.7031 Q1228.7969,153.0938 1229.0391,152.8359 Q1229.2813,152.5781 1229.6719,152.5781 Q1229.9688,152.5781 1230.1719,152.7344 Q1230.375,152.8906 1230.4844,153.2578 Q1230.5938,153.625 1230.7031,153.7656 Q1230.9531,154.0156 1231.5625,154.2813 Q1232.1719,154.5469 1232.9063,154.5469 Q1234.0469,154.5469 1234.7656,154.0156 Q1235.2344,153.6875 1235.2344,153.2188 Q1235.2344,152.9063 1235.0156,152.625 Q1234.7969,152.3438 1234.2813,152.1719 Q1233.9531,152.0469 1232.7969,151.8281 Q1231.4063,151.5625 1230.6875,151.2031 Q1229.9688,150.8438 1229.5547,150.1797 Q1229.1406,149.5156 1229.1406,148.7344 Q1229.1406,147.5156 1230.1641,146.6016 Q1231.1875,145.6875 1232.8281,145.6875 Q1233.4844,145.6875 1234.0391,145.8281 Q1234.5938,145.9688 1235.0625,146.2656 Q1235.3906,145.9531 1235.7188,145.9531 Q1236.0938,145.9531 1236.3281,146.2109 Q1236.5625,146.4688 1236.5625,147.0781 L1236.5625,148.3594 Q1236.5625,148.9688 1236.3281,149.2266 Q1236.0938,149.4844 1235.7188,149.4844 Q1235.4063,149.4844 1235.1719,149.2969 Q1234.9844,149.1563 1234.8984,148.7344 Q1234.8125,148.3125 1234.6719,148.125 Q1234.4219,147.8125 1233.9453,147.6016 Q1233.4688,147.3906 1232.8281,147.3906 Q1231.9063,147.3906 1231.375,147.8125 Q1230.8438,148.2344 1230.8438,148.7031 Q1230.8438,149.0156 1231.0625,149.3125 Q1231.2813,149.6094 1231.7031,149.7813 Q1231.9844,149.8906 1233.2891,150.1484 Q1234.5938,150.4063 1235.2969,150.7109 Q1236,151.0156 1236.4688,151.6719 Q1236.9375,152.3281 1236.9375,153.2344 Q1236.9375,154.5 1236.0469,155.25 Q1234.8594,156.25 1233.0313,156.25 Q1232.3281,156.25 1231.6641,156.0781 Q1231,155.9063 1230.3594,155.5625 Z " fill="#000000"/><text fill="#000000" font-family="Arial" font-size="14" lengthAdjust="spacing" textLength="28" x="1252.75" y="156.3115">Plan</text><line style="stroke:#181818;stroke-width:0.5;" x1="1167" x2="1334" y1="167" y2="167"/><text fill="#000000" font-family="Arial" font-size="14" lengthAdjust="spacing" textLength="129" x="1172" y="184.3608">+correlationId: string</text><text fill="#000000" font-family="Arial" font-size="14" lengthAdjust="spacing" textLength="118" x="1172" y="200.4595">+resourceId: string</text><text fill="#000000" font-family="Arial" font-size="14" lengthAdjust="spacing" textLength="157" x="1172" y="216.5581">+ops: vector&lt;Operation&gt;</text><line style="stroke:#181818;stroke-width:0.5;" x1="1167" x2="1334" y1="223.2959" y2="223.2959"/></g><!--class Operation--><g id="elem_Operation"><rect codeLine="59" fill="#F1F1F1" height="128.4932" id="Operation" rx="2.5" ry="2.5" style="stroke:#181818;stroke-width:0.5;" width="161" x="1196" y="271"/><ellipse cx="1240.75" cy="287" fill="#F1F1F1" rx="11" ry="11" style="stroke:#181818;stroke-width:1.0;"/><path d="M1238.8594,291.5625 Q1238.6406,291.8281 1238.5,291.9063 Q1238.3594,291.9844 1238.1719,291.9844 Q1237.7813,291.9844 1237.5391,291.7188 Q1237.2969,291.4531 1237.2969,290.8594 L1237.2969,289.7031 Q1237.2969,289.0938 1237.5391,288.8359 Q1237.7813,288.5781 1238.1719,288.5781 Q1238.4688,288.5781 1238.6719,288.7344 Q1238.875,288.8906 1238.9844,289.2578 Q1239.0938,289.625 1239.2031,289.7656 Q1239.4531,290.0156 1240.0625,290.2813 Q1240.6719,290.5469 1241.4063,290.5469 Q1242.5469,290.5469 1243.2656,290.0156 Q1243.7344,289.6875 1243.7344,289.2188 Q1243.7344,288.9063 1243.5156,288.625 Q1243.2969,288.3438 1242.7813,288.1719 Q1242.4531,288.0469 1241.2969,287.8281 Q1239.9063,287.5625 1239.1875,287.2031 Q1238.4688,286.8438 1238.0547,286.1797 Q1237.6406,285.5156 1237.6406,284.7344 Q1237.6406,283.5156 1238.6641,282.6016 Q1239.6875,281.6875 1241.3281,281.6875 Q1241.9844,281.6875 1242.5391,281.8281 Q1243.0938,281.9688 1243.5625,282.2656 Q1243.8906,281.9531 1244.2188,281.9531 Q1244.5938,281.9531 1244.8281,282.2109 Q1245.0625,282.4688 1245.0625,283.0781 L1245.0625,284.3594 Q1245.0625,284.9688 1244.8281,285.2266 Q1244.5938,285.4844 1244.2188,285.4844 Q1243.9063,285.4844 1243.6719,285.2969 Q1243.4844,285.1563 1243.3984,284.7344 Q1243.3125,284.3125 1243.1719,284.125 Q1242.9219,283.8125 1242.4453,283.6016 Q1241.9688,283.3906 1241.3281,283.3906 Q1240.4063,283.3906 1239.875,283.8125 Q1239.3438,284.2344 1239.3438,284.7031 Q1239.3438,285.0156 1239.5625,285.3125 Q1239.7813,285.6094 1240.2031,285.7813 Q1240.4844,285.8906 1241.7891,286.1484 Q1243.0938,286.4063 1243.7969,286.7109 Q1244.5,287.0156 1244.9688,287.6719 Q1245.4375,288.3281 1245.4375,289.2344 Q1245.4375,290.5 1244.5469,291.25 Q1243.3594,292.25 1241.5313,292.25 Q1240.8281,292.25 1240.1641,292.0781 Q1239.5,291.9063 1238.8594,291.5625 Z " fill="#000000"/><text fill="#000000" font-family="Arial" font-size="14" lengthAdjust="spacing" textLength="63" x="1261.25" y="292.3115">Operation</text><line style="stroke:#181818;stroke-width:0.5;" x1="1197" x2="1356" y1="303" y2="303"/><text fill="#000000" font-family="Arial" font-size="14" lengthAdjust="spacing" textLength="94" x="1202" y="320.3608">+type: OpType</text><text fill="#000000" font-family="Arial" font-size="14" lengthAdjust="spacing" textLength="135" x="1202" y="336.4595">+inputs: UAValueMap</text><text fill="#000000" font-family="Arial" font-size="14" lengthAdjust="spacing" textLength="149" x="1202" y="352.5581">+expOuts: UAValueMap</text><text fill="#000000" font-family="Arial" font-size="14" lengthAdjust="spacing" textLength="78" x="1202" y="368.6567">+attach: any</text><text fill="#000000" font-family="Arial" font-size="14" lengthAdjust="spacing" textLength="95" x="1202" y="384.7554">+timeoutMs: int</text><line style="stroke:#181818;stroke-width:0.5;" x1="1197" x2="1356" y1="391.4932" y2="391.4932"/></g><!--class OpType--><g id="elem_OpType"><rect codeLine="66" fill="#F1F1F1" height="112.3945" id="OpType" rx="2.5" ry="2.5" style="stroke:#181818;stroke-width:0.5;" width="93" x="1088" y="279"/><ellipse cx="1107.5" cy="295" fill="#EB937F" rx="11" ry="11" style="stroke:#181818;stroke-width:1.0;"/><path d="M1106.3594,295.7969 L1106.3594,298.2969 L1110.6875,298.2969 L1110.6875,297.375 Q1110.6875,296.7656 1110.9297,296.5 Q1111.1719,296.2344 1111.5469,296.2344 Q1111.9219,296.2344 1112.1563,296.5 Q1112.3906,296.7656 1112.3906,297.375 L1112.3906,300 L1104.3906,300 Q1103.7656,300 1103.5078,299.7656 Q1103.25,299.5313 1103.25,299.1406 Q1103.25,298.7656 1103.5156,298.5313 Q1103.7813,298.2969 1104.3906,298.2969 L1104.6563,298.2969 L1104.6563,291.6406 L1104.3906,291.6406 Q1103.7656,291.6406 1103.5078,291.4063 Q1103.25,291.1719 1103.25,290.7813 Q1103.25,290.4063 1103.5078,290.1719 Q1103.7656,289.9375 1104.3906,289.9375 L1112.0156,289.9375 L1112.0156,292.5313 Q1112.0156,293.1406 1111.7891,293.3984 Q1111.5625,293.6563 1111.1719,293.6563 Q1110.7969,293.6563 1110.5625,293.3984 Q1110.3281,293.1406 1110.3281,292.5313 L1110.3281,291.6406 L1106.3594,291.6406 L1106.3594,294.0938 L1107.8438,294.0938 Q1107.8438,293.4375 1107.9688,293.25 Q1108.2344,292.8438 1108.7031,292.8438 Q1109.0781,292.8438 1109.3125,293.1016 Q1109.5469,293.3594 1109.5469,293.9688 L1109.5469,295.9375 Q1109.5469,296.4844 1109.4219,296.6719 Q1109.1563,297.0625 1108.7031,297.0625 Q1108.2344,297.0625 1107.9688,296.6563 Q1107.8438,296.4688 1107.8438,295.7969 L1106.3594,295.7969 Z " fill="#000000"/><text fill="#000000" font-family="Arial" font-size="14" lengthAdjust="spacing" textLength="51" x="1122.5" y="300.3115">OpType</text><line style="stroke:#181818;stroke-width:0.5;" x1="1089" x2="1180" y1="311" y2="311"/><text fill="#000000" font-family="Arial" font-size="14" lengthAdjust="spacing" textLength="81" x="1094" y="328.3608">KGIngestion,</text><text fill="#000000" font-family="Arial" font-size="14" lengthAdjust="spacing" textLength="65" x="1094" y="344.4595">WriteCSV,</text><text fill="#000000" font-family="Arial" font-size="14" lengthAdjust="spacing" textLength="75" x="1094" y="360.5581">CallMethod,</text><text fill="#000000" font-family="Arial" font-size="14" lengthAdjust="spacing" textLength="12" x="1094" y="376.6567">...</text><line style="stroke:#181818;stroke-width:0.5;" x1="1089" x2="1180" y1="383.3945" y2="383.3945"/></g><!--class PLCMonitor--><g id="elem_PLCMonitor"><rect codeLine="73" fill="#F1F1F1" height="64.0986" id="PLCMonitor" rx="2.5" ry="2.5" style="stroke:#181818;stroke-width:0.5;" width="106" x="1089.5" y="23"/><ellipse cx="1104.5" cy="39" fill="#ADD1B2" rx="11" ry="11" style="stroke:#181818;stroke-width:1.0;"/><path d="M1107.2656,34.875 Q1107.4219,34.6563 1107.6094,34.5469 Q1107.7969,34.4375 1108.0156,34.4375 Q1108.3906,34.4375 1108.625,34.6953 Q1108.8594,34.9531 1108.8594,35.5625 L1108.8594,37.0156 Q1108.8594,37.625 1108.625,37.8906 Q1108.3906,38.1563 1108.0156,38.1563 Q1107.6719,38.1563 1107.4688,37.9531 Q1107.2656,37.7656 1107.1563,37.25 Q1107.1094,36.8906 1106.9219,36.7031 Q1106.5938,36.3281 1105.9844,36.1094 Q1105.375,35.8906 1104.75,35.8906 Q1103.9844,35.8906 1103.3516,36.2188 Q1102.7188,36.5469 1102.2266,37.2969 Q1101.7344,38.0469 1101.7344,39.0781 L1101.7344,40.1719 Q1101.7344,41.4063 1102.625,42.2266 Q1103.5156,43.0469 1105.1094,43.0469 Q1106.0469,43.0469 1106.7031,42.7969 Q1107.0938,42.6406 1107.5156,42.2031 Q1107.7813,41.9375 1107.9297,41.8594 Q1108.0781,41.7813 1108.2813,41.7813 Q1108.6094,41.7813 1108.8672,42.0391 Q1109.125,42.2969 1109.125,42.6406 Q1109.125,42.9844 1108.7813,43.3906 Q1108.2813,43.9688 1107.4844,44.2969 Q1106.4063,44.75 1105.1094,44.75 Q1103.5938,44.75 1102.3906,44.125 Q1101.4063,43.625 1100.7188,42.5547 Q1100.0313,41.4844 1100.0313,40.2031 L1100.0313,39.0469 Q1100.0313,37.7188 1100.6484,36.5703 Q1101.2656,35.4219 1102.3594,34.8047 Q1103.4531,34.1875 1104.6875,34.1875 Q1105.4219,34.1875 1106.0703,34.3516 Q1106.7188,34.5156 1107.2656,34.875 Z " fill="#000000"/><text fill="#000000" font-family="Arial" font-size="14" lengthAdjust="spacing" textLength="74" x="1118.5" y="44.3115">PLCMonitor</text><line style="stroke:#181818;stroke-width:0.5;" x1="1090.5" x2="1194.5" y1="55" y2="55"/><text fill="#000000" font-family="Arial" font-size="14" lengthAdjust="spacing" textLength="12" x="1095.5" y="72.3608">...</text><line style="stroke:#181818;stroke-width:0.5;" x1="1090.5" x2="1194.5" y1="79.0986" y2="79.0986"/></g><!--reverse link IWinnerFilter to MonitoringActionForce--><g id="link_IWinnerFilter_MonitoringActionForce"><path d="M693.2524,220.0592 C603.8324,245.7992 494.69,277.23 405.31,302.96 " fill="none" id="IWinnerFilter-backto-MonitoringActionForce" style="stroke:#181818;stroke-width:1.0;stroke-dasharray:7.0,7.0;"/><polygon fill="none" points="710.55,215.08,691.5926,214.2933,694.9121,225.8251,710.55,215.08" style="stroke:#181818;stroke-width:1.0;"/></g><!--reverse link IWinnerFilter to SystemReactionForce--><g id="link_IWinnerFilter_SystemReactionForce"><path d="M818.5,233.08 C818.5,258.82 818.5,277.23 818.5,302.96 " fill="none" id="IWinnerFilter-backto-SystemReactionForce" style="stroke:#181818;stroke-width:1.0;stroke-dasharray:7.0,7.0;"/><polygon fill="none" points="818.5,215.08,812.5,233.08,824.5,233.08,818.5,215.08" style="stroke:#181818;stroke-width:1.0;"/></g><!--link CommandForceFactory to ICommandForce--><g id="link_CommandForceFactory_ICommandForce"><path codeLine="78" d="M488.48,103.28 C475.34,119.2 464.8285,131.922 452.9885,146.272 " fill="none" id="CommandForceFactory-to-ICommandForce" style="stroke:#181818;stroke-width:1.0;"/><polygon fill="#181818" points="449.17,150.9,457.9832,146.5036,452.3521,147.0433,451.8124,141.4122,449.17,150.9" style="stroke:#181818;stroke-width:1.0;"/></g><!--link CommandForceFactory to IWinnerFilter--><g id="link_CommandForceFactory_IWinnerFilter"><path codeLine="79" d="M636.27,103.1 C673.08,119.03 713.24,136.42 746.47,150.81 " fill="none" id="CommandForceFactory-IWinnerFilter" style="stroke:#181818;stroke-width:1.0;"/></g><!--link CommandForceFactory to EventBus--><g id="link_CommandForceFactory_EventBus"><path codeLine="80" d="M290.72,103.06 C261.11,112.08 231.71,122.66 204.5,135 C195.05,139.28 190.5283,141.6009 181.7583,147.5009 " fill="none" id="CommandForceFactory-to-EventBus" style="stroke:#181818;stroke-width:1.0;"/><polygon fill="#181818" points="176.78,150.85,186.4802,149.1452,180.9286,148.0591,182.0147,142.5074,176.78,150.85" style="stroke:#181818;stroke-width:1.0;"/><text fill="#000000" font-family="Arial" font-size="13" lengthAdjust="spacing" textLength="21" x="265.5" y="124.4065">bus</text></g><!--reverse link EventBus to Event--><g id="link_EventBus_Event"><path codeLine="81" d="M195.54,183 C204.64,183 202.32,183 211.83,183 " fill="none" id="EventBus-backto-Event" style="stroke:#181818;stroke-width:1.0;"/><polygon fill="none" points="183.54,183,189.54,187,195.54,183,189.54,179,183.54,183" style="stroke:#181818;stroke-width:1.0;"/><text fill="#000000" font-family="Arial" font-size="13" lengthAdjust="spacing" textLength="12" x="191.75" y="177.4065">ev</text></g><!--reverse link Plan to Operation--><g id="link_Plan_Operation"><path codeLine="82" d="M1260.7011,242.8751 C1262.8811,255.5051 1263.25,257.54 1265.56,270.89 " fill="none" id="Plan-backto-Operation" style="stroke:#181818;stroke-width:1.0;"/><polygon fill="none" points="1258.66,231.05,1255.7388,237.6429,1260.7011,242.8751,1263.6223,236.2822,1258.66,231.05" style="stroke:#181818;stroke-width:1.0;"/><text fill="#000000" font-family="Arial" font-size="13" lengthAdjust="spacing" textLength="21" x="1263.5" y="252.4065">ops</text></g><!--link CommandForceFactory to PLCMonitor--><g id="link_CommandForceFactory_PLCMonitor"><path codeLine="83" d="M1048.09,55 C1063.38,55 1071.28,55 1083.44,55 " fill="none" id="CommandForceFactory-to-PLCMonitor" style="stroke:#181818;stroke-width:1.0;"/><polygon fill="#181818" points="1089.44,55,1080.44,51,1084.44,55,1080.44,59,1089.44,55" style="stroke:#181818;stroke-width:1.0;"/><text fill="#000000" font-family="Arial" font-size="13" lengthAdjust="spacing" textLength="25" x="1056.25" y="49.4065">mon</text></g><!--link CommandForceFactory to Plan--><g id="link_CommandForceFactory_Plan"><path codeLine="84" d="M982.87,103 C1033.71,111.93 1084.45,122.5 1132.5,135 C1143.49,137.86 1149.1851,139.4646 1160.2951,143.4046 " fill="none" id="CommandForceFactory-to-Plan" style="stroke:#181818;stroke-width:1.0;"/><polygon fill="#181818" points="1165.95,145.41,1158.8046,138.6319,1161.2376,143.7388,1156.1306,146.1718,1165.95,145.41" style="stroke:#181818;stroke-width:1.0;"/><text fill="#000000" font-family="Arial" font-size="13" lengthAdjust="spacing" textLength="7" x="1084.5" y="124.4065">p</text></g><!--SRC=[pLNDRXit4BxlKyp9aXBPTL0qXqLgG3KYGqWSkL7g0BqKrEveHOXBCkJGYHpaMNhfC-IKcruiizpLQYNBGMyj3yAId9dlu_nyyYkfhN2Y1ByKkVaeTG4BeJmclht9bF1-HEJaF11ECgDdyXxXFEd1UFEjGCY5XrmwN14KGj-3cQC6b3fDUhiekPNmy_av75qSQh7vvk3cpTNfoq_ME8A-BBHn4lbpZX9cjrU33gSS5o8e6XjDRqI9C79Ig3sudK5a- -pvFbpXDbytVwD31vKD_CeetlCUNgEV2xT2IHqyRNBqQE7PBqV9lzA6K8kv9w7pZfiJUlK3jpzHgfrRpsT2CTEpv_33nOxtmM_-eNibioN2R2KKvode8kajPOw0fQKrb5ZEqVcaft11G0QSB9OK2vMHD3eXOwlZkI4oPUUSuv_oWfTto8dnQqzOGh-KMfP23U9Tuic5Z1gJpmd0KrfRJEk3T_mPZtprQyLQ6P6d8FGw-PB4RghjVWi- -WASdPtnrHPuScdAaZCoDYv3-0d68YFZrZMor8Hk8VXYtooIm4-OSO_sRGetIkX12cpUWdRjjp6ZM-PG4FBvrFOD-qujEb7bOWYbqHphzUMrqP8TdWnX7dpQyZyPWlcGmcJgSdI_1mpuX5j91wKiEOOFMdu8-1TlNkpHlTZ1lfTQenjBnU_g7y2TF8HR877HNGgBe6EzNd0jU6pxF9UUonKt9uEBuNO4tiaIJQ1hNx7nF5MO7n3hCkWGcyNAlqKHOVu_1BbHwdes73ZSgAOO6q6MLc79T3piEJQjzdHHF-HZl6BCEwmweI79h3BZN5hlXc2ToLWNAerfpWQ77j3srq72_ZCsspbga7OJSpX03mXzhhJ8CVyl_uuPgZWc4vxk8nmv0wDijRrwGBLYkgLQJIjFUZju_7rJAQZVavjeLK_iCV3gmg4tWHE_VshixW4jHaM0J86qZAzlC7OKEh8sjLjDOsKFnC7-6DqA5V1Qs5ftxFJ8iI0IsR9MlYhMhj5hMK8ToYPsH7jrDT45-bfvUF_UISBBsMtSN0gbhfcioUEsbinjw-qcygYYlcrorQJpc12UdbuSAEeZPljjysYiLk7JIY6ITckQFvOKy2w91JKSiyrw2bohuq4lkgzCAsL-53p6JS4ctm40]--></g></svg>