<?xml version="1.0" encoding="us-ascii" standalone="no"?><svg xmlns="http://www.w3.org/2000/svg" xmlns:xlink="http://www.w3.org/1999/xlink" contentStyleType="text/css" height="612px" preserveAspectRatio="none" style="width:1281px;height:612px;background:#FFFFFF;" version="1.1" viewBox="0 0 1281 612" width="1281px" zoomAndPan="magnify"><defs/><g><!--class ReactiveObserver--><g id="elem_ReactiveObserver"><rect codeLine="21" fill="#F1F1F1" height="64.0986" id="ReactiveObserver" rx="2.5" ry="2.5" style="stroke:#181818;stroke-width:0.5;" width="144" x="1121.5" y="11.5"/><ellipse cx="1136.5" cy="27.5" fill="#A9DCDF" rx="11" ry="11" style="stroke:#181818;stroke-width:1.0;"/><path d="M1138.6875,29.2656 L1134.5469,29.2656 L1134.125,30.2969 L1134.5469,30.2969 Q1135.1563,30.2969 1135.4219,30.5313 Q1135.6875,30.7656 1135.6875,31.1563 Q1135.6875,31.5313 1135.4219,31.7656 Q1135.1563,32 1134.5469,32 L1132.25,32 Q1131.6406,32 1131.3828,31.7656 Q1131.125,31.5313 1131.125,31.1406 Q1131.125,30.7656 1131.3984,30.5234 Q1131.6719,30.2813 1132.2969,30.2969 L1134.9688,23.6406 L1133.8594,23.6406 Q1133.25,23.6406 1132.9844,23.4063 Q1132.7188,23.1719 1132.7188,22.7813 Q1132.7188,22.4063 1132.9844,22.1719 Q1133.25,21.9375 1133.8594,21.9375 L1137.5313,21.9375 L1140.9219,30.2969 Q1141.5156,30.2969 1141.7031,30.4375 Q1142.0938,30.7031 1142.0938,31.1563 Q1142.0938,31.5313 1141.8359,31.7656 Q1141.5781,32 1140.9688,32 L1138.6719,32 Q1138.0625,32 1137.7969,31.7656 Q1137.5313,31.5313 1137.5313,31.1406 Q1137.5313,30.7656 1137.7969,30.5313 Q1138.0625,30.2969 1138.6719,30.2969 L1139.0938,30.2969 L1138.6875,29.2656 Z M1137.9688,27.5625 L1136.6094,24.1875 L1135.2344,27.5625 L1137.9688,27.5625 Z " fill="#000000"/><text fill="#000000" font-family="Arial" font-size="14" font-style="italic" lengthAdjust="spacing" textLength="112" x="1150.5" y="32.8115">ReactiveObserver</text><line style="stroke:#181818;stroke-width:0.5;" x1="1122.5" x2="1264.5" y1="43.5" y2="43.5"/><line style="stroke:#181818;stroke-width:0.5;" x1="1122.5" x2="1264.5" y1="51.5" y2="51.5"/><text fill="#000000" font-family="Arial" font-size="14" font-style="italic" lengthAdjust="spacing" textLength="126" x="1127.5" y="68.8608">+onEvent(ev: Event)</text></g><!--class Event--><g id="elem_Event"><rect codeLine="26" fill="#F1F1F1" height="96.2959" id="Event" rx="2.5" ry="2.5" style="stroke:#181818;stroke-width:0.5;" width="123" x="1132" y="90.5"/><ellipse cx="1171.75" cy="106.5" fill="#F1F1F1" rx="11" ry="11" style="stroke:#181818;stroke-width:1.0;"/><path d="M1169.8594,111.0625 Q1169.6406,111.3281 1169.5,111.4063 Q1169.3594,111.4844 1169.1719,111.4844 Q1168.7813,111.4844 1168.5391,111.2188 Q1168.2969,110.9531 1168.2969,110.3594 L1168.2969,109.2031 Q1168.2969,108.5938 1168.5391,108.3359 Q1168.7813,108.0781 1169.1719,108.0781 Q1169.4688,108.0781 1169.6719,108.2344 Q1169.875,108.3906 1169.9844,108.7578 Q1170.0938,109.125 1170.2031,109.2656 Q1170.4531,109.5156 1171.0625,109.7813 Q1171.6719,110.0469 1172.4063,110.0469 Q1173.5469,110.0469 1174.2656,109.5156 Q1174.7344,109.1875 1174.7344,108.7188 Q1174.7344,108.4063 1174.5156,108.125 Q1174.2969,107.8438 1173.7813,107.6719 Q1173.4531,107.5469 1172.2969,107.3281 Q1170.9063,107.0625 1170.1875,106.7031 Q1169.4688,106.3438 1169.0547,105.6797 Q1168.6406,105.0156 1168.6406,104.2344 Q1168.6406,103.0156 1169.6641,102.1016 Q1170.6875,101.1875 1172.3281,101.1875 Q1172.9844,101.1875 1173.5391,101.3281 Q1174.0938,101.4688 1174.5625,101.7656 Q1174.8906,101.4531 1175.2188,101.4531 Q1175.5938,101.4531 1175.8281,101.7109 Q1176.0625,101.9688 1176.0625,102.5781 L1176.0625,103.8594 Q1176.0625,104.4688 1175.8281,104.7266 Q1175.5938,104.9844 1175.2188,104.9844 Q1174.9063,104.9844 1174.6719,104.7969 Q1174.4844,104.6563 1174.3984,104.2344 Q1174.3125,103.8125 1174.1719,103.625 Q1173.9219,103.3125 1173.4453,103.1016 Q1172.9688,102.8906 1172.3281,102.8906 Q1171.4063,102.8906 1170.875,103.3125 Q1170.3438,103.7344 1170.3438,104.2031 Q1170.3438,104.5156 1170.5625,104.8125 Q1170.7813,105.1094 1171.2031,105.2813 Q1171.4844,105.3906 1172.7891,105.6484 Q1174.0938,105.9063 1174.7969,106.2109 Q1175.5,106.5156 1175.9688,107.1719 Q1176.4375,107.8281 1176.4375,108.7344 Q1176.4375,110 1175.5469,110.75 Q1174.3594,111.75 1172.5313,111.75 Q1171.8281,111.75 1171.1641,111.5781 Q1170.5,111.4063 1169.8594,111.0625 Z " fill="#000000"/><text fill="#000000" font-family="Arial" font-size="14" lengthAdjust="spacing" textLength="36" x="1191.25" y="111.8115">Event</text><line style="stroke:#181818;stroke-width:0.5;" x1="1133" x2="1254" y1="122.5" y2="122.5"/><text fill="#000000" font-family="Arial" font-size="14" lengthAdjust="spacing" textLength="111" x="1138" y="139.8608">+type: EventType</text><text fill="#000000" font-family="Arial" font-size="14" lengthAdjust="spacing" textLength="19" x="1138" y="155.9595">+ts</text><text fill="#000000" font-family="Arial" font-size="14" lengthAdjust="spacing" textLength="89" x="1138" y="172.0581">+payload: any</text><line style="stroke:#181818;stroke-width:0.5;" x1="1133" x2="1254" y1="178.7959" y2="178.7959"/></g><!--class EventBus--><g id="elem_EventBus"><rect codeLine="31" fill="#F1F1F1" height="128.4932" id="EventBus" rx="2.5" ry="2.5" style="stroke:#181818;stroke-width:0.5;" width="379" x="663" y="66.5"/><ellipse cx="818.25" cy="82.5" fill="#ADD1B2" rx="11" ry="11" style="stroke:#181818;stroke-width:1.0;"/><path d="M821.0156,78.375 Q821.1719,78.1563 821.3594,78.0469 Q821.5469,77.9375 821.7656,77.9375 Q822.1406,77.9375 822.375,78.1953 Q822.6094,78.4531 822.6094,79.0625 L822.6094,80.5156 Q822.6094,81.125 822.375,81.3906 Q822.1406,81.6563 821.7656,81.6563 Q821.4219,81.6563 821.2188,81.4531 Q821.0156,81.2656 820.9063,80.75 Q820.8594,80.3906 820.6719,80.2031 Q820.3438,79.8281 819.7344,79.6094 Q819.125,79.3906 818.5,79.3906 Q817.7344,79.3906 817.1016,79.7188 Q816.4688,80.0469 815.9766,80.7969 Q815.4844,81.5469 815.4844,82.5781 L815.4844,83.6719 Q815.4844,84.9063 816.375,85.7266 Q817.2656,86.5469 818.8594,86.5469 Q819.7969,86.5469 820.4531,86.2969 Q820.8438,86.1406 821.2656,85.7031 Q821.5313,85.4375 821.6797,85.3594 Q821.8281,85.2813 822.0313,85.2813 Q822.3594,85.2813 822.6172,85.5391 Q822.875,85.7969 822.875,86.1406 Q822.875,86.4844 822.5313,86.8906 Q822.0313,87.4688 821.2344,87.7969 Q820.1563,88.25 818.8594,88.25 Q817.3438,88.25 816.1406,87.625 Q815.1563,87.125 814.4688,86.0547 Q813.7813,84.9844 813.7813,83.7031 L813.7813,82.5469 Q813.7813,81.2188 814.3984,80.0703 Q815.0156,78.9219 816.1094,78.3047 Q817.2031,77.6875 818.4375,77.6875 Q819.1719,77.6875 819.8203,77.8516 Q820.4688,78.0156 821.0156,78.375 Z " fill="#000000"/><text fill="#000000" font-family="Arial" font-size="14" lengthAdjust="spacing" textLength="60" x="838.75" y="87.8115">EventBus</text><line style="stroke:#181818;stroke-width:0.5;" x1="664" x2="1041" y1="98.5" y2="98.5"/><line style="stroke:#181818;stroke-width:0.5;" x1="664" x2="1041" y1="106.5" y2="106.5"/><text fill="#000000" font-family="Arial" font-size="14" lengthAdjust="spacing" textLength="367" x="669" y="123.8608">+subscribe(t: EventType, obs, priority): SubscriptionToken</text><text fill="#000000" font-family="Arial" font-size="14" lengthAdjust="spacing" textLength="274" x="669" y="139.9595">+unsubscribe(tok: SubscriptionToken): void</text><text fill="#000000" font-family="Arial" font-size="14" lengthAdjust="spacing" textLength="138" x="669" y="156.0581">+post(ev: Event): void</text><text fill="#000000" font-family="Arial" font-size="14" lengthAdjust="spacing" textLength="171" x="669" y="172.1567">+post_now(ev: Event): void</text><text fill="#000000" font-family="Arial" font-size="14" lengthAdjust="spacing" textLength="194" x="669" y="188.2554">+process(maxEvents=32): void</text></g><!--class InventorySnapshot--><g id="elem_InventorySnapshot"><rect codeLine="40" fill="#F1F1F1" height="48" id="InventorySnapshot" rx="2.5" ry="2.5" style="stroke:#181818;stroke-width:0.5;" width="150" x="1118.5" y="201.5"/><ellipse cx="1133.5" cy="217.5" fill="#F1F1F1" rx="11" ry="11" style="stroke:#181818;stroke-width:1.0;"/><path d="M1131.6094,222.0625 Q1131.3906,222.3281 1131.25,222.4063 Q1131.1094,222.4844 1130.9219,222.4844 Q1130.5313,222.4844 1130.2891,222.2188 Q1130.0469,221.9531 1130.0469,221.3594 L1130.0469,220.2031 Q1130.0469,219.5938 1130.2891,219.3359 Q1130.5313,219.0781 1130.9219,219.0781 Q1131.2188,219.0781 1131.4219,219.2344 Q1131.625,219.3906 1131.7344,219.7578 Q1131.8438,220.125 1131.9531,220.2656 Q1132.2031,220.5156 1132.8125,220.7813 Q1133.4219,221.0469 1134.1563,221.0469 Q1135.2969,221.0469 1136.0156,220.5156 Q1136.4844,220.1875 1136.4844,219.7188 Q1136.4844,219.4063 1136.2656,219.125 Q1136.0469,218.8438 1135.5313,218.6719 Q1135.2031,218.5469 1134.0469,218.3281 Q1132.6563,218.0625 1131.9375,217.7031 Q1131.2188,217.3438 1130.8047,216.6797 Q1130.3906,216.0156 1130.3906,215.2344 Q1130.3906,214.0156 1131.4141,213.1016 Q1132.4375,212.1875 1134.0781,212.1875 Q1134.7344,212.1875 1135.2891,212.3281 Q1135.8438,212.4688 1136.3125,212.7656 Q1136.6406,212.4531 1136.9688,212.4531 Q1137.3438,212.4531 1137.5781,212.7109 Q1137.8125,212.9688 1137.8125,213.5781 L1137.8125,214.8594 Q1137.8125,215.4688 1137.5781,215.7266 Q1137.3438,215.9844 1136.9688,215.9844 Q1136.6563,215.9844 1136.4219,215.7969 Q1136.2344,215.6563 1136.1484,215.2344 Q1136.0625,214.8125 1135.9219,214.625 Q1135.6719,214.3125 1135.1953,214.1016 Q1134.7188,213.8906 1134.0781,213.8906 Q1133.1563,213.8906 1132.625,214.3125 Q1132.0938,214.7344 1132.0938,215.2031 Q1132.0938,215.5156 1132.3125,215.8125 Q1132.5313,216.1094 1132.9531,216.2813 Q1133.2344,216.3906 1134.5391,216.6484 Q1135.8438,216.9063 1136.5469,217.2109 Q1137.25,217.5156 1137.7188,218.1719 Q1138.1875,218.8281 1138.1875,219.7344 Q1138.1875,221 1137.2969,221.75 Q1136.1094,222.75 1134.2813,222.75 Q1133.5781,222.75 1132.9141,222.5781 Q1132.25,222.4063 1131.6094,222.0625 Z " fill="#000000"/><text fill="#000000" font-family="Arial" font-size="14" lengthAdjust="spacing" textLength="118" x="1147.5" y="222.8115">InventorySnapshot</text><line style="stroke:#181818;stroke-width:0.5;" x1="1119.5" x2="1267.5" y1="233.5" y2="233.5"/><line style="stroke:#181818;stroke-width:0.5;" x1="1119.5" x2="1267.5" y1="241.5" y2="241.5"/></g><!--class KgIngestionParams--><g id="elem_KgIngestionParams"><rect codeLine="41" fill="#F1F1F1" height="128.4932" id="KgIngestionParams" rx="2.5" ry="2.5" style="stroke:#181818;stroke-width:0.5;" width="179" x="763" y="255.5"/><ellipse cx="789.25" cy="271.5" fill="#F1F1F1" rx="11" ry="11" style="stroke:#181818;stroke-width:1.0;"/><path d="M787.3594,276.0625 Q787.1406,276.3281 787,276.4063 Q786.8594,276.4844 786.6719,276.4844 Q786.2813,276.4844 786.0391,276.2188 Q785.7969,275.9531 785.7969,275.3594 L785.7969,274.2031 Q785.7969,273.5938 786.0391,273.3359 Q786.2813,273.0781 786.6719,273.0781 Q786.9688,273.0781 787.1719,273.2344 Q787.375,273.3906 787.4844,273.7578 Q787.5938,274.125 787.7031,274.2656 Q787.9531,274.5156 788.5625,274.7813 Q789.1719,275.0469 789.9063,275.0469 Q791.0469,275.0469 791.7656,274.5156 Q792.2344,274.1875 792.2344,273.7188 Q792.2344,273.4063 792.0156,273.125 Q791.7969,272.8438 791.2813,272.6719 Q790.9531,272.5469 789.7969,272.3281 Q788.4063,272.0625 787.6875,271.7031 Q786.9688,271.3438 786.5547,270.6797 Q786.1406,270.0156 786.1406,269.2344 Q786.1406,268.0156 787.1641,267.1016 Q788.1875,266.1875 789.8281,266.1875 Q790.4844,266.1875 791.0391,266.3281 Q791.5938,266.4688 792.0625,266.7656 Q792.3906,266.4531 792.7188,266.4531 Q793.0938,266.4531 793.3281,266.7109 Q793.5625,266.9688 793.5625,267.5781 L793.5625,268.8594 Q793.5625,269.4688 793.3281,269.7266 Q793.0938,269.9844 792.7188,269.9844 Q792.4063,269.9844 792.1719,269.7969 Q791.9844,269.6563 791.8984,269.2344 Q791.8125,268.8125 791.6719,268.625 Q791.4219,268.3125 790.9453,268.1016 Q790.4688,267.8906 789.8281,267.8906 Q788.9063,267.8906 788.375,268.3125 Q787.8438,268.7344 787.8438,269.2031 Q787.8438,269.5156 788.0625,269.8125 Q788.2813,270.1094 788.7031,270.2813 Q788.9844,270.3906 790.2891,270.6484 Q791.5938,270.9063 792.2969,271.2109 Q793,271.5156 793.4688,272.1719 Q793.9375,272.8281 793.9375,273.7344 Q793.9375,275 793.0469,275.75 Q791.8594,276.75 790.0313,276.75 Q789.3281,276.75 788.6641,276.5781 Q788,276.4063 787.3594,276.0625 Z " fill="#000000"/><text fill="#000000" font-family="Arial" font-size="14" lengthAdjust="spacing" textLength="122" x="805.75" y="276.8115">KgIngestionParams</text><line style="stroke:#181818;stroke-width:0.5;" x1="764" x2="941" y1="287.5" y2="287.5"/><text fill="#000000" font-family="Arial" font-size="14" lengthAdjust="spacing" textLength="76" x="769" y="304.8608">+corr: string</text><text fill="#000000" font-family="Arial" font-size="14" lengthAdjust="spacing" textLength="101" x="769" y="320.9595">+process: string</text><text fill="#000000" font-family="Arial" font-size="14" lengthAdjust="spacing" textLength="108" x="769" y="337.0581">+summary: string</text><text fill="#000000" font-family="Arial" font-size="14" lengthAdjust="spacing" textLength="167" x="769" y="353.1567">+snapshotWrapped: string</text><text fill="#000000" font-family="Arial" font-size="14" lengthAdjust="spacing" textLength="118" x="769" y="369.2554">+resourceId: string</text><line style="stroke:#181818;stroke-width:0.5;" x1="764" x2="941" y1="375.9932" y2="375.9932"/></g><!--class Plan--><g id="elem_Plan"><rect codeLine="50" fill="#F1F1F1" height="96.2959" id="Plan" rx="2.5" ry="2.5" style="stroke:#181818;stroke-width:0.5;" width="169" x="768" y="398.5"/><ellipse cx="834.25" cy="414.5" fill="#F1F1F1" rx="11" ry="11" style="stroke:#181818;stroke-width:1.0;"/><path d="M832.3594,419.0625 Q832.1406,419.3281 832,419.4063 Q831.8594,419.4844 831.6719,419.4844 Q831.2813,419.4844 831.0391,419.2188 Q830.7969,418.9531 830.7969,418.3594 L830.7969,417.2031 Q830.7969,416.5938 831.0391,416.3359 Q831.2813,416.0781 831.6719,416.0781 Q831.9688,416.0781 832.1719,416.2344 Q832.375,416.3906 832.4844,416.7578 Q832.5938,417.125 832.7031,417.2656 Q832.9531,417.5156 833.5625,417.7813 Q834.1719,418.0469 834.9063,418.0469 Q836.0469,418.0469 836.7656,417.5156 Q837.2344,417.1875 837.2344,416.7188 Q837.2344,416.4063 837.0156,416.125 Q836.7969,415.8438 836.2813,415.6719 Q835.9531,415.5469 834.7969,415.3281 Q833.4063,415.0625 832.6875,414.7031 Q831.9688,414.3438 831.5547,413.6797 Q831.1406,413.0156 831.1406,412.2344 Q831.1406,411.0156 832.1641,410.1016 Q833.1875,409.1875 834.8281,409.1875 Q835.4844,409.1875 836.0391,409.3281 Q836.5938,409.4688 837.0625,409.7656 Q837.3906,409.4531 837.7188,409.4531 Q838.0938,409.4531 838.3281,409.7109 Q838.5625,409.9688 838.5625,410.5781 L838.5625,411.8594 Q838.5625,412.4688 838.3281,412.7266 Q838.0938,412.9844 837.7188,412.9844 Q837.4063,412.9844 837.1719,412.7969 Q836.9844,412.6563 836.8984,412.2344 Q836.8125,411.8125 836.6719,411.625 Q836.4219,411.3125 835.9453,411.1016 Q835.4688,410.8906 834.8281,410.8906 Q833.9063,410.8906 833.375,411.3125 Q832.8438,411.7344 832.8438,412.2031 Q832.8438,412.5156 833.0625,412.8125 Q833.2813,413.1094 833.7031,413.2813 Q833.9844,413.3906 835.2891,413.6484 Q836.5938,413.9063 837.2969,414.2109 Q838,414.5156 838.4688,415.1719 Q838.9375,415.8281 838.9375,416.7344 Q838.9375,418 838.0469,418.75 Q836.8594,419.75 835.0313,419.75 Q834.3281,419.75 833.6641,419.5781 Q833,419.4063 832.3594,419.0625 Z " fill="#000000"/><text fill="#000000" font-family="Arial" font-size="14" lengthAdjust="spacing" textLength="28" x="854.75" y="419.8115">Plan</text><line style="stroke:#181818;stroke-width:0.5;" x1="769" x2="936" y1="430.5" y2="430.5"/><text fill="#000000" font-family="Arial" font-size="14" lengthAdjust="spacing" textLength="129" x="774" y="447.8608">+correlationId: string</text><text fill="#000000" font-family="Arial" font-size="14" lengthAdjust="spacing" textLength="118" x="774" y="463.9595">+resourceId: string</text><text fill="#000000" font-family="Arial" font-size="14" lengthAdjust="spacing" textLength="157" x="774" y="480.0581">+ops: vector&lt;Operation&gt;</text><line style="stroke:#181818;stroke-width:0.5;" x1="769" x2="936" y1="486.7959" y2="486.7959"/></g><!--class Operation--><g id="elem_Operation"><rect codeLine="57" fill="#F1F1F1" height="128.4932" id="Operation" rx="2.5" ry="2.5" style="stroke:#181818;stroke-width:0.5;" width="161" x="1113" y="382.5"/><ellipse cx="1157.75" cy="398.5" fill="#F1F1F1" rx="11" ry="11" style="stroke:#181818;stroke-width:1.0;"/><path d="M1155.8594,403.0625 Q1155.6406,403.3281 1155.5,403.4063 Q1155.3594,403.4844 1155.1719,403.4844 Q1154.7813,403.4844 1154.5391,403.2188 Q1154.2969,402.9531 1154.2969,402.3594 L1154.2969,401.2031 Q1154.2969,400.5938 1154.5391,400.3359 Q1154.7813,400.0781 1155.1719,400.0781 Q1155.4688,400.0781 1155.6719,400.2344 Q1155.875,400.3906 1155.9844,400.7578 Q1156.0938,401.125 1156.2031,401.2656 Q1156.4531,401.5156 1157.0625,401.7813 Q1157.6719,402.0469 1158.4063,402.0469 Q1159.5469,402.0469 1160.2656,401.5156 Q1160.7344,401.1875 1160.7344,400.7188 Q1160.7344,400.4063 1160.5156,400.125 Q1160.2969,399.8438 1159.7813,399.6719 Q1159.4531,399.5469 1158.2969,399.3281 Q1156.9063,399.0625 1156.1875,398.7031 Q1155.4688,398.3438 1155.0547,397.6797 Q1154.6406,397.0156 1154.6406,396.2344 Q1154.6406,395.0156 1155.6641,394.1016 Q1156.6875,393.1875 1158.3281,393.1875 Q1158.9844,393.1875 1159.5391,393.3281 Q1160.0938,393.4688 1160.5625,393.7656 Q1160.8906,393.4531 1161.2188,393.4531 Q1161.5938,393.4531 1161.8281,393.7109 Q1162.0625,393.9688 1162.0625,394.5781 L1162.0625,395.8594 Q1162.0625,396.4688 1161.8281,396.7266 Q1161.5938,396.9844 1161.2188,396.9844 Q1160.9063,396.9844 1160.6719,396.7969 Q1160.4844,396.6563 1160.3984,396.2344 Q1160.3125,395.8125 1160.1719,395.625 Q1159.9219,395.3125 1159.4453,395.1016 Q1158.9688,394.8906 1158.3281,394.8906 Q1157.4063,394.8906 1156.875,395.3125 Q1156.3438,395.7344 1156.3438,396.2031 Q1156.3438,396.5156 1156.5625,396.8125 Q1156.7813,397.1094 1157.2031,397.2813 Q1157.4844,397.3906 1158.7891,397.6484 Q1160.0938,397.9063 1160.7969,398.2109 Q1161.5,398.5156 1161.9688,399.1719 Q1162.4375,399.8281 1162.4375,400.7344 Q1162.4375,402 1161.5469,402.75 Q1160.3594,403.75 1158.5313,403.75 Q1157.8281,403.75 1157.1641,403.5781 Q1156.5,403.4063 1155.8594,403.0625 Z " fill="#000000"/><text fill="#000000" font-family="Arial" font-size="14" lengthAdjust="spacing" textLength="63" x="1178.25" y="403.8115">Operation</text><line style="stroke:#181818;stroke-width:0.5;" x1="1114" x2="1273" y1="414.5" y2="414.5"/><text fill="#000000" font-family="Arial" font-size="14" lengthAdjust="spacing" textLength="94" x="1119" y="431.8608">+type: OpType</text><text fill="#000000" font-family="Arial" font-size="14" lengthAdjust="spacing" textLength="135" x="1119" y="447.9595">+inputs: UAValueMap</text><text fill="#000000" font-family="Arial" font-size="14" lengthAdjust="spacing" textLength="149" x="1119" y="464.0581">+expOuts: UAValueMap</text><text fill="#000000" font-family="Arial" font-size="14" lengthAdjust="spacing" textLength="78" x="1119" y="480.1567">+attach: any</text><text fill="#000000" font-family="Arial" font-size="14" lengthAdjust="spacing" textLength="95" x="1119" y="496.2554">+timeoutMs: int</text><line style="stroke:#181818;stroke-width:0.5;" x1="1114" x2="1273" y1="502.9932" y2="502.9932"/></g><!--class OpType--><g id="elem_OpType"><rect codeLine="64" fill="#F1F1F1" height="80.1973" id="OpType" rx="2.5" ry="2.5" style="stroke:#181818;stroke-width:0.5;" width="93" x="1147" y="525.5"/><ellipse cx="1166.5" cy="541.5" fill="#EB937F" rx="11" ry="11" style="stroke:#181818;stroke-width:1.0;"/><path d="M1165.3594,542.2969 L1165.3594,544.7969 L1169.6875,544.7969 L1169.6875,543.875 Q1169.6875,543.2656 1169.9297,543 Q1170.1719,542.7344 1170.5469,542.7344 Q1170.9219,542.7344 1171.1563,543 Q1171.3906,543.2656 1171.3906,543.875 L1171.3906,546.5 L1163.3906,546.5 Q1162.7656,546.5 1162.5078,546.2656 Q1162.25,546.0313 1162.25,545.6406 Q1162.25,545.2656 1162.5156,545.0313 Q1162.7813,544.7969 1163.3906,544.7969 L1163.6563,544.7969 L1163.6563,538.1406 L1163.3906,538.1406 Q1162.7656,538.1406 1162.5078,537.9063 Q1162.25,537.6719 1162.25,537.2813 Q1162.25,536.9063 1162.5078,536.6719 Q1162.7656,536.4375 1163.3906,536.4375 L1171.0156,536.4375 L1171.0156,539.0313 Q1171.0156,539.6406 1170.7891,539.8984 Q1170.5625,540.1563 1170.1719,540.1563 Q1169.7969,540.1563 1169.5625,539.8984 Q1169.3281,539.6406 1169.3281,539.0313 L1169.3281,538.1406 L1165.3594,538.1406 L1165.3594,540.5938 L1166.8438,540.5938 Q1166.8438,539.9375 1166.9688,539.75 Q1167.2344,539.3438 1167.7031,539.3438 Q1168.0781,539.3438 1168.3125,539.6016 Q1168.5469,539.8594 1168.5469,540.4688 L1168.5469,542.4375 Q1168.5469,542.9844 1168.4219,543.1719 Q1168.1563,543.5625 1167.7031,543.5625 Q1167.2344,543.5625 1166.9688,543.1563 Q1166.8438,542.9688 1166.8438,542.2969 L1165.3594,542.2969 Z " fill="#000000"/><text fill="#000000" font-family="Arial" font-size="14" lengthAdjust="spacing" textLength="51" x="1181.5" y="546.8115">OpType</text><line style="stroke:#181818;stroke-width:0.5;" x1="1148" x2="1239" y1="557.5" y2="557.5"/><text fill="#000000" font-family="Arial" font-size="14" lengthAdjust="spacing" textLength="81" x="1153" y="574.8608">KGIngestion,</text><text fill="#000000" font-family="Arial" font-size="14" lengthAdjust="spacing" textLength="12" x="1153" y="590.9595">...</text><line style="stroke:#181818;stroke-width:0.5;" x1="1148" x2="1239" y1="597.6973" y2="597.6973"/></g><!--class CommandForceFactory--><g id="elem_CommandForceFactory"><rect codeLine="70" fill="#F1F1F1" height="64.0986" id="CommandForceFactory" rx="2.5" ry="2.5" style="stroke:#181818;stroke-width:0.5;" width="181" x="762" y="509.5"/><ellipse cx="777" cy="525.5" fill="#ADD1B2" rx="11" ry="11" style="stroke:#181818;stroke-width:1.0;"/><path d="M779.7656,521.375 Q779.9219,521.1563 780.1094,521.0469 Q780.2969,520.9375 780.5156,520.9375 Q780.8906,520.9375 781.125,521.1953 Q781.3594,521.4531 781.3594,522.0625 L781.3594,523.5156 Q781.3594,524.125 781.125,524.3906 Q780.8906,524.6563 780.5156,524.6563 Q780.1719,524.6563 779.9688,524.4531 Q779.7656,524.2656 779.6563,523.75 Q779.6094,523.3906 779.4219,523.2031 Q779.0938,522.8281 778.4844,522.6094 Q777.875,522.3906 777.25,522.3906 Q776.4844,522.3906 775.8516,522.7188 Q775.2188,523.0469 774.7266,523.7969 Q774.2344,524.5469 774.2344,525.5781 L774.2344,526.6719 Q774.2344,527.9063 775.125,528.7266 Q776.0156,529.5469 777.6094,529.5469 Q778.5469,529.5469 779.2031,529.2969 Q779.5938,529.1406 780.0156,528.7031 Q780.2813,528.4375 780.4297,528.3594 Q780.5781,528.2813 780.7813,528.2813 Q781.1094,528.2813 781.3672,528.5391 Q781.625,528.7969 781.625,529.1406 Q781.625,529.4844 781.2813,529.8906 Q780.7813,530.4688 779.9844,530.7969 Q778.9063,531.25 777.6094,531.25 Q776.0938,531.25 774.8906,530.625 Q773.9063,530.125 773.2188,529.0547 Q772.5313,527.9844 772.5313,526.7031 L772.5313,525.5469 Q772.5313,524.2188 773.1484,523.0703 Q773.7656,521.9219 774.8594,521.3047 Q775.9531,520.6875 777.1875,520.6875 Q777.9219,520.6875 778.5703,520.8516 Q779.2188,521.0156 779.7656,521.375 Z " fill="#000000"/><text fill="#000000" font-family="Arial" font-size="14" lengthAdjust="spacing" textLength="149" x="791" y="530.8115">CommandForceFactory</text><line style="stroke:#181818;stroke-width:0.5;" x1="763" x2="942" y1="541.5" y2="541.5"/><text fill="#000000" font-family="Arial" font-size="14" lengthAdjust="spacing" textLength="12" x="768" y="558.8608">...</text><line style="stroke:#181818;stroke-width:0.5;" x1="763" x2="942" y1="565.5986" y2="565.5986"/></g><!--class FailureRecorder--><g id="elem_FailureRecorder"><rect codeLine="75" fill="#F1F1F1" height="530.7578" id="FailureRecorder" rx="2.5" ry="2.5" style="stroke:#181818;stroke-width:0.5;" width="413" x="7" y="7"/><ellipse cx="133.25" cy="26.9487" fill="#ADD1B2" rx="11" ry="11" style="stroke:#181818;stroke-width:1.0;"/><path d="M136.0156,22.8237 Q136.1719,22.605 136.3594,22.4956 Q136.5469,22.3862 136.7656,22.3862 Q137.1406,22.3862 137.375,22.644 Q137.6094,22.9019 137.6094,23.5112 L137.6094,24.9644 Q137.6094,25.5737 137.375,25.8394 Q137.1406,26.105 136.7656,26.105 Q136.4219,26.105 136.2188,25.9019 Q136.0156,25.7144 135.9063,25.1987 Q135.8594,24.8394 135.6719,24.6519 Q135.3438,24.2769 134.7344,24.0581 Q134.125,23.8394 133.5,23.8394 Q132.7344,23.8394 132.1016,24.1675 Q131.4688,24.4956 130.9766,25.2456 Q130.4844,25.9956 130.4844,27.0269 L130.4844,28.1206 Q130.4844,29.355 131.375,30.1753 Q132.2656,30.9956 133.8594,30.9956 Q134.7969,30.9956 135.4531,30.7456 Q135.8438,30.5894 136.2656,30.1519 Q136.5313,29.8862 136.6797,29.8081 Q136.8281,29.73 137.0313,29.73 Q137.3594,29.73 137.6172,29.9878 Q137.875,30.2456 137.875,30.5894 Q137.875,30.9331 137.5313,31.3394 Q137.0313,31.9175 136.2344,32.2456 Q135.1563,32.6987 133.8594,32.6987 Q132.3438,32.6987 131.1406,32.0737 Q130.1563,31.5737 129.4688,30.5034 Q128.7813,29.4331 128.7813,28.1519 L128.7813,26.9956 Q128.7813,25.6675 129.3984,24.519 Q130.0156,23.3706 131.1094,22.7534 Q132.2031,22.1362 133.4375,22.1362 Q134.1719,22.1362 134.8203,22.3003 Q135.4688,22.4644 136.0156,22.8237 Z " fill="#000000"/><text fill="#000000" font-family="Arial" font-size="12" font-style="italic" lengthAdjust="spacing" textLength="156" x="151.75" y="23.4521">&#171;enable_shared_from_this&#187;</text><text fill="#000000" font-family="Arial" font-size="14" lengthAdjust="spacing" textLength="103" x="178.25" y="39.1597">FailureRecorder</text><line style="stroke:#181818;stroke-width:0.5;" x1="8" x2="419" y1="46.8975" y2="46.8975"/><text fill="#000000" font-family="Arial" font-size="14" lengthAdjust="spacing" textLength="221" x="13" y="64.2583">+FailureRecorder(bus: EventBus&amp;)</text><text fill="#000000" font-family="Arial" font-size="14" lengthAdjust="spacing" textLength="128" x="13" y="80.3569">+subscribeAll(): void</text><text fill="#000000" font-family="Arial" font-size="14" lengthAdjust="spacing" textLength="163" x="13" y="96.4556">+onEvent(ev: Event): void</text><text fill="#000000" font-family="Arial" font-size="14" lengthAdjust="spacing" textLength="4" x="13" y="112.5542">&#160;</text><text fill="#000000" font-family="Arial" font-size="14" lengthAdjust="spacing" textLength="75" x="13" y="148.7515">-mx_: mutex</text><text fill="#000000" font-family="Arial" font-size="14" lengthAdjust="spacing" textLength="230" x="13" y="164.8501">-activeCorr_: unordered_set&lt;string&gt;</text><text fill="#000000" font-family="Arial" font-size="14" lengthAdjust="spacing" textLength="343" x="13" y="180.9487">-snapshotJsonByCorr_: unordered_map&lt;string,string&gt;</text><text fill="#000000" font-family="Arial" font-size="14" lengthAdjust="spacing" textLength="386" x="13" y="197.0474">-monReactsByCorr_: unordered_map&lt;string, vector&lt;string&gt;&gt;</text><text fill="#000000" font-family="Arial" font-size="14" lengthAdjust="spacing" textLength="380" x="13" y="213.146">-sysReactsByCorr_: unordered_map&lt;string, vector&lt;string&gt;&gt;</text><text fill="#000000" font-family="Arial" font-size="14" lengthAdjust="spacing" textLength="268" x="13" y="229.2446">-ingestionStarted_: unordered_set&lt;string&gt;</text><text fill="#000000" font-family="Arial" font-size="14" lengthAdjust="spacing" textLength="330" x="13" y="245.3433">-failureModeByCorr_: unordered_map&lt;string,string&gt;</text><text fill="#000000" font-family="Arial" font-size="14" lengthAdjust="spacing" textLength="4" x="13" y="261.4419">&#160;</text><line style="stroke:#181818;stroke-width:1.0;" x1="8" x2="112.5" y1="127.3413" y2="127.3413"/><text fill="#000000" font-family="Arial" font-size="14" lengthAdjust="spacing" textLength="202" x="112.5" y="132.1528">Recorder-Cache je correlationId</text><line style="stroke:#181818;stroke-width:1.0;" x1="314.5" x2="419" y1="127.3413" y2="127.3413"/><text fill="#000000" font-family="Arial" font-size="14" lengthAdjust="spacing" textLength="235" x="13" y="297.6392">-resetCorrUnlocked(corr: string): void</text><text fill="#000000" font-family="Arial" font-size="14" lengthAdjust="spacing" textLength="222" x="13" y="313.7378">-tryMarkIngestion(corr: string): bool</text><text fill="#000000" font-family="Arial" font-size="14" lengthAdjust="spacing" textLength="370" x="13" y="329.8364">-buildParams(corr: string, process: string, summary: string)</text><text fill="#000000" font-family="Arial" font-size="14" lengthAdjust="spacing" textLength="215" x="13" y="345.9351">: shared_ptr&lt;KgIngestionParams&gt;</text><text fill="#000000" font-family="Arial" font-size="14" lengthAdjust="spacing" textLength="401" x="13" y="362.0337">-startIngestionWith(prm: shared_ptr&lt;KgIngestionParams&gt;): void</text><text fill="#000000" font-family="Arial" font-size="14" lengthAdjust="spacing" textLength="4" x="13" y="378.1323">&#160;</text><line style="stroke:#181818;stroke-width:1.0;" x1="8" x2="152.5" y1="276.229" y2="276.229"/><text fill="#000000" font-family="Arial" font-size="14" lengthAdjust="spacing" textLength="122" x="152.5" y="281.0405">Helpers &amp; ingestion</text><line style="stroke:#181818;stroke-width:1.0;" x1="274.5" x2="419" y1="276.229" y2="276.229"/><text fill="#000000" font-family="Arial" font-size="14" lengthAdjust="spacing" text-decoration="underline" textLength="297" x="13" y="414.3296">-snapshotToJson(inv: InventorySnapshot): json</text><text fill="#000000" font-family="Arial" font-size="14" lengthAdjust="spacing" text-decoration="underline" textLength="324" x="13" y="430.4282">-snapshotToJson_flat(inv: InventorySnapshot): json</text><text fill="#000000" font-family="Arial" font-size="14" lengthAdjust="spacing" text-decoration="underline" textLength="201" x="13" y="446.5269">-wrapSnapshot(js: string): string</text><text fill="#000000" font-family="Arial" font-size="14" lengthAdjust="spacing" text-decoration="underline" textLength="357" x="13" y="462.6255">-findStringInSnap(snap: json, nodeId: const char*): string</text><text fill="#000000" font-family="Arial" font-size="14" lengthAdjust="spacing" text-decoration="underline" textLength="102" x="13" y="478.7241">-now_ts(): string</text><text fill="#000000" font-family="Arial" font-size="14" lengthAdjust="spacing" textLength="4" x="13" y="494.8228">&#160;</text><line style="stroke:#181818;stroke-width:1.0;" x1="8" x2="144" y1="392.9194" y2="392.9194"/><text fill="#000000" font-family="Arial" font-size="14" lengthAdjust="spacing" textLength="139" x="144" y="397.731">JSON &amp; snapshot utils</text><line style="stroke:#181818;stroke-width:1.0;" x1="283" x2="419" y1="392.9194" y2="392.9194"/><text fill="#000000" font-family="Arial" font-size="14" lengthAdjust="spacing" textLength="113" x="13" y="531.02">-bus_: EventBus&amp;</text><line style="stroke:#181818;stroke-width:1.0;" x1="8" x2="169" y1="509.6099" y2="509.6099"/><text fill="#000000" font-family="Arial" font-size="14" lengthAdjust="spacing" textLength="89" x="169" y="514.4214">Bus reference</text><line style="stroke:#181818;stroke-width:1.0;" x1="258" x2="419" y1="509.6099" y2="509.6099"/></g><!--link FailureRecorder to ReactiveObserver--><g id="link_FailureRecorder_ReactiveObserver"><path codeLine="108" d="M420.15,153.29 C422.78,152.01 425.4,150.75 428,149.5 C529.04,101.18 553.21,80.63 663,58.5 C824.37,25.98 1000.9843,30.49 1103.4343,36.82 " fill="none" id="FailureRecorder-to-ReactiveObserver" style="stroke:#181818;stroke-width:1.0;"/><polygon fill="none" points="1121.4,37.93,1103.8043,30.8314,1103.0642,42.8085,1121.4,37.93" style="stroke:#181818;stroke-width:1.0;"/></g><!--link EventBus to ReactiveObserver--><g id="link_EventBus_ReactiveObserver"><path codeLine="109" d="M1042.33,82.04 C1070.46,74.82 1097.86,67.79 1121.4,61.75 " fill="none" id="EventBus-ReactiveObserver" style="stroke:#181818;stroke-width:1.0;"/></g><!--link FailureRecorder to EventBus--><g id="link_FailureRecorder_EventBus"><path codeLine="110" d="M420.1,216.37 C422.75,215.74 425.38,215.11 428,214.5 C504.44,196.56 583.3391,180.3788 656.8491,166.1688 " fill="none" id="FailureRecorder-to-EventBus" style="stroke:#181818;stroke-width:1.0;"/><polygon fill="#181818" points="662.74,165.03,653.1444,162.8108,657.8309,165.979,654.6628,170.6654,662.74,165.03" style="stroke:#181818;stroke-width:1.0;"/><text fill="#000000" font-family="Arial" font-size="13" lengthAdjust="spacing" textLength="28" x="527.5" y="165.9065">bus_</text></g><!--reverse link EventBus to Event--><g id="link_EventBus_Event"><path codeLine="111" d="M1054.3267,135.2416 C1086.7067,136.0016 1106.14,136.46 1131.81,137.07 " fill="none" id="EventBus-backto-Event" style="stroke:#181818;stroke-width:1.0;"/><polygon fill="none" points="1042.33,134.96,1048.2345,139.0997,1054.3267,135.2416,1048.4222,131.1019,1042.33,134.96" style="stroke:#181818;stroke-width:1.0;"/><text fill="#000000" font-family="Arial" font-size="13" lengthAdjust="spacing" textLength="12" x="1067.5" y="132.9065">ev</text></g><!--reverse link EventBus to InventorySnapshot--><g id="link_EventBus_InventorySnapshot"><path codeLine="112" d="M1053.885,186.6576 C1080.795,194.1976 1095.49,198.31 1118.32,204.71 " fill="none" id="EventBus-backto-InventorySnapshot" style="stroke:#181818;stroke-width:1.0;stroke-dasharray:7.0,7.0;"/><polygon fill="none" points="1042.33,183.42,1047.0283,188.8905,1053.885,186.6576,1049.1867,181.1872,1042.33,183.42" style="stroke:#181818;stroke-width:1.0;"/><text fill="#000000" font-family="Arial" font-size="13" lengthAdjust="spacing" textLength="45" x="1051" y="184.9065">payload</text></g><!--link FailureRecorder to InventorySnapshot--><g id="link_FailureRecorder_InventorySnapshot"><path codeLine="115" d="M420.16,260.42 C496.42,256.11 583.65,251.36 663,247.5 C825.43,239.6 1009.9843,232.3466 1112.3843,228.4766 " fill="none" id="FailureRecorder-to-InventorySnapshot" style="stroke:#181818;stroke-width:1.0;stroke-dasharray:7.0,7.0;"/><polygon fill="#181818" points="1118.38,228.25,1109.2354,224.5927,1113.3836,228.4388,1109.5375,232.587,1118.38,228.25" style="stroke:#181818;stroke-width:1.0;"/><text fill="#000000" font-family="Arial" font-size="13" lengthAdjust="spacing" textLength="138" x="783.5" y="228.9065">snapshotToJson_flat(...)</text></g><!--reverse link FailureRecorder to KgIngestionParams--><g id="link_FailureRecorder_KgIngestionParams"><path codeLine="116" d="M432.4074,288.5738 C548.1774,297.1238 674.75,306.46 762.94,312.97 " fill="none" id="FailureRecorder-backto-KgIngestionParams" style="stroke:#181818;stroke-width:1.0;"/><polygon fill="#181818" points="420.44,287.69,426.1291,292.1211,432.4074,288.5738,426.7183,284.1428,420.44,287.69" style="stroke:#181818;stroke-width:1.0;"/><text fill="#000000" font-family="Arial" font-size="13" lengthAdjust="spacing" textLength="225" x="429" y="285.9065">buildParams(...), startIngestionWith(...)</text></g><!--link FailureRecorder to Plan--><g id="link_FailureRecorder_Plan"><path codeLine="119" d="M420.44,328.75 C538.39,360.97 674.1921,398.0688 762.0821,422.0788 " fill="none" id="FailureRecorder-to-Plan" style="stroke:#181818;stroke-width:1.0;"/><polygon fill="#181818" points="767.87,423.66,760.2422,417.4297,763.0467,422.3424,758.134,425.1469,767.87,423.66" style="stroke:#181818;stroke-width:1.0;"/><text fill="#000000" font-family="Arial" font-size="13" lengthAdjust="spacing" textLength="38" x="522.5" y="328.9065">build p</text></g><!--reverse link Plan to Operation--><g id="link_Plan_Operation"><path codeLine="120" d="M949.3,446.5 C1002.92,446.5 1060.08,446.5 1112.87,446.5 " fill="none" id="Plan-backto-Operation" style="stroke:#181818;stroke-width:1.0;"/><polygon fill="none" points="937.3,446.5,943.3,450.5,949.3,446.5,943.3,442.5,937.3,446.5" style="stroke:#181818;stroke-width:1.0;"/></g><!--link FailureRecorder to CommandForceFactory--><g id="link_FailureRecorder_CommandForceFactory"><path codeLine="123" d="M420.28,408.51 C422.86,409.86 425.43,411.19 428,412.5 C527.51,463.2 555.84,470.04 663,501.5 C694.78,510.83 724.2912,517.7299 755.7412,524.1499 " fill="none" id="FailureRecorder-to-CommandForceFactory" style="stroke:#181818;stroke-width:1.0;"/><polygon fill="#181818" points="761.62,525.35,753.6019,519.6307,756.721,524.35,752.0018,527.4691,761.62,525.35" style="stroke:#181818;stroke-width:1.0;"/><text fill="#000000" font-family="Arial" font-size="13" lengthAdjust="spacing" textLength="220" x="431.5" y="409.9065">createForOp(op, /*mon*/ nullptr, bus_)</text></g><!--SRC=[dLVDSjis4BxpAVOKKuwiECqq1usZ6SSJfuxhdx6SPAON3KYk94GWW050sRJhP-cbpz1JRdwnBa2Af2pLQSk3JUxFjul5Xrre1wwGfOuhUSOacw61FJXMQM4nWrGmQo7ZR6PO3h6IegGlWwcZ5uE2EJ9ofKOBBs21f4HjUv5TSAcPTx5pbgaRBcSmPS9YHnEW3vqpF2aSdgHAZlaTmdwq0yUFtsS86RCXriB1ZCaxK0bAG2w7qKwBacaER_RtOUj3KDF7xmOkpp_kVRZLoZY8-Kmgmv5U4-Gm_lAncss6KrO8TwoaEsSvmg7XJAo5Qmr2jg_VheURcSU_7lz0GqNqDl2EebXBt_0hseIP1NBNYITLXXOrlFvvQ_AdKZcKBB6EoQpZPfXSFEFs6tBHkktOb0dATF0Mddt8yQwmZt-wEy7JES9umGJLgP2pQ6VECmJCjIiXnpn1OoE1KmTEWU6pkQivGHIATfpINfuevrJUKH3-7ZrmaL0zbbIWX5aCeiYdQeY2DH6NsDZSHm3tA_K3l5JomnAbYt4vXF3MYnuQv200Mrg7nDMSIvup0KkEDxqg3i4K5AMoyz0lFNLhf6jw3IBh_sfM2iMo8J1PKeZg70IxzuMjV6sHs9JOYx7hGFI9fxOFsd2YcIjxGnXNTjfNuLejK7hdGdRSrMAB5Nak5Sz2Cifsbxokc4XrirrfL4haYtDs6rJstPkVLkgsQ5U5T3ptfyqn26S-AU6OSL4OlC9KcSmtX4xrJgG7KwOSIwRjNBcLudHs8cTe_G8kFKthCX646GBPK1FefDKLsIBFcIdNH3NuLyEqngohCcXLOL8yQQNjSYu5a_0ABZGQvZE1kChEhbCWc3Nf-Jv6jYS_2aDIfIdp9L5QcOCcoCWduDGCtJnmjWxI9j7XseLU4OrES-48xVFX5oOAF6FQI_5MNsmHC-TOEg_ewB5eorJXpiYEIqVXKHPvZGtt4Fa3VVgnsOz-40m6W_3_WUphSXqfghpCGB1ojSqLrMl5iQ8A73E_t3Aiea9fwxsLAHN4KzN1WMzA0YSq4mncawbH-SJDkHsDgW8zSOYJmWwRC_UYjtRc3eM8ErpVx0krZfIUv3NatX7phUqRmjgsauctosydGyXf6DtwhweJ7P4TIGiP_2bhY-wWeiF8Mwru-iag-RxSiCwPhgtx7QTSoT3fxFCUAvxLdbMyqlvVLxvYmzWnGtFxkMLDgwque_dqxrPLrVaN5CHvVnTeWjMrfTE4pWDzbaAb2ypYRbzeTtBFcVACvcH3tQTsYLB2soK55rdLPzPCVEjTQp1zUD9UUe76C8IQXzgPWutULHNR5wfHVELk7ckJ_y1ndNcVnXVdL8uLJQ1mNDYg9lS4xtZwq9BeMdaQnLmIYpVQBE5-8-qpZfCf4Ve_UDzGRrtfus-sK-IctxN6KowpSH2VIEyK-zWLQ3_SOtoVf4kSTP1IUNQtez2icZWRjyggIdwc6fmIkMIADMFez4ywnx_JSqwnldjIqMtLSJRRqE-ZZTj4rCplq1AUA3SXHkt09zvHEYs0QguRGy1bHpuORDQUREhhX5_2Pxhrg2aTaDgAs15kTNOZWy5Wj1LiswvJL-vj0EpwOcrCPR-MzknuHpeYcqmFY9Hl69N1mz_YkRJ-BlXFzjkA603geA2ZyEdhrun77sKrOruGXwgHXBUO5a6z3NJRV2B-6QHV92IyqB7IVNYrIwrsznN8GWWwhVsmYxteRm00]--></g></svg>