<?xml version="1.0" encoding="us-ascii" standalone="no"?><svg xmlns="http://www.w3.org/2000/svg" xmlns:xlink="http://www.w3.org/1999/xlink" contentStyleType="text/css" height="1084px" preserveAspectRatio="none" style="width:1590px;height:1084px;background:#FFFFFF;" version="1.1" viewBox="0 0 1590 1084" width="1590px" zoomAndPan="magnify"><defs/><g><line style="stroke:#181818;stroke-width:0.5;stroke-dasharray:5.0,5.0;" x1="54" x2="54" y1="81.0986" y2="1077.5605"/><line style="stroke:#181818;stroke-width:0.5;stroke-dasharray:5.0,5.0;" x1="258.5" x2="258.5" y1="81.0986" y2="1077.5605"/><line style="stroke:#181818;stroke-width:0.5;stroke-dasharray:5.0,5.0;" x1="483.5" x2="483.5" y1="81.0986" y2="1077.5605"/><line style="stroke:#181818;stroke-width:0.5;stroke-dasharray:5.0,5.0;" x1="613.5" x2="613.5" y1="81.0986" y2="1077.5605"/><line style="stroke:#181818;stroke-width:0.5;stroke-dasharray:5.0,5.0;" x1="727.5" x2="727.5" y1="81.0986" y2="1077.5605"/><line style="stroke:#181818;stroke-width:0.5;stroke-dasharray:5.0,5.0;" x1="1002" x2="1002" y1="81.0986" y2="1077.5605"/><line style="stroke:#181818;stroke-width:0.5;stroke-dasharray:5.0,5.0;" x1="1182.5" x2="1182.5" y1="81.0986" y2="1077.5605"/><line style="stroke:#181818;stroke-width:0.5;stroke-dasharray:5.0,5.0;" x1="1313.5" x2="1313.5" y1="81.0986" y2="1077.5605"/><line style="stroke:#181818;stroke-width:0.5;stroke-dasharray:5.0,5.0;" x1="1433.5" x2="1433.5" y1="81.0986" y2="1077.5605"/><line style="stroke:#181818;stroke-width:0.5;stroke-dasharray:5.0,5.0;" x1="1535.5" x2="1535.5" y1="81.0986" y2="1077.5605"/><text fill="#000000" font-family="Arial" font-size="14" lengthAdjust="spacing" textLength="93" x="5" y="78.3608">SPS (OPC UA)</text><ellipse cx="54.5" cy="13.5" fill="#E2E2F0" rx="8" ry="8" style="stroke:#181818;stroke-width:0.5;"/><path d="M54.5,21.5 L54.5,48.5 M41.5,29.5 L67.5,29.5 M54.5,48.5 L41.5,63.5 M54.5,48.5 L67.5,63.5 " fill="none" style="stroke:#181818;stroke-width:0.5;"/><rect fill="#E2E2F0" height="30.0986" rx="2.5" ry="2.5" style="stroke:#181818;stroke-width:0.5;" width="92" x="212.5" y="50"/><text fill="#000000" font-family="Arial" font-size="14" lengthAdjust="spacing" textLength="78" x="219.5" y="70.3608">:PLCMonitor</text><rect fill="#E2E2F0" height="30.0986" rx="2.5" ry="2.5" style="stroke:#181818;stroke-width:0.5;" width="162" x="402.5" y="50"/><text fill="#000000" font-family="Arial" font-size="14" lengthAdjust="spacing" textLength="148" x="409.5" y="70.3608">:InventorySnapshotUtils</text><rect fill="#E2E2F0" height="30.0986" rx="2.5" ry="2.5" style="stroke:#181818;stroke-width:0.5;" width="78" x="574.5" y="50"/><text fill="#000000" font-family="Arial" font-size="14" lengthAdjust="spacing" textLength="64" x="581.5" y="70.3608">:EventBus</text><rect fill="#E2E2F0" height="30.0986" rx="2.5" ry="2.5" style="stroke:#181818;stroke-width:0.5;" width="130" x="662.5" y="50"/><text fill="#000000" font-family="Arial" font-size="14" lengthAdjust="spacing" textLength="116" x="669.5" y="70.3608">:ReactionManager</text><rect fill="#E2E2F0" height="30.0986" rx="2.5" ry="2.5" style="stroke:#181818;stroke-width:0.5;" width="167" x="919" y="50"/><text fill="#000000" font-family="Arial" font-size="14" lengthAdjust="spacing" textLength="153" x="926" y="70.3608">:CommandForceFactory</text><rect fill="#E2E2F0" height="30.0986" rx="2.5" ry="2.5" style="stroke:#181818;stroke-width:0.5;" width="122" x="1121.5" y="50"/><text fill="#000000" font-family="Arial" font-size="14" lengthAdjust="spacing" textLength="108" x="1128.5" y="70.3608">:ICommandForce</text><rect fill="#E2E2F0" height="30.0986" rx="2.5" ry="2.5" style="stroke:#181818;stroke-width:0.5;" width="121" x="1253.5" y="50"/><text fill="#000000" font-family="Arial" font-size="14" lengthAdjust="spacing" textLength="107" x="1260.5" y="70.3608">:FailureRecorder</text><rect fill="#E2E2F0" height="30.0986" rx="2.5" ry="2.5" style="stroke:#181818;stroke-width:0.5;" width="98" x="1384.5" y="50"/><text fill="#000000" font-family="Arial" font-size="14" lengthAdjust="spacing" textLength="84" x="1391.5" y="70.3608">:TimeBlogger</text><rect fill="#E2E2F0" height="30.0986" rx="2.5" ry="2.5" style="stroke:#181818;stroke-width:0.5;" width="86" x="1492.5" y="50"/><text fill="#000000" font-family="Arial" font-size="14" lengthAdjust="spacing" textLength="72" x="1499.5" y="70.3608">:AckLogger</text><rect fill="#EEEEEE" height="3" style="stroke:#EEEEEE;stroke-width:1.0;" width="1583.5" x="0" y="111.573"/><line style="stroke:#000000;stroke-width:1.0;" x1="0" x2="1583.5" y1="111.573" y2="111.573"/><line style="stroke:#000000;stroke-width:1.0;" x1="0" x2="1583.5" y1="114.573" y2="114.573"/><rect fill="#EEEEEE" height="22.9487" style="stroke:#000000;stroke-width:2.0;" width="64" x="759.75" y="101.0986"/><text fill="#000000" font-family="Arial" font-size="13" font-weight="bold" lengthAdjust="spacing" textLength="46" x="765.75" y="117.5051">Trigger</text><polygon fill="#181818" points="246.5,150.9961,256.5,154.9961,246.5,158.9961,250.5,154.9961" style="stroke:#181818;stroke-width:1.0;"/><line style="stroke:#181818;stroke-width:1.0;" x1="54.5" x2="252.5" y1="154.9961" y2="154.9961"/><text fill="#000000" font-family="Arial" font-size="13" lengthAdjust="spacing" textLength="180" x="61.5" y="150.4539">DataChange TriggerD2 = TRUE</text><line style="stroke:#181818;stroke-width:1.0;" x1="258.5" x2="300.5" y1="183.9448" y2="183.9448"/><line style="stroke:#181818;stroke-width:1.0;" x1="300.5" x2="300.5" y1="183.9448" y2="196.9448"/><line style="stroke:#181818;stroke-width:1.0;" x1="259.5" x2="300.5" y1="196.9448" y2="196.9448"/><polygon fill="#181818" points="269.5,192.9448,259.5,196.9448,269.5,200.9448,265.5,196.9448" style="stroke:#181818;stroke-width:1.0;"/><text fill="#000000" font-family="Arial" font-size="13" lengthAdjust="spacing" textLength="142" x="265.5" y="179.4026">post build-snapshot task</text><polygon fill="#181818" points="471.5,221.8936,481.5,225.8936,471.5,229.8936,475.5,225.8936" style="stroke:#181818;stroke-width:1.0;"/><line style="stroke:#181818;stroke-width:1.0;" x1="258.5" x2="477.5" y1="225.8936" y2="225.8936"/><text fill="#000000" font-family="Arial" font-size="13" lengthAdjust="spacing" textLength="201" x="265.5" y="221.3513">buildInventorySnapshotNow("PLC")</text><polygon fill="#181818" points="269.5,250.8423,259.5,254.8423,269.5,258.8423,265.5,254.8423" style="stroke:#181818;stroke-width:1.0;"/><line style="stroke:#181818;stroke-width:1.0;stroke-dasharray:2.0,2.0;" x1="263.5" x2="482.5" y1="254.8423" y2="254.8423"/><text fill="#000000" font-family="Arial" font-size="13" lengthAdjust="spacing" textLength="106" x="275.5" y="250.3">InventorySnapshot</text><polygon fill="#181818" points="601.5,279.791,611.5,283.791,601.5,287.791,605.5,283.791" style="stroke:#181818;stroke-width:1.0;"/><line style="stroke:#181818;stroke-width:1.0;" x1="258.5" x2="607.5" y1="283.791" y2="283.791"/><text fill="#000000" font-family="Arial" font-size="13" lengthAdjust="spacing" textLength="200" x="265.5" y="279.2488">post evD2 (correlationId, snapshot)</text><rect fill="#EEEEEE" height="3" style="stroke:#EEEEEE;stroke-width:1.0;" width="1583.5" x="0" y="312.2654"/><line style="stroke:#000000;stroke-width:1.0;" x1="0" x2="1583.5" y1="312.2654" y2="312.2654"/><line style="stroke:#000000;stroke-width:1.0;" x1="0" x2="1583.5" y1="315.2654" y2="315.2654"/><rect fill="#EEEEEE" height="22.9487" style="stroke:#000000;stroke-width:2.0;" width="72" x="755.75" y="301.791"/><text fill="#000000" font-family="Arial" font-size="13" font-weight="bold" lengthAdjust="spacing" textLength="54" x="761.75" y="318.1975">Dispatch</text><polygon fill="#181818" points="715.5,351.6885,725.5,355.6885,715.5,359.6885,719.5,355.6885" style="stroke:#181818;stroke-width:1.0;"/><line style="stroke:#181818;stroke-width:1.0;" x1="613.5" x2="721.5" y1="355.6885" y2="355.6885"/><text fill="#000000" font-family="Arial" font-size="13" lengthAdjust="spacing" textLength="82" x="620.5" y="351.1462">onEvent(evD2)</text><polygon fill="#181818" points="1302,380.6372,1312,384.6372,1302,388.6372,1306,384.6372" style="stroke:#181818;stroke-width:1.0;"/><line style="stroke:#181818;stroke-width:1.0;" x1="613.5" x2="1308" y1="384.6372" y2="384.6372"/><text fill="#000000" font-family="Arial" font-size="13" lengthAdjust="spacing" textLength="82" x="620.5" y="380.095">onEvent(evD2)</text><polygon fill="#181818" points="1421.5,409.5859,1431.5,413.5859,1421.5,417.5859,1425.5,413.5859" style="stroke:#181818;stroke-width:1.0;"/><line style="stroke:#181818;stroke-width:1.0;" x1="613.5" x2="1427.5" y1="413.5859" y2="413.5859"/><text fill="#000000" font-family="Arial" font-size="13" lengthAdjust="spacing" textLength="82" x="620.5" y="409.0437">onEvent(evD2)</text><rect fill="#EEEEEE" height="3" style="stroke:#EEEEEE;stroke-width:1.0;" width="1583.5" x="0" y="442.0603"/><line style="stroke:#000000;stroke-width:1.0;" x1="0" x2="1583.5" y1="442.0603" y2="442.0603"/><line style="stroke:#000000;stroke-width:1.0;" x1="0" x2="1583.5" y1="445.0603" y2="445.0603"/><rect fill="#EEEEEE" height="22.9487" style="stroke:#000000;stroke-width:2.0;" width="115" x="734.25" y="431.5859"/><text fill="#000000" font-family="Arial" font-size="13" font-weight="bold" lengthAdjust="spacing" textLength="97" x="740.25" y="447.9924">Plan &amp; Execute</text><line style="stroke:#181818;stroke-width:1.0;" x1="727.5" x2="769.5" y1="485.4834" y2="485.4834"/><line style="stroke:#181818;stroke-width:1.0;" x1="769.5" x2="769.5" y1="485.4834" y2="498.4834"/><line style="stroke:#181818;stroke-width:1.0;" x1="728.5" x2="769.5" y1="498.4834" y2="498.4834"/><polygon fill="#181818" points="738.5,494.4834,728.5,498.4834,738.5,502.4834,734.5,498.4834" style="stroke:#181818;stroke-width:1.0;"/><text fill="#000000" font-family="Arial" font-size="13" lengthAdjust="spacing" textLength="183" x="734.5" y="480.9412">normalize / compare / buildPlan</text><polygon fill="#181818" points="990.5,523.4321,1000.5,527.4321,990.5,531.4321,994.5,527.4321" style="stroke:#181818;stroke-width:1.0;"/><line style="stroke:#181818;stroke-width:1.0;" x1="727.5" x2="996.5" y1="527.4321" y2="527.4321"/><text fill="#000000" font-family="Arial" font-size="13" lengthAdjust="spacing" textLength="251" x="734.5" y="522.8899">createCommandForceForPlanAndAck(plan)</text><polygon fill="#181818" points="1170.5,552.3809,1180.5,556.3809,1170.5,560.3809,1174.5,556.3809" style="stroke:#181818;stroke-width:1.0;"/><line style="stroke:#181818;stroke-width:1.0;" x1="1002.5" x2="1176.5" y1="556.3809" y2="556.3809"/><text fill="#000000" font-family="Arial" font-size="13" lengthAdjust="spacing" textLength="156" x="1009.5" y="551.8386">createForOp(op, mon, bus)</text><polygon fill="#181818" points="624.5,581.3296,614.5,585.3296,624.5,589.3296,620.5,585.3296" style="stroke:#181818;stroke-width:1.0;"/><line style="stroke:#181818;stroke-width:1.0;" x1="618.5" x2="1181.5" y1="585.3296" y2="585.3296"/><text fill="#000000" font-family="Arial" font-size="13" lengthAdjust="spacing" textLength="140" x="630.5" y="580.7874">post evSRPlanned (corr)</text><polygon fill="#181818" points="1523.5,610.2783,1533.5,614.2783,1523.5,618.2783,1527.5,614.2783" style="stroke:#181818;stroke-width:1.0;"/><line style="stroke:#181818;stroke-width:1.0;" x1="613.5" x2="1529.5" y1="614.2783" y2="614.2783"/><text fill="#000000" font-family="Arial" font-size="13" lengthAdjust="spacing" textLength="131" x="620.5" y="609.7361">onEvent(evSRPlanned)</text><line style="stroke:#181818;stroke-width:1.0;" x1="1182.5" x2="1224.5" y1="643.2271" y2="643.2271"/><line style="stroke:#181818;stroke-width:1.0;" x1="1224.5" x2="1224.5" y1="643.2271" y2="656.2271"/><line style="stroke:#181818;stroke-width:1.0;" x1="1183.5" x2="1224.5" y1="656.2271" y2="656.2271"/><polygon fill="#181818" points="1193.5,652.2271,1183.5,656.2271,1193.5,660.2271,1189.5,656.2271" style="stroke:#181818;stroke-width:1.0;"/><text fill="#000000" font-family="Arial" font-size="13" lengthAdjust="spacing" textLength="78" x="1189.5" y="638.6848">execute(plan)</text><polygon fill="#181818" points="624.5,681.1758,614.5,685.1758,624.5,689.1758,620.5,685.1758" style="stroke:#181818;stroke-width:1.0;"/><line style="stroke:#181818;stroke-width:1.0;" x1="618.5" x2="1181.5" y1="685.1758" y2="685.1758"/><text fill="#000000" font-family="Arial" font-size="13" lengthAdjust="spacing" textLength="212" x="630.5" y="680.6335">post evSRDone (rc) or evProcessFail</text><polygon fill="#181818" points="1523.5,710.1245,1533.5,714.1245,1523.5,718.1245,1527.5,714.1245" style="stroke:#181818;stroke-width:1.0;"/><line style="stroke:#181818;stroke-width:1.0;" x1="613.5" x2="1529.5" y1="714.1245" y2="714.1245"/><text fill="#000000" font-family="Arial" font-size="13" lengthAdjust="spacing" textLength="207" x="620.5" y="709.5823">onEvent(evSRDone / evProcessFail)</text><polygon fill="#181818" points="1421.5,739.0732,1431.5,743.0732,1421.5,747.0732,1425.5,743.0732" style="stroke:#181818;stroke-width:1.0;"/><line style="stroke:#181818;stroke-width:1.0;" x1="613.5" x2="1427.5" y1="743.0732" y2="743.0732"/><text fill="#000000" font-family="Arial" font-size="13" lengthAdjust="spacing" textLength="66" x="620.5" y="738.531">onEvent(...)</text><rect fill="#EEEEEE" height="3" style="stroke:#EEEEEE;stroke-width:1.0;" width="1583.5" x="0" y="771.5476"/><line style="stroke:#000000;stroke-width:1.0;" x1="0" x2="1583.5" y1="771.5476" y2="771.5476"/><line style="stroke:#000000;stroke-width:1.0;" x1="0" x2="1583.5" y1="774.5476" y2="774.5476"/><rect fill="#EEEEEE" height="22.9487" style="stroke:#000000;stroke-width:2.0;" width="99" x="742.25" y="761.0732"/><text fill="#000000" font-family="Arial" font-size="13" font-weight="bold" lengthAdjust="spacing" textLength="81" x="748.25" y="777.4797">KG ingestion</text><polygon fill="#181818" points="1302,810.9707,1312,814.9707,1302,818.9707,1306,814.9707" style="stroke:#181818;stroke-width:1.0;"/><line style="stroke:#181818;stroke-width:1.0;" x1="613.5" x2="1308" y1="814.9707" y2="814.9707"/><text fill="#000000" font-family="Arial" font-size="13" lengthAdjust="spacing" textLength="207" x="620.5" y="810.4285">onEvent(evSRDone / evProcessFail)</text><polygon fill="#181818" points="1013.5,839.9194,1003.5,843.9194,1013.5,847.9194,1009.5,843.9194" style="stroke:#181818;stroke-width:1.0;"/><line style="stroke:#181818;stroke-width:1.0;" x1="1007.5" x2="1313" y1="843.9194" y2="843.9194"/><text fill="#000000" font-family="Arial" font-size="13" lengthAdjust="spacing" textLength="200" x="1019.5" y="839.3772">createForOp(KGIngestion, ..., bus)</text><polygon fill="#181818" points="1170.5,868.8682,1180.5,872.8682,1170.5,876.8682,1174.5,872.8682" style="stroke:#181818;stroke-width:1.0;"/><line style="stroke:#181818;stroke-width:1.0;" x1="1002.5" x2="1176.5" y1="872.8682" y2="872.8682"/><text fill="#000000" font-family="Arial" font-size="13" lengthAdjust="spacing" textLength="104" x="1009.5" y="868.3259">KGIngestionForce</text><polygon fill="#181818" points="624.5,897.8169,614.5,901.8169,624.5,905.8169,620.5,901.8169" style="stroke:#181818;stroke-width:1.0;"/><line style="stroke:#181818;stroke-width:1.0;" x1="618.5" x2="1181.5" y1="901.8169" y2="901.8169"/><text fill="#000000" font-family="Arial" font-size="13" lengthAdjust="spacing" textLength="174" x="630.5" y="897.2747">post evIngestionPlanned (corr)</text><polygon fill="#181818" points="1523.5,926.7656,1533.5,930.7656,1523.5,934.7656,1527.5,930.7656" style="stroke:#181818;stroke-width:1.0;"/><line style="stroke:#181818;stroke-width:1.0;" x1="613.5" x2="1529.5" y1="930.7656" y2="930.7656"/><text fill="#000000" font-family="Arial" font-size="13" lengthAdjust="spacing" textLength="165" x="620.5" y="926.2234">onEvent(evIngestionPlanned)</text><polygon fill="#181818" points="624.5,955.7144,614.5,959.7144,624.5,963.7144,620.5,959.7144" style="stroke:#181818;stroke-width:1.0;"/><line style="stroke:#181818;stroke-width:1.0;" x1="618.5" x2="1181.5" y1="959.7144" y2="959.7144"/><text fill="#000000" font-family="Arial" font-size="13" lengthAdjust="spacing" textLength="176" x="630.5" y="955.1721">post evIngestionDone (corr, rc)</text><polygon fill="#181818" points="1523.5,984.6631,1533.5,988.6631,1523.5,992.6631,1527.5,988.6631" style="stroke:#181818;stroke-width:1.0;"/><line style="stroke:#181818;stroke-width:1.0;" x1="613.5" x2="1529.5" y1="988.6631" y2="988.6631"/><text fill="#000000" font-family="Arial" font-size="13" lengthAdjust="spacing" textLength="148" x="620.5" y="984.1208">onEvent(evIngestionDone)</text><polygon fill="#181818" points="1421.5,1013.6118,1431.5,1017.6118,1421.5,1021.6118,1425.5,1017.6118" style="stroke:#181818;stroke-width:1.0;"/><line style="stroke:#181818;stroke-width:1.0;" x1="613.5" x2="1427.5" y1="1017.6118" y2="1017.6118"/><text fill="#000000" font-family="Arial" font-size="13" lengthAdjust="spacing" textLength="66" x="620.5" y="1013.0696">onEvent(...)</text><line style="stroke:#181818;stroke-width:1.0;" x1="1433.5" x2="1475.5" y1="1046.5605" y2="1046.5605"/><line style="stroke:#181818;stroke-width:1.0;" x1="1475.5" x2="1475.5" y1="1046.5605" y2="1059.5605"/><line style="stroke:#181818;stroke-width:1.0;" x1="1434.5" x2="1475.5" y1="1059.5605" y2="1059.5605"/><polygon fill="#181818" points="1444.5,1055.5605,1434.5,1059.5605,1444.5,1063.5605,1440.5,1059.5605" style="stroke:#181818;stroke-width:1.0;"/><text fill="#000000" font-family="Arial" font-size="13" lengthAdjust="spacing" textLength="60" x="1440.5" y="1042.0183">finish(corr)</text><!--SRC=[ZPJFRjf04CRlVeeHXzQM86bxgY9H2GoEef046L3FYptW5VQkjRk4fC_Jn-WjBzRPjSqVGzAURE_yzfkPRtRz6NezME9kgxM1WWjUi1nMRtyKB1LoWt0lYv8PlkGvDs-_3U5UnbE4bPHcALyylU6YP8eLe3EMoXqNQrYnNEDH9CKLs-Ocai8yiW9Xe3ZBZ-8xnSgVF3KPVFt-nME9aGewi-aC_ATf28j1q06cWHOyuWrFUCc4WSxDT18-IC49Tu3zR15tuXa5nLzdWfKwasPXUAuTJQ55YnvRUBYjulHiXMEaqhWK3qomDLOvutR6K1O54saaLOAHQ-NLWM4KjMixHgkImZOJCPvl5SQOI9NMAQEu1SrvWSDShfkQviCMC4WsaqDuCF6yVX_cYjibwFSzQtNlX_CFRc3430ip9jROCADlG7oy67iEEQ2bf5EptF8yxUdQO31CR_QSDPauXvpDub7k_0wHdS1pNEyWVCRk5MaiJM9yfi9ySaPXpknWxj8kD7K4hiaHrtHwaynsQNUIG6prfN2pzgr4q4IY-Bt8V7WMiUhJd0du1ECNJBPqLIX7_B1F8QIYkyH_8Ln3OY-Hic_E2RklHkbO49ieP0PFZevKbXg8b8Rdb_GQU9QrdeQ7BOGzbRuikr18qILrJLw6qPbHizYg2Kmhl_QD3IOdZUqnwg-MgR9XrM9ToEKC8oaGV9K4GDSNdwTA9gYrFS7lPdDRha_XowPVNLrLdj_V0lrYKDjv7qsrDRltf0bhcLuvU7zxruXsWNBLLfuuViIu4LsqOO_ybzzjElXOitBO2dQ1VFwNgCK_S9DMclKL_VXrLfVw5m00]--></g></svg>