<?xml version="1.0" encoding="us-ascii" standalone="no"?><svg xmlns="http://www.w3.org/2000/svg" xmlns:xlink="http://www.w3.org/1999/xlink" contentStyleType="text/css" height="2330px" preserveAspectRatio="none" style="width:2198px;height:2330px;background:#FFFFFF;" version="1.1" viewBox="0 0 2198 2330" width="2198px" zoomAndPan="magnify"><defs/><g><line style="stroke:#181818;stroke-width:0.5;stroke-dasharray:5.0,5.0;" x1="93" x2="93" y1="106.2427" y2="2323.9009"/><line style="stroke:#181818;stroke-width:0.5;stroke-dasharray:5.0,5.0;" x1="240" x2="240" y1="106.2427" y2="2323.9009"/><line style="stroke:#181818;stroke-width:0.5;stroke-dasharray:5.0,5.0;" x1="658.5" x2="658.5" y1="106.2427" y2="2323.9009"/><line style="stroke:#181818;stroke-width:0.5;stroke-dasharray:5.0,5.0;" x1="793.5" x2="793.5" y1="106.2427" y2="2323.9009"/><line style="stroke:#181818;stroke-width:0.5;stroke-dasharray:5.0,5.0;" x1="981" x2="981" y1="106.2427" y2="2323.9009"/><line style="stroke:#181818;stroke-width:0.5;stroke-dasharray:5.0,5.0;" x1="1497" x2="1497" y1="106.2427" y2="2323.9009"/><line style="stroke:#181818;stroke-width:0.5;stroke-dasharray:5.0,5.0;" x1="1723" x2="1723" y1="106.2427" y2="2323.9009"/><line style="stroke:#181818;stroke-width:0.5;stroke-dasharray:5.0,5.0;" x1="1888" x2="1888" y1="106.2427" y2="2323.9009"/><line style="stroke:#181818;stroke-width:0.5;stroke-dasharray:5.0,5.0;" x1="2007" x2="2007" y1="106.2427" y2="2323.9009"/><line style="stroke:#181818;stroke-width:0.5;stroke-dasharray:5.0,5.0;" x1="2140.5" x2="2140.5" y1="106.2427" y2="2323.9009"/><text fill="#000000" font-family="Arial" font-size="25" lengthAdjust="spacing" textLength="170" x="5" y="101.3538">SPS (OPC UA)</text><ellipse cx="93" cy="25.9951" fill="#E2E2F0" rx="8" ry="8" style="stroke:#181818;stroke-width:0.5;"/><path d="M93,33.9951 L93,60.9951 M80,41.9951 L106,41.9951 M93,60.9951 L80,75.9951 M93,60.9951 L106,75.9951 " fill="none" style="stroke:#181818;stroke-width:0.5;"/><rect fill="#E2E2F0" height="71.4951" rx="2.5" ry="2.5" style="stroke:#181818;stroke-width:0.5;" width="98" x="191" y="33.7476"/><text fill="#000000" font-family="Arial" font-size="25" lengthAdjust="spacing" textLength="56" x="212" y="64.6062">:PLC</text><text fill="#000000" font-family="Arial" font-size="25" lengthAdjust="spacing" textLength="84" x="198" y="93.3538">Monitor</text><rect fill="#E2E2F0" height="100.2427" rx="2.5" ry="2.5" style="stroke:#181818;stroke-width:0.5;" width="121" x="598.5" y="5"/><text fill="#000000" font-family="Arial" font-size="25" lengthAdjust="spacing" textLength="107" x="605.5" y="35.8586">:Inventory</text><text fill="#000000" font-family="Arial" font-size="25" lengthAdjust="spacing" textLength="107" x="605.5" y="64.6062">Snapshot</text><text fill="#000000" font-family="Arial" font-size="25" lengthAdjust="spacing" textLength="50" x="634" y="93.3538">Utils</text><rect fill="#E2E2F0" height="42.7476" rx="2.5" ry="2.5" style="stroke:#181818;stroke-width:0.5;" width="128" x="729.5" y="62.4951"/><text fill="#000000" font-family="Arial" font-size="25" lengthAdjust="spacing" textLength="114" x="736.5" y="93.3538">:EventBus</text><rect fill="#E2E2F0" height="71.4951" rx="2.5" ry="2.5" style="stroke:#181818;stroke-width:0.5;" width="121" x="921" y="33.7476"/><text fill="#000000" font-family="Arial" font-size="25" lengthAdjust="spacing" textLength="107" x="928" y="64.6062">:Reaction</text><text fill="#000000" font-family="Arial" font-size="25" lengthAdjust="spacing" textLength="99" x="932" y="93.3538">Manager</text><rect fill="#E2E2F0" height="100.2427" rx="2.5" ry="2.5" style="stroke:#181818;stroke-width:0.5;" width="139" x="1428" y="5"/><text fill="#000000" font-family="Arial" font-size="25" lengthAdjust="spacing" textLength="125" x="1435" y="35.8586">:Command</text><text fill="#000000" font-family="Arial" font-size="25" lengthAdjust="spacing" textLength="64" x="1465.5" y="64.6062">Force</text><text fill="#000000" font-family="Arial" font-size="25" lengthAdjust="spacing" textLength="83" x="1456" y="93.3538">Factory</text><rect fill="#E2E2F0" height="71.4951" rx="2.5" ry="2.5" style="stroke:#181818;stroke-width:0.5;" width="145" x="1651" y="33.7476"/><text fill="#000000" font-family="Arial" font-size="25" lengthAdjust="spacing" textLength="131" x="1658" y="64.6062">:ICommand</text><text fill="#000000" font-family="Arial" font-size="25" lengthAdjust="spacing" textLength="64" x="1691.5" y="93.3538">Force</text><rect fill="#E2E2F0" height="71.4951" rx="2.5" ry="2.5" style="stroke:#181818;stroke-width:0.5;" width="117" x="1830" y="33.7476"/><text fill="#000000" font-family="Arial" font-size="25" lengthAdjust="spacing" textLength="84" x="1846.5" y="64.6062">:Failure</text><text fill="#000000" font-family="Arial" font-size="25" lengthAdjust="spacing" textLength="103" x="1837" y="93.3538">Recorder</text><rect fill="#E2E2F0" height="71.4951" rx="2.5" ry="2.5" style="stroke:#181818;stroke-width:0.5;" width="101" x="1957" y="33.7476"/><text fill="#000000" font-family="Arial" font-size="25" lengthAdjust="spacing" textLength="63" x="1976" y="64.6062">:Time</text><text fill="#000000" font-family="Arial" font-size="25" lengthAdjust="spacing" textLength="87" x="1964" y="93.3538">Blogger</text><rect fill="#E2E2F0" height="71.4951" rx="2.5" ry="2.5" style="stroke:#181818;stroke-width:0.5;" width="92" x="2094.5" y="33.7476"/><text fill="#000000" font-family="Arial" font-size="25" lengthAdjust="spacing" textLength="50" x="2115.5" y="64.6062">:Ack</text><text fill="#000000" font-family="Arial" font-size="25" lengthAdjust="spacing" textLength="78" x="2101.5" y="93.3538">Logger</text><rect fill="#EEEEEE" height="3" style="stroke:#EEEEEE;stroke-width:1.0;" width="2191.5" x="0" y="136.717"/><line style="stroke:#000000;stroke-width:1.0;" x1="0" x2="2191.5" y1="136.717" y2="136.717"/><line style="stroke:#000000;stroke-width:1.0;" x1="0" x2="2191.5" y1="139.717" y2="139.717"/><rect fill="#EEEEEE" height="22.9487" style="stroke:#000000;stroke-width:2.0;" width="60" x="1065.75" y="126.2427"/><text fill="#000000" font-family="Arial" font-size="13" font-weight="bold" lengthAdjust="spacing" textLength="46" x="1071.75" y="142.6492">Trigger</text><polygon fill="#181818" points="228,247.4341,238,251.4341,228,255.4341,232,251.4341" style="stroke:#181818;stroke-width:1.0;"/><line style="stroke:#181818;stroke-width:1.0;" x1="93" x2="234" y1="251.4341" y2="251.4341"/><text fill="#000000" font-family="Arial" font-size="25" lengthAdjust="spacing" textLength="110" x="100" y="187.05">TriggerD2</text><text fill="#000000" font-family="Arial" font-size="25" lengthAdjust="spacing" textLength="15" x="100" y="215.7976">=</text><text fill="#000000" font-family="Arial" font-size="25" lengthAdjust="spacing" textLength="67" x="100" y="244.5452">TRUE</text><line style="stroke:#181818;stroke-width:1.0;" x1="240" x2="282" y1="351.6768" y2="351.6768"/><line style="stroke:#181818;stroke-width:1.0;" x1="282" x2="282" y1="351.6768" y2="364.6768"/><line style="stroke:#181818;stroke-width:1.0;" x1="241" x2="282" y1="364.6768" y2="364.6768"/><polygon fill="#181818" points="251,360.6768,241,364.6768,251,368.6768,247,364.6768" style="stroke:#181818;stroke-width:1.0;"/><text fill="#000000" font-family="Arial" font-size="25" lengthAdjust="spacing" textLength="48" x="247" y="287.2927">post</text><text fill="#000000" font-family="Arial" font-size="25" lengthAdjust="spacing" textLength="165" x="247" y="316.0403">build-snapshot</text><text fill="#000000" font-family="Arial" font-size="25" lengthAdjust="spacing" textLength="47" x="247" y="344.7878">task</text><polygon fill="#181818" points="647,403.4243,657,407.4243,647,411.4243,651,407.4243" style="stroke:#181818;stroke-width:1.0;"/><line style="stroke:#181818;stroke-width:1.0;" x1="240" x2="653" y1="407.4243" y2="407.4243"/><text fill="#000000" font-family="Arial" font-size="25" lengthAdjust="spacing" textLength="395" x="247" y="400.5354">buildInventorySnapshotNow("PLC")</text><polygon fill="#181818" points="251,446.1719,241,450.1719,251,454.1719,247,450.1719" style="stroke:#181818;stroke-width:1.0;"/><line style="stroke:#181818;stroke-width:1.0;stroke-dasharray:2.0,2.0;" x1="245" x2="658" y1="450.1719" y2="450.1719"/><text fill="#000000" font-family="Arial" font-size="25" lengthAdjust="spacing" textLength="207" x="257" y="443.283">InventorySnapshot</text><polygon fill="#181818" points="781.5,575.1621,791.5,579.1621,781.5,583.1621,785.5,579.1621" style="stroke:#181818;stroke-width:1.0;"/><line style="stroke:#181818;stroke-width:1.0;" x1="240" x2="787.5" y1="579.1621" y2="579.1621"/><text fill="#000000" font-family="Arial" font-size="25" lengthAdjust="spacing" textLength="48" x="247" y="486.0305">post</text><text fill="#000000" font-family="Arial" font-size="25" lengthAdjust="spacing" textLength="57" x="247" y="514.7781">evD2</text><text fill="#000000" font-family="Arial" font-size="25" lengthAdjust="spacing" textLength="153" x="247" y="543.5256">(correlationId,</text><text fill="#000000" font-family="Arial" font-size="25" lengthAdjust="spacing" textLength="111" x="247" y="572.2732">snapshot)</text><rect fill="#EEEEEE" height="3" style="stroke:#EEEEEE;stroke-width:1.0;" width="2191.5" x="0" y="607.6365"/><line style="stroke:#000000;stroke-width:1.0;" x1="0" x2="2191.5" y1="607.6365" y2="607.6365"/><line style="stroke:#000000;stroke-width:1.0;" x1="0" x2="2191.5" y1="610.6365" y2="610.6365"/><rect fill="#EEEEEE" height="22.9487" style="stroke:#000000;stroke-width:2.0;" width="68" x="1061.75" y="597.1621"/><text fill="#000000" font-family="Arial" font-size="13" font-weight="bold" lengthAdjust="spacing" textLength="54" x="1067.75" y="613.5686">Dispatch</text><polygon fill="#181818" points="969.5,660.8584,979.5,664.8584,969.5,668.8584,973.5,664.8584" style="stroke:#181818;stroke-width:1.0;"/><line style="stroke:#181818;stroke-width:1.0;" x1="793.5" x2="975.5" y1="664.8584" y2="664.8584"/><text fill="#000000" font-family="Arial" font-size="25" lengthAdjust="spacing" textLength="164" x="800.5" y="657.9695">onEvent(evD2)</text><polygon fill="#181818" points="1876.5,703.606,1886.5,707.606,1876.5,711.606,1880.5,707.606" style="stroke:#181818;stroke-width:1.0;"/><line style="stroke:#181818;stroke-width:1.0;" x1="793.5" x2="1882.5" y1="707.606" y2="707.606"/><text fill="#000000" font-family="Arial" font-size="25" lengthAdjust="spacing" textLength="164" x="800.5" y="700.717">onEvent(evD2)</text><polygon fill="#181818" points="1995.5,746.3535,2005.5,750.3535,1995.5,754.3535,1999.5,750.3535" style="stroke:#181818;stroke-width:1.0;"/><line style="stroke:#181818;stroke-width:1.0;" x1="793.5" x2="2001.5" y1="750.3535" y2="750.3535"/><text fill="#000000" font-family="Arial" font-size="25" lengthAdjust="spacing" textLength="164" x="800.5" y="743.4646">onEvent(evD2)</text><rect fill="#EEEEEE" height="3" style="stroke:#EEEEEE;stroke-width:1.0;" width="2191.5" x="0" y="778.8279"/><line style="stroke:#000000;stroke-width:1.0;" x1="0" x2="2191.5" y1="778.8279" y2="778.8279"/><line style="stroke:#000000;stroke-width:1.0;" x1="0" x2="2191.5" y1="781.8279" y2="781.8279"/><rect fill="#EEEEEE" height="22.9487" style="stroke:#000000;stroke-width:2.0;" width="126" x="1032.75" y="768.3535"/><text fill="#000000" font-family="Arial" font-size="13" font-weight="bold" lengthAdjust="spacing" textLength="112" x="1038.75" y="784.76">Plan and Execute</text><line style="stroke:#181818;stroke-width:1.0;" x1="981.5" x2="1023.5" y1="951.04" y2="951.04"/><line style="stroke:#181818;stroke-width:1.0;" x1="1023.5" x2="1023.5" y1="951.04" y2="964.04"/><line style="stroke:#181818;stroke-width:1.0;" x1="982.5" x2="1023.5" y1="964.04" y2="964.04"/><polygon fill="#181818" points="992.5,960.04,982.5,964.04,992.5,968.04,988.5,964.04" style="stroke:#181818;stroke-width:1.0;"/><text fill="#000000" font-family="Arial" font-size="25" lengthAdjust="spacing" textLength="110" x="988.5" y="829.1609">normalize</text><text fill="#000000" font-family="Arial" font-size="25" lengthAdjust="spacing" textLength="7" x="988.5" y="857.9084">/</text><text fill="#000000" font-family="Arial" font-size="25" lengthAdjust="spacing" textLength="99" x="988.5" y="886.656">compare</text><text fill="#000000" font-family="Arial" font-size="25" lengthAdjust="spacing" textLength="7" x="988.5" y="915.4036">/</text><text fill="#000000" font-family="Arial" font-size="25" lengthAdjust="spacing" textLength="105" x="988.5" y="944.1511">buildPlan</text><polygon fill="#181818" points="1485.5,1002.7876,1495.5,1006.7876,1485.5,1010.7876,1489.5,1006.7876" style="stroke:#181818;stroke-width:1.0;"/><line style="stroke:#181818;stroke-width:1.0;" x1="981.5" x2="1491.5" y1="1006.7876" y2="1006.7876"/><text fill="#000000" font-family="Arial" font-size="25" lengthAdjust="spacing" textLength="492" x="988.5" y="999.8987">createCommandForceForPlanAndAck(plan)</text><polygon fill="#181818" points="1711.5,1103.0303,1721.5,1107.0303,1711.5,1111.0303,1715.5,1107.0303" style="stroke:#181818;stroke-width:1.0;"/><line style="stroke:#181818;stroke-width:1.0;" x1="1497.5" x2="1717.5" y1="1107.0303" y2="1107.0303"/><text fill="#000000" font-family="Arial" font-size="25" lengthAdjust="spacing" textLength="183" x="1504.5" y="1042.6462">createForOp(op,</text><text fill="#000000" font-family="Arial" font-size="25" lengthAdjust="spacing" textLength="57" x="1504.5" y="1071.3938">mon,</text><text fill="#000000" font-family="Arial" font-size="25" lengthAdjust="spacing" textLength="49" x="1504.5" y="1100.1414">bus)</text><polygon fill="#181818" points="804.5,1203.2729,794.5,1207.2729,804.5,1211.2729,800.5,1207.2729" style="stroke:#181818;stroke-width:1.0;"/><line style="stroke:#181818;stroke-width:1.0;" x1="798.5" x2="1722.5" y1="1207.2729" y2="1207.2729"/><text fill="#000000" font-family="Arial" font-size="25" lengthAdjust="spacing" textLength="48" x="810.5" y="1142.8889">post</text><text fill="#000000" font-family="Arial" font-size="25" lengthAdjust="spacing" textLength="153" x="810.5" y="1171.6365">evSRPlanned</text><text fill="#000000" font-family="Arial" font-size="25" lengthAdjust="spacing" textLength="59" x="810.5" y="1200.384">(corr)</text><polygon fill="#181818" points="2128.5,1246.0205,2138.5,1250.0205,2128.5,1254.0205,2132.5,1250.0205" style="stroke:#181818;stroke-width:1.0;"/><line style="stroke:#181818;stroke-width:1.0;" x1="793.5" x2="2134.5" y1="1250.0205" y2="1250.0205"/><text fill="#000000" font-family="Arial" font-size="25" lengthAdjust="spacing" textLength="260" x="800.5" y="1243.1316">onEvent(evSRPlanned)</text><line style="stroke:#181818;stroke-width:1.0;" x1="1723.5" x2="1765.5" y1="1292.7681" y2="1292.7681"/><line style="stroke:#181818;stroke-width:1.0;" x1="1765.5" x2="1765.5" y1="1292.7681" y2="1305.7681"/><line style="stroke:#181818;stroke-width:1.0;" x1="1724.5" x2="1765.5" y1="1305.7681" y2="1305.7681"/><polygon fill="#181818" points="1734.5,1301.7681,1724.5,1305.7681,1734.5,1309.7681,1730.5,1305.7681" style="stroke:#181818;stroke-width:1.0;"/><text fill="#000000" font-family="Arial" font-size="25" lengthAdjust="spacing" textLength="151" x="1730.5" y="1285.8792">execute(plan)</text><polygon fill="#181818" points="804.5,1459.5059,794.5,1463.5059,804.5,1467.5059,800.5,1463.5059" style="stroke:#181818;stroke-width:1.0;"/><line style="stroke:#181818;stroke-width:1.0;" x1="798.5" x2="1722.5" y1="1463.5059" y2="1463.5059"/><text fill="#000000" font-family="Arial" font-size="25" lengthAdjust="spacing" textLength="48" x="810.5" y="1341.6267">post</text><text fill="#000000" font-family="Arial" font-size="25" lengthAdjust="spacing" textLength="120" x="810.5" y="1370.3743">evSRDone</text><text fill="#000000" font-family="Arial" font-size="25" lengthAdjust="spacing" textLength="37" x="810.5" y="1399.1218">(rc)</text><text fill="#000000" font-family="Arial" font-size="25" lengthAdjust="spacing" textLength="22" x="810.5" y="1427.8694">or</text><text fill="#000000" font-family="Arial" font-size="25" lengthAdjust="spacing" textLength="158" x="810.5" y="1456.6169">evProcessFail</text><polygon fill="#181818" points="2128.5,1559.7485,2138.5,1563.7485,2128.5,1567.7485,2132.5,1563.7485" style="stroke:#181818;stroke-width:1.0;"/><line style="stroke:#181818;stroke-width:1.0;" x1="793.5" x2="2134.5" y1="1563.7485" y2="1563.7485"/><text fill="#000000" font-family="Arial" font-size="25" lengthAdjust="spacing" textLength="219" x="800.5" y="1499.3645">onEvent(evSRDone</text><text fill="#000000" font-family="Arial" font-size="25" lengthAdjust="spacing" textLength="7" x="800.5" y="1528.1121">/</text><text fill="#000000" font-family="Arial" font-size="25" lengthAdjust="spacing" textLength="166" x="800.5" y="1556.8596">evProcessFail)</text><polygon fill="#181818" points="1995.5,1602.4961,2005.5,1606.4961,1995.5,1610.4961,1999.5,1606.4961" style="stroke:#181818;stroke-width:1.0;"/><line style="stroke:#181818;stroke-width:1.0;" x1="793.5" x2="2001.5" y1="1606.4961" y2="1606.4961"/><text fill="#000000" font-family="Arial" font-size="25" lengthAdjust="spacing" textLength="128" x="800.5" y="1599.6072">onEvent(...)</text><rect fill="#EEEEEE" height="3" style="stroke:#EEEEEE;stroke-width:1.0;" width="2191.5" x="0" y="1634.9705"/><line style="stroke:#000000;stroke-width:1.0;" x1="0" x2="2191.5" y1="1634.9705" y2="1634.9705"/><line style="stroke:#000000;stroke-width:1.0;" x1="0" x2="2191.5" y1="1637.9705" y2="1637.9705"/><rect fill="#EEEEEE" height="22.9487" style="stroke:#000000;stroke-width:2.0;" width="95" x="1048.25" y="1624.4961"/><text fill="#000000" font-family="Arial" font-size="13" font-weight="bold" lengthAdjust="spacing" textLength="81" x="1054.25" y="1640.9026">KG Ingestion</text><polygon fill="#181818" points="1876.5,1745.6875,1886.5,1749.6875,1876.5,1753.6875,1880.5,1749.6875" style="stroke:#181818;stroke-width:1.0;"/><line style="stroke:#181818;stroke-width:1.0;" x1="793.5" x2="1882.5" y1="1749.6875" y2="1749.6875"/><text fill="#000000" font-family="Arial" font-size="25" lengthAdjust="spacing" textLength="219" x="800.5" y="1685.3035">onEvent(evSRDone</text><text fill="#000000" font-family="Arial" font-size="25" lengthAdjust="spacing" textLength="7" x="800.5" y="1714.051">/</text><text fill="#000000" font-family="Arial" font-size="25" lengthAdjust="spacing" textLength="166" x="800.5" y="1742.7986">evProcessFail)</text><polygon fill="#181818" points="1508.5,1845.9302,1498.5,1849.9302,1508.5,1853.9302,1504.5,1849.9302" style="stroke:#181818;stroke-width:1.0;"/><line style="stroke:#181818;stroke-width:1.0;" x1="1502.5" x2="1887.5" y1="1849.9302" y2="1849.9302"/><text fill="#000000" font-family="Arial" font-size="25" lengthAdjust="spacing" textLength="293" x="1514.5" y="1785.5461">createForOp(KGIngestion,</text><text fill="#000000" font-family="Arial" font-size="25" lengthAdjust="spacing" textLength="28" x="1514.5" y="1814.2937">...,</text><text fill="#000000" font-family="Arial" font-size="25" lengthAdjust="spacing" textLength="49" x="1514.5" y="1843.0413">bus)</text><polygon fill="#181818" points="1711.5,1888.6777,1721.5,1892.6777,1711.5,1896.6777,1715.5,1892.6777" style="stroke:#181818;stroke-width:1.0;"/><line style="stroke:#181818;stroke-width:1.0;" x1="1497.5" x2="1717.5" y1="1892.6777" y2="1892.6777"/><text fill="#000000" font-family="Arial" font-size="25" lengthAdjust="spacing" textLength="202" x="1504.5" y="1885.7888">KGIngestionForce</text><polygon fill="#181818" points="804.5,1988.9204,794.5,1992.9204,804.5,1996.9204,800.5,1992.9204" style="stroke:#181818;stroke-width:1.0;"/><line style="stroke:#181818;stroke-width:1.0;" x1="798.5" x2="1722.5" y1="1992.9204" y2="1992.9204"/><text fill="#000000" font-family="Arial" font-size="25" lengthAdjust="spacing" textLength="48" x="810.5" y="1928.5364">post</text><text fill="#000000" font-family="Arial" font-size="25" lengthAdjust="spacing" textLength="220" x="810.5" y="1957.2839">evIngestionPlanned</text><text fill="#000000" font-family="Arial" font-size="25" lengthAdjust="spacing" textLength="59" x="810.5" y="1986.0315">(corr)</text><polygon fill="#181818" points="2128.5,2031.668,2138.5,2035.668,2128.5,2039.668,2132.5,2035.668" style="stroke:#181818;stroke-width:1.0;"/><line style="stroke:#181818;stroke-width:1.0;" x1="793.5" x2="2134.5" y1="2035.668" y2="2035.668"/><text fill="#000000" font-family="Arial" font-size="25" lengthAdjust="spacing" textLength="327" x="800.5" y="2028.7791">onEvent(evIngestionPlanned)</text><polygon fill="#181818" points="804.5,2160.6582,794.5,2164.6582,804.5,2168.6582,800.5,2164.6582" style="stroke:#181818;stroke-width:1.0;"/><line style="stroke:#181818;stroke-width:1.0;" x1="798.5" x2="1722.5" y1="2164.6582" y2="2164.6582"/><text fill="#000000" font-family="Arial" font-size="25" lengthAdjust="spacing" textLength="48" x="810.5" y="2071.5266">post</text><text fill="#000000" font-family="Arial" font-size="25" lengthAdjust="spacing" textLength="187" x="810.5" y="2100.2742">evIngestionDone</text><text fill="#000000" font-family="Arial" font-size="25" lengthAdjust="spacing" textLength="58" x="810.5" y="2129.0217">(corr,</text><text fill="#000000" font-family="Arial" font-size="25" lengthAdjust="spacing" textLength="29" x="810.5" y="2157.7693">rc)</text><polygon fill="#181818" points="2128.5,2203.4058,2138.5,2207.4058,2128.5,2211.4058,2132.5,2207.4058" style="stroke:#181818;stroke-width:1.0;"/><line style="stroke:#181818;stroke-width:1.0;" x1="793.5" x2="2134.5" y1="2207.4058" y2="2207.4058"/><text fill="#000000" font-family="Arial" font-size="25" lengthAdjust="spacing" textLength="294" x="800.5" y="2200.5168">onEvent(evIngestionDone)</text><polygon fill="#181818" points="1995.5,2246.1533,2005.5,2250.1533,1995.5,2254.1533,1999.5,2250.1533" style="stroke:#181818;stroke-width:1.0;"/><line style="stroke:#181818;stroke-width:1.0;" x1="793.5" x2="2001.5" y1="2250.1533" y2="2250.1533"/><text fill="#000000" font-family="Arial" font-size="25" lengthAdjust="spacing" textLength="128" x="800.5" y="2243.2644">onEvent(...)</text><line style="stroke:#181818;stroke-width:1.0;" x1="2007.5" x2="2049.5" y1="2292.9009" y2="2292.9009"/><line style="stroke:#181818;stroke-width:1.0;" x1="2049.5" x2="2049.5" y1="2292.9009" y2="2305.9009"/><line style="stroke:#181818;stroke-width:1.0;" x1="2008.5" x2="2049.5" y1="2305.9009" y2="2305.9009"/><polygon fill="#181818" points="2018.5,2301.9009,2008.5,2305.9009,2018.5,2309.9009,2014.5,2305.9009" style="stroke:#181818;stroke-width:1.0;"/><text fill="#000000" font-family="Arial" font-size="25" lengthAdjust="spacing" textLength="119" x="2014.5" y="2286.012">finish(corr)</text><!--SRC=[ZPNDRjf04CVlVeeHbzeI95NKNYfHoJXn50KIPE36PR47MCNUTNVN8Udpz35woujrTcrCS4ZI2w2PttpzPrPyWS40LhYhj3PGSC4BbiFwvQ-2bK9k46vbKJB3LppdvkMF8TpRyWnXBQLPoITFFt1HCiKAq5kMoHqN6rYpNEChJuPhLkKcbiBSiG8XL9pbhoFnLuKYnIbJXgUyPCAnC_uRuUBx2J1CZLIV84h9tMcaO4yJr9fjqFc-VVMOpGUzsNG6_lqqWaKOz81f88DN7fg2te_fE5gAYHIS0Xn2Xac7kH6FACZ_l1GpmKgzbMOf5eRdsaMGUz69kB81ewhsqtV7dI0roAMWoanGstNbf5itaaN1HBOKiLGfqfSRwzd1KHntkpp6wzQYBXKpdbUAaYMOIfKrfUEaWyrvGSmebvjzT_DH1mdJXwKO7u1mx7d38SmLjwRXqBFg3tuwGU77tdvv0SGaYolFsG_-KjB1hYgUPmFTY0o6wOUMip8Jvv1s8_jztCcTtoEo5tYE6nmIls7RZBIOVM5yfCPyKaHXpkngRh8-xFi8QAvBhkdPf5kQouPHT6AJI-5MxTluOE-9a_Syyz4R3-MUvam0RGwkdZ2j35ADPDAM45BH6xQ7VGwfVRpA_d8osC06fNiWDbN833Q7uCw0FYmLYepsvPVqC_0iQmMD3Y64tPU-BFjGID6dx9g4ZE8tAiqIcqrWLelL3XQEZmPhCPglILDNmth2ff7J5IwbGF1L6W2zONoSAfdIwxQ7-sur5t9-39yM_Upip6b-Uqs7iK5jTttOQMTpxoKch2DvhT_jTPkp3rIf4V98xrUCMz194LhalzJkqi77EMjzRS8-aCgV9RNu1rgIPMzVqz-DtZQj_WC0]--></g></svg>