<?xml version="1.0" encoding="us-ascii" standalone="no"?><svg xmlns="http://www.w3.org/2000/svg" xmlns:xlink="http://www.w3.org/1999/xlink" contentStyleType="text/css" height="594px" preserveAspectRatio="none" style="width:1361px;height:594px;background:#FFFFFF;" version="1.1" viewBox="0 0 1361 594" width="1361px" zoomAndPan="magnify"><defs/><g><!--class ReactiveObserver--><g id="elem_ReactiveObserver"><rect codeLine="20" fill="#F1F1F1" height="64.0986" id="ReactiveObserver" rx="2.5" ry="2.5" style="stroke:#181818;stroke-width:0.5;" width="144" x="7" y="124"/><ellipse cx="22" cy="140" fill="#A9DCDF" rx="11" ry="11" style="stroke:#181818;stroke-width:1.0;"/><path d="M24.1875,141.7656 L20.0469,141.7656 L19.625,142.7969 L20.0469,142.7969 Q20.6563,142.7969 20.9219,143.0313 Q21.1875,143.2656 21.1875,143.6563 Q21.1875,144.0313 20.9219,144.2656 Q20.6563,144.5 20.0469,144.5 L17.75,144.5 Q17.1406,144.5 16.8828,144.2656 Q16.625,144.0313 16.625,143.6406 Q16.625,143.2656 16.8984,143.0234 Q17.1719,142.7813 17.7969,142.7969 L20.4688,136.1406 L19.3594,136.1406 Q18.75,136.1406 18.4844,135.9063 Q18.2188,135.6719 18.2188,135.2813 Q18.2188,134.9063 18.4844,134.6719 Q18.75,134.4375 19.3594,134.4375 L23.0313,134.4375 L26.4219,142.7969 Q27.0156,142.7969 27.2031,142.9375 Q27.5938,143.2031 27.5938,143.6563 Q27.5938,144.0313 27.3359,144.2656 Q27.0781,144.5 26.4688,144.5 L24.1719,144.5 Q23.5625,144.5 23.2969,144.2656 Q23.0313,144.0313 23.0313,143.6406 Q23.0313,143.2656 23.2969,143.0313 Q23.5625,142.7969 24.1719,142.7969 L24.5938,142.7969 L24.1875,141.7656 Z M23.4688,140.0625 L22.1094,136.6875 L20.7344,140.0625 L23.4688,140.0625 Z " fill="#000000"/><text fill="#000000" font-family="Arial" font-size="14" font-style="italic" lengthAdjust="spacing" textLength="112" x="36" y="145.3115">ReactiveObserver</text><line style="stroke:#181818;stroke-width:0.5;" x1="8" x2="150" y1="156" y2="156"/><line style="stroke:#181818;stroke-width:0.5;" x1="8" x2="150" y1="164" y2="164"/><text fill="#000000" font-family="Arial" font-size="14" font-style="italic" lengthAdjust="spacing" textLength="126" x="13" y="181.3608">+onEvent(ev: Event)</text></g><!--class EventBus--><g id="elem_EventBus"><rect codeLine="24" fill="#F1F1F1" height="128.4932" id="EventBus" rx="2.5" ry="2.5" style="stroke:#181818;stroke-width:0.5;" width="379" x="975" y="7"/><ellipse cx="1130.25" cy="23" fill="#ADD1B2" rx="11" ry="11" style="stroke:#181818;stroke-width:1.0;"/><path d="M1133.0156,18.875 Q1133.1719,18.6563 1133.3594,18.5469 Q1133.5469,18.4375 1133.7656,18.4375 Q1134.1406,18.4375 1134.375,18.6953 Q1134.6094,18.9531 1134.6094,19.5625 L1134.6094,21.0156 Q1134.6094,21.625 1134.375,21.8906 Q1134.1406,22.1563 1133.7656,22.1563 Q1133.4219,22.1563 1133.2188,21.9531 Q1133.0156,21.7656 1132.9063,21.25 Q1132.8594,20.8906 1132.6719,20.7031 Q1132.3438,20.3281 1131.7344,20.1094 Q1131.125,19.8906 1130.5,19.8906 Q1129.7344,19.8906 1129.1016,20.2188 Q1128.4688,20.5469 1127.9766,21.2969 Q1127.4844,22.0469 1127.4844,23.0781 L1127.4844,24.1719 Q1127.4844,25.4063 1128.375,26.2266 Q1129.2656,27.0469 1130.8594,27.0469 Q1131.7969,27.0469 1132.4531,26.7969 Q1132.8438,26.6406 1133.2656,26.2031 Q1133.5313,25.9375 1133.6797,25.8594 Q1133.8281,25.7813 1134.0313,25.7813 Q1134.3594,25.7813 1134.6172,26.0391 Q1134.875,26.2969 1134.875,26.6406 Q1134.875,26.9844 1134.5313,27.3906 Q1134.0313,27.9688 1133.2344,28.2969 Q1132.1563,28.75 1130.8594,28.75 Q1129.3438,28.75 1128.1406,28.125 Q1127.1563,27.625 1126.4688,26.5547 Q1125.7813,25.4844 1125.7813,24.2031 L1125.7813,23.0469 Q1125.7813,21.7188 1126.3984,20.5703 Q1127.0156,19.4219 1128.1094,18.8047 Q1129.2031,18.1875 1130.4375,18.1875 Q1131.1719,18.1875 1131.8203,18.3516 Q1132.4688,18.5156 1133.0156,18.875 Z " fill="#000000"/><text fill="#000000" font-family="Arial" font-size="14" lengthAdjust="spacing" textLength="60" x="1150.75" y="28.3115">EventBus</text><line style="stroke:#181818;stroke-width:0.5;" x1="976" x2="1353" y1="39" y2="39"/><line style="stroke:#181818;stroke-width:0.5;" x1="976" x2="1353" y1="47" y2="47"/><text fill="#000000" font-family="Arial" font-size="14" lengthAdjust="spacing" textLength="367" x="981" y="64.3608">+subscribe(t: EventType, obs, priority): SubscriptionToken</text><text fill="#000000" font-family="Arial" font-size="14" lengthAdjust="spacing" textLength="274" x="981" y="80.4595">+unsubscribe(tok: SubscriptionToken): void</text><text fill="#000000" font-family="Arial" font-size="14" lengthAdjust="spacing" textLength="138" x="981" y="96.5581">+post(ev: Event): void</text><text fill="#000000" font-family="Arial" font-size="14" lengthAdjust="spacing" textLength="171" x="981" y="112.6567">+post_now(ev: Event): void</text><text fill="#000000" font-family="Arial" font-size="14" lengthAdjust="spacing" textLength="194" x="981" y="128.7554">+process(maxEvents=32): void</text></g><!--class PLCMonitor--><g id="elem_PLCMonitor"><rect codeLine="32" fill="#F1F1F1" height="64.0986" id="PLCMonitor" rx="2.5" ry="2.5" style="stroke:#181818;stroke-width:0.5;" width="106" x="1111.5" y="170"/><ellipse cx="1126.5" cy="186" fill="#ADD1B2" rx="11" ry="11" style="stroke:#181818;stroke-width:1.0;"/><path d="M1129.2656,181.875 Q1129.4219,181.6563 1129.6094,181.5469 Q1129.7969,181.4375 1130.0156,181.4375 Q1130.3906,181.4375 1130.625,181.6953 Q1130.8594,181.9531 1130.8594,182.5625 L1130.8594,184.0156 Q1130.8594,184.625 1130.625,184.8906 Q1130.3906,185.1563 1130.0156,185.1563 Q1129.6719,185.1563 1129.4688,184.9531 Q1129.2656,184.7656 1129.1563,184.25 Q1129.1094,183.8906 1128.9219,183.7031 Q1128.5938,183.3281 1127.9844,183.1094 Q1127.375,182.8906 1126.75,182.8906 Q1125.9844,182.8906 1125.3516,183.2188 Q1124.7188,183.5469 1124.2266,184.2969 Q1123.7344,185.0469 1123.7344,186.0781 L1123.7344,187.1719 Q1123.7344,188.4063 1124.625,189.2266 Q1125.5156,190.0469 1127.1094,190.0469 Q1128.0469,190.0469 1128.7031,189.7969 Q1129.0938,189.6406 1129.5156,189.2031 Q1129.7813,188.9375 1129.9297,188.8594 Q1130.0781,188.7813 1130.2813,188.7813 Q1130.6094,188.7813 1130.8672,189.0391 Q1131.125,189.2969 1131.125,189.6406 Q1131.125,189.9844 1130.7813,190.3906 Q1130.2813,190.9688 1129.4844,191.2969 Q1128.4063,191.75 1127.1094,191.75 Q1125.5938,191.75 1124.3906,191.125 Q1123.4063,190.625 1122.7188,189.5547 Q1122.0313,188.4844 1122.0313,187.2031 L1122.0313,186.0469 Q1122.0313,184.7188 1122.6484,183.5703 Q1123.2656,182.4219 1124.3594,181.8047 Q1125.4531,181.1875 1126.6875,181.1875 Q1127.4219,181.1875 1128.0703,181.3516 Q1128.7188,181.5156 1129.2656,181.875 Z " fill="#000000"/><text fill="#000000" font-family="Arial" font-size="14" lengthAdjust="spacing" textLength="74" x="1140.5" y="191.3115">PLCMonitor</text><line style="stroke:#181818;stroke-width:0.5;" x1="1112.5" x2="1216.5" y1="202" y2="202"/><text fill="#000000" font-family="Arial" font-size="14" lengthAdjust="spacing" textLength="12" x="1117.5" y="219.3608">...</text><line style="stroke:#181818;stroke-width:0.5;" x1="1112.5" x2="1216.5" y1="226.0986" y2="226.0986"/></g><!--class KG_Interface--><g id="elem_KG_Interface"><rect codeLine="35" fill="#F1F1F1" height="120.292" id="KG_Interface" rx="2.5" ry="2.5" style="stroke:#181818;stroke-width:0.5;" width="347" x="991" y="269"/><ellipse cx="1118.75" cy="288.9487" fill="#ADD1B2" rx="11" ry="11" style="stroke:#181818;stroke-width:1.0;"/><path d="M1121.5156,284.8237 Q1121.6719,284.605 1121.8594,284.4956 Q1122.0469,284.3862 1122.2656,284.3862 Q1122.6406,284.3862 1122.875,284.644 Q1123.1094,284.9019 1123.1094,285.5112 L1123.1094,286.9644 Q1123.1094,287.5737 1122.875,287.8394 Q1122.6406,288.105 1122.2656,288.105 Q1121.9219,288.105 1121.7188,287.9019 Q1121.5156,287.7144 1121.4063,287.1987 Q1121.3594,286.8394 1121.1719,286.6519 Q1120.8438,286.2769 1120.2344,286.0581 Q1119.625,285.8394 1119,285.8394 Q1118.2344,285.8394 1117.6016,286.1675 Q1116.9688,286.4956 1116.4766,287.2456 Q1115.9844,287.9956 1115.9844,289.0269 L1115.9844,290.1206 Q1115.9844,291.355 1116.875,292.1753 Q1117.7656,292.9956 1119.3594,292.9956 Q1120.2969,292.9956 1120.9531,292.7456 Q1121.3438,292.5894 1121.7656,292.1519 Q1122.0313,291.8862 1122.1797,291.8081 Q1122.3281,291.73 1122.5313,291.73 Q1122.8594,291.73 1123.1172,291.9878 Q1123.375,292.2456 1123.375,292.5894 Q1123.375,292.9331 1123.0313,293.3394 Q1122.5313,293.9175 1121.7344,294.2456 Q1120.6563,294.6987 1119.3594,294.6987 Q1117.8438,294.6987 1116.6406,294.0737 Q1115.6563,293.5737 1114.9688,292.5034 Q1114.2813,291.4331 1114.2813,290.1519 L1114.2813,288.9956 Q1114.2813,287.6675 1114.8984,286.519 Q1115.5156,285.3706 1116.6094,284.7534 Q1117.7031,284.1362 1118.9375,284.1362 Q1119.6719,284.1362 1120.3203,284.3003 Q1120.9688,284.4644 1121.5156,284.8237 Z " fill="#000000"/><text fill="#000000" font-family="Arial" font-size="12" font-style="italic" lengthAdjust="spacing" textLength="52" x="1154.75" y="285.4521">&#171;Python&#187;</text><text fill="#000000" font-family="Arial" font-size="14" lengthAdjust="spacing" textLength="83" x="1139.25" y="301.1597">KG_Interface</text><line style="stroke:#181818;stroke-width:0.5;" x1="992" x2="1337" y1="308.8975" y2="308.8975"/><text fill="#000000" font-family="Arial" font-size="14" lengthAdjust="spacing" textLength="12" x="997" y="326.2583">...</text><line style="stroke:#181818;stroke-width:0.5;" x1="992" x2="1337" y1="332.9961" y2="332.9961"/><text fill="#000000" font-family="Arial" font-size="14" lengthAdjust="spacing" textLength="335" x="997" y="350.3569">+getFailureModeParameters(skillName: string): string</text><text fill="#000000" font-family="Arial" font-size="14" lengthAdjust="spacing" textLength="297" x="997" y="366.4556">+getMonitoringActionForFM(fmIri: string): string</text><text fill="#000000" font-family="Arial" font-size="14" lengthAdjust="spacing" textLength="294" x="997" y="382.5542">+getSystemReactionForFM(fmIri: string): string</text></g><!--class ReactionManager--><g id="elem_ReactionManager"><rect codeLine="42" fill="#F1F1F1" height="160.6904" id="ReactionManager" rx="2.5" ry="2.5" style="stroke:#181818;stroke-width:0.5;" width="653" x="212" y="185.5"/><ellipse cx="478.25" cy="201.5" fill="#ADD1B2" rx="11" ry="11" style="stroke:#181818;stroke-width:1.0;"/><path d="M481.0156,197.375 Q481.1719,197.1563 481.3594,197.0469 Q481.5469,196.9375 481.7656,196.9375 Q482.1406,196.9375 482.375,197.1953 Q482.6094,197.4531 482.6094,198.0625 L482.6094,199.5156 Q482.6094,200.125 482.375,200.3906 Q482.1406,200.6563 481.7656,200.6563 Q481.4219,200.6563 481.2188,200.4531 Q481.0156,200.2656 480.9063,199.75 Q480.8594,199.3906 480.6719,199.2031 Q480.3438,198.8281 479.7344,198.6094 Q479.125,198.3906 478.5,198.3906 Q477.7344,198.3906 477.1016,198.7188 Q476.4688,199.0469 475.9766,199.7969 Q475.4844,200.5469 475.4844,201.5781 L475.4844,202.6719 Q475.4844,203.9063 476.375,204.7266 Q477.2656,205.5469 478.8594,205.5469 Q479.7969,205.5469 480.4531,205.2969 Q480.8438,205.1406 481.2656,204.7031 Q481.5313,204.4375 481.6797,204.3594 Q481.8281,204.2813 482.0313,204.2813 Q482.3594,204.2813 482.6172,204.5391 Q482.875,204.7969 482.875,205.1406 Q482.875,205.4844 482.5313,205.8906 Q482.0313,206.4688 481.2344,206.7969 Q480.1563,207.25 478.8594,207.25 Q477.3438,207.25 476.1406,206.625 Q475.1563,206.125 474.4688,205.0547 Q473.7813,203.9844 473.7813,202.7031 L473.7813,201.5469 Q473.7813,200.2188 474.3984,199.0703 Q475.0156,197.9219 476.1094,197.3047 Q477.2031,196.6875 478.4375,196.6875 Q479.1719,196.6875 479.8203,196.8516 Q480.4688,197.0156 481.0156,197.375 Z " fill="#000000"/><text fill="#000000" font-family="Arial" font-size="14" lengthAdjust="spacing" textLength="112" x="498.75" y="206.8115">ReactionManager</text><line style="stroke:#181818;stroke-width:0.5;" x1="213" x2="864" y1="217.5" y2="217.5"/><line style="stroke:#181818;stroke-width:0.5;" x1="213" x2="864" y1="225.5" y2="225.5"/><text fill="#000000" font-family="Arial" font-size="14" lengthAdjust="spacing" textLength="356" x="218" y="242.8608">+ReactionManager(mon: PLCMonitor&amp;, bus: EventBus&amp;)</text><text fill="#000000" font-family="Arial" font-size="14" lengthAdjust="spacing" textLength="163" x="218" y="258.9595">+onEvent(ev: Event): void</text><text fill="#000000" font-family="Arial" font-size="14" lengthAdjust="spacing" textLength="445" x="218" y="275.0581">+buildPlanFromComparison(corr: string, rep: ComparisonReport): Plan</text><text fill="#000000" font-family="Arial" font-size="14" lengthAdjust="spacing" textLength="641" x="218" y="291.1567">+createCommandForceForPlanAndAck(plan: Plan, checksOk: bool, processNameForFail: string): void</text><text fill="#000000" font-family="Arial" font-size="14" lengthAdjust="spacing" textLength="346" x="218" y="307.2554">+fetchFailureModeParameters(skillName: string): string</text><text fill="#000000" font-family="Arial" font-size="14" lengthAdjust="spacing" textLength="308" x="218" y="323.354">+fetchMonitoringActionForFM(fmIri: string): string</text><text fill="#000000" font-family="Arial" font-size="14" lengthAdjust="spacing" textLength="305" x="218" y="339.4526">+fetchSystemReactionForFM(fmIri: string): string</text></g><!--class Plan--><g id="elem_Plan"><rect codeLine="52" fill="#F1F1F1" height="64.0986" id="Plan" rx="2.5" ry="2.5" style="stroke:#181818;stroke-width:0.5;" width="169" x="1080" y="424"/><ellipse cx="1146.25" cy="440" fill="#F1F1F1" rx="11" ry="11" style="stroke:#181818;stroke-width:1.0;"/><path d="M1144.3594,444.5625 Q1144.1406,444.8281 1144,444.9063 Q1143.8594,444.9844 1143.6719,444.9844 Q1143.2813,444.9844 1143.0391,444.7188 Q1142.7969,444.4531 1142.7969,443.8594 L1142.7969,442.7031 Q1142.7969,442.0938 1143.0391,441.8359 Q1143.2813,441.5781 1143.6719,441.5781 Q1143.9688,441.5781 1144.1719,441.7344 Q1144.375,441.8906 1144.4844,442.2578 Q1144.5938,442.625 1144.7031,442.7656 Q1144.9531,443.0156 1145.5625,443.2813 Q1146.1719,443.5469 1146.9063,443.5469 Q1148.0469,443.5469 1148.7656,443.0156 Q1149.2344,442.6875 1149.2344,442.2188 Q1149.2344,441.9063 1149.0156,441.625 Q1148.7969,441.3438 1148.2813,441.1719 Q1147.9531,441.0469 1146.7969,440.8281 Q1145.4063,440.5625 1144.6875,440.2031 Q1143.9688,439.8438 1143.5547,439.1797 Q1143.1406,438.5156 1143.1406,437.7344 Q1143.1406,436.5156 1144.1641,435.6016 Q1145.1875,434.6875 1146.8281,434.6875 Q1147.4844,434.6875 1148.0391,434.8281 Q1148.5938,434.9688 1149.0625,435.2656 Q1149.3906,434.9531 1149.7188,434.9531 Q1150.0938,434.9531 1150.3281,435.2109 Q1150.5625,435.4688 1150.5625,436.0781 L1150.5625,437.3594 Q1150.5625,437.9688 1150.3281,438.2266 Q1150.0938,438.4844 1149.7188,438.4844 Q1149.4063,438.4844 1149.1719,438.2969 Q1148.9844,438.1563 1148.8984,437.7344 Q1148.8125,437.3125 1148.6719,437.125 Q1148.4219,436.8125 1147.9453,436.6016 Q1147.4688,436.3906 1146.8281,436.3906 Q1145.9063,436.3906 1145.375,436.8125 Q1144.8438,437.2344 1144.8438,437.7031 Q1144.8438,438.0156 1145.0625,438.3125 Q1145.2813,438.6094 1145.7031,438.7813 Q1145.9844,438.8906 1147.2891,439.1484 Q1148.5938,439.4063 1149.2969,439.7109 Q1150,440.0156 1150.4688,440.6719 Q1150.9375,441.3281 1150.9375,442.2344 Q1150.9375,443.5 1150.0469,444.25 Q1148.8594,445.25 1147.0313,445.25 Q1146.3281,445.25 1145.6641,445.0781 Q1145,444.9063 1144.3594,444.5625 Z " fill="#000000"/><text fill="#000000" font-family="Arial" font-size="14" lengthAdjust="spacing" textLength="28" x="1166.75" y="445.3115">Plan</text><line style="stroke:#181818;stroke-width:0.5;" x1="1081" x2="1248" y1="456" y2="456"/><text fill="#000000" font-family="Arial" font-size="14" lengthAdjust="spacing" textLength="157" x="1086" y="473.3608">+ops: vector&lt;Operation&gt;</text><line style="stroke:#181818;stroke-width:0.5;" x1="1081" x2="1248" y1="480.0986" y2="480.0986"/></g><!--class CommandForceFactory--><g id="elem_CommandForceFactory"><rect codeLine="55" fill="#F1F1F1" height="64.0986" id="CommandForceFactory" rx="2.5" ry="2.5" style="stroke:#181818;stroke-width:0.5;" width="278" x="1025.5" y="523"/><ellipse cx="1085.75" cy="539" fill="#ADD1B2" rx="11" ry="11" style="stroke:#181818;stroke-width:1.0;"/><path d="M1088.5156,534.875 Q1088.6719,534.6563 1088.8594,534.5469 Q1089.0469,534.4375 1089.2656,534.4375 Q1089.6406,534.4375 1089.875,534.6953 Q1090.1094,534.9531 1090.1094,535.5625 L1090.1094,537.0156 Q1090.1094,537.625 1089.875,537.8906 Q1089.6406,538.1563 1089.2656,538.1563 Q1088.9219,538.1563 1088.7188,537.9531 Q1088.5156,537.7656 1088.4063,537.25 Q1088.3594,536.8906 1088.1719,536.7031 Q1087.8438,536.3281 1087.2344,536.1094 Q1086.625,535.8906 1086,535.8906 Q1085.2344,535.8906 1084.6016,536.2188 Q1083.9688,536.5469 1083.4766,537.2969 Q1082.9844,538.0469 1082.9844,539.0781 L1082.9844,540.1719 Q1082.9844,541.4063 1083.875,542.2266 Q1084.7656,543.0469 1086.3594,543.0469 Q1087.2969,543.0469 1087.9531,542.7969 Q1088.3438,542.6406 1088.7656,542.2031 Q1089.0313,541.9375 1089.1797,541.8594 Q1089.3281,541.7813 1089.5313,541.7813 Q1089.8594,541.7813 1090.1172,542.0391 Q1090.375,542.2969 1090.375,542.6406 Q1090.375,542.9844 1090.0313,543.3906 Q1089.5313,543.9688 1088.7344,544.2969 Q1087.6563,544.75 1086.3594,544.75 Q1084.8438,544.75 1083.6406,544.125 Q1082.6563,543.625 1081.9688,542.5547 Q1081.2813,541.4844 1081.2813,540.2031 L1081.2813,539.0469 Q1081.2813,537.7188 1081.8984,536.5703 Q1082.5156,535.4219 1083.6094,534.8047 Q1084.7031,534.1875 1085.9375,534.1875 Q1086.6719,534.1875 1087.3203,534.3516 Q1087.9688,534.5156 1088.5156,534.875 Z " fill="#000000"/><text fill="#000000" font-family="Arial" font-size="14" lengthAdjust="spacing" textLength="149" x="1106.25" y="544.3115">CommandForceFactory</text><line style="stroke:#181818;stroke-width:0.5;" x1="1026.5" x2="1302.5" y1="555" y2="555"/><line style="stroke:#181818;stroke-width:0.5;" x1="1026.5" x2="1302.5" y1="563" y2="563"/><text fill="#000000" font-family="Arial" font-size="14" lengthAdjust="spacing" textLength="266" x="1031.5" y="580.3608">+create(...): unique_ptr&lt;ICommandForce&gt;</text></g><!--reverse link ReactiveObserver to ReactionManager--><g id="link_ReactiveObserver_ReactionManager"><path d="M168.7331,177.3303 C186.6931,181.6403 189.66,182.37 211.6,187.64 " fill="none" id="ReactiveObserver-backto-ReactionManager" style="stroke:#181818;stroke-width:1.0;stroke-dasharray:7.0,7.0;"/><polygon fill="none" points="151.23,173.13,167.3329,183.1647,170.1332,171.496,151.23,173.13" style="stroke:#181818;stroke-width:1.0;"/></g><!--link ReactionManager to PLCMonitor--><g id="link_ReactionManager_PLCMonitor"><path codeLine="59" d="M865.21,232.59 C961.1,222.76 1049.2913,213.7117 1105.4013,207.9617 " fill="none" id="ReactionManager-to-PLCMonitor" style="stroke:#181818;stroke-width:1.0;"/><polygon fill="#181818" points="1111.37,207.35,1102.0091,204.2883,1106.396,207.8597,1102.8247,212.2467,1111.37,207.35" style="stroke:#181818;stroke-width:1.0;"/><text fill="#000000" font-family="Arial" font-size="13" lengthAdjust="spacing" textLength="32" x="904" y="222.4065">mon_</text></g><!--link ReactionManager to EventBus--><g id="link_ReactionManager_EventBus"><path codeLine="60" d="M797.36,185.42 C856.74,166.86 913.1031,149.2496 968.9131,131.8096 " fill="none" id="ReactionManager-to-EventBus" style="stroke:#181818;stroke-width:1.0;"/><polygon fill="#181818" points="974.64,130.02,964.8566,128.8865,969.8676,131.5113,967.2427,136.5223,974.64,130.02" style="stroke:#181818;stroke-width:1.0;"/><text fill="#000000" font-family="Arial" font-size="13" lengthAdjust="spacing" textLength="28" x="906" y="137.4065">bus_</text></g><!--link ReactionManager to KG_Interface--><g id="link_ReactionManager_KG_Interface"><path codeLine="61" d="M865.21,298.88 C908.5,303.25 945.4703,306.9876 984.7103,310.9476 " fill="none" id="ReactionManager-to-KG_Interface" style="stroke:#181818;stroke-width:1.0;"/><polygon fill="#181818" points="990.68,311.55,982.1271,306.6665,985.7053,311.048,981.3239,314.6261,990.68,311.55" style="stroke:#181818;stroke-width:1.0;"/><text fill="#000000" font-family="Arial" font-size="13" lengthAdjust="spacing" textLength="40" x="900" y="301.4065">fetch...</text></g><!--link ReactionManager to CommandForceFactory--><g id="link_ReactionManager_CommandForceFactory"><path codeLine="62" d="M665.9,346.7 C750.69,398.02 866.33,462.72 975,506 C991.02,512.38 1002.3956,516.4273 1019.5356,521.5973 " fill="none" id="ReactionManager-to-CommandForceFactory" style="stroke:#181818;stroke-width:1.0;"/><polygon fill="#181818" points="1025.28,523.33,1017.8186,516.9014,1020.493,521.8861,1015.5083,524.5605,1025.28,523.33" style="stroke:#181818;stroke-width:1.0;"/><text fill="#000000" font-family="Arial" font-size="13" lengthAdjust="spacing" textLength="48" x="896" y="471.4065">create...</text></g><!--link ReactionManager to Plan--><g id="link_ReactionManager_Plan"><path codeLine="63" d="M782.4,346.54 C844.96,366.6 912.32,387.62 975,406 C1009.11,416 1041.1548,424.6936 1073.9248,433.2536 " fill="none" id="ReactionManager-to-Plan" style="stroke:#181818;stroke-width:1.0;"/><polygon fill="#181818" points="1079.73,434.77,1072.0331,428.6252,1074.8923,433.5063,1070.0112,436.3655,1079.73,434.77" style="stroke:#181818;stroke-width:1.0;"/><text fill="#000000" font-family="Arial" font-size="13" lengthAdjust="spacing" textLength="39" x="900.5" y="382.4065">build...</text></g><!--link EventBus to ReactiveObserver--><g id="link_EventBus_ReactiveObserver"><path codeLine="64" d="M974.89,85.8 C730.53,104.97 316.28,137.46 151.09,150.42 " fill="none" id="EventBus-ReactiveObserver" style="stroke:#181818;stroke-width:1.0;"/><text fill="#000000" font-family="Arial" font-size="13" lengthAdjust="spacing" textLength="21" x="528" y="93.4065">obs</text></g><!--SRC=[dLNDRjD04BxxAURKE6fI5GezMALIGAIge3GY5GSkrTgUE2klTvRTTI2jU1OkF0CdRdanPfsVEjGWWG_HsZFVpEmttqnwy1v5vYNfAw55WHQ6CAQiTfX3feHpa4jHM551J5ej-SrYvlbWKGdFJdvfqC41bCX6DAuVkL9g8mB4pKLEdwKkO2QKmvQb2JtotigqzdYPaPxAEuJZg0VZrSy28HUkoLLwA8I-0qfH0qgTHBs7ABcHS79y39qFXvgjVbgOlBiOllvYo7g8PQ79IkHZYXAc7oxQrUOu4xNoOzB-dQWGHbOAjPVkmQ6fzidfVhh2hdwilg5b4eCFlE0ipl4xl4MN2bkYzErucd9qQE3PSNVvRpHvr29rNkYy3RH2bm5uyhmR-16bQWCpeRZQerFuwyF0kzgjllix9RCvmhGKYhcgTH7rvZ97mChu9LHOfMXTf73cmHDOMSpzHXSiewZdoOJlANbFLSiGXO8iYsqZkGLUfypEWkcwZm3kj-QlS4ZwzGArZt6HG7FgHr-ZQAt7vlrbxHhGeQjJbx6ACFORrniMv83ruWPWhEHs-sK_WUdQpuHARgX47S2rRi6fxF1Yv89a7fmDkNP1-uPRJP-xZPOo5a5SYI-DoRquURerxwuqUVlgYhJqj6RYwEY8RMlJculRI-tHpaI6S7OsMVevwVFpdH-dAD2FXLIrnIiMr2Ge11dXOXQCKa7A2J2pF8RzxM43soJb3wEcHMEouwjuLbrQ-IV8TEayLjkTyLV0xdg_RnXP6OLL8ADR2OU_0UAATD8YwM00QUsIdH8E-W7qM3CFNKXhgVA94dfigNf55O-HTAJZZApTrZlWbMOIUB2-nx0qE4e0XYYPHLvvx53nMF7LC-IVO1pfV9ILiU7Zsdi0F41PwQvPKocH2b9iT12w4KZZVhK8svOvGv_D_wUN3V1Vkzc0_gsVVAfvViCLuHuQrWqtOi4JJlRisg0L8SnvC6qLlCUN28xB3NRDPymovYIrbfzgl3NUdbss8PjOqQE_gU5vUsuIO97STdhj5aOIPDFjipTc2JJKXF7gykswK0Bho_m9qp0MyhCEWy-kfk7myGmaONj5lm00]--></g></svg>