<?xml version="1.0" encoding="us-ascii" standalone="no"?><svg xmlns="http://www.w3.org/2000/svg" xmlns:xlink="http://www.w3.org/1999/xlink" contentStyleType="text/css" height="1031px" preserveAspectRatio="none" style="width:1271px;height:1031px;background:#FFFFFF;" version="1.1" viewBox="0 0 1271 1031" width="1271px" zoomAndPan="magnify"><defs/><g><!--class EventType--><g id="elem_EventType"><rect codeLine="21" fill="#F1F1F1" height="305.5781" id="EventType" rx="2.5" ry="2.5" style="stroke:#181818;stroke-width:0.5;" width="141" x="527" y="7"/><ellipse cx="560.45" cy="23" fill="#EB937F" rx="11" ry="11" style="stroke:#181818;stroke-width:1.0;"/><path d="M559.3094,23.7969 L559.3094,26.2969 L563.6375,26.2969 L563.6375,25.375 Q563.6375,24.7656 563.8797,24.5 Q564.1219,24.2344 564.4969,24.2344 Q564.8719,24.2344 565.1063,24.5 Q565.3406,24.7656 565.3406,25.375 L565.3406,28 L557.3406,28 Q556.7156,28 556.4578,27.7656 Q556.2,27.5313 556.2,27.1406 Q556.2,26.7656 556.4656,26.5313 Q556.7313,26.2969 557.3406,26.2969 L557.6063,26.2969 L557.6063,19.6406 L557.3406,19.6406 Q556.7156,19.6406 556.4578,19.4063 Q556.2,19.1719 556.2,18.7813 Q556.2,18.4063 556.4578,18.1719 Q556.7156,17.9375 557.3406,17.9375 L564.9656,17.9375 L564.9656,20.5313 Q564.9656,21.1406 564.7391,21.3984 Q564.5125,21.6563 564.1219,21.6563 Q563.7469,21.6563 563.5125,21.3984 Q563.2781,21.1406 563.2781,20.5313 L563.2781,19.6406 L559.3094,19.6406 L559.3094,22.0938 L560.7938,22.0938 Q560.7938,21.4375 560.9188,21.25 Q561.1844,20.8438 561.6531,20.8438 Q562.0281,20.8438 562.2625,21.1016 Q562.4969,21.3594 562.4969,21.9688 L562.4969,23.9375 Q562.4969,24.4844 562.3719,24.6719 Q562.1063,25.0625 561.6531,25.0625 Q561.1844,25.0625 560.9188,24.6563 Q560.7938,24.4688 560.7938,23.7969 L559.3094,23.7969 Z " fill="#000000"/><text fill="#000000" font-family="Arial" font-size="14" lengthAdjust="spacing" textLength="68" x="578.55" y="28.3115">EventType</text><line style="stroke:#181818;stroke-width:0.5;" x1="528" x2="667" y1="39" y2="39"/><text fill="#000000" font-family="Arial" font-size="14" lengthAdjust="spacing" textLength="33" x="533" y="56.3608">evD2</text><text fill="#000000" font-family="Arial" font-size="14" lengthAdjust="spacing" textLength="33" x="533" y="72.4595">evD1</text><text fill="#000000" font-family="Arial" font-size="14" lengthAdjust="spacing" textLength="33" x="533" y="88.5581">evD3</text><text fill="#000000" font-family="Arial" font-size="14" lengthAdjust="spacing" textLength="86" x="533" y="104.6567">evSRPlanned</text><text fill="#000000" font-family="Arial" font-size="14" lengthAdjust="spacing" textLength="68" x="533" y="120.7554">evSRDone</text><text fill="#000000" font-family="Arial" font-size="14" lengthAdjust="spacing" textLength="89" x="533" y="136.854">evProcessFail</text><text fill="#000000" font-family="Arial" font-size="14" lengthAdjust="spacing" textLength="114" x="533" y="152.9526">evMonActPlanned</text><text fill="#000000" font-family="Arial" font-size="14" lengthAdjust="spacing" textLength="96" x="533" y="169.0513">evMonActDone</text><text fill="#000000" font-family="Arial" font-size="14" lengthAdjust="spacing" textLength="75" x="533" y="185.1499">evKGResult</text><text fill="#000000" font-family="Arial" font-size="14" lengthAdjust="spacing" textLength="86" x="533" y="201.2485">evKGTimeout</text><text fill="#000000" font-family="Arial" font-size="14" lengthAdjust="spacing" textLength="124" x="533" y="217.3472">evIngestionPlanned</text><text fill="#000000" font-family="Arial" font-size="14" lengthAdjust="spacing" textLength="106" x="533" y="233.4458">evIngestionDone</text><text fill="#000000" font-family="Arial" font-size="14" lengthAdjust="spacing" textLength="116" x="533" y="249.5444">evMonActFinished</text><text fill="#000000" font-family="Arial" font-size="14" lengthAdjust="spacing" textLength="129" x="533" y="265.6431">evSysReactFinished</text><text fill="#000000" font-family="Arial" font-size="14" lengthAdjust="spacing" textLength="92" x="533" y="281.7417">evUnknownFM</text><text fill="#000000" font-family="Arial" font-size="14" lengthAdjust="spacing" textLength="58" x="533" y="297.8403">evGotFM</text><line style="stroke:#181818;stroke-width:0.5;" x1="528" x2="667" y1="304.5781" y2="304.5781"/></g><!--class Event--><g id="elem_Event"><rect codeLine="41" fill="#F1F1F1" height="96.2959" id="Event" rx="2.5" ry="2.5" style="stroke:#181818;stroke-width:0.5;" width="273" x="483" y="756"/><ellipse cx="597.25" cy="772" fill="#F1F1F1" rx="11" ry="11" style="stroke:#181818;stroke-width:1.0;"/><path d="M595.3594,776.5625 Q595.1406,776.8281 595,776.9063 Q594.8594,776.9844 594.6719,776.9844 Q594.2813,776.9844 594.0391,776.7188 Q593.7969,776.4531 593.7969,775.8594 L593.7969,774.7031 Q593.7969,774.0938 594.0391,773.8359 Q594.2813,773.5781 594.6719,773.5781 Q594.9688,773.5781 595.1719,773.7344 Q595.375,773.8906 595.4844,774.2578 Q595.5938,774.625 595.7031,774.7656 Q595.9531,775.0156 596.5625,775.2813 Q597.1719,775.5469 597.9063,775.5469 Q599.0469,775.5469 599.7656,775.0156 Q600.2344,774.6875 600.2344,774.2188 Q600.2344,773.9063 600.0156,773.625 Q599.7969,773.3438 599.2813,773.1719 Q598.9531,773.0469 597.7969,772.8281 Q596.4063,772.5625 595.6875,772.2031 Q594.9688,771.8438 594.5547,771.1797 Q594.1406,770.5156 594.1406,769.7344 Q594.1406,768.5156 595.1641,767.6016 Q596.1875,766.6875 597.8281,766.6875 Q598.4844,766.6875 599.0391,766.8281 Q599.5938,766.9688 600.0625,767.2656 Q600.3906,766.9531 600.7188,766.9531 Q601.0938,766.9531 601.3281,767.2109 Q601.5625,767.4688 601.5625,768.0781 L601.5625,769.3594 Q601.5625,769.9688 601.3281,770.2266 Q601.0938,770.4844 600.7188,770.4844 Q600.4063,770.4844 600.1719,770.2969 Q599.9844,770.1563 599.8984,769.7344 Q599.8125,769.3125 599.6719,769.125 Q599.4219,768.8125 598.9453,768.6016 Q598.4688,768.3906 597.8281,768.3906 Q596.9063,768.3906 596.375,768.8125 Q595.8438,769.2344 595.8438,769.7031 Q595.8438,770.0156 596.0625,770.3125 Q596.2813,770.6094 596.7031,770.7813 Q596.9844,770.8906 598.2891,771.1484 Q599.5938,771.4063 600.2969,771.7109 Q601,772.0156 601.4688,772.6719 Q601.9375,773.3281 601.9375,774.2344 Q601.9375,775.5 601.0469,776.25 Q599.8594,777.25 598.0313,777.25 Q597.3281,777.25 596.6641,777.0781 Q596,776.9063 595.3594,776.5625 Z " fill="#000000"/><text fill="#000000" font-family="Arial" font-size="14" lengthAdjust="spacing" textLength="36" x="617.75" y="777.3115">Event</text><line style="stroke:#181818;stroke-width:0.5;" x1="484" x2="755" y1="788" y2="788"/><text fill="#000000" font-family="Arial" font-size="14" lengthAdjust="spacing" textLength="111" x="489" y="805.3608">+type: EventType</text><text fill="#000000" font-family="Arial" font-size="14" lengthAdjust="spacing" textLength="261" x="489" y="821.4595">+ts: std::chrono::steady_clock::time_point</text><text fill="#000000" font-family="Arial" font-size="14" lengthAdjust="spacing" textLength="116" x="489" y="837.5581">+payload: std::any</text><line style="stroke:#181818;stroke-width:0.5;" x1="484" x2="755" y1="844.2959" y2="844.2959"/></g><!--class KGResultPayload--><g id="elem_KGResultPayload"><rect codeLine="47" fill="#F1F1F1" height="96.2959" id="KGResultPayload" rx="2.5" ry="2.5" style="stroke:#181818;stroke-width:0.5;" width="168" x="352.5" y="928"/><ellipse cx="378.75" cy="944" fill="#F1F1F1" rx="11" ry="11" style="stroke:#181818;stroke-width:1.0;"/><path d="M376.8594,948.5625 Q376.6406,948.8281 376.5,948.9063 Q376.3594,948.9844 376.1719,948.9844 Q375.7813,948.9844 375.5391,948.7188 Q375.2969,948.4531 375.2969,947.8594 L375.2969,946.7031 Q375.2969,946.0938 375.5391,945.8359 Q375.7813,945.5781 376.1719,945.5781 Q376.4688,945.5781 376.6719,945.7344 Q376.875,945.8906 376.9844,946.2578 Q377.0938,946.625 377.2031,946.7656 Q377.4531,947.0156 378.0625,947.2813 Q378.6719,947.5469 379.4063,947.5469 Q380.5469,947.5469 381.2656,947.0156 Q381.7344,946.6875 381.7344,946.2188 Q381.7344,945.9063 381.5156,945.625 Q381.2969,945.3438 380.7813,945.1719 Q380.4531,945.0469 379.2969,944.8281 Q377.9063,944.5625 377.1875,944.2031 Q376.4688,943.8438 376.0547,943.1797 Q375.6406,942.5156 375.6406,941.7344 Q375.6406,940.5156 376.6641,939.6016 Q377.6875,938.6875 379.3281,938.6875 Q379.9844,938.6875 380.5391,938.8281 Q381.0938,938.9688 381.5625,939.2656 Q381.8906,938.9531 382.2188,938.9531 Q382.5938,938.9531 382.8281,939.2109 Q383.0625,939.4688 383.0625,940.0781 L383.0625,941.3594 Q383.0625,941.9688 382.8281,942.2266 Q382.5938,942.4844 382.2188,942.4844 Q381.9063,942.4844 381.6719,942.2969 Q381.4844,942.1563 381.3984,941.7344 Q381.3125,941.3125 381.1719,941.125 Q380.9219,940.8125 380.4453,940.6016 Q379.9688,940.3906 379.3281,940.3906 Q378.4063,940.3906 377.875,940.8125 Q377.3438,941.2344 377.3438,941.7031 Q377.3438,942.0156 377.5625,942.3125 Q377.7813,942.6094 378.2031,942.7813 Q378.4844,942.8906 379.7891,943.1484 Q381.0938,943.4063 381.7969,943.7109 Q382.5,944.0156 382.9688,944.6719 Q383.4375,945.3281 383.4375,946.2344 Q383.4375,947.5 382.5469,948.25 Q381.3594,949.25 379.5313,949.25 Q378.8281,949.25 378.1641,949.0781 Q377.5,948.9063 376.8594,948.5625 Z " fill="#000000"/><text fill="#000000" font-family="Arial" font-size="14" lengthAdjust="spacing" textLength="111" x="395.25" y="949.3115">KGResultPayload</text><line style="stroke:#181818;stroke-width:0.5;" x1="353.5" x2="519.5" y1="960" y2="960"/><text fill="#000000" font-family="Arial" font-size="14" lengthAdjust="spacing" textLength="156" x="358.5" y="977.3608">+correlationId: std::string</text><text fill="#000000" font-family="Arial" font-size="14" lengthAdjust="spacing" textLength="136" x="358.5" y="993.4595">+rowsJson: std::string</text><text fill="#000000" font-family="Arial" font-size="14" lengthAdjust="spacing" textLength="58" x="358.5" y="1009.5581">+ok: bool</text><line style="stroke:#181818;stroke-width:0.5;" x1="353.5" x2="519.5" y1="1016.2959" y2="1016.2959"/></g><!--class KGTimeoutPayload--><g id="elem_KGTimeoutPayload"><rect codeLine="53" fill="#F1F1F1" height="64.0986" id="KGTimeoutPayload" rx="2.5" ry="2.5" style="stroke:#181818;stroke-width:0.5;" width="168" x="535.5" y="944"/><ellipse cx="556.8" cy="960" fill="#F1F1F1" rx="11" ry="11" style="stroke:#181818;stroke-width:1.0;"/><path d="M554.9094,964.5625 Q554.6906,964.8281 554.55,964.9063 Q554.4094,964.9844 554.2219,964.9844 Q553.8313,964.9844 553.5891,964.7188 Q553.3469,964.4531 553.3469,963.8594 L553.3469,962.7031 Q553.3469,962.0938 553.5891,961.8359 Q553.8313,961.5781 554.2219,961.5781 Q554.5188,961.5781 554.7219,961.7344 Q554.925,961.8906 555.0344,962.2578 Q555.1438,962.625 555.2531,962.7656 Q555.5031,963.0156 556.1125,963.2813 Q556.7219,963.5469 557.4563,963.5469 Q558.5969,963.5469 559.3156,963.0156 Q559.7844,962.6875 559.7844,962.2188 Q559.7844,961.9063 559.5656,961.625 Q559.3469,961.3438 558.8313,961.1719 Q558.5031,961.0469 557.3469,960.8281 Q555.9563,960.5625 555.2375,960.2031 Q554.5188,959.8438 554.1047,959.1797 Q553.6906,958.5156 553.6906,957.7344 Q553.6906,956.5156 554.7141,955.6016 Q555.7375,954.6875 557.3781,954.6875 Q558.0344,954.6875 558.5891,954.8281 Q559.1438,954.9688 559.6125,955.2656 Q559.9406,954.9531 560.2688,954.9531 Q560.6438,954.9531 560.8781,955.2109 Q561.1125,955.4688 561.1125,956.0781 L561.1125,957.3594 Q561.1125,957.9688 560.8781,958.2266 Q560.6438,958.4844 560.2688,958.4844 Q559.9563,958.4844 559.7219,958.2969 Q559.5344,958.1563 559.4484,957.7344 Q559.3625,957.3125 559.2219,957.125 Q558.9719,956.8125 558.4953,956.6016 Q558.0188,956.3906 557.3781,956.3906 Q556.4563,956.3906 555.925,956.8125 Q555.3938,957.2344 555.3938,957.7031 Q555.3938,958.0156 555.6125,958.3125 Q555.8313,958.6094 556.2531,958.7813 Q556.5344,958.8906 557.8391,959.1484 Q559.1438,959.4063 559.8469,959.7109 Q560.55,960.0156 561.0188,960.6719 Q561.4875,961.3281 561.4875,962.2344 Q561.4875,963.5 560.5969,964.25 Q559.4094,965.25 557.5813,965.25 Q556.8781,965.25 556.2141,965.0781 Q555.55,964.9063 554.9094,964.5625 Z " fill="#000000"/><text fill="#000000" font-family="Arial" font-size="14" lengthAdjust="spacing" textLength="122" x="572.2" y="965.3115">KGTimeoutPayload</text><line style="stroke:#181818;stroke-width:0.5;" x1="536.5" x2="702.5" y1="976" y2="976"/><text fill="#000000" font-family="Arial" font-size="14" lengthAdjust="spacing" textLength="156" x="541.5" y="993.3608">+correlationId: std::string</text><line style="stroke:#181818;stroke-width:0.5;" x1="536.5" x2="702.5" y1="1000.0986" y2="1000.0986"/></g><!--class PLCSnapshotPayload--><g id="elem_PLCSnapshotPayload"><rect codeLine="57" fill="#F1F1F1" height="80.1973" id="PLCSnapshotPayload" rx="2.5" ry="2.5" style="stroke:#181818;stroke-width:0.5;" width="177" x="719" y="936"/><ellipse cx="737.15" cy="952" fill="#F1F1F1" rx="11" ry="11" style="stroke:#181818;stroke-width:1.0;"/><path d="M735.2594,956.5625 Q735.0406,956.8281 734.9,956.9063 Q734.7594,956.9844 734.5719,956.9844 Q734.1813,956.9844 733.9391,956.7188 Q733.6969,956.4531 733.6969,955.8594 L733.6969,954.7031 Q733.6969,954.0938 733.9391,953.8359 Q734.1813,953.5781 734.5719,953.5781 Q734.8688,953.5781 735.0719,953.7344 Q735.275,953.8906 735.3844,954.2578 Q735.4938,954.625 735.6031,954.7656 Q735.8531,955.0156 736.4625,955.2813 Q737.0719,955.5469 737.8063,955.5469 Q738.9469,955.5469 739.6656,955.0156 Q740.1344,954.6875 740.1344,954.2188 Q740.1344,953.9063 739.9156,953.625 Q739.6969,953.3438 739.1813,953.1719 Q738.8531,953.0469 737.6969,952.8281 Q736.3063,952.5625 735.5875,952.2031 Q734.8688,951.8438 734.4547,951.1797 Q734.0406,950.5156 734.0406,949.7344 Q734.0406,948.5156 735.0641,947.6016 Q736.0875,946.6875 737.7281,946.6875 Q738.3844,946.6875 738.9391,946.8281 Q739.4938,946.9688 739.9625,947.2656 Q740.2906,946.9531 740.6188,946.9531 Q740.9938,946.9531 741.2281,947.2109 Q741.4625,947.4688 741.4625,948.0781 L741.4625,949.3594 Q741.4625,949.9688 741.2281,950.2266 Q740.9938,950.4844 740.6188,950.4844 Q740.3063,950.4844 740.0719,950.2969 Q739.8844,950.1563 739.7984,949.7344 Q739.7125,949.3125 739.5719,949.125 Q739.3219,948.8125 738.8453,948.6016 Q738.3688,948.3906 737.7281,948.3906 Q736.8063,948.3906 736.275,948.8125 Q735.7438,949.2344 735.7438,949.7031 Q735.7438,950.0156 735.9625,950.3125 Q736.1813,950.6094 736.6031,950.7813 Q736.8844,950.8906 738.1891,951.1484 Q739.4938,951.4063 740.1969,951.7109 Q740.9,952.0156 741.3688,952.6719 Q741.8375,953.3281 741.8375,954.2344 Q741.8375,955.5 740.9469,956.25 Q739.7594,957.25 737.9313,957.25 Q737.2281,957.25 736.5641,957.0781 Q735.9,956.9063 735.2594,956.5625 Z " fill="#000000"/><text fill="#000000" font-family="Arial" font-size="14" lengthAdjust="spacing" textLength="138" x="751.85" y="957.3115">PLCSnapshotPayload</text><line style="stroke:#181818;stroke-width:0.5;" x1="720" x2="895" y1="968" y2="968"/><text fill="#000000" font-family="Arial" font-size="14" lengthAdjust="spacing" textLength="156" x="725" y="985.3608">+correlationId: std::string</text><text fill="#000000" font-family="Arial" font-size="14" lengthAdjust="spacing" textLength="165" x="725" y="1001.4595">+snapshotJson: std::string</text><line style="stroke:#181818;stroke-width:0.5;" x1="720" x2="895" y1="1008.1973" y2="1008.1973"/></g><!--class EventTypeHash--><g id="elem_EventTypeHash"><rect codeLine="63" fill="#F1F1F1" height="64.0986" id="EventTypeHash" rx="2.5" ry="2.5" style="stroke:#181818;stroke-width:0.5;" width="218" x="771.5" y="772"/><ellipse cx="826.25" cy="788" fill="#F1F1F1" rx="11" ry="11" style="stroke:#181818;stroke-width:1.0;"/><path d="M824.3594,792.5625 Q824.1406,792.8281 824,792.9063 Q823.8594,792.9844 823.6719,792.9844 Q823.2813,792.9844 823.0391,792.7188 Q822.7969,792.4531 822.7969,791.8594 L822.7969,790.7031 Q822.7969,790.0938 823.0391,789.8359 Q823.2813,789.5781 823.6719,789.5781 Q823.9688,789.5781 824.1719,789.7344 Q824.375,789.8906 824.4844,790.2578 Q824.5938,790.625 824.7031,790.7656 Q824.9531,791.0156 825.5625,791.2813 Q826.1719,791.5469 826.9063,791.5469 Q828.0469,791.5469 828.7656,791.0156 Q829.2344,790.6875 829.2344,790.2188 Q829.2344,789.9063 829.0156,789.625 Q828.7969,789.3438 828.2813,789.1719 Q827.9531,789.0469 826.7969,788.8281 Q825.4063,788.5625 824.6875,788.2031 Q823.9688,787.8438 823.5547,787.1797 Q823.1406,786.5156 823.1406,785.7344 Q823.1406,784.5156 824.1641,783.6016 Q825.1875,782.6875 826.8281,782.6875 Q827.4844,782.6875 828.0391,782.8281 Q828.5938,782.9688 829.0625,783.2656 Q829.3906,782.9531 829.7188,782.9531 Q830.0938,782.9531 830.3281,783.2109 Q830.5625,783.4688 830.5625,784.0781 L830.5625,785.3594 Q830.5625,785.9688 830.3281,786.2266 Q830.0938,786.4844 829.7188,786.4844 Q829.4063,786.4844 829.1719,786.2969 Q828.9844,786.1563 828.8984,785.7344 Q828.8125,785.3125 828.6719,785.125 Q828.4219,784.8125 827.9453,784.6016 Q827.4688,784.3906 826.8281,784.3906 Q825.9063,784.3906 825.375,784.8125 Q824.8438,785.2344 824.8438,785.7031 Q824.8438,786.0156 825.0625,786.3125 Q825.2813,786.6094 825.7031,786.7813 Q825.9844,786.8906 827.2891,787.1484 Q828.5938,787.4063 829.2969,787.7109 Q830,788.0156 830.4688,788.6719 Q830.9375,789.3281 830.9375,790.2344 Q830.9375,791.5 830.0469,792.25 Q828.8594,793.25 827.0313,793.25 Q826.3281,793.25 825.6641,793.0781 Q825,792.9063 824.3594,792.5625 Z " fill="#000000"/><text fill="#000000" font-family="Arial" font-size="14" lengthAdjust="spacing" textLength="100" x="846.75" y="793.3115">EventTypeHash</text><line style="stroke:#181818;stroke-width:0.5;" x1="772.5" x2="988.5" y1="804" y2="804"/><line style="stroke:#181818;stroke-width:0.5;" x1="772.5" x2="988.5" y1="812" y2="812"/><text fill="#000000" font-family="Arial" font-size="14" lengthAdjust="spacing" textLength="206" x="777.5" y="829.3608">+operator()(t: EventType): size_t</text></g><!--class SubscriptionToken--><g id="elem_SubscriptionToken"><rect codeLine="68" fill="#F1F1F1" height="96.2959" id="SubscriptionToken" rx="2.5" ry="2.5" style="stroke:#181818;stroke-width:0.5;" width="150" x="248.5" y="479"/><ellipse cx="263.5" cy="495" fill="#F1F1F1" rx="11" ry="11" style="stroke:#181818;stroke-width:1.0;"/><path d="M261.6094,499.5625 Q261.3906,499.8281 261.25,499.9063 Q261.1094,499.9844 260.9219,499.9844 Q260.5313,499.9844 260.2891,499.7188 Q260.0469,499.4531 260.0469,498.8594 L260.0469,497.7031 Q260.0469,497.0938 260.2891,496.8359 Q260.5313,496.5781 260.9219,496.5781 Q261.2188,496.5781 261.4219,496.7344 Q261.625,496.8906 261.7344,497.2578 Q261.8438,497.625 261.9531,497.7656 Q262.2031,498.0156 262.8125,498.2813 Q263.4219,498.5469 264.1563,498.5469 Q265.2969,498.5469 266.0156,498.0156 Q266.4844,497.6875 266.4844,497.2188 Q266.4844,496.9063 266.2656,496.625 Q266.0469,496.3438 265.5313,496.1719 Q265.2031,496.0469 264.0469,495.8281 Q262.6563,495.5625 261.9375,495.2031 Q261.2188,494.8438 260.8047,494.1797 Q260.3906,493.5156 260.3906,492.7344 Q260.3906,491.5156 261.4141,490.6016 Q262.4375,489.6875 264.0781,489.6875 Q264.7344,489.6875 265.2891,489.8281 Q265.8438,489.9688 266.3125,490.2656 Q266.6406,489.9531 266.9688,489.9531 Q267.3438,489.9531 267.5781,490.2109 Q267.8125,490.4688 267.8125,491.0781 L267.8125,492.3594 Q267.8125,492.9688 267.5781,493.2266 Q267.3438,493.4844 266.9688,493.4844 Q266.6563,493.4844 266.4219,493.2969 Q266.2344,493.1563 266.1484,492.7344 Q266.0625,492.3125 265.9219,492.125 Q265.6719,491.8125 265.1953,491.6016 Q264.7188,491.3906 264.0781,491.3906 Q263.1563,491.3906 262.625,491.8125 Q262.0938,492.2344 262.0938,492.7031 Q262.0938,493.0156 262.3125,493.3125 Q262.5313,493.6094 262.9531,493.7813 Q263.2344,493.8906 264.5391,494.1484 Q265.8438,494.4063 266.5469,494.7109 Q267.25,495.0156 267.7188,495.6719 Q268.1875,496.3281 268.1875,497.2344 Q268.1875,498.5 267.2969,499.25 Q266.1094,500.25 264.2813,500.25 Q263.5781,500.25 262.9141,500.0781 Q262.25,499.9063 261.6094,499.5625 Z " fill="#000000"/><text fill="#000000" font-family="Arial" font-size="14" lengthAdjust="spacing" textLength="118" x="277.5" y="500.3115">SubscriptionToken</text><line style="stroke:#181818;stroke-width:0.5;" x1="249.5" x2="397.5" y1="511" y2="511"/><text fill="#000000" font-family="Arial" font-size="14" lengthAdjust="spacing" textLength="111" x="254.5" y="528.3608">+type: EventType</text><text fill="#000000" font-family="Arial" font-size="14" lengthAdjust="spacing" textLength="105" x="254.5" y="544.4595">+id: std::uint64_t</text><line style="stroke:#181818;stroke-width:0.5;" x1="249.5" x2="397.5" y1="551.1973" y2="551.1973"/><text fill="#000000" font-family="Arial" font-size="14" lengthAdjust="spacing" textLength="138" x="254.5" y="568.5581">+operator bool(): bool</text></g><!--class ReactiveObserver--><g id="elem_ReactiveObserver"><rect codeLine="75" fill="#F1F1F1" height="64.0986" id="ReactiveObserver" rx="2.5" ry="2.5" style="stroke:#181818;stroke-width:0.5;" width="171" x="7" y="772"/><ellipse cx="34.15" cy="788" fill="#A9DCDF" rx="11" ry="11" style="stroke:#181818;stroke-width:1.0;"/><path d="M36.3375,789.7656 L32.1969,789.7656 L31.775,790.7969 L32.1969,790.7969 Q32.8063,790.7969 33.0719,791.0313 Q33.3375,791.2656 33.3375,791.6563 Q33.3375,792.0313 33.0719,792.2656 Q32.8063,792.5 32.1969,792.5 L29.9,792.5 Q29.2906,792.5 29.0328,792.2656 Q28.775,792.0313 28.775,791.6406 Q28.775,791.2656 29.0484,791.0234 Q29.3219,790.7813 29.9469,790.7969 L32.6188,784.1406 L31.5094,784.1406 Q30.9,784.1406 30.6344,783.9063 Q30.3688,783.6719 30.3688,783.2813 Q30.3688,782.9063 30.6344,782.6719 Q30.9,782.4375 31.5094,782.4375 L35.1813,782.4375 L38.5719,790.7969 Q39.1656,790.7969 39.3531,790.9375 Q39.7438,791.2031 39.7438,791.6563 Q39.7438,792.0313 39.4859,792.2656 Q39.2281,792.5 38.6188,792.5 L36.3219,792.5 Q35.7125,792.5 35.4469,792.2656 Q35.1813,792.0313 35.1813,791.6406 Q35.1813,791.2656 35.4469,791.0313 Q35.7125,790.7969 36.3219,790.7969 L36.7438,790.7969 L36.3375,789.7656 Z M35.6188,788.0625 L34.2594,784.6875 L32.8844,788.0625 L35.6188,788.0625 Z " fill="#000000"/><text fill="#000000" font-family="Arial" font-size="14" font-style="italic" lengthAdjust="spacing" textLength="112" x="50.85" y="793.3115">ReactiveObserver</text><line style="stroke:#181818;stroke-width:0.5;" x1="8" x2="177" y1="804" y2="804"/><line style="stroke:#181818;stroke-width:0.5;" x1="8" x2="177" y1="812" y2="812"/><text fill="#000000" font-family="Arial" font-size="14" font-style="italic" lengthAdjust="spacing" textLength="159" x="13" y="829.3608">+onEvent(ev: Event): void</text></g><!--class Subscription--><g id="elem_Subscription"><rect codeLine="80" fill="#F1F1F1" height="208.9863" id="Subscription" rx="2.5" ry="2.5" style="stroke:#181818;stroke-width:0.5;" width="357" x="155" y="55.5"/><ellipse cx="290.25" cy="71.5" fill="#ADD1B2" rx="11" ry="11" style="stroke:#181818;stroke-width:1.0;"/><path d="M293.0156,67.375 Q293.1719,67.1563 293.3594,67.0469 Q293.5469,66.9375 293.7656,66.9375 Q294.1406,66.9375 294.375,67.1953 Q294.6094,67.4531 294.6094,68.0625 L294.6094,69.5156 Q294.6094,70.125 294.375,70.3906 Q294.1406,70.6563 293.7656,70.6563 Q293.4219,70.6563 293.2188,70.4531 Q293.0156,70.2656 292.9063,69.75 Q292.8594,69.3906 292.6719,69.2031 Q292.3438,68.8281 291.7344,68.6094 Q291.125,68.3906 290.5,68.3906 Q289.7344,68.3906 289.1016,68.7188 Q288.4688,69.0469 287.9766,69.7969 Q287.4844,70.5469 287.4844,71.5781 L287.4844,72.6719 Q287.4844,73.9063 288.375,74.7266 Q289.2656,75.5469 290.8594,75.5469 Q291.7969,75.5469 292.4531,75.2969 Q292.8438,75.1406 293.2656,74.7031 Q293.5313,74.4375 293.6797,74.3594 Q293.8281,74.2813 294.0313,74.2813 Q294.3594,74.2813 294.6172,74.5391 Q294.875,74.7969 294.875,75.1406 Q294.875,75.4844 294.5313,75.8906 Q294.0313,76.4688 293.2344,76.7969 Q292.1563,77.25 290.8594,77.25 Q289.3438,77.25 288.1406,76.625 Q287.1563,76.125 286.4688,75.0547 Q285.7813,73.9844 285.7813,72.7031 L285.7813,71.5469 Q285.7813,70.2188 286.3984,69.0703 Q287.0156,67.9219 288.1094,67.3047 Q289.2031,66.6875 290.4375,66.6875 Q291.1719,66.6875 291.8203,66.8516 Q292.4688,67.0156 293.0156,67.375 Z " fill="#000000"/><text fill="#000000" font-family="Arial" font-size="14" lengthAdjust="spacing" textLength="78" x="310.75" y="76.8115">Subscription</text><line style="stroke:#181818;stroke-width:0.5;" x1="156" x2="511" y1="87.5" y2="87.5"/><text fill="#000000" font-family="Arial" font-size="14" lengthAdjust="spacing" textLength="109" x="161" y="104.8608">-bus_: EventBus*</text><text fill="#000000" font-family="Arial" font-size="14" lengthAdjust="spacing" textLength="158" x="161" y="120.9595">-tok_: SubscriptionToken</text><line style="stroke:#181818;stroke-width:0.5;" x1="156" x2="511" y1="127.6973" y2="127.6973"/><text fill="#000000" font-family="Arial" font-size="14" lengthAdjust="spacing" textLength="96" x="161" y="145.0581">+Subscription()</text><text fill="#000000" font-family="Arial" font-size="14" lengthAdjust="spacing" textLength="345" x="161" y="161.1567">+Subscription(bus: EventBus*, tok: SubscriptionToken)</text><text fill="#000000" font-family="Arial" font-size="14" lengthAdjust="spacing" textLength="192" x="161" y="177.2554">+Subscription(Subscription&amp;&amp;)</text><text fill="#000000" font-family="Arial" font-size="14" lengthAdjust="spacing" textLength="271" x="161" y="193.354">+operator=(Subscription&amp;&amp;): Subscription&amp;</text><text fill="#000000" font-family="Arial" font-size="14" lengthAdjust="spacing" textLength="96" x="161" y="209.4526">~Subscription()</text><text fill="#000000" font-family="Arial" font-size="14" lengthAdjust="spacing" textLength="179" x="161" y="225.5513">+token(): SubscriptionToken</text><text fill="#000000" font-family="Arial" font-size="14" lengthAdjust="spacing" textLength="129" x="161" y="241.6499">+unsubscribe(): void</text><text fill="#000000" font-family="Arial" font-size="14" lengthAdjust="spacing" textLength="175" x="161" y="257.7485">-swap(o: Subscription): void</text></g><!--class EventBus--><g id="elem_EventBus"><rect codeLine="94" fill="#F1F1F1" height="305.5781" id="EventBus" rx="2.5" ry="2.5" style="stroke:#181818;stroke-width:0.5;" width="674" x="413.5" y="374"/><ellipse cx="716.25" cy="390" fill="#ADD1B2" rx="11" ry="11" style="stroke:#181818;stroke-width:1.0;"/><path d="M719.0156,385.875 Q719.1719,385.6563 719.3594,385.5469 Q719.5469,385.4375 719.7656,385.4375 Q720.1406,385.4375 720.375,385.6953 Q720.6094,385.9531 720.6094,386.5625 L720.6094,388.0156 Q720.6094,388.625 720.375,388.8906 Q720.1406,389.1563 719.7656,389.1563 Q719.4219,389.1563 719.2188,388.9531 Q719.0156,388.7656 718.9063,388.25 Q718.8594,387.8906 718.6719,387.7031 Q718.3438,387.3281 717.7344,387.1094 Q717.125,386.8906 716.5,386.8906 Q715.7344,386.8906 715.1016,387.2188 Q714.4688,387.5469 713.9766,388.2969 Q713.4844,389.0469 713.4844,390.0781 L713.4844,391.1719 Q713.4844,392.4063 714.375,393.2266 Q715.2656,394.0469 716.8594,394.0469 Q717.7969,394.0469 718.4531,393.7969 Q718.8438,393.6406 719.2656,393.2031 Q719.5313,392.9375 719.6797,392.8594 Q719.8281,392.7813 720.0313,392.7813 Q720.3594,392.7813 720.6172,393.0391 Q720.875,393.2969 720.875,393.6406 Q720.875,393.9844 720.5313,394.3906 Q720.0313,394.9688 719.2344,395.2969 Q718.1563,395.75 716.8594,395.75 Q715.3438,395.75 714.1406,395.125 Q713.1563,394.625 712.4688,393.5547 Q711.7813,392.4844 711.7813,391.2031 L711.7813,390.0469 Q711.7813,388.7188 712.3984,387.5703 Q713.0156,386.4219 714.1094,385.8047 Q715.2031,385.1875 716.4375,385.1875 Q717.1719,385.1875 717.8203,385.3516 Q718.4688,385.5156 719.0156,385.875 Z " fill="#000000"/><text fill="#000000" font-family="Arial" font-size="14" lengthAdjust="spacing" textLength="60" x="736.75" y="395.3115">EventBus</text><line style="stroke:#181818;stroke-width:0.5;" x1="414.5" x2="1086.5" y1="406" y2="406"/><text fill="#000000" font-family="Arial" font-size="14" lengthAdjust="spacing" textLength="128" x="419.5" y="423.3608">+kMinPriority: int = 1</text><text fill="#000000" font-family="Arial" font-size="14" lengthAdjust="spacing" textLength="131" x="419.5" y="439.4595">+kMaxPriority: int = 4</text><text fill="#000000" font-family="Arial" font-size="14" lengthAdjust="spacing" textLength="102" x="419.5" y="455.5581">-mx_: std::mutex</text><text fill="#000000" font-family="Arial" font-size="14" lengthAdjust="spacing" textLength="148" x="419.5" y="471.6567">-q_: std::deque&lt;Event&gt;</text><text fill="#000000" font-family="Arial" font-size="14" lengthAdjust="spacing" textLength="585" x="419.5" y="487.7554">-listeners_: std::unordered_map&lt;EventType, std::vector&lt;EventBus::Entry&gt;, EventTypeHash&gt;</text><text fill="#000000" font-family="Arial" font-size="14" lengthAdjust="spacing" textLength="244" x="419.5" y="503.854">-nextId_: std::atomic&lt;std::uint64_t&gt; = 1</text><line style="stroke:#181818;stroke-width:0.5;" x1="414.5" x2="1086.5" y1="510.5918" y2="510.5918"/><text fill="#000000" font-family="Arial" font-size="14" lengthAdjust="spacing" textLength="78" x="419.5" y="527.9526">+EventBus()</text><text fill="#000000" font-family="Arial" font-size="14" lengthAdjust="spacing" textLength="648" x="419.5" y="544.0513">+subscribe(t: EventType, obs: std::shared_ptr&lt;ReactiveObserver&gt;, priority: int = 1): SubscriptionToken</text><text fill="#000000" font-family="Arial" font-size="14" lengthAdjust="spacing" textLength="662" x="419.5" y="560.1499">+subscribe_scoped(t: EventType, obs: std::shared_ptr&lt;ReactiveObserver&gt;, priority: int = 1): Subscription</text><text fill="#000000" font-family="Arial" font-size="14" lengthAdjust="spacing" textLength="274" x="419.5" y="576.2485">+unsubscribe(tok: SubscriptionToken): void</text><text fill="#000000" font-family="Arial" font-size="14" lengthAdjust="spacing" textLength="138" x="419.5" y="592.3472">+post(ev: Event): void</text><text fill="#000000" font-family="Arial" font-size="14" lengthAdjust="spacing" textLength="171" x="419.5" y="608.4458">+post_now(ev: Event): void</text><text fill="#000000" font-family="Arial" font-size="14" lengthAdjust="spacing" textLength="246" x="419.5" y="624.5444">+process(maxEvents: size_t = 32): void</text><text fill="#000000" font-family="Arial" font-size="14" lengthAdjust="spacing" textLength="131" x="419.5" y="640.6431">+clear_queue(): void</text><text fill="#000000" font-family="Arial" font-size="14" lengthAdjust="spacing" textLength="193" x="419.5" y="656.7417">-dispatch_one(ev: Event): void</text><text fill="#000000" font-family="Arial" font-size="14" lengthAdjust="spacing" textLength="209" x="419.5" y="672.8403">-sweep_dead(t: EventType): void</text></g><!--class Entry--><g id="elem_Entry"><rect codeLine="114" fill="#F1F1F1" height="96.2959" id="Entry" rx="2.5" ry="2.5" style="stroke:#181818;stroke-width:0.5;" width="259" x="1005" y="756"/><ellipse cx="1113.75" cy="772" fill="#F1F1F1" rx="11" ry="11" style="stroke:#181818;stroke-width:1.0;"/><path d="M1111.8594,776.5625 Q1111.6406,776.8281 1111.5,776.9063 Q1111.3594,776.9844 1111.1719,776.9844 Q1110.7813,776.9844 1110.5391,776.7188 Q1110.2969,776.4531 1110.2969,775.8594 L1110.2969,774.7031 Q1110.2969,774.0938 1110.5391,773.8359 Q1110.7813,773.5781 1111.1719,773.5781 Q1111.4688,773.5781 1111.6719,773.7344 Q1111.875,773.8906 1111.9844,774.2578 Q1112.0938,774.625 1112.2031,774.7656 Q1112.4531,775.0156 1113.0625,775.2813 Q1113.6719,775.5469 1114.4063,775.5469 Q1115.5469,775.5469 1116.2656,775.0156 Q1116.7344,774.6875 1116.7344,774.2188 Q1116.7344,773.9063 1116.5156,773.625 Q1116.2969,773.3438 1115.7813,773.1719 Q1115.4531,773.0469 1114.2969,772.8281 Q1112.9063,772.5625 1112.1875,772.2031 Q1111.4688,771.8438 1111.0547,771.1797 Q1110.6406,770.5156 1110.6406,769.7344 Q1110.6406,768.5156 1111.6641,767.6016 Q1112.6875,766.6875 1114.3281,766.6875 Q1114.9844,766.6875 1115.5391,766.8281 Q1116.0938,766.9688 1116.5625,767.2656 Q1116.8906,766.9531 1117.2188,766.9531 Q1117.5938,766.9531 1117.8281,767.2109 Q1118.0625,767.4688 1118.0625,768.0781 L1118.0625,769.3594 Q1118.0625,769.9688 1117.8281,770.2266 Q1117.5938,770.4844 1117.2188,770.4844 Q1116.9063,770.4844 1116.6719,770.2969 Q1116.4844,770.1563 1116.3984,769.7344 Q1116.3125,769.3125 1116.1719,769.125 Q1115.9219,768.8125 1115.4453,768.6016 Q1114.9688,768.3906 1114.3281,768.3906 Q1113.4063,768.3906 1112.875,768.8125 Q1112.3438,769.2344 1112.3438,769.7031 Q1112.3438,770.0156 1112.5625,770.3125 Q1112.7813,770.6094 1113.2031,770.7813 Q1113.4844,770.8906 1114.7891,771.1484 Q1116.0938,771.4063 1116.7969,771.7109 Q1117.5,772.0156 1117.9688,772.6719 Q1118.4375,773.3281 1118.4375,774.2344 Q1118.4375,775.5 1117.5469,776.25 Q1116.3594,777.25 1114.5313,777.25 Q1113.8281,777.25 1113.1641,777.0781 Q1112.5,776.9063 1111.8594,776.5625 Z " fill="#000000"/><text fill="#000000" font-family="Arial" font-size="14" lengthAdjust="spacing" textLength="33" x="1134.25" y="777.3115">Entry</text><line style="stroke:#181818;stroke-width:0.5;" x1="1006" x2="1263" y1="788" y2="788"/><text fill="#000000" font-family="Arial" font-size="14" lengthAdjust="spacing" textLength="247" x="1011" y="805.3608">+wp: std::weak_ptr&lt;ReactiveObserver&gt;</text><text fill="#000000" font-family="Arial" font-size="14" lengthAdjust="spacing" textLength="105" x="1011" y="821.4595">+id: std::uint64_t</text><text fill="#000000" font-family="Arial" font-size="14" lengthAdjust="spacing" textLength="74" x="1011" y="837.5581">+priority: int</text><line style="stroke:#181818;stroke-width:0.5;" x1="1006" x2="1263" y1="844.2959" y2="844.2959"/></g><g id="elem_GMN22"><path d="M193,784 L193,800 L178.03,804 L193,808 L193,823.8975 A0,0 0 0 0 193,823.8975 L468,823.8975 A0,0 0 0 0 468,823.8975 L468,794 L458,784 L193,784 A0,0 0 0 0 193,784 " fill="#FEFFDD" style="stroke:#181818;stroke-width:0.5;"/><path d="M458,784 L458,794 L468,794 L458,784 " fill="#FEFFDD" style="stroke:#181818;stroke-width:0.5;"/><text fill="#000000" font-family="Arial" font-size="13" lengthAdjust="spacing" textLength="246" x="199" y="801.4065">onEvent wird vom EventBus beim Dispatch</text><text fill="#000000" font-family="Arial" font-size="13" lengthAdjust="spacing" textLength="254" x="199" y="816.3552">in Anmelde-/Priorit&#228;tsreihenfolge aufgerufen.</text></g><!--reverse link EventBus to Entry--><g id="link_EventBus_Entry"><path codeLine="121" d="M972.7566,687.1664 C1011.2166,714.7064 1038.81,734.47 1068.78,755.94 " fill="none" id="EventBus-backto-Entry" style="stroke:#181818;stroke-width:1.0;"/><polygon fill="none" points="963,680.18,965.5495,686.9254,972.7566,687.1664,970.2071,680.421,963,680.18" style="stroke:#181818;stroke-width:1.0;"/><text fill="#000000" font-family="Arial" font-size="13" lengthAdjust="spacing" textLength="56" x="1021.5" y="723.4065">listeners_</text><text fill="#000000" font-family="Arial" font-size="13" lengthAdjust="spacing" textLength="7" x="965.4703" y="699.8757">1</text><text fill="#000000" font-family="Arial" font-size="13" lengthAdjust="spacing" textLength="5" x="1052.9074" y="745.6233">*</text></g><!--reverse link EventBus to Event--><g id="link_EventBus_Event"><path codeLine="122" d="M672.7517,691.2148 C659.7117,718.6048 652.2,734.36 642.02,755.73 " fill="none" id="EventBus-backto-Event" style="stroke:#181818;stroke-width:1.0;"/><polygon fill="#181818" points="677.91,680.38,671.7193,684.078,672.7517,691.2148,678.9424,687.5168,677.91,680.38" style="stroke:#181818;stroke-width:1.0;"/><text fill="#000000" font-family="Arial" font-size="13" lengthAdjust="spacing" textLength="14" x="662.5" y="723.4065">q_</text><text fill="#000000" font-family="Arial" font-size="13" lengthAdjust="spacing" textLength="7" x="667.4622" y="700.0848">1</text><text fill="#000000" font-family="Arial" font-size="13" lengthAdjust="spacing" textLength="5" x="640.2107" y="745.3799">*</text></g><!--reverse link EventBus to EventTypeHash--><g id="link_EventBus_EventTypeHash"><path codeLine="123" d="M827.6602,691.2281 C844.0702,725.9281 854.73,748.5 865.68,771.66 " fill="none" id="EventBus-backto-EventTypeHash" style="stroke:#181818;stroke-width:1.0;"/><polygon fill="none" points="822.53,680.38,821.4791,687.5141,827.6602,691.2281,828.7111,684.094,822.53,680.38" style="stroke:#181818;stroke-width:1.0;"/><text fill="#000000" font-family="Arial" font-size="13" lengthAdjust="spacing" textLength="7" x="818.6353" y="700.0848">1</text><text fill="#000000" font-family="Arial" font-size="13" lengthAdjust="spacing" textLength="5" x="856.8912" y="761.5538">*</text></g><!--link EventBus to ReactiveObserver--><g id="link_EventBus_ReactiveObserver"><path codeLine="124" d="M413.36,677.3 C411.07,678.21 408.78,679.11 406.5,680 C309.8,717.91 281.19,715.59 185.5,756 C174.17,760.79 167.6717,763.6972 156.3517,769.2772 " fill="none" id="EventBus-to-ReactiveObserver" style="stroke:#181818;stroke-width:1.0;"/><polygon fill="#181818" points="150.97,771.93,160.8111,771.5386,155.4547,769.7193,157.274,764.363,150.97,771.93" style="stroke:#181818;stroke-width:1.0;"/><text fill="#000000" font-family="Arial" font-size="13" lengthAdjust="spacing" textLength="7" x="398.3763" y="679.0811">1</text><text fill="#000000" font-family="Arial" font-size="13" lengthAdjust="spacing" textLength="5" x="158.9131" y="761.3998">*</text></g><!--link Subscription to EventBus--><g id="link_Subscription_EventBus"><path codeLine="125" d="M451.88,264.62 C490.65,298.55 534.56,336.99 576.55,373.74 " fill="none" id="Subscription-EventBus" style="stroke:#181818;stroke-width:1.0;"/></g><!--link Subscription to SubscriptionToken--><g id="link_Subscription_SubscriptionToken"><path codeLine="126" d="M330.66,264.62 C328.73,335.01 326.4335,418.8022 324.9635,472.7222 " fill="none" id="Subscription-to-SubscriptionToken" style="stroke:#181818;stroke-width:1.0;"/><polygon fill="#181818" points="324.8,478.72,329.0438,469.8324,324.9363,473.7219,321.0468,469.6143,324.8,478.72" style="stroke:#181818;stroke-width:1.0;"/></g><!--reverse link Event to KGResultPayload--><g id="link_Event_KGResultPayload"><path codeLine="127" d="M559.7287,860.5178 C534.3487,884.0978 512.55,904.36 487.2,927.9 " fill="none" id="Event-backto-KGResultPayload" style="stroke:#181818;stroke-width:1.0;"/><polygon fill="none" points="568.52,852.35,561.4017,853.5035,559.7287,860.5178,566.847,859.3643,568.52,852.35" style="stroke:#181818;stroke-width:1.0;"/><text fill="#000000" font-family="Arial" font-size="13" lengthAdjust="spacing" textLength="45" x="533.5" y="895.4065">payload</text><text fill="#000000" font-family="Arial" font-size="13" lengthAdjust="spacing" textLength="7" x="553.8588" y="872.586">1</text><text fill="#000000" font-family="Arial" font-size="13" lengthAdjust="spacing" textLength="7" x="487.7225" y="917.577">1</text></g><!--reverse link Event to KGTimeoutPayload--><g id="link_Event_KGTimeoutPayload"><path codeLine="128" d="M619.5,864.35 C619.5,893.63 619.5,918.38 619.5,943.98 " fill="none" id="Event-backto-KGTimeoutPayload" style="stroke:#181818;stroke-width:1.0;"/><polygon fill="none" points="619.5,852.35,615.5,858.35,619.5,864.35,623.5,858.35,619.5,852.35" style="stroke:#181818;stroke-width:1.0;"/><text fill="#000000" font-family="Arial" font-size="13" lengthAdjust="spacing" textLength="45" x="620.5" y="895.4065">payload</text><text fill="#000000" font-family="Arial" font-size="13" lengthAdjust="spacing" textLength="7" x="612.0078" y="872.586">1</text><text fill="#000000" font-family="Arial" font-size="13" lengthAdjust="spacing" textLength="7" x="611.6906" y="933.4614">1</text></g><!--reverse link Event to PLCSnapshotPayload--><g id="link_Event_PLCSnapshotPayload"><path codeLine="129" d="M680.771,860.3982 C709.891,886.7282 736.78,911.05 764.29,935.93 " fill="none" id="Event-backto-PLCSnapshotPayload" style="stroke:#181818;stroke-width:1.0;"/><polygon fill="none" points="671.87,852.35,673.6378,859.3411,680.771,860.3982,679.0032,853.4071,671.87,852.35" style="stroke:#181818;stroke-width:1.0;"/><text fill="#000000" font-family="Arial" font-size="13" lengthAdjust="spacing" textLength="45" x="719.5" y="895.4065">payload</text><text fill="#000000" font-family="Arial" font-size="13" lengthAdjust="spacing" textLength="7" x="671.7423" y="872.586">1</text><text fill="#000000" font-family="Arial" font-size="13" lengthAdjust="spacing" textLength="7" x="748.3859" y="925.4354">1</text></g><!--SRC=[jLVDSjis4BxhANPyi2dRya-S-C0wdd4Qor5YfnxRxQ4N3aIi90n9W0P0_JYJlaelVOQUSlEBTGcI4YdHdlPGNaZiFxvTB9OxS8Sij4B96oRP63NqeA_2p227C6R601Tih5a2dfBnWbOQGqiV6cDcISWkKZIm3H4I4rFJxPX8o9JbAcR2k9e9EOOHYmtMECxqXRLQ33EBWr39U_64SDJPWVxpZp42PyRvYYoCcNm2DKG9AAJVsLbPuQc0awCZQ7t8rEZvXuRRhrUzotcgj0LFZANI0kbpY0BkVxkgHyjnnBBOzfMqNrc2SA45YnlkLW8kskFJfhknVlxx-K_K168k0-_9Yp6qXciqGwOZ5BRcJogE1bCuVjSQ_1UfB4esD9P9NWz3CndbUYVlsdVzEuguhXYoc68zE8LN7r9yoippN_Of5k44uJvYCI6LoN5dPo8u0YQfNK22oH2rwUp4EB9W5MWndjYoBAYAEbQbENceh5L9ZKxsUzK3bpAZWhgSehG7asu7ywLRFL0rmRSE04u_lYbUnyNhnBtkxsvZ9YNoSlLHINIVjrg517QVYTYjRvIy26rTkA0i5RvStQ6XR9QB1v6WoehLG8xHv47NrPV4fON2O5z8OIPLG0lZZbE3-AkCf9h9_erRNIbBNz-RUDnRdONMr20nZbA00WwHlVoa-IkO7CduO2pt_N2YbLI-RomolWZ2M8MHxrlQL90g8VDzxQLi4Il6Imqc5taKfPyAZTj2flGOAksEEUrwKEcH0XtedAlLp7msIcumLEHJ_bNSi5y2_AyTh7Hlht- -bomr4_MVmZEbpcQ8Q-3tCnbPfGy_CJCfC_0XC-j9o25t4eLlbQ9cfELrFLjBIfSyKMi8x4Q6iw49jKZpO1zKHCsipTEcr4kP5zM6CyhkwTl0reDow7lTLHRgaHJzVeg_3AarJQbNUGDfKOzOY718ZKlFcERTJju_D4bkohkGu5iby1sKTA5vE2s39CzJ9VXh681tTp4Oz3vHYuhn9rXXSNWGfcctKzmz3GtdjqxnkXkKOMRyfR7TVUf4L8iRg6xgrHVRszqwcE_NcKs3soJxnsPKDlVZTLkSvznCce8yHAy22w1dPYprL5EdngRD1RNTvIHo4xJvM4E-qgaNNGFefO03kLeLMubkXBpLWYvEk_11k8ljk62m-JhZhJjwoytLpyO-NU9LlwB9G2CFKglFrklhV1_ITMyluRXq59YGyiN_9t_hANkXgfQPsakLQJaE9IEWsw2TMTnXNiBcZcMgPa8XdRof2OOnCXqyPfWroeSBap8RJWAweTeSK7qXfW6dAsAzQLKIoJme4KjeBfldfCUAmf4ydZcjyvmH2xfj90q3bK16mnN77EU4fMUrF3Zkb0O1fS-gslBzIsdrWj1lj5TdMUBS3dXbbWvX8iApHhSxTpNegloIMZf6rEinfZO6rsLKFQ9JVnfNhNNBkTigs_SiBOtFa4NjPV5YbsrKo_f9-u1F0YSqDL61BW_Lrl4MA69kxMuju_1XXLzJShUKBEv-7nw3TaiDt9eYlTwv4rdVLAVHK6kDOPrntdBUYdYM4T1xOshmeHmoMeMR8y1hifjN_agway_5vTYfHfjRXEe-WfdGd2exMNKtcleJ-5WU4v8K4YvaWZ77tc7PoMW2DXh51EL8nVGZmh8H_HLb8vG7DATooBt_0m00]--></g></svg>