<?xml version="1.0" encoding="us-ascii" standalone="no"?><svg xmlns="http://www.w3.org/2000/svg" xmlns:xlink="http://www.w3.org/1999/xlink" contentStyleType="text/css" height="1368px" preserveAspectRatio="none" style="width:2272px;height:1368px;background:#FFFFFF;" version="1.1" viewBox="0 0 2272 1368" width="2272px" zoomAndPan="magnify"><defs/><g><!--class ReactiveObserver--><g id="elem_ReactiveObserver"><rect codeLine="20" fill="#F1F1F1" height="102.5578" id="ReactiveObserver" rx="4" ry="4" style="stroke:#181818;stroke-width:0.8000000000000002;" width="230.4" x="936" y="36.8"/><ellipse cx="960" cy="62.4" fill="#A9DCDF" rx="17.6" ry="17.6" style="stroke:#181818;stroke-width:1.6000000000000003;"/><path d="M963.5,65.225 L956.875,65.225 L956.2,66.875 L956.875,66.875 Q957.85,66.875 958.275,67.25 Q958.7,67.625 958.7,68.25 Q958.7,68.85 958.275,69.225 Q957.85,69.6 956.875,69.6 L953.2,69.6 Q952.225,69.6 951.8125,69.225 Q951.4,68.85 951.4,68.225 Q951.4,67.625 951.8375,67.2375 Q952.275,66.85 953.275,66.875 L957.55,56.225 L955.775,56.225 Q954.8,56.225 954.375,55.85 Q953.95,55.475 953.95,54.85 Q953.95,54.25 954.375,53.875 Q954.8,53.5 955.775,53.5 L961.65,53.5 L967.075,66.875 Q968.025,66.875 968.325,67.1 Q968.95,67.525 968.95,68.25 Q968.95,68.85 968.5375,69.225 Q968.125,69.6 967.15,69.6 L963.475,69.6 Q962.5,69.6 962.075,69.225 Q961.65,68.85 961.65,68.225 Q961.65,67.625 962.075,67.25 Q962.5,66.875 963.475,66.875 L964.15,66.875 L963.5,65.225 Z M962.35,62.5 L960.175,57.1 L957.975,62.5 L962.35,62.5 Z " fill="#000000"/><text fill="#000000" font-family="Arial" font-size="22.4" font-style="italic" lengthAdjust="spacing" textLength="179.2" x="982.4" y="70.8984">ReactiveObserver</text><line style="stroke:#181818;stroke-width:0.8000000000000002;" x1="937.6" x2="1164.8" y1="88" y2="88"/><line style="stroke:#181818;stroke-width:0.8000000000000002;" x1="937.6" x2="1164.8" y1="100.8" y2="100.8"/><text fill="#000000" font-family="Arial" font-size="22.4" font-style="italic" lengthAdjust="spacing" textLength="201.6" x="945.6" y="128.5773">+onEvent(ev: Event)</text></g><!--class ReactionManager--><g id="elem_ReactionManager"><rect codeLine="23" fill="#F1F1F1" height="257.1047" id="ReactionManager" rx="4" ry="4" style="stroke:#181818;stroke-width:0.8000000000000002;" width="1044.8" x="528.8" y="262.4"/><ellipse cx="954.8" cy="288" fill="#ADD1B2" rx="17.6" ry="17.6" style="stroke:#181818;stroke-width:1.6000000000000003;"/><path d="M959.225,281.4 Q959.475,281.05 959.775,280.875 Q960.075,280.7 960.425,280.7 Q961.025,280.7 961.4,281.1125 Q961.775,281.525 961.775,282.5 L961.775,284.825 Q961.775,285.8 961.4,286.225 Q961.025,286.65 960.425,286.65 Q959.875,286.65 959.55,286.325 Q959.225,286.025 959.05,285.2 Q958.975,284.625 958.675,284.325 Q958.15,283.725 957.175,283.375 Q956.2,283.025 955.2,283.025 Q953.975,283.025 952.9625,283.55 Q951.95,284.075 951.1625,285.275 Q950.375,286.475 950.375,288.125 L950.375,289.875 Q950.375,291.85 951.8,293.1625 Q953.225,294.475 955.775,294.475 Q957.275,294.475 958.325,294.075 Q958.95,293.825 959.625,293.125 Q960.05,292.7 960.2875,292.575 Q960.525,292.45 960.85,292.45 Q961.375,292.45 961.7875,292.8625 Q962.2,293.275 962.2,293.825 Q962.2,294.375 961.65,295.025 Q960.85,295.95 959.575,296.475 Q957.85,297.2 955.775,297.2 Q953.35,297.2 951.425,296.2 Q949.85,295.4 948.75,293.6875 Q947.65,291.975 947.65,289.925 L947.65,288.075 Q947.65,285.95 948.6375,284.1125 Q949.625,282.275 951.375,281.2875 Q953.125,280.3 955.1,280.3 Q956.275,280.3 957.3125,280.5625 Q958.35,280.825 959.225,281.4 Z " fill="#000000"/><text fill="#000000" font-family="Arial" font-size="22.4" lengthAdjust="spacing" textLength="179.2" x="987.6" y="296.4984">ReactionManager</text><line style="stroke:#181818;stroke-width:0.8000000000000002;" x1="530.4" x2="1572" y1="313.6" y2="313.6"/><line style="stroke:#181818;stroke-width:0.8000000000000002;" x1="530.4" x2="1572" y1="326.4" y2="326.4"/><text fill="#000000" font-family="Arial" font-size="22.4" lengthAdjust="spacing" textLength="569.6" x="538.4" y="354.1773">+ReactionManager(mon: PLCMonitor&amp;, bus: EventBus&amp;)</text><text fill="#000000" font-family="Arial" font-size="22.4" lengthAdjust="spacing" textLength="260.8" x="538.4" y="379.9352">+onEvent(ev: Event): void</text><text fill="#000000" font-family="Arial" font-size="22.4" lengthAdjust="spacing" textLength="712" x="538.4" y="405.693">+buildPlanFromComparison(corr: string, rep: ComparisonReport): Plan</text><text fill="#000000" font-family="Arial" font-size="22.4" lengthAdjust="spacing" textLength="1025.6" x="538.4" y="431.4508">+createCommandForceForPlanAndAck(plan: Plan, checksOk: bool, processNameForFail: string): void</text><text fill="#000000" font-family="Arial" font-size="22.4" lengthAdjust="spacing" textLength="553.6" x="538.4" y="457.2086">+fetchFailureModeParameters(skillName: string): string</text><text fill="#000000" font-family="Arial" font-size="22.4" lengthAdjust="spacing" textLength="492.8" x="538.4" y="482.9664">+fetchMonitoringActionForFM(fmIri: string): string</text><text fill="#000000" font-family="Arial" font-size="22.4" lengthAdjust="spacing" textLength="488" x="538.4" y="508.7242">+fetchSystemReactionForFM(fmIri: string): string</text></g><!--class InventorySnapshot--><g id="elem_InventorySnapshot"><rect codeLine="32" fill="#F1F1F1" height="102.5578" id="InventorySnapshot" rx="4" ry="4" style="stroke:#181818;stroke-width:0.8000000000000002;" width="240" x="11.2" y="706.4"/><ellipse cx="35.2" cy="732" fill="#F1F1F1" rx="17.6" ry="17.6" style="stroke:#181818;stroke-width:1.6000000000000003;"/><path d="M32.175,739.3 Q31.825,739.725 31.6,739.85 Q31.375,739.975 31.075,739.975 Q30.45,739.975 30.0625,739.55 Q29.675,739.125 29.675,738.175 L29.675,736.325 Q29.675,735.35 30.0625,734.9375 Q30.45,734.525 31.075,734.525 Q31.55,734.525 31.875,734.775 Q32.2,735.025 32.375,735.6125 Q32.55,736.2 32.725,736.425 Q33.125,736.825 34.1,737.25 Q35.075,737.675 36.25,737.675 Q38.075,737.675 39.225,736.825 Q39.975,736.3 39.975,735.55 Q39.975,735.05 39.625,734.6 Q39.275,734.15 38.45,733.875 Q37.925,733.675 36.075,733.325 Q33.85,732.9 32.7,732.325 Q31.55,731.75 30.8875,730.6875 Q30.225,729.625 30.225,728.375 Q30.225,726.425 31.8625,724.9625 Q33.5,723.5 36.125,723.5 Q37.175,723.5 38.0625,723.725 Q38.95,723.95 39.7,724.425 Q40.225,723.925 40.75,723.925 Q41.35,723.925 41.725,724.3375 Q42.1,724.75 42.1,725.725 L42.1,727.775 Q42.1,728.75 41.725,729.1625 Q41.35,729.575 40.75,729.575 Q40.25,729.575 39.875,729.275 Q39.575,729.05 39.4375,728.375 Q39.3,727.7 39.075,727.4 Q38.675,726.9 37.9125,726.5625 Q37.15,726.225 36.125,726.225 Q34.65,726.225 33.8,726.9 Q32.95,727.575 32.95,728.325 Q32.95,728.825 33.3,729.3 Q33.65,729.775 34.325,730.05 Q34.775,730.225 36.8625,730.6375 Q38.95,731.05 40.075,731.5375 Q41.2,732.025 41.95,733.075 Q42.7,734.125 42.7,735.575 Q42.7,737.6 41.275,738.8 Q39.375,740.4 36.45,740.4 Q35.325,740.4 34.2625,740.125 Q33.2,739.85 32.175,739.3 Z " fill="#000000"/><text fill="#000000" font-family="Arial" font-size="22.4" lengthAdjust="spacing" textLength="188.8" x="57.6" y="740.4984">InventorySnapshot</text><line style="stroke:#181818;stroke-width:0.8000000000000002;" x1="12.8" x2="249.6" y1="757.6" y2="757.6"/><text fill="#000000" font-family="Arial" font-size="22.4" lengthAdjust="spacing" textLength="19.2" x="20.8" y="785.3773">...</text><line style="stroke:#181818;stroke-width:0.8000000000000002;" x1="12.8" x2="249.6" y1="796.1578" y2="796.1578"/></g><!--class KgExpect--><g id="elem_KgExpect"><rect codeLine="35" fill="#F1F1F1" height="231.3469" id="KgExpect" rx="4" ry="4" style="stroke:#181818;stroke-width:0.8000000000000002;" width="190.4" x="404" y="641.6"/><ellipse cx="448.16" cy="667.2" fill="#F1F1F1" rx="17.6" ry="17.6" style="stroke:#181818;stroke-width:1.6000000000000003;"/><path d="M445.135,674.5 Q444.785,674.925 444.56,675.05 Q444.335,675.175 444.035,675.175 Q443.41,675.175 443.0225,674.75 Q442.635,674.325 442.635,673.375 L442.635,671.525 Q442.635,670.55 443.0225,670.1375 Q443.41,669.725 444.035,669.725 Q444.51,669.725 444.835,669.975 Q445.16,670.225 445.335,670.8125 Q445.51,671.4 445.685,671.625 Q446.085,672.025 447.06,672.45 Q448.035,672.875 449.21,672.875 Q451.035,672.875 452.185,672.025 Q452.935,671.5 452.935,670.75 Q452.935,670.25 452.585,669.8 Q452.235,669.35 451.41,669.075 Q450.885,668.875 449.035,668.525 Q446.81,668.1 445.66,667.525 Q444.51,666.95 443.8475,665.8875 Q443.185,664.825 443.185,663.575 Q443.185,661.625 444.8225,660.1625 Q446.46,658.7 449.085,658.7 Q450.135,658.7 451.0225,658.925 Q451.91,659.15 452.66,659.625 Q453.185,659.125 453.71,659.125 Q454.31,659.125 454.685,659.5375 Q455.06,659.95 455.06,660.925 L455.06,662.975 Q455.06,663.95 454.685,664.3625 Q454.31,664.775 453.71,664.775 Q453.21,664.775 452.835,664.475 Q452.535,664.25 452.3975,663.575 Q452.26,662.9 452.035,662.6 Q451.635,662.1 450.8725,661.7625 Q450.11,661.425 449.085,661.425 Q447.61,661.425 446.76,662.1 Q445.91,662.775 445.91,663.525 Q445.91,664.025 446.26,664.5 Q446.61,664.975 447.285,665.25 Q447.735,665.425 449.8225,665.8375 Q451.91,666.25 453.035,666.7375 Q454.16,667.225 454.91,668.275 Q455.66,669.325 455.66,670.775 Q455.66,672.8 454.235,674 Q452.335,675.6 449.41,675.6 Q448.285,675.6 447.2225,675.325 Q446.16,675.05 445.135,674.5 Z " fill="#000000"/><text fill="#000000" font-family="Arial" font-size="22.4" lengthAdjust="spacing" textLength="94.4" x="475.04" y="675.6984">KgExpect</text><line style="stroke:#181818;stroke-width:0.8000000000000002;" x1="405.6" x2="592.8" y1="692.8" y2="692.8"/><text fill="#000000" font-family="Arial" font-size="22.4" lengthAdjust="spacing" textLength="152" x="413.6" y="720.5773">+key: NodeKey</text><text fill="#000000" font-family="Arial" font-size="22.4" lengthAdjust="spacing" textLength="171.2" x="413.6" y="746.3352">+kind: KgValKind</text><text fill="#000000" font-family="Arial" font-size="22.4" lengthAdjust="spacing" textLength="148.8" x="413.6" y="772.093">+expectedBool</text><text fill="#000000" font-family="Arial" font-size="22.4" lengthAdjust="spacing" textLength="134.4" x="413.6" y="797.8508">+expectedI16</text><text fill="#000000" font-family="Arial" font-size="22.4" lengthAdjust="spacing" textLength="144" x="413.6" y="823.6086">+expectedF64</text><text fill="#000000" font-family="Arial" font-size="22.4" lengthAdjust="spacing" textLength="132.8" x="413.6" y="849.3664">+expectedStr</text><line style="stroke:#181818;stroke-width:0.8000000000000002;" x1="405.6" x2="592.8" y1="860.1469" y2="860.1469"/></g><!--class ComparisonItem--><g id="elem_ComparisonItem"><rect codeLine="43" fill="#F1F1F1" height="154.0734" id="ComparisonItem" rx="4" ry="4" style="stroke:#181818;stroke-width:0.8000000000000002;" width="214.4" x="611.2" y="680.8"/><ellipse cx="635.2" cy="706.4" fill="#F1F1F1" rx="17.6" ry="17.6" style="stroke:#181818;stroke-width:1.6000000000000003;"/><path d="M632.175,713.7 Q631.825,714.125 631.6,714.25 Q631.375,714.375 631.075,714.375 Q630.45,714.375 630.0625,713.95 Q629.675,713.525 629.675,712.575 L629.675,710.725 Q629.675,709.75 630.0625,709.3375 Q630.45,708.925 631.075,708.925 Q631.55,708.925 631.875,709.175 Q632.2,709.425 632.375,710.0125 Q632.55,710.6 632.725,710.825 Q633.125,711.225 634.1,711.65 Q635.075,712.075 636.25,712.075 Q638.075,712.075 639.225,711.225 Q639.975,710.7 639.975,709.95 Q639.975,709.45 639.625,709 Q639.275,708.55 638.45,708.275 Q637.925,708.075 636.075,707.725 Q633.85,707.3 632.7,706.725 Q631.55,706.15 630.8875,705.0875 Q630.225,704.025 630.225,702.775 Q630.225,700.825 631.8625,699.3625 Q633.5,697.9 636.125,697.9 Q637.175,697.9 638.0625,698.125 Q638.95,698.35 639.7,698.825 Q640.225,698.325 640.75,698.325 Q641.35,698.325 641.725,698.7375 Q642.1,699.15 642.1,700.125 L642.1,702.175 Q642.1,703.15 641.725,703.5625 Q641.35,703.975 640.75,703.975 Q640.25,703.975 639.875,703.675 Q639.575,703.45 639.4375,702.775 Q639.3,702.1 639.075,701.8 Q638.675,701.3 637.9125,700.9625 Q637.15,700.625 636.125,700.625 Q634.65,700.625 633.8,701.3 Q632.95,701.975 632.95,702.725 Q632.95,703.225 633.3,703.7 Q633.65,704.175 634.325,704.45 Q634.775,704.625 636.8625,705.0375 Q638.95,705.45 640.075,705.9375 Q641.2,706.425 641.95,707.475 Q642.7,708.525 642.7,709.975 Q642.7,712 641.275,713.2 Q639.375,714.8 636.45,714.8 Q635.325,714.8 634.2625,714.525 Q633.2,714.25 632.175,713.7 Z " fill="#000000"/><text fill="#000000" font-family="Arial" font-size="22.4" lengthAdjust="spacing" textLength="163.2" x="657.6" y="714.8984">ComparisonItem</text><line style="stroke:#181818;stroke-width:0.8000000000000002;" x1="612.8" x2="824" y1="732" y2="732"/><text fill="#000000" font-family="Arial" font-size="22.4" lengthAdjust="spacing" textLength="152" x="620.8" y="759.7773">+key: NodeKey</text><text fill="#000000" font-family="Arial" font-size="22.4" lengthAdjust="spacing" textLength="36.8" x="620.8" y="785.5352">+ok</text><text fill="#000000" font-family="Arial" font-size="22.4" lengthAdjust="spacing" textLength="67.2" x="620.8" y="811.293">+detail</text><line style="stroke:#181818;stroke-width:0.8000000000000002;" x1="612.8" x2="824" y1="822.0734" y2="822.0734"/></g><!--class ComparisonReport--><g id="elem_ComparisonReport"><rect codeLine="48" fill="#F1F1F1" height="102.5578" id="ComparisonReport" rx="4" ry="4" style="stroke:#181818;stroke-width:0.8000000000000002;" width="419.2" x="841.6" y="706.4"/><ellipse cx="949.2" cy="732" fill="#F1F1F1" rx="17.6" ry="17.6" style="stroke:#181818;stroke-width:1.6000000000000003;"/><path d="M946.175,739.3 Q945.825,739.725 945.6,739.85 Q945.375,739.975 945.075,739.975 Q944.45,739.975 944.0625,739.55 Q943.675,739.125 943.675,738.175 L943.675,736.325 Q943.675,735.35 944.0625,734.9375 Q944.45,734.525 945.075,734.525 Q945.55,734.525 945.875,734.775 Q946.2,735.025 946.375,735.6125 Q946.55,736.2 946.725,736.425 Q947.125,736.825 948.1,737.25 Q949.075,737.675 950.25,737.675 Q952.075,737.675 953.225,736.825 Q953.975,736.3 953.975,735.55 Q953.975,735.05 953.625,734.6 Q953.275,734.15 952.45,733.875 Q951.925,733.675 950.075,733.325 Q947.85,732.9 946.7,732.325 Q945.55,731.75 944.8875,730.6875 Q944.225,729.625 944.225,728.375 Q944.225,726.425 945.8625,724.9625 Q947.5,723.5 950.125,723.5 Q951.175,723.5 952.0625,723.725 Q952.95,723.95 953.7,724.425 Q954.225,723.925 954.75,723.925 Q955.35,723.925 955.725,724.3375 Q956.1,724.75 956.1,725.725 L956.1,727.775 Q956.1,728.75 955.725,729.1625 Q955.35,729.575 954.75,729.575 Q954.25,729.575 953.875,729.275 Q953.575,729.05 953.4375,728.375 Q953.3,727.7 953.075,727.4 Q952.675,726.9 951.9125,726.5625 Q951.15,726.225 950.125,726.225 Q948.65,726.225 947.8,726.9 Q946.95,727.575 946.95,728.325 Q946.95,728.825 947.3,729.3 Q947.65,729.775 948.325,730.05 Q948.775,730.225 950.8625,730.6375 Q952.95,731.05 954.075,731.5375 Q955.2,732.025 955.95,733.075 Q956.7,734.125 956.7,735.575 Q956.7,737.6 955.275,738.8 Q953.375,740.4 950.45,740.4 Q949.325,740.4 948.2625,740.125 Q947.2,739.85 946.175,739.3 Z " fill="#000000"/><text fill="#000000" font-family="Arial" font-size="22.4" lengthAdjust="spacing" textLength="190.4" x="982" y="740.4984">ComparisonReport</text><line style="stroke:#181818;stroke-width:0.8000000000000002;" x1="843.2" x2="1259.2" y1="757.6" y2="757.6"/><text fill="#000000" font-family="Arial" font-size="22.4" lengthAdjust="spacing" textLength="400" x="851.2" y="785.3773">+allOk +items: vector&lt;ComparisonItem&gt;</text><line style="stroke:#181818;stroke-width:0.8000000000000002;" x1="843.2" x2="1259.2" y1="796.1578" y2="796.1578"/></g><!--class KgCandidate--><g id="elem_KgCandidate"><rect codeLine="51" fill="#F1F1F1" height="128.3156" id="KgCandidate" rx="4" ry="4" style="stroke:#181818;stroke-width:0.8000000000000002;" width="304" x="1276.8" y="693.6"/><ellipse cx="1356.4" cy="719.2" fill="#F1F1F1" rx="17.6" ry="17.6" style="stroke:#181818;stroke-width:1.6000000000000003;"/><path d="M1353.375,726.5 Q1353.025,726.925 1352.8,727.05 Q1352.575,727.175 1352.275,727.175 Q1351.65,727.175 1351.2625,726.75 Q1350.875,726.325 1350.875,725.375 L1350.875,723.525 Q1350.875,722.55 1351.2625,722.1375 Q1351.65,721.725 1352.275,721.725 Q1352.75,721.725 1353.075,721.975 Q1353.4,722.225 1353.575,722.8125 Q1353.75,723.4 1353.925,723.625 Q1354.325,724.025 1355.3,724.45 Q1356.275,724.875 1357.45,724.875 Q1359.275,724.875 1360.425,724.025 Q1361.175,723.5 1361.175,722.75 Q1361.175,722.25 1360.825,721.8 Q1360.475,721.35 1359.65,721.075 Q1359.125,720.875 1357.275,720.525 Q1355.05,720.1 1353.9,719.525 Q1352.75,718.95 1352.0875,717.8875 Q1351.425,716.825 1351.425,715.575 Q1351.425,713.625 1353.0625,712.1625 Q1354.7,710.7 1357.325,710.7 Q1358.375,710.7 1359.2625,710.925 Q1360.15,711.15 1360.9,711.625 Q1361.425,711.125 1361.95,711.125 Q1362.55,711.125 1362.925,711.5375 Q1363.3,711.95 1363.3,712.925 L1363.3,714.975 Q1363.3,715.95 1362.925,716.3625 Q1362.55,716.775 1361.95,716.775 Q1361.45,716.775 1361.075,716.475 Q1360.775,716.25 1360.6375,715.575 Q1360.5,714.9 1360.275,714.6 Q1359.875,714.1 1359.1125,713.7625 Q1358.35,713.425 1357.325,713.425 Q1355.85,713.425 1355,714.1 Q1354.15,714.775 1354.15,715.525 Q1354.15,716.025 1354.5,716.5 Q1354.85,716.975 1355.525,717.25 Q1355.975,717.425 1358.0625,717.8375 Q1360.15,718.25 1361.275,718.7375 Q1362.4,719.225 1363.15,720.275 Q1363.9,721.325 1363.9,722.775 Q1363.9,724.8 1362.475,726 Q1360.575,727.6 1357.65,727.6 Q1356.525,727.6 1355.4625,727.325 Q1354.4,727.05 1353.375,726.5 Z " fill="#000000"/><text fill="#000000" font-family="Arial" font-size="22.4" lengthAdjust="spacing" textLength="131.2" x="1389.2" y="727.6984">KgCandidate</text><line style="stroke:#181818;stroke-width:0.8000000000000002;" x1="1278.4" x2="1579.2" y1="744.8" y2="744.8"/><text fill="#000000" font-family="Arial" font-size="22.4" lengthAdjust="spacing" textLength="145.6" x="1286.4" y="772.5773">+potFM: string</text><text fill="#000000" font-family="Arial" font-size="22.4" lengthAdjust="spacing" textLength="284.8" x="1286.4" y="798.3352">+expects: vector&lt;KgExpect&gt;</text><line style="stroke:#181818;stroke-width:0.8000000000000002;" x1="1278.4" x2="1579.2" y1="809.1156" y2="809.1156"/></g><!--class Plan--><g id="elem_Plan"><rect codeLine="60" fill="#F1F1F1" height="179.8313" id="Plan" rx="4" ry="4" style="stroke:#181818;stroke-width:0.8000000000000002;" width="358.4" x="1596.8" y="668"/><ellipse cx="1746.8" cy="693.6" fill="#F1F1F1" rx="17.6" ry="17.6" style="stroke:#181818;stroke-width:1.6000000000000003;"/><path d="M1743.775,700.9 Q1743.425,701.325 1743.2,701.45 Q1742.975,701.575 1742.675,701.575 Q1742.05,701.575 1741.6625,701.15 Q1741.275,700.725 1741.275,699.775 L1741.275,697.925 Q1741.275,696.95 1741.6625,696.5375 Q1742.05,696.125 1742.675,696.125 Q1743.15,696.125 1743.475,696.375 Q1743.8,696.625 1743.975,697.2125 Q1744.15,697.8 1744.325,698.025 Q1744.725,698.425 1745.7,698.85 Q1746.675,699.275 1747.85,699.275 Q1749.675,699.275 1750.825,698.425 Q1751.575,697.9 1751.575,697.15 Q1751.575,696.65 1751.225,696.2 Q1750.875,695.75 1750.05,695.475 Q1749.525,695.275 1747.675,694.925 Q1745.45,694.5 1744.3,693.925 Q1743.15,693.35 1742.4875,692.2875 Q1741.825,691.225 1741.825,689.975 Q1741.825,688.025 1743.4625,686.5625 Q1745.1,685.1 1747.725,685.1 Q1748.775,685.1 1749.6625,685.325 Q1750.55,685.55 1751.3,686.025 Q1751.825,685.525 1752.35,685.525 Q1752.95,685.525 1753.325,685.9375 Q1753.7,686.35 1753.7,687.325 L1753.7,689.375 Q1753.7,690.35 1753.325,690.7625 Q1752.95,691.175 1752.35,691.175 Q1751.85,691.175 1751.475,690.875 Q1751.175,690.65 1751.0375,689.975 Q1750.9,689.3 1750.675,689 Q1750.275,688.5 1749.5125,688.1625 Q1748.75,687.825 1747.725,687.825 Q1746.25,687.825 1745.4,688.5 Q1744.55,689.175 1744.55,689.925 Q1744.55,690.425 1744.9,690.9 Q1745.25,691.375 1745.925,691.65 Q1746.375,691.825 1748.4625,692.2375 Q1750.55,692.65 1751.675,693.1375 Q1752.8,693.625 1753.55,694.675 Q1754.3,695.725 1754.3,697.175 Q1754.3,699.2 1752.875,700.4 Q1750.975,702 1748.05,702 Q1746.925,702 1745.8625,701.725 Q1744.8,701.45 1743.775,700.9 Z " fill="#000000"/><text fill="#000000" font-family="Arial" font-size="22.4" lengthAdjust="spacing" textLength="44.8" x="1779.6" y="702.0984">Plan</text><line style="stroke:#181818;stroke-width:0.8000000000000002;" x1="1598.4" x2="1953.6" y1="719.2" y2="719.2"/><text fill="#000000" font-family="Arial" font-size="22.4" lengthAdjust="spacing" textLength="214.4" x="1606.4" y="746.9773">+correlationId : corrId</text><text fill="#000000" font-family="Arial" font-size="22.4" lengthAdjust="spacing" textLength="120" x="1606.4" y="772.7352">+resourceId</text><text fill="#000000" font-family="Arial" font-size="22.4" lengthAdjust="spacing" textLength="251.2" x="1606.4" y="798.493">+ops: vector&lt;Operation&gt;</text><text fill="#000000" font-family="Arial" font-size="22.4" lengthAdjust="spacing" textLength="339.2" x="1606.4" y="824.2508">+abortRequired +degradeAllowed</text><line style="stroke:#181818;stroke-width:0.8000000000000002;" x1="1598.4" x2="1953.6" y1="835.0313" y2="835.0313"/></g><!--class KgValKind--><g id="elem_KgValKind"><rect codeLine="56" fill="#F1F1F1" height="128.3156" id="KgValKind" rx="4" ry="4" style="stroke:#181818;stroke-width:0.8000000000000002;" width="168" x="1183.2" y="24"/><ellipse cx="1212.96" cy="49.6" fill="#EB937F" rx="17.6" ry="17.6" style="stroke:#181818;stroke-width:1.6000000000000003;"/><path d="M1211.135,50.875 L1211.135,54.875 L1218.06,54.875 L1218.06,53.4 Q1218.06,52.425 1218.4475,52 Q1218.835,51.575 1219.435,51.575 Q1220.035,51.575 1220.41,52 Q1220.785,52.425 1220.785,53.4 L1220.785,57.6 L1207.985,57.6 Q1206.985,57.6 1206.5725,57.225 Q1206.16,56.85 1206.16,56.225 Q1206.16,55.625 1206.585,55.25 Q1207.01,54.875 1207.985,54.875 L1208.41,54.875 L1208.41,44.225 L1207.985,44.225 Q1206.985,44.225 1206.5725,43.85 Q1206.16,43.475 1206.16,42.85 Q1206.16,42.25 1206.5725,41.875 Q1206.985,41.5 1207.985,41.5 L1220.185,41.5 L1220.185,45.65 Q1220.185,46.625 1219.8225,47.0375 Q1219.46,47.45 1218.835,47.45 Q1218.235,47.45 1217.86,47.0375 Q1217.485,46.625 1217.485,45.65 L1217.485,44.225 L1211.135,44.225 L1211.135,48.15 L1213.51,48.15 Q1213.51,47.1 1213.71,46.8 Q1214.135,46.15 1214.885,46.15 Q1215.485,46.15 1215.86,46.5625 Q1216.235,46.975 1216.235,47.95 L1216.235,51.1 Q1216.235,51.975 1216.035,52.275 Q1215.61,52.9 1214.885,52.9 Q1214.135,52.9 1213.71,52.25 Q1213.51,51.95 1213.51,50.875 L1211.135,50.875 Z " fill="#000000"/><text fill="#000000" font-family="Arial" font-size="22.4" lengthAdjust="spacing" textLength="104" x="1236.64" y="58.0984">KgValKind</text><line style="stroke:#181818;stroke-width:0.8000000000000002;" x1="1184.8" x2="1349.6" y1="75.2" y2="75.2"/><text fill="#000000" font-family="Arial" font-size="22.4" lengthAdjust="spacing" textLength="113.6" x="1192.8" y="102.9773">Bool, Int16,</text><text fill="#000000" font-family="Arial" font-size="22.4" lengthAdjust="spacing" textLength="148.8" x="1192.8" y="128.7352">Float64, String</text><line style="stroke:#181818;stroke-width:0.8000000000000002;" x1="1184.8" x2="1349.6" y1="139.5156" y2="139.5156"/></g><!--class Operation--><g id="elem_Operation"><rect codeLine="67" fill="#F1F1F1" height="385.8938" id="Operation" rx="4" ry="4" style="stroke:#181818;stroke-width:0.8000000000000002;" width="304" x="1624" y="971.2"/><ellipse cx="1718.8" cy="996.8" fill="#F1F1F1" rx="17.6" ry="17.6" style="stroke:#181818;stroke-width:1.6000000000000003;"/><path d="M1715.775,1004.1 Q1715.425,1004.525 1715.2,1004.65 Q1714.975,1004.775 1714.675,1004.775 Q1714.05,1004.775 1713.6625,1004.35 Q1713.275,1003.925 1713.275,1002.975 L1713.275,1001.125 Q1713.275,1000.15 1713.6625,999.7375 Q1714.05,999.325 1714.675,999.325 Q1715.15,999.325 1715.475,999.575 Q1715.8,999.825 1715.975,1000.4125 Q1716.15,1001 1716.325,1001.225 Q1716.725,1001.625 1717.7,1002.05 Q1718.675,1002.475 1719.85,1002.475 Q1721.675,1002.475 1722.825,1001.625 Q1723.575,1001.1 1723.575,1000.35 Q1723.575,999.85 1723.225,999.4 Q1722.875,998.95 1722.05,998.675 Q1721.525,998.475 1719.675,998.125 Q1717.45,997.7 1716.3,997.125 Q1715.15,996.55 1714.4875,995.4875 Q1713.825,994.425 1713.825,993.175 Q1713.825,991.225 1715.4625,989.7625 Q1717.1,988.3 1719.725,988.3 Q1720.775,988.3 1721.6625,988.525 Q1722.55,988.75 1723.3,989.225 Q1723.825,988.725 1724.35,988.725 Q1724.95,988.725 1725.325,989.1375 Q1725.7,989.55 1725.7,990.525 L1725.7,992.575 Q1725.7,993.55 1725.325,993.9625 Q1724.95,994.375 1724.35,994.375 Q1723.85,994.375 1723.475,994.075 Q1723.175,993.85 1723.0375,993.175 Q1722.9,992.5 1722.675,992.2 Q1722.275,991.7 1721.5125,991.3625 Q1720.75,991.025 1719.725,991.025 Q1718.25,991.025 1717.4,991.7 Q1716.55,992.375 1716.55,993.125 Q1716.55,993.625 1716.9,994.1 Q1717.25,994.575 1717.925,994.85 Q1718.375,995.025 1720.4625,995.4375 Q1722.55,995.85 1723.675,996.3375 Q1724.8,996.825 1725.55,997.875 Q1726.3,998.925 1726.3,1000.375 Q1726.3,1002.4 1724.875,1003.6 Q1722.975,1005.2 1720.05,1005.2 Q1718.925,1005.2 1717.8625,1004.925 Q1716.8,1004.65 1715.775,1004.1 Z " fill="#000000"/><text fill="#000000" font-family="Arial" font-size="22.4" lengthAdjust="spacing" textLength="100.8" x="1751.6" y="1005.2984">Operation</text><line style="stroke:#181818;stroke-width:0.8000000000000002;" x1="1625.6" x2="1926.4" y1="1022.4" y2="1022.4"/><text fill="#000000" font-family="Arial" font-size="22.4" lengthAdjust="spacing" textLength="150.4" x="1633.6" y="1050.1773">+type: OpType</text><text fill="#000000" font-family="Arial" font-size="22.4" lengthAdjust="spacing" textLength="150.4" x="1633.6" y="1075.9352">+nodeId: string</text><text fill="#000000" font-family="Arial" font-size="22.4" lengthAdjust="spacing" textLength="200" x="1633.6" y="1101.693">+ns: unsigned short</text><text fill="#000000" font-family="Arial" font-size="22.4" lengthAdjust="spacing" textLength="220.8" x="1633.6" y="1127.4508">+callObjNodeId: string</text><text fill="#000000" font-family="Arial" font-size="22.4" lengthAdjust="spacing" textLength="235.2" x="1633.6" y="1153.2086">+callMethNodeId: string</text><text fill="#000000" font-family="Arial" font-size="22.4" lengthAdjust="spacing" textLength="270.4" x="1633.6" y="1178.9664">+callNsObj: unsigned short</text><text fill="#000000" font-family="Arial" font-size="22.4" lengthAdjust="spacing" textLength="284.8" x="1633.6" y="1204.7242">+callNsMeth: unsigned short</text><text fill="#000000" font-family="Arial" font-size="22.4" lengthAdjust="spacing" textLength="216" x="1633.6" y="1230.482">+inputs: UAValueMap</text><text fill="#000000" font-family="Arial" font-size="22.4" lengthAdjust="spacing" textLength="238.4" x="1633.6" y="1256.2398">+expOuts: UAValueMap</text><text fill="#000000" font-family="Arial" font-size="22.4" lengthAdjust="spacing" textLength="115.2" x="1633.6" y="1281.9977">+arg: string</text><text fill="#000000" font-family="Arial" font-size="22.4" lengthAdjust="spacing" textLength="152" x="1633.6" y="1307.7555">+timeoutMs: int</text><text fill="#000000" font-family="Arial" font-size="22.4" lengthAdjust="spacing" textLength="124.8" x="1633.6" y="1333.5133">+attach: any</text><line style="stroke:#181818;stroke-width:0.8000000000000002;" x1="1625.6" x2="1926.4" y1="1344.2938" y2="1344.2938"/></g><!--class OpType--><g id="elem_OpType"><rect codeLine="81" fill="#F1F1F1" height="154.0734" id="OpType" rx="4" ry="4" style="stroke:#181818;stroke-width:0.8000000000000002;" width="702.4" x="1367.2" y="11.2"/><ellipse cx="1670.8" cy="36.8" fill="#EB937F" rx="17.6" ry="17.6" style="stroke:#181818;stroke-width:1.6000000000000003;"/><path d="M1668.975,38.075 L1668.975,42.075 L1675.9,42.075 L1675.9,40.6 Q1675.9,39.625 1676.2875,39.2 Q1676.675,38.775 1677.275,38.775 Q1677.875,38.775 1678.25,39.2 Q1678.625,39.625 1678.625,40.6 L1678.625,44.8 L1665.825,44.8 Q1664.825,44.8 1664.4125,44.425 Q1664,44.05 1664,43.425 Q1664,42.825 1664.425,42.45 Q1664.85,42.075 1665.825,42.075 L1666.25,42.075 L1666.25,31.425 L1665.825,31.425 Q1664.825,31.425 1664.4125,31.05 Q1664,30.675 1664,30.05 Q1664,29.45 1664.4125,29.075 Q1664.825,28.7 1665.825,28.7 L1678.025,28.7 L1678.025,32.85 Q1678.025,33.825 1677.6625,34.2375 Q1677.3,34.65 1676.675,34.65 Q1676.075,34.65 1675.7,34.2375 Q1675.325,33.825 1675.325,32.85 L1675.325,31.425 L1668.975,31.425 L1668.975,35.35 L1671.35,35.35 Q1671.35,34.3 1671.55,34 Q1671.975,33.35 1672.725,33.35 Q1673.325,33.35 1673.7,33.7625 Q1674.075,34.175 1674.075,35.15 L1674.075,38.3 Q1674.075,39.175 1673.875,39.475 Q1673.45,40.1 1672.725,40.1 Q1671.975,40.1 1671.55,39.45 Q1671.35,39.15 1671.35,38.075 L1668.975,38.075 Z " fill="#000000"/><text fill="#000000" font-family="Arial" font-size="22.4" lengthAdjust="spacing" textLength="81.6" x="1703.6" y="45.2984">OpType</text><line style="stroke:#181818;stroke-width:0.8000000000000002;" x1="1368.8" x2="2068" y1="62.4" y2="62.4"/><text fill="#000000" font-family="Arial" font-size="22.4" lengthAdjust="spacing" textLength="683.2" x="1376.8" y="90.1773">WriteBool, PulseBool, WriteInt32,CallMethod, CallMonitoringActions,</text><text fill="#000000" font-family="Arial" font-size="22.4" lengthAdjust="spacing" textLength="590.4" x="1376.8" y="115.9352">CallSystemReaction, WaitMs, ReadCheck, BlockResource,</text><text fill="#000000" font-family="Arial" font-size="22.4" lengthAdjust="spacing" textLength="582.4" x="1376.8" y="141.693">RerouteOrders, UnblockResource,KGIngestion, WriteCSV</text><line style="stroke:#181818;stroke-width:0.8000000000000002;" x1="1368.8" x2="2068" y1="152.4734" y2="152.4734"/></g><!--class CommandForceFactory--><g id="elem_CommandForceFactory"><rect codeLine="86" fill="#F1F1F1" height="102.5578" id="CommandForceFactory" rx="4" ry="4" style="stroke:#181818;stroke-width:0.8000000000000002;" width="289.6" x="1972" y="706.4"/><ellipse cx="1996" cy="732" fill="#ADD1B2" rx="17.6" ry="17.6" style="stroke:#181818;stroke-width:1.6000000000000003;"/><path d="M2000.425,725.4 Q2000.675,725.05 2000.975,724.875 Q2001.275,724.7 2001.625,724.7 Q2002.225,724.7 2002.6,725.1125 Q2002.975,725.525 2002.975,726.5 L2002.975,728.825 Q2002.975,729.8 2002.6,730.225 Q2002.225,730.65 2001.625,730.65 Q2001.075,730.65 2000.75,730.325 Q2000.425,730.025 2000.25,729.2 Q2000.175,728.625 1999.875,728.325 Q1999.35,727.725 1998.375,727.375 Q1997.4,727.025 1996.4,727.025 Q1995.175,727.025 1994.1625,727.55 Q1993.15,728.075 1992.3625,729.275 Q1991.575,730.475 1991.575,732.125 L1991.575,733.875 Q1991.575,735.85 1993,737.1625 Q1994.425,738.475 1996.975,738.475 Q1998.475,738.475 1999.525,738.075 Q2000.15,737.825 2000.825,737.125 Q2001.25,736.7 2001.4875,736.575 Q2001.725,736.45 2002.05,736.45 Q2002.575,736.45 2002.9875,736.8625 Q2003.4,737.275 2003.4,737.825 Q2003.4,738.375 2002.85,739.025 Q2002.05,739.95 2000.775,740.475 Q1999.05,741.2 1996.975,741.2 Q1994.55,741.2 1992.625,740.2 Q1991.05,739.4 1989.95,737.6875 Q1988.85,735.975 1988.85,733.925 L1988.85,732.075 Q1988.85,729.95 1989.8375,728.1125 Q1990.825,726.275 1992.575,725.2875 Q1994.325,724.3 1996.3,724.3 Q1997.475,724.3 1998.5125,724.5625 Q1999.55,724.825 2000.425,725.4 Z " fill="#000000"/><text fill="#000000" font-family="Arial" font-size="22.4" lengthAdjust="spacing" textLength="238.4" x="2018.4" y="740.4984">CommandForceFactory</text><line style="stroke:#181818;stroke-width:0.8000000000000002;" x1="1973.6" x2="2260" y1="757.6" y2="757.6"/><text fill="#000000" font-family="Arial" font-size="22.4" lengthAdjust="spacing" textLength="19.2" x="1981.6" y="785.3773">...</text><line style="stroke:#181818;stroke-width:0.8000000000000002;" x1="1973.6" x2="2260" y1="796.1578" y2="796.1578"/></g><!--reverse link ReactiveObserver to ReactionManager--><g id="link_ReactiveObserver_ReactionManager"><path d="M1051.2,168.608 C1051.2,202.144 1051.2,219.04 1051.2,262.192 " fill="none" id="ReactiveObserver-backto-ReactionManager" style="stroke:#181818;stroke-width:1.6000000000000003;stroke-dasharray:7.0,7.0;"/><polygon fill="none" points="1051.2,139.808,1041.6,168.608,1060.8,168.608,1051.2,139.808" style="stroke:#181818;stroke-width:1.6000000000000003;"/></g><!--link ReactionManager to Plan--><g id="link_ReactionManager_Plan"><path codeLine="90" d="M1342.272,520.096 C1423.04,557.408 1510.128,599.536 1588.8,641.6 C1604.08,649.776 1611.5412,653.83 1627.1412,662.902 " fill="none" id="ReactionManager-to-Plan" style="stroke:#181818;stroke-width:1.6000000000000003;"/><polygon fill="#181818" points="1635.44,667.728,1626.2092,654.9564,1628.5244,663.7063,1619.7745,666.0214,1635.44,667.728" style="stroke:#181818;stroke-width:1.6000000000000003;"/><text fill="#000000" font-family="Arial" font-size="20.8" lengthAdjust="spacing" textLength="256" x="1491.2" y="589.4504">buildPlanFromComparison()</text></g><!--reverse link Plan to Operation--><g id="link_Plan_Operation"><path codeLine="91" d="M1776,866.88 C1776,903.28 1776,927.744 1776,970.8 " fill="none" id="Plan-backto-Operation" style="stroke:#181818;stroke-width:1.6000000000000003;"/><polygon fill="none" points="1776,847.68,1769.6,857.28,1776,866.88,1782.4,857.28,1776,847.68" style="stroke:#181818;stroke-width:1.6000000000000003;"/></g><!--link ReactionManager to CommandForceFactory--><g id="link_ReactionManager_CommandForceFactory"><path codeLine="92" d="M1574.096,492.976 C1705.52,529.456 1843.232,577.952 1963.2,641.6 C1996.688,659.36 2023.279,678.0339 2050.831,699.8899 " fill="none" id="ReactionManager-to-CommandForceFactory" style="stroke:#181818;stroke-width:1.6000000000000003;"/><polygon fill="#181818" points="2058.352,705.856,2051.0479,691.8928,2052.0845,700.8842,2043.0931,701.9208,2058.352,705.856" style="stroke:#181818;stroke-width:1.6000000000000003;"/><text fill="#000000" font-family="Arial" font-size="20.8" lengthAdjust="spacing" textLength="363.2" x="1849.6" y="589.4504">createCommandForceForPlanAndAck()</text></g><!--reverse link ReactionManager to KgExpect--><g id="link_ReactionManager_KgExpect"><path codeLine="94" d="M771.2375,529.6597 C708.1495,565.1797 659.52,596.992 603.2,641.6 C600.256,643.936 597.328,646.352 594.4,648.848 " fill="none" id="ReactionManager-backto-KgExpect" style="stroke:#181818;stroke-width:1.6000000000000003;"/><polygon fill="none" points="787.968,520.24,776.4629,519.373,771.2375,529.6597,782.7426,530.5267,787.968,520.24" style="stroke:#181818;stroke-width:1.6000000000000003;"/></g><!--reverse link ReactionManager to ComparisonItem--><g id="link_ReactionManager_ComparisonItem"><path codeLine="95" d="M921.3646,534.4916 C872.2926,588.0436 829.872,634.352 787.472,680.608 " fill="none" id="ReactionManager-backto-ComparisonItem" style="stroke:#181818;stroke-width:1.6000000000000003;"/><polygon fill="none" points="934.336,520.336,923.1317,523.09,921.3646,534.4916,932.5688,531.7376,934.336,520.336" style="stroke:#181818;stroke-width:1.6000000000000003;"/></g><!--reverse link ReactionManager to ComparisonReport--><g id="link_ReactionManager_ComparisonReport"><path codeLine="96" d="M1051.2,539.536 C1051.2,603.728 1051.2,658.608 1051.2,706.32 " fill="none" id="ReactionManager-backto-ComparisonReport" style="stroke:#181818;stroke-width:1.6000000000000003;"/><polygon fill="none" points="1051.2,520.336,1044.8,529.936,1051.2,539.536,1057.6,529.936,1051.2,520.336" style="stroke:#181818;stroke-width:1.6000000000000003;"/></g><!--reverse link ReactionManager to KgCandidate--><g id="link_ReactionManager_KgCandidate"><path codeLine="97" d="M1197.6291,533.6467 C1258.6211,592.3187 1314.384,645.952 1363.776,693.456 " fill="none" id="ReactionManager-backto-KgCandidate" style="stroke:#181818;stroke-width:1.6000000000000003;"/><polygon fill="none" points="1183.792,520.336,1186.2736,531.6037,1197.6291,533.6467,1195.1474,522.379,1183.792,520.336" style="stroke:#181818;stroke-width:1.6000000000000003;"/></g><!--link ReactionManager to InventorySnapshot--><g id="link_ReactionManager_InventorySnapshot"><path codeLine="98" d="M528.368,465.84 C395.408,492.624 275.184,526.72 222.4,568 C178.544,602.304 157.0956,653.8192 144.8716,696.9872 " fill="none" id="ReactionManager-to-InventorySnapshot" style="stroke:#181818;stroke-width:1.6000000000000003;stroke-dasharray:7.0,7.0;"/><polygon fill="#181818" points="142.256,706.224,152.3373,694.1125,144.4357,698.5267,140.0215,690.6251,142.256,706.224" style="stroke:#181818;stroke-width:1.6000000000000003;"/><text fill="#000000" font-family="Arial" font-size="20.8" lengthAdjust="spacing" textLength="443.2" x="224" y="589.4504">compareAgainstCache(), logInventoryVariables()</text></g><!--SRC=[XLRDRkCs4BxhAUQKs8XY9Cqs1wCDu1ZhGF3Q3k9k2lH6YMEP5KMg9EMj4-HPUkapzBItl5Y7acpBZfFD8Q7cvvlXp3V3dC83iiG9hIPCiHGDdCD89wL53ebarW8NB3KiXuvMSarV1XD71uEIEJ9owm8jd426fCJ2TWER2LKmxsANZEjlGgMmOD9YIrD13vmp8YuTHebMS_64S16SmkZrUuh0cQrYPGvIffv0nwW0XUe7fpiKNWYukhY0epy4jNZzRk1-UdV- -Uz26mSTaIfj1D8nHW7pnxjsjXmNh9Hkf9MRiXnXO0IJU-5s1bMsbzVxuLBp-j_hFsYeYDu6VgKerj8tV44RCvEXSAruIdEqMC3bnT7anqexL2osZYdUJiCmbNc_gv-Ft_eF57BdQ1CcATNUDNpqGsvFfNtzrpr9aImHvXcJLATIfS7fKd04p0ktXXpp68qDJYKk73WDHgHBrv22E1GuNNXnh9tJUKiU-7GC4QsXsmfdCLLcHQLw3W2UD-eNEDFgymgLw-2g3zMf6xm4DHKFgIhoGc9E9lOuxDc1GoVNgW_tNuOJhOJJvYI4kBHDcDlIddIzqzi4-h3IWdjTN0h9xoLJ8wFpeSwf8y9grKcqCNsWEn3PGvgDeWyxxGDwzX6AT_GeYK6Q7JB8gKCZRHAaNruvK7oGP9s2ZhLr2DID9BEph4z5rJA4mkY4MEKPIauZ9kGcRYlD1RfawNMbmGdHxDuJ1nsrhaCyaj9xjzpgmzQngGw91bNrV9n9Pv57HhplD5zRX_ccu1-wl0HqA8aBaVBbrMOzLwomI-sghW7qUhsTqJYbwIKQmJDKoZFQD7sOqgt6j78QaL2yJvQFJ8xfs4YnyaD-IuKx44Kqk_kIqVMd0ydScLgoJMNNqeZk-b52EciE71sruLsScXfR92RbB8CpGUX4onMbeSql-r5l3h36wP1893WHQWjJQ3UQj3gqlTGET5DLWjj2LVH4LUQjIZQGjnNt8kKkhyDQCfAQkUjF8SohA0TPUQXjEduu_6j1l8WuzC5_HxpM6RIwf068DatJnIx9MO6cShlPr2UcQZtWNoKj5kwBIoyJnu6K-XloJGgR7BRUzIxm3rMVXB_HN__jrs_4spnM5BbKbXu90YCw6bSDgszA_EVqZRbNJD0jZskcbfpUmvjQxtXCIqk-z6twEg0Eb3XXHL1tRtP4p4pQ3kj4Zhfq4x8Jga9Zph64uZ2rfZPNhQqBK9NaTqD4gpjxNzBxN1yhANNwwgTmsDnGyn2gyy5Yi1KNl6P_-Wc42SeZz6kP3_q62-5MwYHxQDfTEJwWeNHnPZWjfX2-gdZFP7mNgHHj0-Yp6iuVjs_1tlPadYxh3U7y-cYeyEQVc_ERcfkqJjzPvTsWCj3dvpi67SKvbW6H-mUxlVisAHzgCuz7bViRu0SczKfv9yXsLxpHztetH_Qn7rOFZ8EK2MNTaEY4dMu8KgTRwqSAp6A9bYxtFm00]--></g></svg>