<?xml version="1.0" encoding="us-ascii" standalone="no"?><svg xmlns="http://www.w3.org/2000/svg" xmlns:xlink="http://www.w3.org/1999/xlink" contentStyleType="text/css" height="1438px" preserveAspectRatio="none" style="width:1224px;height:1438px;background:#FFFFFF;" version="1.1" viewBox="0 0 1224 1438" width="1224px" zoomAndPan="magnify"><defs/><g><!--class PLCMonitor--><g id="elem_PLCMonitor"><rect codeLine="23" fill="#F1F1F1" height="635.4521" id="PLCMonitor" rx="2.5" ry="2.5" style="stroke:#181818;stroke-width:0.5;" width="613" x="7" y="7"/><ellipse cx="272.25" cy="23" fill="#ADD1B2" rx="11" ry="11" style="stroke:#181818;stroke-width:1.0;"/><path d="M275.0156,18.875 Q275.1719,18.6563 275.3594,18.5469 Q275.5469,18.4375 275.7656,18.4375 Q276.1406,18.4375 276.375,18.6953 Q276.6094,18.9531 276.6094,19.5625 L276.6094,21.0156 Q276.6094,21.625 276.375,21.8906 Q276.1406,22.1563 275.7656,22.1563 Q275.4219,22.1563 275.2188,21.9531 Q275.0156,21.7656 274.9063,21.25 Q274.8594,20.8906 274.6719,20.7031 Q274.3438,20.3281 273.7344,20.1094 Q273.125,19.8906 272.5,19.8906 Q271.7344,19.8906 271.1016,20.2188 Q270.4688,20.5469 269.9766,21.2969 Q269.4844,22.0469 269.4844,23.0781 L269.4844,24.1719 Q269.4844,25.4063 270.375,26.2266 Q271.2656,27.0469 272.8594,27.0469 Q273.7969,27.0469 274.4531,26.7969 Q274.8438,26.6406 275.2656,26.2031 Q275.5313,25.9375 275.6797,25.8594 Q275.8281,25.7813 276.0313,25.7813 Q276.3594,25.7813 276.6172,26.0391 Q276.875,26.2969 276.875,26.6406 Q276.875,26.9844 276.5313,27.3906 Q276.0313,27.9688 275.2344,28.2969 Q274.1563,28.75 272.8594,28.75 Q271.3438,28.75 270.1406,28.125 Q269.1563,27.625 268.4688,26.5547 Q267.7813,25.4844 267.7813,24.2031 L267.7813,23.0469 Q267.7813,21.7188 268.3984,20.5703 Q269.0156,19.4219 270.1094,18.8047 Q271.2031,18.1875 272.4375,18.1875 Q273.1719,18.1875 273.8203,18.3516 Q274.4688,18.5156 275.0156,18.875 Z " fill="#000000"/><text fill="#000000" font-family="Arial" font-size="14" lengthAdjust="spacing" textLength="74" x="292.75" y="28.3115">PLCMonitor</text><line style="stroke:#181818;stroke-width:0.5;" x1="8" x2="619" y1="39" y2="39"/><text fill="#000000" font-family="Arial" font-size="14" lengthAdjust="spacing" textLength="57" x="13" y="56.3608">+post(fn)</text><text fill="#000000" font-family="Arial" font-size="14" lengthAdjust="spacing" textLength="161" x="13" y="72.4595">+processPosted(max=16)</text><text fill="#000000" font-family="Arial" font-size="14" lengthAdjust="spacing" textLength="103" x="13" y="108.6567">+connect(): bool</text><text fill="#000000" font-family="Arial" font-size="14" lengthAdjust="spacing" textLength="120" x="13" y="124.7554">+disconnect(): void</text><text fill="#000000" font-family="Arial" font-size="14" lengthAdjust="spacing" textLength="267" x="13" y="140.854">+runIterate(timeoutMs=0): UA_StatusCode</text><text fill="#000000" font-family="Arial" font-size="14" lengthAdjust="spacing" textLength="266" x="13" y="156.9526">+waitUntilActivated(timeoutMs=3000): bool</text><line style="stroke:#181818;stroke-width:1.0;" x1="8" x2="277.5" y1="87.2466" y2="87.2466"/><text fill="#000000" font-family="Arial" font-size="14" lengthAdjust="spacing" textLength="72" x="277.5" y="92.0581">Connection</text><line style="stroke:#181818;stroke-width:1.0;" x1="349.5" x2="619" y1="87.2466" y2="87.2466"/><text fill="#000000" font-family="Arial" font-size="14" lengthAdjust="spacing" textLength="601" x="13" y="193.1499">+callMethodTyped(objId, methId, inputs: UAValueMap, outputs: UAValueMap&amp;, timeoutMs): bool</text><text fill="#000000" font-family="Arial" font-size="14" lengthAdjust="spacing" textLength="387" x="13" y="209.2485">+callJob(objId, methId, x: int32, yOut: int32&amp;, timeoutMs): bool</text><text fill="#000000" font-family="Arial" font-size="14" lengthAdjust="spacing" textLength="226" x="13" y="225.3472">+readBoolAt(nodeId, ns, out&amp;): bool</text><text fill="#000000" font-family="Arial" font-size="14" lengthAdjust="spacing" textLength="229" x="13" y="241.4458">+readInt16At(nodeId, ns, out&amp;): bool</text><text fill="#000000" font-family="Arial" font-size="14" lengthAdjust="spacing" textLength="230" x="13" y="257.5444">+readFloatAt(nodeId, ns, out&amp;): bool</text><text fill="#000000" font-family="Arial" font-size="14" lengthAdjust="spacing" textLength="243" x="13" y="273.6431">+readDoubleAt(nodeId, ns, out&amp;): bool</text><text fill="#000000" font-family="Arial" font-size="14" lengthAdjust="spacing" textLength="235" x="13" y="289.7417">+readStringAt(nodeId, ns, out&amp;): bool</text><text fill="#000000" font-family="Arial" font-size="14" lengthAdjust="spacing" textLength="327" x="13" y="305.8403">+readAsString(nodeId, ns, outVal&amp;, outType&amp;): bool</text><text fill="#000000" font-family="Arial" font-size="14" lengthAdjust="spacing" textLength="218" x="13" y="321.939">+writeBool(nodeId, ns, value): bool</text><line style="stroke:#181818;stroke-width:1.0;" x1="8" x2="282.5" y1="171.7397" y2="171.7397"/><text fill="#000000" font-family="Arial" font-size="14" lengthAdjust="spacing" textLength="62" x="282.5" y="176.5513">Calls &amp; IO</text><line style="stroke:#181818;stroke-width:1.0;" x1="344.5" x2="619" y1="171.7397" y2="171.7397"/><text fill="#000000" font-family="Arial" font-size="14" lengthAdjust="spacing" textLength="390" x="13" y="358.1362">+subscribeInt16(nodeId, ns, samplingMs, queueSize, cb): bool</text><text fill="#000000" font-family="Arial" font-size="14" lengthAdjust="spacing" textLength="387" x="13" y="374.2349">+subscribeBool(nodeId, ns, samplingMs, queueSize, cb): bool</text><text fill="#000000" font-family="Arial" font-size="14" lengthAdjust="spacing" textLength="129" x="13" y="390.3335">+unsubscribe(): void</text><line style="stroke:#181818;stroke-width:1.0;" x1="8" x2="271" y1="336.7261" y2="336.7261"/><text fill="#000000" font-family="Arial" font-size="14" lengthAdjust="spacing" textLength="85" x="271" y="341.5376">Subscriptions</text><line style="stroke:#181818;stroke-width:1.0;" x1="356" x2="619" y1="336.7261" y2="336.7261"/><text fill="#000000" font-family="Arial" font-size="14" lengthAdjust="spacing" textLength="422" x="13" y="426.5308">+dumpPlcInventory(out: vector&lt;InventoryRow&gt;&amp;, filter="PLC"): bool</text><text fill="#000000" font-family="Arial" font-size="14" lengthAdjust="spacing" textLength="169" x="13" y="442.6294">+printInventoryTable(rows)</text><line style="stroke:#181818;stroke-width:1.0;" x1="8" x2="284.5" y1="405.1206" y2="405.1206"/><text fill="#000000" font-family="Arial" font-size="14" lengthAdjust="spacing" textLength="58" x="284.5" y="409.9321">Inventory</text><line style="stroke:#181818;stroke-width:1.0;" x1="342.5" x2="619" y1="405.1206" y2="405.1206"/><text fill="#000000" font-family="Arial" font-size="14" lengthAdjust="spacing" textLength="169" x="13" y="478.8267">+postDelayed(delayMs, fn)</text><text fill="#000000" font-family="Arial" font-size="14" lengthAdjust="spacing" textLength="111" x="13" y="494.9253">+processTimers()</text><line style="stroke:#181818;stroke-width:1.0;" x1="8" x2="292" y1="457.4165" y2="457.4165"/><text fill="#000000" font-family="Arial" font-size="14" lengthAdjust="spacing" textLength="43" x="292" y="462.228">Timers</text><line style="stroke:#181818;stroke-width:1.0;" x1="335" x2="619" y1="457.4165" y2="457.4165"/><text fill="#000000" font-family="Arial" font-size="14" lengthAdjust="spacing" textLength="398" x="13" y="531.1226">+connectToSecureTestServer(certDer, keyDer, endpoint): bool</text><text fill="#000000" font-family="Arial" font-size="14" lengthAdjust="spacing" textLength="353" x="13" y="547.2212">+watchTriggerD2(samplingMs=0.0, queueSize=10): bool</text><line style="stroke:#181818;stroke-width:1.0;" x1="8" x2="252" y1="509.7124" y2="509.7124"/><text fill="#000000" font-family="Arial" font-size="14" lengthAdjust="spacing" textLength="123" x="252" y="514.5239">Secure Test Server</text><line style="stroke:#181818;stroke-width:1.0;" x1="375" x2="619" y1="509.7124" y2="509.7124"/><text fill="#000000" font-family="Arial" font-size="14" lengthAdjust="spacing" textLength="115" x="13" y="583.4185">+raw(): UA_Client*</text><line style="stroke:#181818;stroke-width:1.0;" x1="8" x2="284" y1="562.0083" y2="562.0083"/><text fill="#000000" font-family="Arial" font-size="14" lengthAdjust="spacing" textLength="59" x="284" y="566.8198">Low-level</text><line style="stroke:#181818;stroke-width:1.0;" x1="343" x2="619" y1="562.0083" y2="562.0083"/><text fill="#000000" font-family="Arial" font-size="14" lengthAdjust="spacing" textLength="157" x="13" y="619.6157">+dataChangeHandler(...)</text><text fill="#000000" font-family="Arial" font-size="14" lengthAdjust="spacing" textLength="528" x="13" y="635.7144">+TestServerDefaults(certDer, keyDer, endpoint="opc.tcp://localhost:4840"): Options</text><line style="stroke:#181818;stroke-width:1.0;stroke-dasharray:1.0,2.0;" x1="8" x2="297" y1="598.2056" y2="598.2056"/><text fill="#000000" font-family="Arial" font-size="14" lengthAdjust="spacing" textLength="33" x="297" y="603.0171">static</text><line style="stroke:#181818;stroke-width:1.0;stroke-dasharray:1.0,2.0;" x1="330" x2="619" y1="598.2056" y2="598.2056"/></g><!--class Options--><g id="elem_Options"><rect codeLine="62" fill="#F1F1F1" height="160.6904" id="Options" rx="2.5" ry="2.5" style="stroke:#181818;stroke-width:0.5;" width="158" x="141.5" y="674"/><ellipse cx="191.75" cy="690" fill="#F1F1F1" rx="11" ry="11" style="stroke:#181818;stroke-width:1.0;"/><path d="M189.8594,694.5625 Q189.6406,694.8281 189.5,694.9063 Q189.3594,694.9844 189.1719,694.9844 Q188.7813,694.9844 188.5391,694.7188 Q188.2969,694.4531 188.2969,693.8594 L188.2969,692.7031 Q188.2969,692.0938 188.5391,691.8359 Q188.7813,691.5781 189.1719,691.5781 Q189.4688,691.5781 189.6719,691.7344 Q189.875,691.8906 189.9844,692.2578 Q190.0938,692.625 190.2031,692.7656 Q190.4531,693.0156 191.0625,693.2813 Q191.6719,693.5469 192.4063,693.5469 Q193.5469,693.5469 194.2656,693.0156 Q194.7344,692.6875 194.7344,692.2188 Q194.7344,691.9063 194.5156,691.625 Q194.2969,691.3438 193.7813,691.1719 Q193.4531,691.0469 192.2969,690.8281 Q190.9063,690.5625 190.1875,690.2031 Q189.4688,689.8438 189.0547,689.1797 Q188.6406,688.5156 188.6406,687.7344 Q188.6406,686.5156 189.6641,685.6016 Q190.6875,684.6875 192.3281,684.6875 Q192.9844,684.6875 193.5391,684.8281 Q194.0938,684.9688 194.5625,685.2656 Q194.8906,684.9531 195.2188,684.9531 Q195.5938,684.9531 195.8281,685.2109 Q196.0625,685.4688 196.0625,686.0781 L196.0625,687.3594 Q196.0625,687.9688 195.8281,688.2266 Q195.5938,688.4844 195.2188,688.4844 Q194.9063,688.4844 194.6719,688.2969 Q194.4844,688.1563 194.3984,687.7344 Q194.3125,687.3125 194.1719,687.125 Q193.9219,686.8125 193.4453,686.6016 Q192.9688,686.3906 192.3281,686.3906 Q191.4063,686.3906 190.875,686.8125 Q190.3438,687.2344 190.3438,687.7031 Q190.3438,688.0156 190.5625,688.3125 Q190.7813,688.6094 191.2031,688.7813 Q191.4844,688.8906 192.7891,689.1484 Q194.0938,689.4063 194.7969,689.7109 Q195.5,690.0156 195.9688,690.6719 Q196.4375,691.3281 196.4375,692.2344 Q196.4375,693.5 195.5469,694.25 Q194.3594,695.25 192.5313,695.25 Q191.8281,695.25 191.1641,695.0781 Q190.5,694.9063 189.8594,694.5625 Z " fill="#000000"/><text fill="#000000" font-family="Arial" font-size="14" lengthAdjust="spacing" textLength="49" x="212.25" y="695.3115">Options</text><line style="stroke:#181818;stroke-width:0.5;" x1="142.5" x2="298.5" y1="706" y2="706"/><text fill="#000000" font-family="Arial" font-size="14" lengthAdjust="spacing" textLength="98" x="147.5" y="723.3608">endpoint: string</text><text fill="#000000" font-family="Arial" font-size="14" lengthAdjust="spacing" textLength="106" x="147.5" y="739.4595">username: string</text><text fill="#000000" font-family="Arial" font-size="14" lengthAdjust="spacing" textLength="103" x="147.5" y="755.5581">password: string</text><text fill="#000000" font-family="Arial" font-size="14" lengthAdjust="spacing" textLength="119" x="147.5" y="771.6567">certDerPath: string</text><text fill="#000000" font-family="Arial" font-size="14" lengthAdjust="spacing" textLength="117" x="147.5" y="787.7554">keyDerPath: string</text><text fill="#000000" font-family="Arial" font-size="14" lengthAdjust="spacing" textLength="128" x="147.5" y="803.854">applicationUri: string</text><text fill="#000000" font-family="Arial" font-size="14" lengthAdjust="spacing" textLength="146" x="147.5" y="819.9526">nsIndex: UA_UInt16 = 2</text><line style="stroke:#181818;stroke-width:0.5;" x1="142.5" x2="298.5" y1="826.6904" y2="826.6904"/></g><!--class InventoryRow--><g id="elem_InventoryRow"><rect codeLine="73" fill="#F1F1F1" height="96.2959" id="InventoryRow" rx="2.5" ry="2.5" style="stroke:#181818;stroke-width:0.5;" width="383" x="140" y="1335"/><ellipse cx="284.75" cy="1351" fill="#F1F1F1" rx="11" ry="11" style="stroke:#181818;stroke-width:1.0;"/><path d="M282.8594,1355.5625 Q282.6406,1355.8281 282.5,1355.9063 Q282.3594,1355.9844 282.1719,1355.9844 Q281.7813,1355.9844 281.5391,1355.7188 Q281.2969,1355.4531 281.2969,1354.8594 L281.2969,1353.7031 Q281.2969,1353.0938 281.5391,1352.8359 Q281.7813,1352.5781 282.1719,1352.5781 Q282.4688,1352.5781 282.6719,1352.7344 Q282.875,1352.8906 282.9844,1353.2578 Q283.0938,1353.625 283.2031,1353.7656 Q283.4531,1354.0156 284.0625,1354.2813 Q284.6719,1354.5469 285.4063,1354.5469 Q286.5469,1354.5469 287.2656,1354.0156 Q287.7344,1353.6875 287.7344,1353.2188 Q287.7344,1352.9063 287.5156,1352.625 Q287.2969,1352.3438 286.7813,1352.1719 Q286.4531,1352.0469 285.2969,1351.8281 Q283.9063,1351.5625 283.1875,1351.2031 Q282.4688,1350.8438 282.0547,1350.1797 Q281.6406,1349.5156 281.6406,1348.7344 Q281.6406,1347.5156 282.6641,1346.6016 Q283.6875,1345.6875 285.3281,1345.6875 Q285.9844,1345.6875 286.5391,1345.8281 Q287.0938,1345.9688 287.5625,1346.2656 Q287.8906,1345.9531 288.2188,1345.9531 Q288.5938,1345.9531 288.8281,1346.2109 Q289.0625,1346.4688 289.0625,1347.0781 L289.0625,1348.3594 Q289.0625,1348.9688 288.8281,1349.2266 Q288.5938,1349.4844 288.2188,1349.4844 Q287.9063,1349.4844 287.6719,1349.2969 Q287.4844,1349.1563 287.3984,1348.7344 Q287.3125,1348.3125 287.1719,1348.125 Q286.9219,1347.8125 286.4453,1347.6016 Q285.9688,1347.3906 285.3281,1347.3906 Q284.4063,1347.3906 283.875,1347.8125 Q283.3438,1348.2344 283.3438,1348.7031 Q283.3438,1349.0156 283.5625,1349.3125 Q283.7813,1349.6094 284.2031,1349.7813 Q284.4844,1349.8906 285.7891,1350.1484 Q287.0938,1350.4063 287.7969,1350.7109 Q288.5,1351.0156 288.9688,1351.6719 Q289.4375,1352.3281 289.4375,1353.2344 Q289.4375,1354.5 288.5469,1355.25 Q287.3594,1356.25 285.5313,1356.25 Q284.8281,1356.25 284.1641,1356.0781 Q283.5,1355.9063 282.8594,1355.5625 Z " fill="#000000"/><text fill="#000000" font-family="Arial" font-size="14" lengthAdjust="spacing" textLength="85" x="305.25" y="1356.3115">InventoryRow</text><line style="stroke:#181818;stroke-width:0.5;" x1="141" x2="522" y1="1367" y2="1367"/><text fill="#000000" font-family="Arial" font-size="14" lengthAdjust="spacing" textLength="301" x="146" y="1384.3608">nodeClass: string  ' "Variable"|"Method"|"Object"</text><text fill="#000000" font-family="Arial" font-size="14" lengthAdjust="spacing" textLength="357" x="146" y="1400.4595">nodeId: string     ' e.g. ns=4;s=OPCUA.DiagnoseFinished</text><text fill="#000000" font-family="Arial" font-size="14" lengthAdjust="spacing" textLength="371" x="146" y="1416.5581">dtypeOrSig: string ' e.g. "Boolean" or "in:[Int32], out:[Int32]"</text><line style="stroke:#181818;stroke-width:0.5;" x1="141" x2="522" y1="1423.2959" y2="1423.2959"/></g><!--class UAValue--><g id="elem_UAValue"><rect codeLine="80" fill="#F1F1F1" height="71.9961" id="UAValue" rx="2.5" ry="2.5" style="stroke:#181818;stroke-width:0.5;" width="484" x="315.5" y="879"/><ellipse cx="523.75" cy="898.9487" fill="#F1F1F1" rx="11" ry="11" style="stroke:#181818;stroke-width:1.0;"/><path d="M521.8594,903.5112 Q521.6406,903.7769 521.5,903.855 Q521.3594,903.9331 521.1719,903.9331 Q520.7813,903.9331 520.5391,903.6675 Q520.2969,903.4019 520.2969,902.8081 L520.2969,901.6519 Q520.2969,901.0425 520.5391,900.7847 Q520.7813,900.5269 521.1719,900.5269 Q521.4688,900.5269 521.6719,900.6831 Q521.875,900.8394 521.9844,901.2065 Q522.0938,901.5737 522.2031,901.7144 Q522.4531,901.9644 523.0625,902.23 Q523.6719,902.4956 524.4063,902.4956 Q525.5469,902.4956 526.2656,901.9644 Q526.7344,901.6362 526.7344,901.1675 Q526.7344,900.855 526.5156,900.5737 Q526.2969,900.2925 525.7813,900.1206 Q525.4531,899.9956 524.2969,899.7769 Q522.9063,899.5112 522.1875,899.1519 Q521.4688,898.7925 521.0547,898.1284 Q520.6406,897.4644 520.6406,896.6831 Q520.6406,895.4644 521.6641,894.5503 Q522.6875,893.6362 524.3281,893.6362 Q524.9844,893.6362 525.5391,893.7769 Q526.0938,893.9175 526.5625,894.2144 Q526.8906,893.9019 527.2188,893.9019 Q527.5938,893.9019 527.8281,894.1597 Q528.0625,894.4175 528.0625,895.0269 L528.0625,896.3081 Q528.0625,896.9175 527.8281,897.1753 Q527.5938,897.4331 527.2188,897.4331 Q526.9063,897.4331 526.6719,897.2456 Q526.4844,897.105 526.3984,896.6831 Q526.3125,896.2612 526.1719,896.0737 Q525.9219,895.7612 525.4453,895.5503 Q524.9688,895.3394 524.3281,895.3394 Q523.4063,895.3394 522.875,895.7612 Q522.3438,896.1831 522.3438,896.6519 Q522.3438,896.9644 522.5625,897.2612 Q522.7813,897.5581 523.2031,897.73 Q523.4844,897.8394 524.7891,898.0972 Q526.0938,898.355 526.7969,898.6597 Q527.5,898.9644 527.9688,899.6206 Q528.4375,900.2769 528.4375,901.1831 Q528.4375,902.4487 527.5469,903.1987 Q526.3594,904.1987 524.5313,904.1987 Q523.8281,904.1987 523.1641,904.0269 Q522.5,903.855 521.8594,903.5112 Z " fill="#000000"/><text fill="#000000" font-family="Arial" font-size="12" font-style="italic" lengthAdjust="spacing" textLength="63" x="542.25" y="895.4521">&#171;typealias&#187;</text><text fill="#000000" font-family="Arial" font-size="14" lengthAdjust="spacing" textLength="54" x="546.75" y="911.1597">UAValue</text><line style="stroke:#181818;stroke-width:0.5;" x1="316.5" x2="798.5" y1="918.8975" y2="918.8975"/><text fill="#000000" font-family="Arial" font-size="14" lengthAdjust="spacing" textLength="472" x="321.5" y="936.2583">std::variant&lt;std::monostate, bool, int16_t, int32_t, float, double, std::string&gt;</text><line style="stroke:#181818;stroke-width:0.5;" x1="316.5" x2="798.5" y1="942.9961" y2="942.9961"/></g><!--class UAValueMap--><g id="elem_UAValueMap"><rect codeLine="83" fill="#F1F1F1" height="71.9961" id="UAValueMap" rx="2.5" ry="2.5" style="stroke:#181818;stroke-width:0.5;" width="159" x="376" y="718.5"/><ellipse cx="411.7" cy="738.4487" fill="#F1F1F1" rx="11" ry="11" style="stroke:#181818;stroke-width:1.0;"/><path d="M409.8094,743.0112 Q409.5906,743.2769 409.45,743.355 Q409.3094,743.4331 409.1219,743.4331 Q408.7313,743.4331 408.4891,743.1675 Q408.2469,742.9019 408.2469,742.3081 L408.2469,741.1519 Q408.2469,740.5425 408.4891,740.2847 Q408.7313,740.0269 409.1219,740.0269 Q409.4188,740.0269 409.6219,740.1831 Q409.825,740.3394 409.9344,740.7065 Q410.0438,741.0737 410.1531,741.2144 Q410.4031,741.4644 411.0125,741.73 Q411.6219,741.9956 412.3563,741.9956 Q413.4969,741.9956 414.2156,741.4644 Q414.6844,741.1362 414.6844,740.6675 Q414.6844,740.355 414.4656,740.0737 Q414.2469,739.7925 413.7313,739.6206 Q413.4031,739.4956 412.2469,739.2769 Q410.8563,739.0112 410.1375,738.6519 Q409.4188,738.2925 409.0047,737.6284 Q408.5906,736.9644 408.5906,736.1831 Q408.5906,734.9644 409.6141,734.0503 Q410.6375,733.1362 412.2781,733.1362 Q412.9344,733.1362 413.4891,733.2769 Q414.0438,733.4175 414.5125,733.7144 Q414.8406,733.4019 415.1688,733.4019 Q415.5438,733.4019 415.7781,733.6597 Q416.0125,733.9175 416.0125,734.5269 L416.0125,735.8081 Q416.0125,736.4175 415.7781,736.6753 Q415.5438,736.9331 415.1688,736.9331 Q414.8563,736.9331 414.6219,736.7456 Q414.4344,736.605 414.3484,736.1831 Q414.2625,735.7612 414.1219,735.5737 Q413.8719,735.2612 413.3953,735.0503 Q412.9188,734.8394 412.2781,734.8394 Q411.3563,734.8394 410.825,735.2612 Q410.2938,735.6831 410.2938,736.1519 Q410.2938,736.4644 410.5125,736.7612 Q410.7313,737.0581 411.1531,737.23 Q411.4344,737.3394 412.7391,737.5972 Q414.0438,737.855 414.7469,738.1597 Q415.45,738.4644 415.9188,739.1206 Q416.3875,739.7769 416.3875,740.6831 Q416.3875,741.9487 415.4969,742.6987 Q414.3094,743.6987 412.4813,743.6987 Q411.7781,743.6987 411.1141,743.5269 Q410.45,743.355 409.8094,743.0112 Z " fill="#000000"/><text fill="#000000" font-family="Arial" font-size="12" font-style="italic" lengthAdjust="spacing" textLength="63" x="439.3" y="734.9521">&#171;typealias&#187;</text><text fill="#000000" font-family="Arial" font-size="14" lengthAdjust="spacing" textLength="81" x="430.3" y="750.6597">UAValueMap</text><line style="stroke:#181818;stroke-width:0.5;" x1="377" x2="534" y1="758.3975" y2="758.3975"/><text fill="#000000" font-family="Arial" font-size="14" lengthAdjust="spacing" textLength="147" x="382" y="775.7583">std::map&lt;int, UAValue&gt;</text><line style="stroke:#181818;stroke-width:0.5;" x1="377" x2="534" y1="782.4961" y2="782.4961"/></g><!--class NodeKey--><g id="elem_NodeKey"><rect codeLine="90" fill="#F1F1F1" height="96.2959" id="NodeKey" rx="2.5" ry="2.5" style="stroke:#181818;stroke-width:0.5;" width="110" x="531.5" y="1335"/><ellipse cx="555.95" cy="1351" fill="#F1F1F1" rx="11" ry="11" style="stroke:#181818;stroke-width:1.0;"/><path d="M554.0594,1355.5625 Q553.8406,1355.8281 553.7,1355.9063 Q553.5594,1355.9844 553.3719,1355.9844 Q552.9813,1355.9844 552.7391,1355.7188 Q552.4969,1355.4531 552.4969,1354.8594 L552.4969,1353.7031 Q552.4969,1353.0938 552.7391,1352.8359 Q552.9813,1352.5781 553.3719,1352.5781 Q553.6688,1352.5781 553.8719,1352.7344 Q554.075,1352.8906 554.1844,1353.2578 Q554.2938,1353.625 554.4031,1353.7656 Q554.6531,1354.0156 555.2625,1354.2813 Q555.8719,1354.5469 556.6063,1354.5469 Q557.7469,1354.5469 558.4656,1354.0156 Q558.9344,1353.6875 558.9344,1353.2188 Q558.9344,1352.9063 558.7156,1352.625 Q558.4969,1352.3438 557.9813,1352.1719 Q557.6531,1352.0469 556.4969,1351.8281 Q555.1063,1351.5625 554.3875,1351.2031 Q553.6688,1350.8438 553.2547,1350.1797 Q552.8406,1349.5156 552.8406,1348.7344 Q552.8406,1347.5156 553.8641,1346.6016 Q554.8875,1345.6875 556.5281,1345.6875 Q557.1844,1345.6875 557.7391,1345.8281 Q558.2938,1345.9688 558.7625,1346.2656 Q559.0906,1345.9531 559.4188,1345.9531 Q559.7938,1345.9531 560.0281,1346.2109 Q560.2625,1346.4688 560.2625,1347.0781 L560.2625,1348.3594 Q560.2625,1348.9688 560.0281,1349.2266 Q559.7938,1349.4844 559.4188,1349.4844 Q559.1063,1349.4844 558.8719,1349.2969 Q558.6844,1349.1563 558.5984,1348.7344 Q558.5125,1348.3125 558.3719,1348.125 Q558.1219,1347.8125 557.6453,1347.6016 Q557.1688,1347.3906 556.5281,1347.3906 Q555.6063,1347.3906 555.075,1347.8125 Q554.5438,1348.2344 554.5438,1348.7031 Q554.5438,1349.0156 554.7625,1349.3125 Q554.9813,1349.6094 555.4031,1349.7813 Q555.6844,1349.8906 556.9891,1350.1484 Q558.2938,1350.4063 558.9969,1350.7109 Q559.7,1351.0156 560.1688,1351.6719 Q560.6375,1352.3281 560.6375,1353.2344 Q560.6375,1354.5 559.7469,1355.25 Q558.5594,1356.25 556.7313,1356.25 Q556.0281,1356.25 555.3641,1356.0781 Q554.7,1355.9063 554.0594,1355.5625 Z " fill="#000000"/><text fill="#000000" font-family="Arial" font-size="14" lengthAdjust="spacing" textLength="57" x="572.05" y="1356.3115">NodeKey</text><line style="stroke:#181818;stroke-width:0.5;" x1="532.5" x2="640.5" y1="1367" y2="1367"/><text fill="#000000" font-family="Arial" font-size="14" lengthAdjust="spacing" textLength="98" x="537.5" y="1384.3608">ns: uint16_t = 4</text><text fill="#000000" font-family="Arial" font-size="14" lengthAdjust="spacing" textLength="63" x="537.5" y="1400.4595">type: char</text><text fill="#000000" font-family="Arial" font-size="14" lengthAdjust="spacing" textLength="54" x="537.5" y="1416.5581">id: string</text><line style="stroke:#181818;stroke-width:0.5;" x1="532.5" x2="640.5" y1="1423.2959" y2="1423.2959"/></g><!--class InventorySnapshot--><g id="elem_InventorySnapshot"><rect codeLine="96" fill="#F1F1F1" height="128.4932" id="InventorySnapshot" rx="2.5" ry="2.5" style="stroke:#181818;stroke-width:0.5;" width="279" x="447" y="1190"/><ellipse cx="523.25" cy="1206" fill="#F1F1F1" rx="11" ry="11" style="stroke:#181818;stroke-width:1.0;"/><path d="M521.3594,1210.5625 Q521.1406,1210.8281 521,1210.9063 Q520.8594,1210.9844 520.6719,1210.9844 Q520.2813,1210.9844 520.0391,1210.7188 Q519.7969,1210.4531 519.7969,1209.8594 L519.7969,1208.7031 Q519.7969,1208.0938 520.0391,1207.8359 Q520.2813,1207.5781 520.6719,1207.5781 Q520.9688,1207.5781 521.1719,1207.7344 Q521.375,1207.8906 521.4844,1208.2578 Q521.5938,1208.625 521.7031,1208.7656 Q521.9531,1209.0156 522.5625,1209.2813 Q523.1719,1209.5469 523.9063,1209.5469 Q525.0469,1209.5469 525.7656,1209.0156 Q526.2344,1208.6875 526.2344,1208.2188 Q526.2344,1207.9063 526.0156,1207.625 Q525.7969,1207.3438 525.2813,1207.1719 Q524.9531,1207.0469 523.7969,1206.8281 Q522.4063,1206.5625 521.6875,1206.2031 Q520.9688,1205.8438 520.5547,1205.1797 Q520.1406,1204.5156 520.1406,1203.7344 Q520.1406,1202.5156 521.1641,1201.6016 Q522.1875,1200.6875 523.8281,1200.6875 Q524.4844,1200.6875 525.0391,1200.8281 Q525.5938,1200.9688 526.0625,1201.2656 Q526.3906,1200.9531 526.7188,1200.9531 Q527.0938,1200.9531 527.3281,1201.2109 Q527.5625,1201.4688 527.5625,1202.0781 L527.5625,1203.3594 Q527.5625,1203.9688 527.3281,1204.2266 Q527.0938,1204.4844 526.7188,1204.4844 Q526.4063,1204.4844 526.1719,1204.2969 Q525.9844,1204.1563 525.8984,1203.7344 Q525.8125,1203.3125 525.6719,1203.125 Q525.4219,1202.8125 524.9453,1202.6016 Q524.4688,1202.3906 523.8281,1202.3906 Q522.9063,1202.3906 522.375,1202.8125 Q521.8438,1203.2344 521.8438,1203.7031 Q521.8438,1204.0156 522.0625,1204.3125 Q522.2813,1204.6094 522.7031,1204.7813 Q522.9844,1204.8906 524.2891,1205.1484 Q525.5938,1205.4063 526.2969,1205.7109 Q527,1206.0156 527.4688,1206.6719 Q527.9375,1207.3281 527.9375,1208.2344 Q527.9375,1209.5 527.0469,1210.25 Q525.8594,1211.25 524.0313,1211.25 Q523.3281,1211.25 522.6641,1211.0781 Q522,1210.9063 521.3594,1210.5625 Z " fill="#000000"/><text fill="#000000" font-family="Arial" font-size="14" lengthAdjust="spacing" textLength="118" x="543.75" y="1211.3115">InventorySnapshot</text><line style="stroke:#181818;stroke-width:0.5;" x1="448" x2="725" y1="1222" y2="1222"/><text fill="#000000" font-family="Arial" font-size="14" lengthAdjust="spacing" textLength="177" x="453" y="1239.3608">rows: vector&lt;InventoryRow&gt;</text><text fill="#000000" font-family="Arial" font-size="14" lengthAdjust="spacing" textLength="247" x="453" y="1255.4595">bools: unordered_map&lt;NodeKey,bool&gt;</text><text fill="#000000" font-family="Arial" font-size="14" lengthAdjust="spacing" textLength="263" x="453" y="1271.5581">strings: unordered_map&lt;NodeKey,string&gt;</text><text fill="#000000" font-family="Arial" font-size="14" lengthAdjust="spacing" textLength="267" x="453" y="1287.6567">int16s: unordered_map&lt;NodeKey,int16_t&gt;</text><text fill="#000000" font-family="Arial" font-size="14" lengthAdjust="spacing" textLength="263" x="453" y="1303.7554">floats: unordered_map&lt;NodeKey,double&gt;</text><line style="stroke:#181818;stroke-width:0.5;" x1="448" x2="725" y1="1310.4932" y2="1310.4932"/></g><!--class DSnapshot--><g id="elem_DSnapshot"><rect codeLine="106" fill="#F1F1F1" height="80.1973" id="DSnapshot" rx="2.5" ry="2.5" style="stroke:#181818;stroke-width:0.5;" width="156" x="515.5" y="1093"/><ellipse cx="554.8" cy="1109" fill="#F1F1F1" rx="11" ry="11" style="stroke:#181818;stroke-width:1.0;"/><path d="M552.9094,1113.5625 Q552.6906,1113.8281 552.55,1113.9063 Q552.4094,1113.9844 552.2219,1113.9844 Q551.8313,1113.9844 551.5891,1113.7188 Q551.3469,1113.4531 551.3469,1112.8594 L551.3469,1111.7031 Q551.3469,1111.0938 551.5891,1110.8359 Q551.8313,1110.5781 552.2219,1110.5781 Q552.5188,1110.5781 552.7219,1110.7344 Q552.925,1110.8906 553.0344,1111.2578 Q553.1438,1111.625 553.2531,1111.7656 Q553.5031,1112.0156 554.1125,1112.2813 Q554.7219,1112.5469 555.4563,1112.5469 Q556.5969,1112.5469 557.3156,1112.0156 Q557.7844,1111.6875 557.7844,1111.2188 Q557.7844,1110.9063 557.5656,1110.625 Q557.3469,1110.3438 556.8313,1110.1719 Q556.5031,1110.0469 555.3469,1109.8281 Q553.9563,1109.5625 553.2375,1109.2031 Q552.5188,1108.8438 552.1047,1108.1797 Q551.6906,1107.5156 551.6906,1106.7344 Q551.6906,1105.5156 552.7141,1104.6016 Q553.7375,1103.6875 555.3781,1103.6875 Q556.0344,1103.6875 556.5891,1103.8281 Q557.1438,1103.9688 557.6125,1104.2656 Q557.9406,1103.9531 558.2688,1103.9531 Q558.6438,1103.9531 558.8781,1104.2109 Q559.1125,1104.4688 559.1125,1105.0781 L559.1125,1106.3594 Q559.1125,1106.9688 558.8781,1107.2266 Q558.6438,1107.4844 558.2688,1107.4844 Q557.9563,1107.4844 557.7219,1107.2969 Q557.5344,1107.1563 557.4484,1106.7344 Q557.3625,1106.3125 557.2219,1106.125 Q556.9719,1105.8125 556.4953,1105.6016 Q556.0188,1105.3906 555.3781,1105.3906 Q554.4563,1105.3906 553.925,1105.8125 Q553.3938,1106.2344 553.3938,1106.7031 Q553.3938,1107.0156 553.6125,1107.3125 Q553.8313,1107.6094 554.2531,1107.7813 Q554.5344,1107.8906 555.8391,1108.1484 Q557.1438,1108.4063 557.8469,1108.7109 Q558.55,1109.0156 559.0188,1109.6719 Q559.4875,1110.3281 559.4875,1111.2344 Q559.4875,1112.5 558.5969,1113.25 Q557.4094,1114.25 555.5813,1114.25 Q554.8781,1114.25 554.2141,1114.0781 Q553.55,1113.9063 552.9094,1113.5625 Z " fill="#000000"/><text fill="#000000" font-family="Arial" font-size="14" lengthAdjust="spacing" textLength="70" x="574.2" y="1114.3115">DSnapshot</text><line style="stroke:#181818;stroke-width:0.5;" x1="516.5" x2="670.5" y1="1125" y2="1125"/><text fill="#000000" font-family="Arial" font-size="14" lengthAdjust="spacing" textLength="121" x="521.5" y="1142.3608">correlationId: string</text><text fill="#000000" font-family="Arial" font-size="14" lengthAdjust="spacing" textLength="144" x="521.5" y="1158.4595">inv: InventorySnapshot</text><line style="stroke:#181818;stroke-width:0.5;" x1="516.5" x2="670.5" y1="1165.1973" y2="1165.1973"/></g><!--class EventBus--><g id="elem_EventBus"><rect codeLine="115" fill="#F1F1F1" height="160.6904" id="EventBus" rx="2.5" ry="2.5" style="stroke:#181818;stroke-width:0.5;" width="647" x="570" y="674"/><ellipse cx="859.25" cy="690" fill="#ADD1B2" rx="11" ry="11" style="stroke:#181818;stroke-width:1.0;"/><path d="M862.0156,685.875 Q862.1719,685.6563 862.3594,685.5469 Q862.5469,685.4375 862.7656,685.4375 Q863.1406,685.4375 863.375,685.6953 Q863.6094,685.9531 863.6094,686.5625 L863.6094,688.0156 Q863.6094,688.625 863.375,688.8906 Q863.1406,689.1563 862.7656,689.1563 Q862.4219,689.1563 862.2188,688.9531 Q862.0156,688.7656 861.9063,688.25 Q861.8594,687.8906 861.6719,687.7031 Q861.3438,687.3281 860.7344,687.1094 Q860.125,686.8906 859.5,686.8906 Q858.7344,686.8906 858.1016,687.2188 Q857.4688,687.5469 856.9766,688.2969 Q856.4844,689.0469 856.4844,690.0781 L856.4844,691.1719 Q856.4844,692.4063 857.375,693.2266 Q858.2656,694.0469 859.8594,694.0469 Q860.7969,694.0469 861.4531,693.7969 Q861.8438,693.6406 862.2656,693.2031 Q862.5313,692.9375 862.6797,692.8594 Q862.8281,692.7813 863.0313,692.7813 Q863.3594,692.7813 863.6172,693.0391 Q863.875,693.2969 863.875,693.6406 Q863.875,693.9844 863.5313,694.3906 Q863.0313,694.9688 862.2344,695.2969 Q861.1563,695.75 859.8594,695.75 Q858.3438,695.75 857.1406,695.125 Q856.1563,694.625 855.4688,693.5547 Q854.7813,692.4844 854.7813,691.2031 L854.7813,690.0469 Q854.7813,688.7188 855.3984,687.5703 Q856.0156,686.4219 857.1094,685.8047 Q858.2031,685.1875 859.4375,685.1875 Q860.1719,685.1875 860.8203,685.3516 Q861.4688,685.5156 862.0156,685.875 Z " fill="#000000"/><text fill="#000000" font-family="Arial" font-size="14" lengthAdjust="spacing" textLength="60" x="879.75" y="695.3115">EventBus</text><line style="stroke:#181818;stroke-width:0.5;" x1="571" x2="1216" y1="706" y2="706"/><line style="stroke:#181818;stroke-width:0.5;" x1="571" x2="1216" y1="714" y2="714"/><text fill="#000000" font-family="Arial" font-size="14" lengthAdjust="spacing" textLength="621" x="576" y="731.3608">+subscribe(t: EventType, obs: shared_ptr&lt;ReactiveObserver&gt;, priority: int = 1): SubscriptionToken</text><text fill="#000000" font-family="Arial" font-size="14" lengthAdjust="spacing" textLength="635" x="576" y="747.4595">+subscribe_scoped(t: EventType, obs: shared_ptr&lt;ReactiveObserver&gt;, priority: int = 1): Subscription</text><text fill="#000000" font-family="Arial" font-size="14" lengthAdjust="spacing" textLength="274" x="576" y="763.5581">+unsubscribe(tok: SubscriptionToken): void</text><text fill="#000000" font-family="Arial" font-size="14" lengthAdjust="spacing" textLength="138" x="576" y="779.6567">+post(ev: Event): void</text><text fill="#000000" font-family="Arial" font-size="14" lengthAdjust="spacing" textLength="171" x="576" y="795.7554">+post_now(ev: Event): void</text><text fill="#000000" font-family="Arial" font-size="14" lengthAdjust="spacing" textLength="246" x="576" y="811.854">+process(maxEvents: size_t = 32): void</text><text fill="#000000" font-family="Arial" font-size="14" lengthAdjust="spacing" textLength="131" x="576" y="827.9526">+clear_queue(): void</text></g><!--class Event--><g id="elem_Event"><rect codeLine="127" fill="#F1F1F1" height="96.2959" id="Event" rx="2.5" ry="2.5" style="stroke:#181818;stroke-width:0.5;" width="238" x="804.5" y="867"/><ellipse cx="901.25" cy="883" fill="#F1F1F1" rx="11" ry="11" style="stroke:#181818;stroke-width:1.0;"/><path d="M899.3594,887.5625 Q899.1406,887.8281 899,887.9063 Q898.8594,887.9844 898.6719,887.9844 Q898.2813,887.9844 898.0391,887.7188 Q897.7969,887.4531 897.7969,886.8594 L897.7969,885.7031 Q897.7969,885.0938 898.0391,884.8359 Q898.2813,884.5781 898.6719,884.5781 Q898.9688,884.5781 899.1719,884.7344 Q899.375,884.8906 899.4844,885.2578 Q899.5938,885.625 899.7031,885.7656 Q899.9531,886.0156 900.5625,886.2813 Q901.1719,886.5469 901.9063,886.5469 Q903.0469,886.5469 903.7656,886.0156 Q904.2344,885.6875 904.2344,885.2188 Q904.2344,884.9063 904.0156,884.625 Q903.7969,884.3438 903.2813,884.1719 Q902.9531,884.0469 901.7969,883.8281 Q900.4063,883.5625 899.6875,883.2031 Q898.9688,882.8438 898.5547,882.1797 Q898.1406,881.5156 898.1406,880.7344 Q898.1406,879.5156 899.1641,878.6016 Q900.1875,877.6875 901.8281,877.6875 Q902.4844,877.6875 903.0391,877.8281 Q903.5938,877.9688 904.0625,878.2656 Q904.3906,877.9531 904.7188,877.9531 Q905.0938,877.9531 905.3281,878.2109 Q905.5625,878.4688 905.5625,879.0781 L905.5625,880.3594 Q905.5625,880.9688 905.3281,881.2266 Q905.0938,881.4844 904.7188,881.4844 Q904.4063,881.4844 904.1719,881.2969 Q903.9844,881.1563 903.8984,880.7344 Q903.8125,880.3125 903.6719,880.125 Q903.4219,879.8125 902.9453,879.6016 Q902.4688,879.3906 901.8281,879.3906 Q900.9063,879.3906 900.375,879.8125 Q899.8438,880.2344 899.8438,880.7031 Q899.8438,881.0156 900.0625,881.3125 Q900.2813,881.6094 900.7031,881.7813 Q900.9844,881.8906 902.2891,882.1484 Q903.5938,882.4063 904.2969,882.7109 Q905,883.0156 905.4688,883.6719 Q905.9375,884.3281 905.9375,885.2344 Q905.9375,886.5 905.0469,887.25 Q903.8594,888.25 902.0313,888.25 Q901.3281,888.25 900.6641,888.0781 Q900,887.9063 899.3594,887.5625 Z " fill="#000000"/><text fill="#000000" font-family="Arial" font-size="14" lengthAdjust="spacing" textLength="36" x="921.75" y="888.3115">Event</text><line style="stroke:#181818;stroke-width:0.5;" x1="805.5" x2="1041.5" y1="899" y2="899"/><text fill="#000000" font-family="Arial" font-size="14" lengthAdjust="spacing" textLength="103" x="810.5" y="916.3608">type: EventType</text><text fill="#000000" font-family="Arial" font-size="14" lengthAdjust="spacing" textLength="226" x="810.5" y="932.4595">ts: chrono::steady_clock::time_point</text><text fill="#000000" font-family="Arial" font-size="14" lengthAdjust="spacing" textLength="108" x="810.5" y="948.5581">payload: std::any</text><line style="stroke:#181818;stroke-width:0.5;" x1="805.5" x2="1041.5" y1="955.2959" y2="955.2959"/></g><!--class PLCSnapshotPayload--><g id="elem_PLCSnapshotPayload"><rect codeLine="134" fill="#F1F1F1" height="80.1973" id="PLCSnapshotPayload" rx="2.5" ry="2.5" style="stroke:#181818;stroke-width:0.5;" width="170" x="587.5" y="988"/><ellipse cx="602.5" cy="1004" fill="#F1F1F1" rx="11" ry="11" style="stroke:#181818;stroke-width:1.0;"/><path d="M600.6094,1008.5625 Q600.3906,1008.8281 600.25,1008.9063 Q600.1094,1008.9844 599.9219,1008.9844 Q599.5313,1008.9844 599.2891,1008.7188 Q599.0469,1008.4531 599.0469,1007.8594 L599.0469,1006.7031 Q599.0469,1006.0938 599.2891,1005.8359 Q599.5313,1005.5781 599.9219,1005.5781 Q600.2188,1005.5781 600.4219,1005.7344 Q600.625,1005.8906 600.7344,1006.2578 Q600.8438,1006.625 600.9531,1006.7656 Q601.2031,1007.0156 601.8125,1007.2813 Q602.4219,1007.5469 603.1563,1007.5469 Q604.2969,1007.5469 605.0156,1007.0156 Q605.4844,1006.6875 605.4844,1006.2188 Q605.4844,1005.9063 605.2656,1005.625 Q605.0469,1005.3438 604.5313,1005.1719 Q604.2031,1005.0469 603.0469,1004.8281 Q601.6563,1004.5625 600.9375,1004.2031 Q600.2188,1003.8438 599.8047,1003.1797 Q599.3906,1002.5156 599.3906,1001.7344 Q599.3906,1000.5156 600.4141,999.6016 Q601.4375,998.6875 603.0781,998.6875 Q603.7344,998.6875 604.2891,998.8281 Q604.8438,998.9688 605.3125,999.2656 Q605.6406,998.9531 605.9688,998.9531 Q606.3438,998.9531 606.5781,999.2109 Q606.8125,999.4688 606.8125,1000.0781 L606.8125,1001.3594 Q606.8125,1001.9688 606.5781,1002.2266 Q606.3438,1002.4844 605.9688,1002.4844 Q605.6563,1002.4844 605.4219,1002.2969 Q605.2344,1002.1563 605.1484,1001.7344 Q605.0625,1001.3125 604.9219,1001.125 Q604.6719,1000.8125 604.1953,1000.6016 Q603.7188,1000.3906 603.0781,1000.3906 Q602.1563,1000.3906 601.625,1000.8125 Q601.0938,1001.2344 601.0938,1001.7031 Q601.0938,1002.0156 601.3125,1002.3125 Q601.5313,1002.6094 601.9531,1002.7813 Q602.2344,1002.8906 603.5391,1003.1484 Q604.8438,1003.4063 605.5469,1003.7109 Q606.25,1004.0156 606.7188,1004.6719 Q607.1875,1005.3281 607.1875,1006.2344 Q607.1875,1007.5 606.2969,1008.25 Q605.1094,1009.25 603.2813,1009.25 Q602.5781,1009.25 601.9141,1009.0781 Q601.25,1008.9063 600.6094,1008.5625 Z " fill="#000000"/><text fill="#000000" font-family="Arial" font-size="14" lengthAdjust="spacing" textLength="138" x="616.5" y="1009.3115">PLCSnapshotPayload</text><line style="stroke:#181818;stroke-width:0.5;" x1="588.5" x2="756.5" y1="1020" y2="1020"/><text fill="#000000" font-family="Arial" font-size="14" lengthAdjust="spacing" textLength="121" x="593.5" y="1037.3608">correlationId: string</text><text fill="#000000" font-family="Arial" font-size="14" lengthAdjust="spacing" textLength="130" x="593.5" y="1053.4595">snapshotJson: string</text><line style="stroke:#181818;stroke-width:0.5;" x1="588.5" x2="756.5" y1="1060.1973" y2="1060.1973"/></g><!--class KGResultPayload--><g id="elem_KGResultPayload"><rect codeLine="138" fill="#F1F1F1" height="96.2959" id="KGResultPayload" rx="2.5" ry="2.5" style="stroke:#181818;stroke-width:0.5;" width="143" x="775" y="980"/><ellipse cx="790" cy="996" fill="#F1F1F1" rx="11" ry="11" style="stroke:#181818;stroke-width:1.0;"/><path d="M788.1094,1000.5625 Q787.8906,1000.8281 787.75,1000.9063 Q787.6094,1000.9844 787.4219,1000.9844 Q787.0313,1000.9844 786.7891,1000.7188 Q786.5469,1000.4531 786.5469,999.8594 L786.5469,998.7031 Q786.5469,998.0938 786.7891,997.8359 Q787.0313,997.5781 787.4219,997.5781 Q787.7188,997.5781 787.9219,997.7344 Q788.125,997.8906 788.2344,998.2578 Q788.3438,998.625 788.4531,998.7656 Q788.7031,999.0156 789.3125,999.2813 Q789.9219,999.5469 790.6563,999.5469 Q791.7969,999.5469 792.5156,999.0156 Q792.9844,998.6875 792.9844,998.2188 Q792.9844,997.9063 792.7656,997.625 Q792.5469,997.3438 792.0313,997.1719 Q791.7031,997.0469 790.5469,996.8281 Q789.1563,996.5625 788.4375,996.2031 Q787.7188,995.8438 787.3047,995.1797 Q786.8906,994.5156 786.8906,993.7344 Q786.8906,992.5156 787.9141,991.6016 Q788.9375,990.6875 790.5781,990.6875 Q791.2344,990.6875 791.7891,990.8281 Q792.3438,990.9688 792.8125,991.2656 Q793.1406,990.9531 793.4688,990.9531 Q793.8438,990.9531 794.0781,991.2109 Q794.3125,991.4688 794.3125,992.0781 L794.3125,993.3594 Q794.3125,993.9688 794.0781,994.2266 Q793.8438,994.4844 793.4688,994.4844 Q793.1563,994.4844 792.9219,994.2969 Q792.7344,994.1563 792.6484,993.7344 Q792.5625,993.3125 792.4219,993.125 Q792.1719,992.8125 791.6953,992.6016 Q791.2188,992.3906 790.5781,992.3906 Q789.6563,992.3906 789.125,992.8125 Q788.5938,993.2344 788.5938,993.7031 Q788.5938,994.0156 788.8125,994.3125 Q789.0313,994.6094 789.4531,994.7813 Q789.7344,994.8906 791.0391,995.1484 Q792.3438,995.4063 793.0469,995.7109 Q793.75,996.0156 794.2188,996.6719 Q794.6875,997.3281 794.6875,998.2344 Q794.6875,999.5 793.7969,1000.25 Q792.6094,1001.25 790.7813,1001.25 Q790.0781,1001.25 789.4141,1001.0781 Q788.75,1000.9063 788.1094,1000.5625 Z " fill="#000000"/><text fill="#000000" font-family="Arial" font-size="14" lengthAdjust="spacing" textLength="111" x="804" y="1001.3115">KGResultPayload</text><line style="stroke:#181818;stroke-width:0.5;" x1="776" x2="917" y1="1012" y2="1012"/><text fill="#000000" font-family="Arial" font-size="14" lengthAdjust="spacing" textLength="121" x="781" y="1029.3608">correlationId: string</text><text fill="#000000" font-family="Arial" font-size="14" lengthAdjust="spacing" textLength="101" x="781" y="1045.4595">rowsJson: string</text><text fill="#000000" font-family="Arial" font-size="14" lengthAdjust="spacing" textLength="50" x="781" y="1061.5581">ok: bool</text><line style="stroke:#181818;stroke-width:0.5;" x1="776" x2="917" y1="1068.2959" y2="1068.2959"/></g><!--class KGTimeoutPayload--><g id="elem_KGTimeoutPayload"><rect codeLine="143" fill="#F1F1F1" height="64.0986" id="KGTimeoutPayload" rx="2.5" ry="2.5" style="stroke:#181818;stroke-width:0.5;" width="154" x="923.5" y="996"/><ellipse cx="938.5" cy="1012" fill="#F1F1F1" rx="11" ry="11" style="stroke:#181818;stroke-width:1.0;"/><path d="M936.6094,1016.5625 Q936.3906,1016.8281 936.25,1016.9063 Q936.1094,1016.9844 935.9219,1016.9844 Q935.5313,1016.9844 935.2891,1016.7188 Q935.0469,1016.4531 935.0469,1015.8594 L935.0469,1014.7031 Q935.0469,1014.0938 935.2891,1013.8359 Q935.5313,1013.5781 935.9219,1013.5781 Q936.2188,1013.5781 936.4219,1013.7344 Q936.625,1013.8906 936.7344,1014.2578 Q936.8438,1014.625 936.9531,1014.7656 Q937.2031,1015.0156 937.8125,1015.2813 Q938.4219,1015.5469 939.1563,1015.5469 Q940.2969,1015.5469 941.0156,1015.0156 Q941.4844,1014.6875 941.4844,1014.2188 Q941.4844,1013.9063 941.2656,1013.625 Q941.0469,1013.3438 940.5313,1013.1719 Q940.2031,1013.0469 939.0469,1012.8281 Q937.6563,1012.5625 936.9375,1012.2031 Q936.2188,1011.8438 935.8047,1011.1797 Q935.3906,1010.5156 935.3906,1009.7344 Q935.3906,1008.5156 936.4141,1007.6016 Q937.4375,1006.6875 939.0781,1006.6875 Q939.7344,1006.6875 940.2891,1006.8281 Q940.8438,1006.9688 941.3125,1007.2656 Q941.6406,1006.9531 941.9688,1006.9531 Q942.3438,1006.9531 942.5781,1007.2109 Q942.8125,1007.4688 942.8125,1008.0781 L942.8125,1009.3594 Q942.8125,1009.9688 942.5781,1010.2266 Q942.3438,1010.4844 941.9688,1010.4844 Q941.6563,1010.4844 941.4219,1010.2969 Q941.2344,1010.1563 941.1484,1009.7344 Q941.0625,1009.3125 940.9219,1009.125 Q940.6719,1008.8125 940.1953,1008.6016 Q939.7188,1008.3906 939.0781,1008.3906 Q938.1563,1008.3906 937.625,1008.8125 Q937.0938,1009.2344 937.0938,1009.7031 Q937.0938,1010.0156 937.3125,1010.3125 Q937.5313,1010.6094 937.9531,1010.7813 Q938.2344,1010.8906 939.5391,1011.1484 Q940.8438,1011.4063 941.5469,1011.7109 Q942.25,1012.0156 942.7188,1012.6719 Q943.1875,1013.3281 943.1875,1014.2344 Q943.1875,1015.5 942.2969,1016.25 Q941.1094,1017.25 939.2813,1017.25 Q938.5781,1017.25 937.9141,1017.0781 Q937.25,1016.9063 936.6094,1016.5625 Z " fill="#000000"/><text fill="#000000" font-family="Arial" font-size="14" lengthAdjust="spacing" textLength="122" x="952.5" y="1017.3115">KGTimeoutPayload</text><line style="stroke:#181818;stroke-width:0.5;" x1="924.5" x2="1076.5" y1="1028" y2="1028"/><text fill="#000000" font-family="Arial" font-size="14" lengthAdjust="spacing" textLength="121" x="929.5" y="1045.3608">correlationId: string</text><line style="stroke:#181818;stroke-width:0.5;" x1="924.5" x2="1076.5" y1="1052.0986" y2="1052.0986"/></g><!--reverse link PLCMonitor to Options--><g id="link_PLCMonitor_Options"><path codeLine="71" d="M242.143,653.8966 C239.743,664.9466 239.99,663.79 237.83,673.72 " fill="none" id="PLCMonitor-backto-Options" style="stroke:#181818;stroke-width:1.0;"/><polygon fill="#181818" points="244.69,642.17,239.5077,647.1843,242.143,653.8966,247.3254,648.8823,244.69,642.17" style="stroke:#181818;stroke-width:1.0;"/><text fill="#000000" font-family="Arial" font-size="13" lengthAdjust="spacing" textLength="25" x="244.5" y="663.4065">opt_</text></g><!--link PLCMonitor to InventoryRow--><g id="link_PLCMonitor_InventoryRow"><path codeLine="78" d="M308.06,642.2 C307.72,679.71 307.5,717.46 307.5,753.5 C307.5,753.5 307.5,753.5 307.5,1255 C307.5,1281.7 311.3241,1305.1775 316.8741,1328.9175 " fill="none" id="PLCMonitor-to-InventoryRow" style="stroke:#181818;stroke-width:1.0;stroke-dasharray:7.0,7.0;"/><polygon fill="#181818" points="318.24,1334.76,320.0862,1325.0857,317.1018,1329.8913,312.2962,1326.9069,318.24,1334.76" style="stroke:#181818;stroke-width:1.0;"/><text fill="#000000" font-family="Arial" font-size="13" lengthAdjust="spacing" textLength="110" x="308.5" y="1033.4065">dumpPlcInventory()</text></g><!--link PLCMonitor to UAValueMap--><g id="link_PLCMonitor_UAValueMap"><path codeLine="86" d="M418.56,642.17 C428.53,672.22 435.4396,693.0456 441.9496,712.6556 " fill="none" id="PLCMonitor-to-UAValueMap" style="stroke:#181818;stroke-width:1.0;stroke-dasharray:7.0,7.0;"/><polygon fill="#181818" points="443.84,718.35,444.8007,708.5481,442.2647,713.6047,437.2081,711.0686,443.84,718.35" style="stroke:#181818;stroke-width:1.0;"/><text fill="#000000" font-family="Arial" font-size="13" lengthAdjust="spacing" textLength="118" x="426.5" y="663.4065">callMethodTyped(...)</text></g><!--reverse link UAValueMap to UAValue--><g id="link_UAValueMap_UAValue"><path codeLine="87" d="M484.6341,800.7709 C501.5341,827.0309 518.04,852.68 534.93,878.92 " fill="none" id="UAValueMap-backto-UAValue" style="stroke:#181818;stroke-width:1.0;"/><polygon fill="#181818" points="478.14,790.68,478.0234,797.8902,484.6341,800.7709,484.7507,793.5607,478.14,790.68" style="stroke:#181818;stroke-width:1.0;"/></g><!--reverse link InventorySnapshot to InventoryRow--><g id="link_InventorySnapshot_InventoryRow"><path codeLine="103" d="M449.0056,1323.4739 C437.6256,1329.1339 436.99,1329.46 425.96,1334.95 " fill="none" id="InventorySnapshot-backto-InventoryRow" style="stroke:#181818;stroke-width:1.0;"/><polygon fill="none" points="459.75,1318.13,452.5965,1317.2205,449.0056,1323.4739,456.1591,1324.3834,459.75,1318.13" style="stroke:#181818;stroke-width:1.0;"/></g><!--reverse link InventorySnapshot to NodeKey--><g id="link_InventorySnapshot_NodeKey"><path codeLine="104" d="M586.5,1330.13 C586.5,1335.73 586.5,1329.34 586.5,1334.77 " fill="none" id="InventorySnapshot-backto-NodeKey" style="stroke:#181818;stroke-width:1.0;"/><polygon fill="#181818" points="586.5,1318.13,582.5,1324.13,586.5,1330.13,590.5,1324.13,586.5,1318.13" style="stroke:#181818;stroke-width:1.0;"/></g><!--reverse link DSnapshot to InventorySnapshot--><g id="link_DSnapshot_InventorySnapshot"><path codeLine="110" d="M590.488,1185.2694 C590.178,1190.5594 590.55,1184.1 590.23,1189.66 " fill="none" id="DSnapshot-backto-InventorySnapshot" style="stroke:#181818;stroke-width:1.0;"/><polygon fill="#181818" points="591.19,1173.29,586.8458,1179.0457,590.488,1185.2694,594.8321,1179.5137,591.19,1173.29" style="stroke:#181818;stroke-width:1.0;"/></g><!--link PLCMonitor to EventBus--><g id="link_PLCMonitor_EventBus"><path codeLine="125" d="M620.06,551.72 C679.5,595.58 733.1722,635.1873 780.7222,670.2773 " fill="none" id="PLCMonitor-to-EventBus" style="stroke:#181818;stroke-width:1.0;stroke-dasharray:7.0,7.0;"/><polygon fill="#181818" points="785.55,673.84,780.6835,665.2775,781.5269,670.8711,775.9332,671.7145,785.55,673.84" style="stroke:#181818;stroke-width:1.0;"/><text fill="#000000" font-family="Arial" font-size="13" lengthAdjust="spacing" textLength="192" x="768.5" y="663.4065">(indirect via application main.cpp)</text></g><!--reverse link EventBus to Event--><g id="link_EventBus_Event"><path codeLine="132" d="M910.8173,847.0015 C912.8573,857.8015 912.67,856.79 914.56,866.76 " fill="none" id="EventBus-backto-Event" style="stroke:#181818;stroke-width:1.0;"/><polygon fill="#181818" points="908.59,835.21,905.7731,841.8482,910.8173,847.0015,913.6341,840.3633,908.59,835.21" style="stroke:#181818;stroke-width:1.0;"/><text fill="#000000" font-family="Arial" font-size="13" lengthAdjust="spacing" textLength="12" x="913.5" y="856.4065">ev</text></g><!--reverse link Event to PLCSnapshotPayload--><g id="link_Event_PLCSnapshotPayload"><path codeLine="146" d="M800.1334,967.8076 C787.0734,973.4476 784.98,974.43 772.5,980 C766.81,982.54 760.95,985.2 755.06,987.89 " fill="none" id="Event-backto-PLCSnapshotPayload" style="stroke:#181818;stroke-width:1.0;"/><polygon fill="none" points="811.15,963.05,804.0558,961.7566,800.1334,967.8076,807.2275,969.101,811.15,963.05" style="stroke:#181818;stroke-width:1.0;"/></g><!--reverse link Event to KGResultPayload--><g id="link_Event_KGResultPayload"><path codeLine="147" d="M884.0066,972.9274 C880.1466,978.4874 883.06,974.3 879.21,979.85 " fill="none" id="Event-backto-KGResultPayload" style="stroke:#181818;stroke-width:1.0;"/><polygon fill="none" points="890.85,963.07,884.1425,965.7175,884.0066,972.9274,890.7141,970.2798,890.85,963.07" style="stroke:#181818;stroke-width:1.0;"/></g><!--reverse link Event to KGTimeoutPayload--><g id="link_Event_KGTimeoutPayload"><path codeLine="148" d="M962.9916,972.9286 C970.7016,984.0386 971.89,985.75 978.96,995.95 " fill="none" id="Event-backto-KGTimeoutPayload" style="stroke:#181818;stroke-width:1.0;"/><polygon fill="none" points="956.15,963.07,956.2846,970.2798,962.9916,972.9286,962.857,965.7188,956.15,963.07" style="stroke:#181818;stroke-width:1.0;"/></g><!--reverse link PLCSnapshotPayload to DSnapshot--><g id="link_PLCSnapshotPayload_DSnapshot"><path codeLine="149" d="M635.1123,1077.7559 C628.9223,1085.8359 629.7,1084.81 623.51,1092.88 " fill="none" id="PLCSnapshotPayload-backto-DSnapshot" style="stroke:#181818;stroke-width:1.0;"/><polygon fill="#181818" points="642.41,1068.23,635.5858,1070.5604,635.1123,1077.7559,641.9365,1075.4255,642.41,1068.23" style="stroke:#181818;stroke-width:1.0;"/></g><!--SRC=[hLVDSXit4hxpAL0yM5H2JIJRSMrDH5KfakLbR5agY_9XjxPOc1c8H3W49W26D9tDi-Iopx2dtFHY-pLcECIGOfJ3gbH53D3e__wwSS0-2PuwgTKrLtmY33jYLpejhSXOcdDhMIRvnF0vwscLh_1bHEgmC2Bd3aHkLGZBNh2PmA4ex677pgGgE5snKvxffLGJzi1pAu8Jp_hSEIEJqebXgjMT_2hOSUU0NJt-CH4iuzRBcZasuUehqubGJ4WLTmusNB92ibV7n-p9Fx1wUFp3iDkFxuxUVYcqSQmd9qeRAR1CX6Htdz-5scRYWPUvkzBAVUHpmSwDv7bBt8R0QtlofYrkOXx_-_YxC70YqR01f5YBR_P1s8IRcP0kv9TB9SXzhD3vYZu2PPJEX1K5-txRflTAEw5uOXrNMN31S3LhNm3nFuJCDyJip_v0_RMqZ_znNtEPJWMxc_4SdYhLf7CmbPbWObwu5PkBUIACxHpaui4nfvcHawchqm9Pr76weEr4EwVdmNu70WRRV-n2mpixsvqgysu_N5nh9Pqsx5Se_ssXhUizg4E_DZg5Ss-n9RBUd7yPdBoXWwCZy5Ig4eeleashZTvX3BLqJbkPjC7kGalophUmTkY4GLxtd9mBNRfhEpW6mVtv-CvnLzeBX8KebrowU-LaVWv12og4u0PIydWZYpJYUKurChnPQuIDQ-6cEXiX_bbF9pyFipwSwwRqYvYMpfBOppmlnJKl-WoijpTVz5aZDB2DcF-aasscNsBmTQzUzjdgfdJrnnuMHl3iHwpFNOyIaQuhwtLuiKKrLExapVDaLxdcxdcoIrqckNYUxWx0eIRFqvtRYdAR3XvyuHVa_l3IqaWdoFBMZGKvl1NHkpAngP45PPcjWsghlKHudxGOM3ulKE2JQwn_AKKf23_wB4q2qStr7V5_vNQfclj1HaFJeLe8XH9QrLfcvRoupTDckwSf6HQe16rEczrFUda63pt87FKmwA8Iku6m0Zvr3Us88sOzevUsBi0HCigilK95UubUiKAQP_HBLhIBkABlrRVlH5e254R2EgpDWbfIMCOZNL4GGNNUIu7ebyBqgGdvNw6oGaF7CBBSfTCHq0ezxl9bR-FJmN5q7FXrSDAktGzwUPIBXSXhBGnVzYf4k00-AlSDDgC80Eja6aNUmzpnYobN4_5te6uE_Q8eylPkLBwiMedTh_gWguiqScaHV_TThb7JKpWoVlstrySKYPigypg_FGshoFeoTNRJhPsaLgr3IDr5NUjlhNbxp5rh4pFh2mbR60sCGdyCjWgWzLARBDYgxRhbRXhiLaPkRV82aKWv2RqtCZXGTgWoySKx-zuN5LhgIzWSMF4DGhHME6QwSEFEseumcRqnL5CNr5dMCXWxODtF77qU6TpzTxU2P2nkaf_XjsvzPvXjBZ2w8w991Eq6ht-mWvlRY_lpw193aj9MN4abxLHGxMNKsc_CdPmqj-kRNQfmmLMNmO0kPff_3WcB_-KHQVtHRTiPHMTjWsAsKyc7ZUbrZs2dfwG46ZctPsVU1r0bY-C5sQpSgV-OQsYE_0MaKDfJ-u6hnwvVjGXQF11yzrdcuRbVyQXiEeEQRQ5eJ7lbpdbn2gRzDUtPhf41bvXjzqbVI045HR_-t5C8YXTsgXspTKNq_6Ixb6vAjS2ytOVxQ-4ZmlyUawrF7-HDMVi6YVWQMsGbj9noWm6ACHac2jNcTYOswX0_GiodaHU750cIXtarmmIPZSbrjJPzEYIYIjPUidM4M1NHlNIrJKJe0xsNi8e_1MtN8Xts6XZn10b5gsRLkEQovP9K6_-kG3aFGpIHQX7lUX5wNBQOxrBi6JlV4XrBIkG3pp8a16P58z03h3lSEuxwIp-M5J1ksdKFuEYFA4LHmWd12p82lYkSEQsULmjnarYF_6TzXlQ9LuXR-HaCcNG2G0y7Yf6U2TMICSQqIld_VnUrFJeuFNj2bs14zZEuMDHwR1sCbLu-VLWrUfhJ_H7fZLxhw-ZLou0m1IwQiM_6pHZp6qBuyMRqDWwxLwRnwiHJY4rrdcr2isvuFp3XvMnLEeElM84azY3D4hndgbSl4e6WkR_z6ZwCDhmb_bMQbvGlU9tM-IAoQ1l2cXinNfogKeaj90yx7GHB5QL5iG7jAYb_RM2bYJJjM88P0wGcuCLakngdc0fcSKpZ-zZtQD-8LoXWNpb0MwvMS5wZ3LM8_uZX7FYqabTVQG3IJRa3xYgyNV5Z30qEKjKNuvfwhJ8CNvVQRStdpyhOrhG_MQsQxQP_l7_tILWCHN-54s5dYmjZbBb-R0iOZggtpVCSQpTv5DirAZZSKh9rqfRMUS8v5886iZh_0m00]--></g></svg>