<?xml version="1.0" encoding="us-ascii" standalone="no"?><svg xmlns="http://www.w3.org/2000/svg" xmlns:xlink="http://www.w3.org/1999/xlink" contentStyleType="text/css" height="447px" preserveAspectRatio="none" style="width:1107px;height:447px;background:#FFFFFF;" version="1.1" viewBox="0 0 1107 447" width="1107px" zoomAndPan="magnify"><defs/><g><line style="stroke:#181818;stroke-width:0.5;stroke-dasharray:5.0,5.0;" x1="54" x2="54" y1="81.0986" y2="440.7852"/><line style="stroke:#181818;stroke-width:0.5;stroke-dasharray:5.0,5.0;" x1="195" x2="195" y1="81.0986" y2="440.7852"/><line style="stroke:#181818;stroke-width:0.5;stroke-dasharray:5.0,5.0;" x1="440.5" x2="440.5" y1="81.0986" y2="440.7852"/><line style="stroke:#181818;stroke-width:0.5;stroke-dasharray:5.0,5.0;" x1="527.5" x2="527.5" y1="81.0986" y2="440.7852"/><line style="stroke:#181818;stroke-width:0.5;stroke-dasharray:5.0,5.0;" x1="646.5" x2="646.5" y1="81.0986" y2="440.7852"/><line style="stroke:#181818;stroke-width:0.5;stroke-dasharray:5.0,5.0;" x1="734.5" x2="734.5" y1="81.0986" y2="440.7852"/><line style="stroke:#181818;stroke-width:0.5;stroke-dasharray:5.0,5.0;" x1="827.5" x2="827.5" y1="81.0986" y2="440.7852"/><line style="stroke:#181818;stroke-width:0.5;stroke-dasharray:5.0,5.0;" x1="916.5" x2="916.5" y1="81.0986" y2="440.7852"/><line style="stroke:#181818;stroke-width:0.5;stroke-dasharray:5.0,5.0;" x1="994.5" x2="994.5" y1="81.0986" y2="440.7852"/><line style="stroke:#181818;stroke-width:0.5;stroke-dasharray:5.0,5.0;" x1="1065.5" x2="1065.5" y1="81.0986" y2="440.7852"/><text fill="#000000" font-family="Arial" font-size="14" lengthAdjust="spacing" textLength="93" x="5" y="78.3608">SPS (OPC UA)</text><ellipse cx="54.5" cy="13.5" fill="#E2E2F0" rx="8" ry="8" style="stroke:#181818;stroke-width:0.5;"/><path d="M54.5,21.5 L54.5,48.5 M41.5,29.5 L67.5,29.5 M54.5,48.5 L41.5,63.5 M54.5,48.5 L67.5,63.5 " fill="none" style="stroke:#181818;stroke-width:0.5;"/><rect fill="#E2E2F0" height="46.1973" rx="2.5" ry="2.5" style="stroke:#181818;stroke-width:0.5;" width="61" x="165" y="33.9014"/><text fill="#000000" font-family="Arial" font-size="14" lengthAdjust="spacing" textLength="31" x="180" y="54.2622">:PLC</text><text fill="#000000" font-family="Arial" font-size="14" lengthAdjust="spacing" textLength="47" x="172" y="70.3608">Monitor</text><rect fill="#E2E2F0" height="62.2959" rx="2.5" ry="2.5" style="stroke:#181818;stroke-width:0.5;" width="76" x="402.5" y="17.8027"/><text fill="#000000" font-family="Arial" font-size="14" lengthAdjust="spacing" textLength="62" x="409.5" y="38.1636">:Inventory</text><text fill="#000000" font-family="Arial" font-size="14" lengthAdjust="spacing" textLength="60" x="410.5" y="54.2622">Snapshot</text><text fill="#000000" font-family="Arial" font-size="14" lengthAdjust="spacing" textLength="26" x="427.5" y="70.3608">Utils</text><rect fill="#E2E2F0" height="30.0986" rx="2.5" ry="2.5" style="stroke:#181818;stroke-width:0.5;" width="78" x="488.5" y="50"/><text fill="#000000" font-family="Arial" font-size="14" lengthAdjust="spacing" textLength="64" x="495.5" y="70.3608">:EventBus</text><rect fill="#E2E2F0" height="46.1973" rx="2.5" ry="2.5" style="stroke:#181818;stroke-width:0.5;" width="74" x="609.5" y="33.9014"/><text fill="#000000" font-family="Arial" font-size="14" lengthAdjust="spacing" textLength="60" x="616.5" y="54.2622">:Reaction</text><text fill="#000000" font-family="Arial" font-size="14" lengthAdjust="spacing" textLength="56" x="618.5" y="70.3608">Manager</text><rect fill="#E2E2F0" height="62.2959" rx="2.5" ry="2.5" style="stroke:#181818;stroke-width:0.5;" width="82" x="693.5" y="17.8027"/><text fill="#000000" font-family="Arial" font-size="14" lengthAdjust="spacing" textLength="68" x="700.5" y="38.1636">:Command</text><text fill="#000000" font-family="Arial" font-size="14" lengthAdjust="spacing" textLength="37" x="716" y="54.2622">Force</text><text fill="#000000" font-family="Arial" font-size="14" lengthAdjust="spacing" textLength="48" x="710.5" y="70.3608">Factory</text><rect fill="#E2E2F0" height="46.1973" rx="2.5" ry="2.5" style="stroke:#181818;stroke-width:0.5;" width="85" x="785.5" y="33.9014"/><text fill="#000000" font-family="Arial" font-size="14" lengthAdjust="spacing" textLength="71" x="792.5" y="54.2622">:ICommand</text><text fill="#000000" font-family="Arial" font-size="14" lengthAdjust="spacing" textLength="37" x="809.5" y="70.3608">Force</text><rect fill="#E2E2F0" height="46.1973" rx="2.5" ry="2.5" style="stroke:#181818;stroke-width:0.5;" width="73" x="880.5" y="33.9014"/><text fill="#000000" font-family="Arial" font-size="14" lengthAdjust="spacing" textLength="48" x="893" y="54.2622">:Failure</text><text fill="#000000" font-family="Arial" font-size="14" lengthAdjust="spacing" textLength="59" x="887.5" y="70.3608">Recorder</text><rect fill="#E2E2F0" height="46.1973" rx="2.5" ry="2.5" style="stroke:#181818;stroke-width:0.5;" width="63" x="963.5" y="33.9014"/><text fill="#000000" font-family="Arial" font-size="14" lengthAdjust="spacing" textLength="35" x="977.5" y="54.2622">:Time</text><text fill="#000000" font-family="Arial" font-size="14" lengthAdjust="spacing" textLength="49" x="970.5" y="70.3608">Blogger</text><rect fill="#E2E2F0" height="46.1973" rx="2.5" ry="2.5" style="stroke:#181818;stroke-width:0.5;" width="59" x="1036.5" y="33.9014"/><text fill="#000000" font-family="Arial" font-size="14" lengthAdjust="spacing" textLength="27" x="1052.5" y="54.2622">:Ack</text><text fill="#000000" font-family="Arial" font-size="14" lengthAdjust="spacing" textLength="45" x="1043.5" y="70.3608">Logger</text><rect fill="#EEEEEE" height="3" style="stroke:#EEEEEE;stroke-width:1.0;" width="1100.5" x="0" y="111.573"/><line style="stroke:#000000;stroke-width:1.0;" x1="0" x2="1100.5" y1="111.573" y2="111.573"/><line style="stroke:#000000;stroke-width:1.0;" x1="0" x2="1100.5" y1="114.573" y2="114.573"/><rect fill="#EEEEEE" height="22.9487" style="stroke:#000000;stroke-width:2.0;" width="60" x="520.25" y="101.0986"/><text fill="#000000" font-family="Arial" font-size="13" font-weight="bold" lengthAdjust="spacing" textLength="46" x="526.25" y="117.5051">Trigger</text><polygon fill="#181818" points="183.5,152.146,193.5,156.146,183.5,160.146,187.5,156.146" style="stroke:#181818;stroke-width:1.0;"/><line style="stroke:#181818;stroke-width:1.0;" x1="54.5" x2="189.5" y1="156.146" y2="156.146"/><text fill="#000000" font-family="Arial" font-size="14" lengthAdjust="spacing" textLength="117" x="61.5" y="151.4082">TriggerD2 = TRUE</text><line style="stroke:#181818;stroke-width:1.0;" x1="195.5" x2="237.5" y1="186.2446" y2="186.2446"/><line style="stroke:#181818;stroke-width:1.0;" x1="237.5" x2="237.5" y1="186.2446" y2="199.2446"/><line style="stroke:#181818;stroke-width:1.0;" x1="196.5" x2="237.5" y1="199.2446" y2="199.2446"/><polygon fill="#181818" points="206.5,195.2446,196.5,199.2446,206.5,203.2446,202.5,199.2446" style="stroke:#181818;stroke-width:1.0;"/><text fill="#000000" font-family="Arial" font-size="14" lengthAdjust="spacing" textLength="154" x="202.5" y="181.5068">post build-snapshot task</text><polygon fill="#181818" points="428.5,225.3433,438.5,229.3433,428.5,233.3433,432.5,229.3433" style="stroke:#181818;stroke-width:1.0;"/><line style="stroke:#181818;stroke-width:1.0;" x1="195.5" x2="434.5" y1="229.3433" y2="229.3433"/><text fill="#000000" font-family="Arial" font-size="14" lengthAdjust="spacing" textLength="221" x="202.5" y="224.6055">buildInventorySnapshotNow("PLC")</text><polygon fill="#181818" points="206.5,255.4419,196.5,259.4419,206.5,263.4419,202.5,259.4419" style="stroke:#181818;stroke-width:1.0;"/><line style="stroke:#181818;stroke-width:1.0;stroke-dasharray:2.0,2.0;" x1="200.5" x2="439.5" y1="259.4419" y2="259.4419"/><text fill="#000000" font-family="Arial" font-size="14" lengthAdjust="spacing" textLength="118" x="212.5" y="254.7041">InventorySnapshot</text><polygon fill="#181818" points="515.5,285.5405,525.5,289.5405,515.5,293.5405,519.5,289.5405" style="stroke:#181818;stroke-width:1.0;"/><line style="stroke:#181818;stroke-width:1.0;" x1="195.5" x2="521.5" y1="289.5405" y2="289.5405"/><text fill="#000000" font-family="Arial" font-size="14" lengthAdjust="spacing" textLength="222" x="202.5" y="284.8027">post evD2 (correlationId, snapshot)</text><rect fill="#EEEEEE" height="3" style="stroke:#EEEEEE;stroke-width:1.0;" width="1100.5" x="0" y="318.0149"/><line style="stroke:#000000;stroke-width:1.0;" x1="0" x2="1100.5" y1="318.0149" y2="318.0149"/><line style="stroke:#000000;stroke-width:1.0;" x1="0" x2="1100.5" y1="321.0149" y2="321.0149"/><rect fill="#EEEEEE" height="22.9487" style="stroke:#000000;stroke-width:2.0;" width="68" x="516.25" y="307.5405"/><text fill="#000000" font-family="Arial" font-size="13" font-weight="bold" lengthAdjust="spacing" textLength="54" x="522.25" y="323.947">Dispatch</text><polygon fill="#181818" points="634.5,358.5879,644.5,362.5879,634.5,366.5879,638.5,362.5879" style="stroke:#181818;stroke-width:1.0;"/><line style="stroke:#181818;stroke-width:1.0;" x1="527.5" x2="640.5" y1="362.5879" y2="362.5879"/><text fill="#000000" font-family="Arial" font-size="14" lengthAdjust="spacing" textLength="95" x="534.5" y="357.8501">onEvent(evD2)</text><polygon fill="#181818" points="905,388.6865,915,392.6865,905,396.6865,909,392.6865" style="stroke:#181818;stroke-width:1.0;"/><line style="stroke:#181818;stroke-width:1.0;" x1="527.5" x2="911" y1="392.6865" y2="392.6865"/><text fill="#000000" font-family="Arial" font-size="14" lengthAdjust="spacing" textLength="95" x="534.5" y="387.9487">onEvent(evD2)</text><polygon fill="#181818" points="983,418.7852,993,422.7852,983,426.7852,987,422.7852" style="stroke:#181818;stroke-width:1.0;"/><line style="stroke:#181818;stroke-width:1.0;" x1="527.5" x2="989" y1="422.7852" y2="422.7852"/><text fill="#000000" font-family="Arial" font-size="14" lengthAdjust="spacing" textLength="95" x="534.5" y="418.0474">onEvent(evD2)</text><!--SRC=[XPF1Rjf048RlVeeHbu1KIqcLKoGg6IUMeaAA3Dny6TiBZ5ZlkhlhaFHv-XYzvSKwNc9Ct5OzMPh_-sV-dO4h24F8nR6nra55YYgKi7txPI0tWfo0hxggqL5EajpRJyTuiATIm5Phb-kNm1v8rMYm0hl7KXz9xM2BqeeBfHHRRAHBj79FM0c83A6yT8hlZL25MA9nL52DohCh-Y7WvlOlO5GuRVw36AEFbyXLprJuiX3MuavuyVOwmBOXZ5RB5Oo_BMFOH9CHe0Kk17MV2aPtotcSgOLMn0QFS64nO1xLir2ilsPgfR2sU-qojN4ahNUml1au7bh3h3df_1t8gU20f1LFHiMnJvFJuTnOLnMgCbE9DeNWZt_MguVZ91cc_8YVeiL3Aa6IZU5cgIYqATz79-a0MrF5p4pgNPTkFHiWKN78rBm7edaGJAUmDjIMfjEWtNxunIyKxhhw_MTW9jqy1BxUwxNcNspUa2n3-xvaS6WFPwvTCtCUEL-akyUJFev7J8ucWUV2ll4VxBaZ7wORB9uvs9WtOeJ4zZIFvIVeSapuNVTa-NzJxFbThOtTQTjSAt_gSUkVT4gI_ajPpuRARm00]--></g></svg>