<?xml version="1.0" encoding="us-ascii" standalone="no"?><svg xmlns="http://www.w3.org/2000/svg" xmlns:xlink="http://www.w3.org/1999/xlink" contentStyleType="text/css" height="708px" preserveAspectRatio="none" style="width:1284px;height:708px;background:#FFFFFF;" version="1.1" viewBox="0 0 1284 708" width="1284px" zoomAndPan="magnify"><defs/><g><!--class PLCMonitor--><g id="elem_PLCMonitor"><rect codeLine="22" fill="#F1F1F1" height="64.0986" id="PLCMonitor" rx="2.5" ry="2.5" style="stroke:#181818;stroke-width:0.5;" width="106" x="141" y="556.5"/><ellipse cx="156" cy="572.5" fill="#ADD1B2" rx="11" ry="11" style="stroke:#181818;stroke-width:1.0;"/><path d="M158.7656,568.375 Q158.9219,568.1563 159.1094,568.0469 Q159.2969,567.9375 159.5156,567.9375 Q159.8906,567.9375 160.125,568.1953 Q160.3594,568.4531 160.3594,569.0625 L160.3594,570.5156 Q160.3594,571.125 160.125,571.3906 Q159.8906,571.6563 159.5156,571.6563 Q159.1719,571.6563 158.9688,571.4531 Q158.7656,571.2656 158.6563,570.75 Q158.6094,570.3906 158.4219,570.2031 Q158.0938,569.8281 157.4844,569.6094 Q156.875,569.3906 156.25,569.3906 Q155.4844,569.3906 154.8516,569.7188 Q154.2188,570.0469 153.7266,570.7969 Q153.2344,571.5469 153.2344,572.5781 L153.2344,573.6719 Q153.2344,574.9063 154.125,575.7266 Q155.0156,576.5469 156.6094,576.5469 Q157.5469,576.5469 158.2031,576.2969 Q158.5938,576.1406 159.0156,575.7031 Q159.2813,575.4375 159.4297,575.3594 Q159.5781,575.2813 159.7813,575.2813 Q160.1094,575.2813 160.3672,575.5391 Q160.625,575.7969 160.625,576.1406 Q160.625,576.4844 160.2813,576.8906 Q159.7813,577.4688 158.9844,577.7969 Q157.9063,578.25 156.6094,578.25 Q155.0938,578.25 153.8906,577.625 Q152.9063,577.125 152.2188,576.0547 Q151.5313,574.9844 151.5313,573.7031 L151.5313,572.5469 Q151.5313,571.2188 152.1484,570.0703 Q152.7656,568.9219 153.8594,568.3047 Q154.9531,567.6875 156.1875,567.6875 Q156.9219,567.6875 157.5703,567.8516 Q158.2188,568.0156 158.7656,568.375 Z " fill="#000000"/><text fill="#000000" font-family="Arial" font-size="14" lengthAdjust="spacing" textLength="74" x="170" y="577.8115">PLCMonitor</text><line style="stroke:#181818;stroke-width:0.5;" x1="142" x2="246" y1="588.5" y2="588.5"/><text fill="#000000" font-family="Arial" font-size="14" lengthAdjust="spacing" textLength="12" x="147" y="605.8608">...</text><line style="stroke:#181818;stroke-width:0.5;" x1="142" x2="246" y1="612.5986" y2="612.5986"/></g><!--class EventBus--><g id="elem_EventBus"><rect codeLine="25" fill="#F1F1F1" height="64.0986" id="EventBus" rx="2.5" ry="2.5" style="stroke:#181818;stroke-width:0.5;" width="92" x="7" y="320"/><ellipse cx="22" cy="336" fill="#ADD1B2" rx="11" ry="11" style="stroke:#181818;stroke-width:1.0;"/><path d="M24.7656,331.875 Q24.9219,331.6563 25.1094,331.5469 Q25.2969,331.4375 25.5156,331.4375 Q25.8906,331.4375 26.125,331.6953 Q26.3594,331.9531 26.3594,332.5625 L26.3594,334.0156 Q26.3594,334.625 26.125,334.8906 Q25.8906,335.1563 25.5156,335.1563 Q25.1719,335.1563 24.9688,334.9531 Q24.7656,334.7656 24.6563,334.25 Q24.6094,333.8906 24.4219,333.7031 Q24.0938,333.3281 23.4844,333.1094 Q22.875,332.8906 22.25,332.8906 Q21.4844,332.8906 20.8516,333.2188 Q20.2188,333.5469 19.7266,334.2969 Q19.2344,335.0469 19.2344,336.0781 L19.2344,337.1719 Q19.2344,338.4063 20.125,339.2266 Q21.0156,340.0469 22.6094,340.0469 Q23.5469,340.0469 24.2031,339.7969 Q24.5938,339.6406 25.0156,339.2031 Q25.2813,338.9375 25.4297,338.8594 Q25.5781,338.7813 25.7813,338.7813 Q26.1094,338.7813 26.3672,339.0391 Q26.625,339.2969 26.625,339.6406 Q26.625,339.9844 26.2813,340.3906 Q25.7813,340.9688 24.9844,341.2969 Q23.9063,341.75 22.6094,341.75 Q21.0938,341.75 19.8906,341.125 Q18.9063,340.625 18.2188,339.5547 Q17.5313,338.4844 17.5313,337.2031 L17.5313,336.0469 Q17.5313,334.7188 18.1484,333.5703 Q18.7656,332.4219 19.8594,331.8047 Q20.9531,331.1875 22.1875,331.1875 Q22.9219,331.1875 23.5703,331.3516 Q24.2188,331.5156 24.7656,331.875 Z " fill="#000000"/><text fill="#000000" font-family="Arial" font-size="14" lengthAdjust="spacing" textLength="60" x="36" y="341.3115">EventBus</text><line style="stroke:#181818;stroke-width:0.5;" x1="8" x2="98" y1="352" y2="352"/><text fill="#000000" font-family="Arial" font-size="14" lengthAdjust="spacing" textLength="12" x="13" y="369.3608">...</text><line style="stroke:#181818;stroke-width:0.5;" x1="8" x2="98" y1="376.0986" y2="376.0986"/></g><!--class ICommandForce--><g id="elem_ICommandForce"><rect codeLine="29" fill="#F1F1F1" height="64.0986" id="ICommandForce" rx="2.5" ry="2.5" style="stroke:#181818;stroke-width:0.5;" width="146" x="289" y="164"/><ellipse cx="308.05" cy="180" fill="#B4A7E5" rx="11" ry="11" style="stroke:#181818;stroke-width:1.0;"/><path d="M309.0031,176.6406 L309.0031,183.2969 L310.7219,183.2969 Q311.3313,183.2969 311.5969,183.5313 Q311.8625,183.7656 311.8625,184.1563 Q311.8625,184.5313 311.5969,184.7656 Q311.3313,185 310.7219,185 L305.5813,185 Q304.9719,185 304.7063,184.7656 Q304.4406,184.5313 304.4406,184.1406 Q304.4406,183.7656 304.7063,183.5313 Q304.9719,183.2969 305.5813,183.2969 L307.3,183.2969 L307.3,176.6406 L305.5813,176.6406 Q304.9719,176.6406 304.7063,176.4063 Q304.4406,176.1719 304.4406,175.7813 Q304.4406,175.4063 304.7063,175.1719 Q304.9719,174.9375 305.5813,174.9375 L310.7219,174.9375 Q311.3313,174.9375 311.5969,175.1719 Q311.8625,175.4063 311.8625,175.7813 Q311.8625,176.1719 311.5969,176.4063 Q311.3313,176.6406 310.7219,176.6406 L309.0031,176.6406 Z " fill="#000000"/><text fill="#000000" font-family="Arial" font-size="14" font-style="italic" lengthAdjust="spacing" textLength="105" x="322.95" y="185.3115">ICommandForce</text><line style="stroke:#181818;stroke-width:0.5;" x1="290" x2="434" y1="196" y2="196"/><line style="stroke:#181818;stroke-width:0.5;" x1="290" x2="434" y1="204" y2="204"/><text fill="#000000" font-family="Arial" font-size="14" font-style="italic" lengthAdjust="spacing" textLength="134" x="295" y="221.3608">+execute(p: Plan): int</text></g><!--class IWinnerFilter--><g id="elem_IWinnerFilter"><rect codeLine="33" fill="#F1F1F1" height="64.0986" id="IWinnerFilter" rx="2.5" ry="2.5" style="stroke:#181818;stroke-width:0.5;" width="613" x="450.5" y="164"/><ellipse cx="711.75" cy="180" fill="#B4A7E5" rx="11" ry="11" style="stroke:#181818;stroke-width:1.0;"/><path d="M712.7031,176.6406 L712.7031,183.2969 L714.4219,183.2969 Q715.0313,183.2969 715.2969,183.5313 Q715.5625,183.7656 715.5625,184.1563 Q715.5625,184.5313 715.2969,184.7656 Q715.0313,185 714.4219,185 L709.2813,185 Q708.6719,185 708.4063,184.7656 Q708.1406,184.5313 708.1406,184.1406 Q708.1406,183.7656 708.4063,183.5313 Q708.6719,183.2969 709.2813,183.2969 L711,183.2969 L711,176.6406 L709.2813,176.6406 Q708.6719,176.6406 708.4063,176.4063 Q708.1406,176.1719 708.1406,175.7813 Q708.1406,175.4063 708.4063,175.1719 Q708.6719,174.9375 709.2813,174.9375 L714.4219,174.9375 Q715.0313,174.9375 715.2969,175.1719 Q715.5625,175.4063 715.5625,175.7813 Q715.5625,176.1719 715.2969,176.4063 Q715.0313,176.6406 714.4219,176.6406 L712.7031,176.6406 Z " fill="#000000"/><text fill="#000000" font-family="Arial" font-size="14" font-style="italic" lengthAdjust="spacing" textLength="82" x="732.25" y="185.3115">IWinnerFilter</text><line style="stroke:#181818;stroke-width:0.5;" x1="451.5" x2="1062.5" y1="196" y2="196"/><line style="stroke:#181818;stroke-width:0.5;" x1="451.5" x2="1062.5" y1="204" y2="204"/><text fill="#000000" font-family="Arial" font-size="14" font-style="italic" lengthAdjust="spacing" textLength="601" x="456.5" y="221.3608">+filter(winners: vector&lt;string&gt;, correlationId: string, processNameForAck: string): vector&lt;string&gt;</text></g><!--class CommandForceFactory--><g id="elem_CommandForceFactory"><rect codeLine="38" fill="#F1F1F1" height="96.2959" id="CommandForceFactory" rx="2.5" ry="2.5" style="stroke:#181818;stroke-width:0.5;" width="1041" x="236.5" y="7"/><ellipse cx="678.25" cy="23" fill="#ADD1B2" rx="11" ry="11" style="stroke:#181818;stroke-width:1.0;"/><path d="M681.0156,18.875 Q681.1719,18.6563 681.3594,18.5469 Q681.5469,18.4375 681.7656,18.4375 Q682.1406,18.4375 682.375,18.6953 Q682.6094,18.9531 682.6094,19.5625 L682.6094,21.0156 Q682.6094,21.625 682.375,21.8906 Q682.1406,22.1563 681.7656,22.1563 Q681.4219,22.1563 681.2188,21.9531 Q681.0156,21.7656 680.9063,21.25 Q680.8594,20.8906 680.6719,20.7031 Q680.3438,20.3281 679.7344,20.1094 Q679.125,19.8906 678.5,19.8906 Q677.7344,19.8906 677.1016,20.2188 Q676.4688,20.5469 675.9766,21.2969 Q675.4844,22.0469 675.4844,23.0781 L675.4844,24.1719 Q675.4844,25.4063 676.375,26.2266 Q677.2656,27.0469 678.8594,27.0469 Q679.7969,27.0469 680.4531,26.7969 Q680.8438,26.6406 681.2656,26.2031 Q681.5313,25.9375 681.6797,25.8594 Q681.8281,25.7813 682.0313,25.7813 Q682.3594,25.7813 682.6172,26.0391 Q682.875,26.2969 682.875,26.6406 Q682.875,26.9844 682.5313,27.3906 Q682.0313,27.9688 681.2344,28.2969 Q680.1563,28.75 678.8594,28.75 Q677.3438,28.75 676.1406,28.125 Q675.1563,27.625 674.4688,26.5547 Q673.7813,25.4844 673.7813,24.2031 L673.7813,23.0469 Q673.7813,21.7188 674.3984,20.5703 Q675.0156,19.4219 676.1094,18.8047 Q677.2031,18.1875 678.4375,18.1875 Q679.1719,18.1875 679.8203,18.3516 Q680.4688,18.5156 681.0156,18.875 Z " fill="#000000"/><text fill="#000000" font-family="Arial" font-size="14" lengthAdjust="spacing" textLength="149" x="698.75" y="28.3115">CommandForceFactory</text><line style="stroke:#181818;stroke-width:0.5;" x1="237.5" x2="1276.5" y1="39" y2="39"/><line style="stroke:#181818;stroke-width:0.5;" x1="237.5" x2="1276.5" y1="47" y2="47"/><text fill="#000000" font-family="Arial" font-size="14" lengthAdjust="spacing" textLength="787" x="242.5" y="64.3608">+createForOp(op: Operation, mon: PLCMonitor*, bus: EventBus&amp;, oq: IOrderQueue* = nullptr): unique_ptr&lt;ICommandForce&gt;</text><text fill="#000000" font-family="Arial" font-size="14" lengthAdjust="spacing" textLength="972" x="242.5" y="80.4595">+createWinnerFilter(mon: PLCMonitor&amp;, bus: EventBus&amp;, fetcher: function&lt;string(const string&amp;)&gt;, defaultTimeoutMs: unsigned): unique_ptr&lt;IWinnerFilter&gt;</text><text fill="#000000" font-family="Arial" font-size="14" lengthAdjust="spacing" textLength="1029" x="242.5" y="96.5581">+createSystemReactionFilter(mon: PLCMonitor&amp;, bus: EventBus&amp;, fetcher: function&lt;string(const string&amp;)&gt;, defaultTimeoutMs: unsigned): unique_ptr&lt;IWinnerFilter&gt;</text></g><!--entity OrdersCSV--><g id="elem_OrdersCSV"><rect fill="#F1F1F1" height="55.1973" rx="2.5" ry="2.5" style="stroke:#181818;stroke-width:0.5;" width="64" x="296" y="561"/><polygon fill="#F1F1F1" points="343,566,343,580,355,580,355,572,349,566,343,566" style="stroke:#181818;stroke-width:0.5;"/><line style="stroke:#181818;stroke-width:0.5;" x1="349" x2="349" y1="566" y2="572"/><line style="stroke:#181818;stroke-width:0.5;" x1="355" x2="349" y1="572" y2="572"/><text fill="#000000" font-family="Arial" font-size="14" font-style="italic" lengthAdjust="spacing" textLength="34" x="306" y="587.3608">&#171;file&#187;</text><text fill="#000000" font-family="Arial" font-size="14" lengthAdjust="spacing" textLength="25" x="310.5" y="603.4595">.csv</text></g><!--class PLCCommandForce--><g id="elem_PLCCommandForce"><rect codeLine="47" fill="#F1F1F1" height="80.1973" id="PLCCommandForce" rx="2.5" ry="2.5" style="stroke:#181818;stroke-width:0.5;" width="160" x="114" y="312"/><ellipse cx="129" cy="328" fill="#ADD1B2" rx="11" ry="11" style="stroke:#181818;stroke-width:1.0;"/><path d="M131.7656,323.875 Q131.9219,323.6563 132.1094,323.5469 Q132.2969,323.4375 132.5156,323.4375 Q132.8906,323.4375 133.125,323.6953 Q133.3594,323.9531 133.3594,324.5625 L133.3594,326.0156 Q133.3594,326.625 133.125,326.8906 Q132.8906,327.1563 132.5156,327.1563 Q132.1719,327.1563 131.9688,326.9531 Q131.7656,326.7656 131.6563,326.25 Q131.6094,325.8906 131.4219,325.7031 Q131.0938,325.3281 130.4844,325.1094 Q129.875,324.8906 129.25,324.8906 Q128.4844,324.8906 127.8516,325.2188 Q127.2188,325.5469 126.7266,326.2969 Q126.2344,327.0469 126.2344,328.0781 L126.2344,329.1719 Q126.2344,330.4063 127.125,331.2266 Q128.0156,332.0469 129.6094,332.0469 Q130.5469,332.0469 131.2031,331.7969 Q131.5938,331.6406 132.0156,331.2031 Q132.2813,330.9375 132.4297,330.8594 Q132.5781,330.7813 132.7813,330.7813 Q133.1094,330.7813 133.3672,331.0391 Q133.625,331.2969 133.625,331.6406 Q133.625,331.9844 133.2813,332.3906 Q132.7813,332.9688 131.9844,333.2969 Q130.9063,333.75 129.6094,333.75 Q128.0938,333.75 126.8906,333.125 Q125.9063,332.625 125.2188,331.5547 Q124.5313,330.4844 124.5313,329.2031 L124.5313,328.0469 Q124.5313,326.7188 125.1484,325.5703 Q125.7656,324.4219 126.8594,323.8047 Q127.9531,323.1875 129.1875,323.1875 Q129.9219,323.1875 130.5703,323.3516 Q131.2188,323.5156 131.7656,323.875 Z " fill="#000000"/><text fill="#000000" font-family="Arial" font-size="14" lengthAdjust="spacing" textLength="128" x="143" y="333.3115">PLCCommandForce</text><line style="stroke:#181818;stroke-width:0.5;" x1="115" x2="273" y1="344" y2="344"/><text fill="#000000" font-family="Arial" font-size="14" lengthAdjust="spacing" textLength="12" x="120" y="361.3608">...</text><line style="stroke:#181818;stroke-width:0.5;" x1="115" x2="273" y1="368.0986" y2="368.0986"/><text fill="#000000" font-family="Arial" font-size="14" lengthAdjust="spacing" textLength="134" x="120" y="385.4595">+execute(p: Plan): int</text></g><!--class WriteCsvForce--><g id="elem_WriteCsvForce"><rect codeLine="51" fill="#F1F1F1" height="80.1973" id="WriteCsvForce" rx="2.5" ry="2.5" style="stroke:#181818;stroke-width:0.5;" width="146" x="289" y="312"/><ellipse cx="313" cy="328" fill="#ADD1B2" rx="11" ry="11" style="stroke:#181818;stroke-width:1.0;"/><path d="M315.7656,323.875 Q315.9219,323.6563 316.1094,323.5469 Q316.2969,323.4375 316.5156,323.4375 Q316.8906,323.4375 317.125,323.6953 Q317.3594,323.9531 317.3594,324.5625 L317.3594,326.0156 Q317.3594,326.625 317.125,326.8906 Q316.8906,327.1563 316.5156,327.1563 Q316.1719,327.1563 315.9688,326.9531 Q315.7656,326.7656 315.6563,326.25 Q315.6094,325.8906 315.4219,325.7031 Q315.0938,325.3281 314.4844,325.1094 Q313.875,324.8906 313.25,324.8906 Q312.4844,324.8906 311.8516,325.2188 Q311.2188,325.5469 310.7266,326.2969 Q310.2344,327.0469 310.2344,328.0781 L310.2344,329.1719 Q310.2344,330.4063 311.125,331.2266 Q312.0156,332.0469 313.6094,332.0469 Q314.5469,332.0469 315.2031,331.7969 Q315.5938,331.6406 316.0156,331.2031 Q316.2813,330.9375 316.4297,330.8594 Q316.5781,330.7813 316.7813,330.7813 Q317.1094,330.7813 317.3672,331.0391 Q317.625,331.2969 317.625,331.6406 Q317.625,331.9844 317.2813,332.3906 Q316.7813,332.9688 315.9844,333.2969 Q314.9063,333.75 313.6094,333.75 Q312.0938,333.75 310.8906,333.125 Q309.9063,332.625 309.2188,331.5547 Q308.5313,330.4844 308.5313,329.2031 L308.5313,328.0469 Q308.5313,326.7188 309.1484,325.5703 Q309.7656,324.4219 310.8594,323.8047 Q311.9531,323.1875 313.1875,323.1875 Q313.9219,323.1875 314.5703,323.3516 Q315.2188,323.5156 315.7656,323.875 Z " fill="#000000"/><text fill="#000000" font-family="Arial" font-size="14" lengthAdjust="spacing" textLength="94" x="329" y="333.3115">WriteCsvForce</text><line style="stroke:#181818;stroke-width:0.5;" x1="290" x2="434" y1="344" y2="344"/><text fill="#000000" font-family="Arial" font-size="14" lengthAdjust="spacing" textLength="12" x="295" y="361.3608">...</text><line style="stroke:#181818;stroke-width:0.5;" x1="290" x2="434" y1="368.0986" y2="368.0986"/><text fill="#000000" font-family="Arial" font-size="14" lengthAdjust="spacing" textLength="134" x="295" y="385.4595">+execute(p: Plan): int</text></g><!--class KGIngestionForce--><g id="elem_KGIngestionForce"><rect codeLine="55" fill="#F1F1F1" height="80.1973" id="KGIngestionForce" rx="2.5" ry="2.5" style="stroke:#181818;stroke-width:0.5;" width="146" x="450" y="312"/><ellipse cx="465" cy="328" fill="#ADD1B2" rx="11" ry="11" style="stroke:#181818;stroke-width:1.0;"/><path d="M467.7656,323.875 Q467.9219,323.6563 468.1094,323.5469 Q468.2969,323.4375 468.5156,323.4375 Q468.8906,323.4375 469.125,323.6953 Q469.3594,323.9531 469.3594,324.5625 L469.3594,326.0156 Q469.3594,326.625 469.125,326.8906 Q468.8906,327.1563 468.5156,327.1563 Q468.1719,327.1563 467.9688,326.9531 Q467.7656,326.7656 467.6563,326.25 Q467.6094,325.8906 467.4219,325.7031 Q467.0938,325.3281 466.4844,325.1094 Q465.875,324.8906 465.25,324.8906 Q464.4844,324.8906 463.8516,325.2188 Q463.2188,325.5469 462.7266,326.2969 Q462.2344,327.0469 462.2344,328.0781 L462.2344,329.1719 Q462.2344,330.4063 463.125,331.2266 Q464.0156,332.0469 465.6094,332.0469 Q466.5469,332.0469 467.2031,331.7969 Q467.5938,331.6406 468.0156,331.2031 Q468.2813,330.9375 468.4297,330.8594 Q468.5781,330.7813 468.7813,330.7813 Q469.1094,330.7813 469.3672,331.0391 Q469.625,331.2969 469.625,331.6406 Q469.625,331.9844 469.2813,332.3906 Q468.7813,332.9688 467.9844,333.2969 Q466.9063,333.75 465.6094,333.75 Q464.0938,333.75 462.8906,333.125 Q461.9063,332.625 461.2188,331.5547 Q460.5313,330.4844 460.5313,329.2031 L460.5313,328.0469 Q460.5313,326.7188 461.1484,325.5703 Q461.7656,324.4219 462.8594,323.8047 Q463.9531,323.1875 465.1875,323.1875 Q465.9219,323.1875 466.5703,323.3516 Q467.2188,323.5156 467.7656,323.875 Z " fill="#000000"/><text fill="#000000" font-family="Arial" font-size="14" lengthAdjust="spacing" textLength="114" x="479" y="333.3115">KGIngestionForce</text><line style="stroke:#181818;stroke-width:0.5;" x1="451" x2="595" y1="344" y2="344"/><text fill="#000000" font-family="Arial" font-size="14" lengthAdjust="spacing" textLength="12" x="456" y="361.3608">...</text><line style="stroke:#181818;stroke-width:0.5;" x1="451" x2="595" y1="368.0986" y2="368.0986"/><text fill="#000000" font-family="Arial" font-size="14" lengthAdjust="spacing" textLength="134" x="456" y="385.4595">+execute(p: Plan): int</text></g><!--class KgIngestionParams--><g id="elem_KgIngestionParams"><rect codeLine="60" fill="#F1F1F1" height="128.4932" id="KgIngestionParams" rx="2.5" ry="2.5" style="stroke:#181818;stroke-width:0.5;" width="179" x="375.5" y="524.5"/><ellipse cx="401.75" cy="540.5" fill="#F1F1F1" rx="11" ry="11" style="stroke:#181818;stroke-width:1.0;"/><path d="M399.8594,545.0625 Q399.6406,545.3281 399.5,545.4063 Q399.3594,545.4844 399.1719,545.4844 Q398.7813,545.4844 398.5391,545.2188 Q398.2969,544.9531 398.2969,544.3594 L398.2969,543.2031 Q398.2969,542.5938 398.5391,542.3359 Q398.7813,542.0781 399.1719,542.0781 Q399.4688,542.0781 399.6719,542.2344 Q399.875,542.3906 399.9844,542.7578 Q400.0938,543.125 400.2031,543.2656 Q400.4531,543.5156 401.0625,543.7813 Q401.6719,544.0469 402.4063,544.0469 Q403.5469,544.0469 404.2656,543.5156 Q404.7344,543.1875 404.7344,542.7188 Q404.7344,542.4063 404.5156,542.125 Q404.2969,541.8438 403.7813,541.6719 Q403.4531,541.5469 402.2969,541.3281 Q400.9063,541.0625 400.1875,540.7031 Q399.4688,540.3438 399.0547,539.6797 Q398.6406,539.0156 398.6406,538.2344 Q398.6406,537.0156 399.6641,536.1016 Q400.6875,535.1875 402.3281,535.1875 Q402.9844,535.1875 403.5391,535.3281 Q404.0938,535.4688 404.5625,535.7656 Q404.8906,535.4531 405.2188,535.4531 Q405.5938,535.4531 405.8281,535.7109 Q406.0625,535.9688 406.0625,536.5781 L406.0625,537.8594 Q406.0625,538.4688 405.8281,538.7266 Q405.5938,538.9844 405.2188,538.9844 Q404.9063,538.9844 404.6719,538.7969 Q404.4844,538.6563 404.3984,538.2344 Q404.3125,537.8125 404.1719,537.625 Q403.9219,537.3125 403.4453,537.1016 Q402.9688,536.8906 402.3281,536.8906 Q401.4063,536.8906 400.875,537.3125 Q400.3438,537.7344 400.3438,538.2031 Q400.3438,538.5156 400.5625,538.8125 Q400.7813,539.1094 401.2031,539.2813 Q401.4844,539.3906 402.7891,539.6484 Q404.0938,539.9063 404.7969,540.2109 Q405.5,540.5156 405.9688,541.1719 Q406.4375,541.8281 406.4375,542.7344 Q406.4375,544 405.5469,544.75 Q404.3594,545.75 402.5313,545.75 Q401.8281,545.75 401.1641,545.5781 Q400.5,545.4063 399.8594,545.0625 Z " fill="#000000"/><text fill="#000000" font-family="Arial" font-size="14" lengthAdjust="spacing" textLength="122" x="418.25" y="545.8115">KgIngestionParams</text><line style="stroke:#181818;stroke-width:0.5;" x1="376.5" x2="553.5" y1="556.5" y2="556.5"/><text fill="#000000" font-family="Arial" font-size="14" lengthAdjust="spacing" textLength="76" x="381.5" y="573.8608">+corr: string</text><text fill="#000000" font-family="Arial" font-size="14" lengthAdjust="spacing" textLength="101" x="381.5" y="589.9595">+process: string</text><text fill="#000000" font-family="Arial" font-size="14" lengthAdjust="spacing" textLength="108" x="381.5" y="606.0581">+summary: string</text><text fill="#000000" font-family="Arial" font-size="14" lengthAdjust="spacing" textLength="167" x="381.5" y="622.1567">+snapshotWrapped: string</text><text fill="#000000" font-family="Arial" font-size="14" lengthAdjust="spacing" textLength="118" x="381.5" y="638.2554">+resourceId: string</text><line style="stroke:#181818;stroke-width:0.5;" x1="376.5" x2="553.5" y1="644.9932" y2="644.9932"/></g><!--class Plan--><g id="elem_Plan"><rect codeLine="68" fill="#F1F1F1" height="96.2959" id="Plan" rx="2.5" ry="2.5" style="stroke:#181818;stroke-width:0.5;" width="169" x="1002.5" y="304"/><ellipse cx="1068.75" cy="320" fill="#F1F1F1" rx="11" ry="11" style="stroke:#181818;stroke-width:1.0;"/><path d="M1066.8594,324.5625 Q1066.6406,324.8281 1066.5,324.9063 Q1066.3594,324.9844 1066.1719,324.9844 Q1065.7813,324.9844 1065.5391,324.7188 Q1065.2969,324.4531 1065.2969,323.8594 L1065.2969,322.7031 Q1065.2969,322.0938 1065.5391,321.8359 Q1065.7813,321.5781 1066.1719,321.5781 Q1066.4688,321.5781 1066.6719,321.7344 Q1066.875,321.8906 1066.9844,322.2578 Q1067.0938,322.625 1067.2031,322.7656 Q1067.4531,323.0156 1068.0625,323.2813 Q1068.6719,323.5469 1069.4063,323.5469 Q1070.5469,323.5469 1071.2656,323.0156 Q1071.7344,322.6875 1071.7344,322.2188 Q1071.7344,321.9063 1071.5156,321.625 Q1071.2969,321.3438 1070.7813,321.1719 Q1070.4531,321.0469 1069.2969,320.8281 Q1067.9063,320.5625 1067.1875,320.2031 Q1066.4688,319.8438 1066.0547,319.1797 Q1065.6406,318.5156 1065.6406,317.7344 Q1065.6406,316.5156 1066.6641,315.6016 Q1067.6875,314.6875 1069.3281,314.6875 Q1069.9844,314.6875 1070.5391,314.8281 Q1071.0938,314.9688 1071.5625,315.2656 Q1071.8906,314.9531 1072.2188,314.9531 Q1072.5938,314.9531 1072.8281,315.2109 Q1073.0625,315.4688 1073.0625,316.0781 L1073.0625,317.3594 Q1073.0625,317.9688 1072.8281,318.2266 Q1072.5938,318.4844 1072.2188,318.4844 Q1071.9063,318.4844 1071.6719,318.2969 Q1071.4844,318.1563 1071.3984,317.7344 Q1071.3125,317.3125 1071.1719,317.125 Q1070.9219,316.8125 1070.4453,316.6016 Q1069.9688,316.3906 1069.3281,316.3906 Q1068.4063,316.3906 1067.875,316.8125 Q1067.3438,317.2344 1067.3438,317.7031 Q1067.3438,318.0156 1067.5625,318.3125 Q1067.7813,318.6094 1068.2031,318.7813 Q1068.4844,318.8906 1069.7891,319.1484 Q1071.0938,319.4063 1071.7969,319.7109 Q1072.5,320.0156 1072.9688,320.6719 Q1073.4375,321.3281 1073.4375,322.2344 Q1073.4375,323.5 1072.5469,324.25 Q1071.3594,325.25 1069.5313,325.25 Q1068.8281,325.25 1068.1641,325.0781 Q1067.5,324.9063 1066.8594,324.5625 Z " fill="#000000"/><text fill="#000000" font-family="Arial" font-size="14" lengthAdjust="spacing" textLength="28" x="1089.25" y="325.3115">Plan</text><line style="stroke:#181818;stroke-width:0.5;" x1="1003.5" x2="1170.5" y1="336" y2="336"/><text fill="#000000" font-family="Arial" font-size="14" lengthAdjust="spacing" textLength="129" x="1008.5" y="353.3608">+correlationId: string</text><text fill="#000000" font-family="Arial" font-size="14" lengthAdjust="spacing" textLength="118" x="1008.5" y="369.4595">+resourceId: string</text><text fill="#000000" font-family="Arial" font-size="14" lengthAdjust="spacing" textLength="157" x="1008.5" y="385.5581">+ops: vector&lt;Operation&gt;</text><line style="stroke:#181818;stroke-width:0.5;" x1="1003.5" x2="1170.5" y1="392.2959" y2="392.2959"/></g><!--class Operation--><g id="elem_Operation"><rect codeLine="74" fill="#F1F1F1" height="128.4932" id="Operation" rx="2.5" ry="2.5" style="stroke:#181818;stroke-width:0.5;" width="161" x="1072.5" y="524.5"/><ellipse cx="1117.25" cy="540.5" fill="#F1F1F1" rx="11" ry="11" style="stroke:#181818;stroke-width:1.0;"/><path d="M1115.3594,545.0625 Q1115.1406,545.3281 1115,545.4063 Q1114.8594,545.4844 1114.6719,545.4844 Q1114.2813,545.4844 1114.0391,545.2188 Q1113.7969,544.9531 1113.7969,544.3594 L1113.7969,543.2031 Q1113.7969,542.5938 1114.0391,542.3359 Q1114.2813,542.0781 1114.6719,542.0781 Q1114.9688,542.0781 1115.1719,542.2344 Q1115.375,542.3906 1115.4844,542.7578 Q1115.5938,543.125 1115.7031,543.2656 Q1115.9531,543.5156 1116.5625,543.7813 Q1117.1719,544.0469 1117.9063,544.0469 Q1119.0469,544.0469 1119.7656,543.5156 Q1120.2344,543.1875 1120.2344,542.7188 Q1120.2344,542.4063 1120.0156,542.125 Q1119.7969,541.8438 1119.2813,541.6719 Q1118.9531,541.5469 1117.7969,541.3281 Q1116.4063,541.0625 1115.6875,540.7031 Q1114.9688,540.3438 1114.5547,539.6797 Q1114.1406,539.0156 1114.1406,538.2344 Q1114.1406,537.0156 1115.1641,536.1016 Q1116.1875,535.1875 1117.8281,535.1875 Q1118.4844,535.1875 1119.0391,535.3281 Q1119.5938,535.4688 1120.0625,535.7656 Q1120.3906,535.4531 1120.7188,535.4531 Q1121.0938,535.4531 1121.3281,535.7109 Q1121.5625,535.9688 1121.5625,536.5781 L1121.5625,537.8594 Q1121.5625,538.4688 1121.3281,538.7266 Q1121.0938,538.9844 1120.7188,538.9844 Q1120.4063,538.9844 1120.1719,538.7969 Q1119.9844,538.6563 1119.8984,538.2344 Q1119.8125,537.8125 1119.6719,537.625 Q1119.4219,537.3125 1118.9453,537.1016 Q1118.4688,536.8906 1117.8281,536.8906 Q1116.9063,536.8906 1116.375,537.3125 Q1115.8438,537.7344 1115.8438,538.2031 Q1115.8438,538.5156 1116.0625,538.8125 Q1116.2813,539.1094 1116.7031,539.2813 Q1116.9844,539.3906 1118.2891,539.6484 Q1119.5938,539.9063 1120.2969,540.2109 Q1121,540.5156 1121.4688,541.1719 Q1121.9375,541.8281 1121.9375,542.7344 Q1121.9375,544 1121.0469,544.75 Q1119.8594,545.75 1118.0313,545.75 Q1117.3281,545.75 1116.6641,545.5781 Q1116,545.4063 1115.3594,545.0625 Z " fill="#000000"/><text fill="#000000" font-family="Arial" font-size="14" lengthAdjust="spacing" textLength="63" x="1137.75" y="545.8115">Operation</text><line style="stroke:#181818;stroke-width:0.5;" x1="1073.5" x2="1232.5" y1="556.5" y2="556.5"/><text fill="#000000" font-family="Arial" font-size="14" lengthAdjust="spacing" textLength="94" x="1078.5" y="573.8608">+type: OpType</text><text fill="#000000" font-family="Arial" font-size="14" lengthAdjust="spacing" textLength="135" x="1078.5" y="589.9595">+inputs: UAValueMap</text><text fill="#000000" font-family="Arial" font-size="14" lengthAdjust="spacing" textLength="149" x="1078.5" y="606.0581">+expOuts: UAValueMap</text><text fill="#000000" font-family="Arial" font-size="14" lengthAdjust="spacing" textLength="78" x="1078.5" y="622.1567">+attach: any</text><text fill="#000000" font-family="Arial" font-size="14" lengthAdjust="spacing" textLength="95" x="1078.5" y="638.2554">+timeoutMs: int</text><line style="stroke:#181818;stroke-width:0.5;" x1="1073.5" x2="1232.5" y1="644.9932" y2="644.9932"/></g><!--class OpType--><g id="elem_OpType"><rect codeLine="81" fill="#F1F1F1" height="225.085" id="OpType" rx="2.5" ry="2.5" style="stroke:#181818;stroke-width:0.5;" width="127" x="930.5" y="476"/><ellipse cx="965.3" cy="492" fill="#EB937F" rx="11" ry="11" style="stroke:#181818;stroke-width:1.0;"/><path d="M964.1594,492.7969 L964.1594,495.2969 L968.4875,495.2969 L968.4875,494.375 Q968.4875,493.7656 968.7297,493.5 Q968.9719,493.2344 969.3469,493.2344 Q969.7219,493.2344 969.9563,493.5 Q970.1906,493.7656 970.1906,494.375 L970.1906,497 L962.1906,497 Q961.5656,497 961.3078,496.7656 Q961.05,496.5313 961.05,496.1406 Q961.05,495.7656 961.3156,495.5313 Q961.5813,495.2969 962.1906,495.2969 L962.4563,495.2969 L962.4563,488.6406 L962.1906,488.6406 Q961.5656,488.6406 961.3078,488.4063 Q961.05,488.1719 961.05,487.7813 Q961.05,487.4063 961.3078,487.1719 Q961.5656,486.9375 962.1906,486.9375 L969.8156,486.9375 L969.8156,489.5313 Q969.8156,490.1406 969.5891,490.3984 Q969.3625,490.6563 968.9719,490.6563 Q968.5969,490.6563 968.3625,490.3984 Q968.1281,490.1406 968.1281,489.5313 L968.1281,488.6406 L964.1594,488.6406 L964.1594,491.0938 L965.6438,491.0938 Q965.6438,490.4375 965.7688,490.25 Q966.0344,489.8438 966.5031,489.8438 Q966.8781,489.8438 967.1125,490.1016 Q967.3469,490.3594 967.3469,490.9688 L967.3469,492.9375 Q967.3469,493.4844 967.2219,493.6719 Q966.9563,494.0625 966.5031,494.0625 Q966.0344,494.0625 965.7688,493.6563 Q965.6438,493.4688 965.6438,492.7969 L964.1594,492.7969 Z " fill="#000000"/><text fill="#000000" font-family="Arial" font-size="14" lengthAdjust="spacing" textLength="51" x="983.7" y="497.3115">OpType</text><line style="stroke:#181818;stroke-width:0.5;" x1="931.5" x2="1056.5" y1="508" y2="508"/><text fill="#000000" font-family="Arial" font-size="14" lengthAdjust="spacing" textLength="65" x="936.5" y="525.3608">WriteBool,</text><text fill="#000000" font-family="Arial" font-size="14" lengthAdjust="spacing" textLength="67" x="936.5" y="541.4595">PulseBool,</text><text fill="#000000" font-family="Arial" font-size="14" lengthAdjust="spacing" textLength="68" x="936.5" y="557.5581">WriteInt32,</text><text fill="#000000" font-family="Arial" font-size="14" lengthAdjust="spacing" textLength="75" x="936.5" y="573.6567">CallMethod,</text><text fill="#000000" font-family="Arial" font-size="14" lengthAdjust="spacing" textLength="50" x="936.5" y="589.7554">WaitMs,</text><text fill="#000000" font-family="Arial" font-size="14" lengthAdjust="spacing" textLength="78" x="936.5" y="605.854">ReadCheck,</text><text fill="#000000" font-family="Arial" font-size="14" lengthAdjust="spacing" textLength="99" x="936.5" y="621.9526">BlockResource,</text><text fill="#000000" font-family="Arial" font-size="14" lengthAdjust="spacing" textLength="99" x="936.5" y="638.0513">RerouteOrders,</text><text fill="#000000" font-family="Arial" font-size="14" lengthAdjust="spacing" textLength="115" x="936.5" y="654.1499">UnblockResource,</text><text fill="#000000" font-family="Arial" font-size="14" lengthAdjust="spacing" textLength="81" x="936.5" y="670.2485">KGIngestion,</text><text fill="#000000" font-family="Arial" font-size="14" lengthAdjust="spacing" textLength="61" x="936.5" y="686.3472">WriteCSV</text><line style="stroke:#181818;stroke-width:0.5;" x1="931.5" x2="1056.5" y1="693.085" y2="693.085"/></g><!--class KG_Interface--><g id="elem_KG_Interface"><rect codeLine="105" fill="#F1F1F1" height="152.4893" id="KG_Interface" rx="2.5" ry="2.5" style="stroke:#181818;stroke-width:0.5;" width="344" x="570" y="512.5"/><ellipse cx="696.25" cy="532.4487" fill="#ADD1B2" rx="11" ry="11" style="stroke:#181818;stroke-width:1.0;"/><path d="M699.0156,528.3237 Q699.1719,528.105 699.3594,527.9956 Q699.5469,527.8862 699.7656,527.8862 Q700.1406,527.8862 700.375,528.144 Q700.6094,528.4019 700.6094,529.0112 L700.6094,530.4644 Q700.6094,531.0737 700.375,531.3394 Q700.1406,531.605 699.7656,531.605 Q699.4219,531.605 699.2188,531.4019 Q699.0156,531.2144 698.9063,530.6987 Q698.8594,530.3394 698.6719,530.1519 Q698.3438,529.7769 697.7344,529.5581 Q697.125,529.3394 696.5,529.3394 Q695.7344,529.3394 695.1016,529.6675 Q694.4688,529.9956 693.9766,530.7456 Q693.4844,531.4956 693.4844,532.5269 L693.4844,533.6206 Q693.4844,534.855 694.375,535.6753 Q695.2656,536.4956 696.8594,536.4956 Q697.7969,536.4956 698.4531,536.2456 Q698.8438,536.0894 699.2656,535.6519 Q699.5313,535.3862 699.6797,535.3081 Q699.8281,535.23 700.0313,535.23 Q700.3594,535.23 700.6172,535.4878 Q700.875,535.7456 700.875,536.0894 Q700.875,536.4331 700.5313,536.8394 Q700.0313,537.4175 699.2344,537.7456 Q698.1563,538.1987 696.8594,538.1987 Q695.3438,538.1987 694.1406,537.5737 Q693.1563,537.0737 692.4688,536.0034 Q691.7813,534.9331 691.7813,533.6519 L691.7813,532.4956 Q691.7813,531.1675 692.3984,530.019 Q693.0156,528.8706 694.1094,528.2534 Q695.2031,527.6362 696.4375,527.6362 Q697.1719,527.6362 697.8203,527.8003 Q698.4688,527.9644 699.0156,528.3237 Z " fill="#000000"/><text fill="#000000" font-family="Arial" font-size="12" font-style="italic" lengthAdjust="spacing" textLength="52" x="732.25" y="528.9521">&#171;Python&#187;</text><text fill="#000000" font-family="Arial" font-size="14" lengthAdjust="spacing" textLength="83" x="716.75" y="544.6597">KG_Interface</text><line style="stroke:#181818;stroke-width:0.5;" x1="571" x2="913" y1="552.3975" y2="552.3975"/><text fill="#000000" font-family="Arial" font-size="14" lengthAdjust="spacing" textLength="12" x="576" y="569.7583">...</text><line style="stroke:#181818;stroke-width:0.5;" x1="571" x2="913" y1="576.4961" y2="576.4961"/><text fill="#000000" font-family="Arial" font-size="14" lengthAdjust="spacing" textLength="109" x="576" y="593.8569">+__init__(): None</text><text fill="#000000" font-family="Arial" font-size="14" lengthAdjust="spacing" textLength="332" x="576" y="609.9556">+getFailureModeParameters(interruptedSkill: str): str</text><text fill="#000000" font-family="Arial" font-size="14" lengthAdjust="spacing" textLength="323" x="576" y="626.0542">+getMonitoringActionForFailureMode(FMIri: str): str</text><text fill="#000000" font-family="Arial" font-size="14" lengthAdjust="spacing" textLength="315" x="576" y="642.1528">+getSystemreactionForFailureMode(FMIri: str): str</text><text fill="#000000" font-family="Arial" font-size="14" lengthAdjust="spacing" textLength="201" x="576" y="658.2515">+ingestOccuredFailure(...): bool</text></g><!--reverse link ICommandForce to PLCCommandForce--><g id="link_ICommandForce_PLCCommandForce"><path d="M314.7329,240.3249 C288.3729,264.4949 264.93,285.98 236.61,311.94 " fill="none" id="ICommandForce-backto-PLCCommandForce" style="stroke:#181818;stroke-width:1.0;stroke-dasharray:7.0,7.0;"/><polygon fill="none" points="328,228.16,310.6779,235.9025,318.7879,244.7472,328,228.16" style="stroke:#181818;stroke-width:1.0;"/></g><!--reverse link ICommandForce to WriteCsvForce--><g id="link_ICommandForce_WriteCsvForce"><path d="M362,246.16 C362,270.33 362,285.98 362,311.94 " fill="none" id="ICommandForce-backto-WriteCsvForce" style="stroke:#181818;stroke-width:1.0;stroke-dasharray:7.0,7.0;"/><polygon fill="none" points="362,228.16,356,246.16,368,246.16,362,228.16" style="stroke:#181818;stroke-width:1.0;"/></g><!--reverse link ICommandForce to KGIngestionForce--><g id="link_ICommandForce_KGIngestionForce"><path d="M407.5879,240.6017 C432.8579,264.7717 455.02,285.98 482.17,311.94 " fill="none" id="ICommandForce-backto-KGIngestionForce" style="stroke:#181818;stroke-width:1.0;stroke-dasharray:7.0,7.0;"/><polygon fill="none" points="394.58,228.16,403.4407,244.9376,411.7351,236.2657,394.58,228.16" style="stroke:#181818;stroke-width:1.0;"/></g><!--link CommandForceFactory to ICommandForce--><g id="link_CommandForceFactory_ICommandForce"><path codeLine="116" d="M616.74,103.1 C562.34,121.66 499.62,143.43 443,164 C440.45,164.93 443.4841,163.7798 440.8741,164.7498 " fill="none" id="CommandForceFactory-to-ICommandForce" style="stroke:#181818;stroke-width:1.0;"/><polygon fill="#181818" points="435.25,166.84,445.0797,167.4541,439.9368,165.0982,442.2928,159.9553,435.25,166.84" style="stroke:#181818;stroke-width:1.0;"/></g><!--link CommandForceFactory to IWinnerFilter--><g id="link_CommandForceFactory_IWinnerFilter"><path codeLine="117" d="M757,103.06 C757,123.06 757,145.85 757,163.73 " fill="none" id="CommandForceFactory-IWinnerFilter" style="stroke:#181818;stroke-width:1.0;"/></g><!--link PLCCommandForce to PLCMonitor--><g id="link_PLCCommandForce_PLCMonitor"><path codeLine="118" d="M194,392.25 C194,438.41 194,508.07 194,550.38 " fill="none" id="PLCCommandForce-to-PLCMonitor" style="stroke:#181818;stroke-width:1.0;"/><polygon fill="#181818" points="194,556.38,198,547.38,194,551.38,190,547.38,194,556.38" style="stroke:#181818;stroke-width:1.0;"/><text fill="#000000" font-family="Arial" font-size="13" lengthAdjust="spacing" textLength="65" x="195" y="443.4065">uses (mon)</text></g><!--link ICommandForce to EventBus--><g id="link_ICommandForce_EventBus"><path codeLine="119" d="M288.72,216.15 C253.75,226.51 211.82,240.74 176,258 C142.46,274.16 135.56,281.37 106,304 C99.56,308.93 92.91,314.45 86.6,319.92 " fill="none" id="ICommandForce-EventBus" style="stroke:#181818;stroke-width:1.0;"/><text fill="#000000" font-family="Arial" font-size="13" lengthAdjust="spacing" textLength="97" x="177" y="271.4065">posts/acks (bus)</text></g><!--link KGIngestionForce to KgIngestionParams--><g id="link_KGIngestionForce_KgIngestionParams"><path codeLine="120" d="M513.29,392.25 C504.39,428.24 492.4899,476.3353 482.0899,518.4053 " fill="none" id="KGIngestionForce-to-KgIngestionParams" style="stroke:#181818;stroke-width:1.0;"/><polygon fill="#181818" points="480.65,524.23,486.693,516.4529,481.8499,519.3761,478.9267,514.5331,480.65,524.23" style="stroke:#181818;stroke-width:1.0;"/></g><!--link WriteCsvForce to OrdersCSV--><g id="link_WriteCsvForce_OrdersCSV"><path codeLine="121" d="M356.31,392.25 C349.37,440.1 338.6898,513.7319 332.7198,554.9619 " fill="none" id="WriteCsvForce-to-OrdersCSV" style="stroke:#181818;stroke-width:1.0;"/><polygon fill="#181818" points="331.86,560.9,337.1084,552.5661,332.5765,555.9516,329.191,551.4197,331.86,560.9" style="stroke:#181818;stroke-width:1.0;"/><text fill="#000000" font-family="Arial" font-size="13" lengthAdjust="spacing" textLength="42" x="352" y="443.4065">&#171;uses&#187;</text></g><!--reverse link Plan to Operation--><g id="link_Plan_Operation"><path codeLine="122" d="M1103.5309,411.7213 C1113.5809,447.4313 1124.23,485.29 1135.24,524.4 " fill="none" id="Plan-backto-Operation" style="stroke:#181818;stroke-width:1.0;"/><polygon fill="none" points="1100.28,400.17,1098.055,407.0293,1103.5309,411.7213,1105.7559,404.862,1100.28,400.17" style="stroke:#181818;stroke-width:1.0;"/></g><!--link CommandForceFactory to Plan--><g id="link_CommandForceFactory_Plan"><path codeLine="123" d="M994.21,103.16 C1023.78,118.19 1050.7,137.98 1071,164 C1101.66,203.31 1102.1399,256.477 1096.9499,297.677 " fill="none" id="CommandForceFactory-to-Plan" style="stroke:#181818;stroke-width:1.0;"/><polygon fill="#181818" points="1096.2,303.63,1101.2935,295.2005,1096.8249,298.6692,1093.3562,294.2006,1096.2,303.63" style="stroke:#181818;stroke-width:1.0;"/></g><!--link KGIngestionForce to KG_Interface--><g id="link_KGIngestionForce_KG_Interface"><path codeLine="124" d="M559.66,392.25 C590.1,424.85 630.1844,467.7753 667.4444,507.6653 " fill="none" id="KGIngestionForce-to-KG_Interface" style="stroke:#181818;stroke-width:1.0;"/><polygon fill="#181818" points="671.54,512.05,668.3197,502.7425,668.127,508.3961,662.4734,508.2033,671.54,512.05" style="stroke:#181818;stroke-width:1.0;"/></g><!--link ICommandForce to Plan--><g id="link_ICommandForce_Plan"><path codeLine="125" d="M435.1,225.64 C437.75,226.47 440.39,227.26 443,228 C639.93,284.02 872.1197,321.1954 996.3297,338.8554 " fill="none" id="ICommandForce-to-Plan" style="stroke:#181818;stroke-width:1.0;"/><polygon fill="#181818" points="1002.27,339.7,993.9227,334.473,997.3198,338.9962,992.7966,342.3933,1002.27,339.7" style="stroke:#181818;stroke-width:1.0;"/><text fill="#000000" font-family="Arial" font-size="13" lengthAdjust="spacing" textLength="7" x="619" y="271.4065">p</text></g><!--SRC=[pLRDRXit4BxlKmnoiAH4Lf86oK5m1TXgP0YEBDLERA0NWRixMX7YaWp9TIm7UPPU-WmzvUONwv2xabO_JWkqX-v5cX_E7x-POGEka2MEApbYacLeu1W6AYaiff08PYsad6M6vT1KKYo9CfWu-cDGC4TARgdHmX4ia8IeRIko2ouryqVidANg2vSPp9YmM9C4qwVE6HuN3eU9ajVy0U5Lr831u_SC8MKs-5euo9Xy01MZ1EIo6pKsLbBDuSshLt3m8rEpn-y69fVdn-_ljJ8EcZoJod2alp5okBuvhqURuemLmWsKT9SiHpWrd8ajTnk54EthTzlkClFuv-FlQAY8NWT-9Y_M4WqVqCRCB92xcZ-fKhIeuVNRWy5VIELGijWw9jDw68R9XJ_tvktXh7z3Bke74oOeriux-E571nyA-_Y7Un0ycIDSBvYWIXKoYnfpdY9WhjqISinZD3Pg29mvS0eCp-QkWWMXA79AUtQid5DvZS-4K5zoVazeYCZNCNrmLKZ7gT8niponWHULe9jyw8-Kv4uP-1e1T3gTw5ibUd-7qfqLjYQ8k7HePYn16FPLdbFU0sM8yYfVVIKCOVmRlC1xJ0XlJTs5YM2orGKwkMFWbak9Pi05SVOCp0Ax-INes2xSKNRAd92Sykgr8L4cD0PbF4oxKFBRe8rA20eULXJOQR9OYLgx9dmmLNK6p0kMzRBKark9VOWl4eFKZSGVwwQYxCOQJOYY3RcItLezdxSXBYZoLHcFsg0-Ts4uDYcQNmiiy3a1LnP2Q6Sel4BopmLEYJZPgcrluxPUiUQEkwDzTpDq133JXLaX0pQgt9iq1Qoh2dFKecfM3VUHCA8ADx8-6aizZEbEOFK8Qe5TBwt3V3NW_Zy1qXqpupZXpS6pJcBldi792K4BUpsWkHUkmlQlRpPGy1Mtq2pJIY5Umgoy_jPErsp1d-TQO4vvsGDzyKGpR3VRhU4E-_Rklx9tSJwK6Tfm7V_QP8Dkeg0Irh0RLQoBRErdueUchTg4sdFLUfwk-hBEiWK5OPPRBCcqdIjtQvZMcDP51gqgADnDi_kuoalp4SFBJIkMDrK568JhcFP6nXEsYQlqPkoiJNj8EPMXcuUPLVdOU0wE_ARsa-4Z_NgQzadXoDYdqnic2XmnNPPSZm-mcNCicNU1oMMmjK5yEK5H5dbbEtWBm3bJIhI1g4b1wtzD1TbGkZS_1R9Fgs54eQkqxOMCazaWeCPD-tDC5e4w4ofPN5KrgUI6Oi2oNGBdauotj8XLGzp6kU-jRxuD0Hh7GBjQ2PKjfvgvUQZrcZ_bXjSu0SHJRN36x-kAUf-N7k3HEqgJ0vFE18yxvvug1VqFQwwa7M4rRQBEvUfVgJEU_BtEBp_MMVNWTBXUToSdaoMLNjBaMUrJkbwOJZbDn-cqIIrtgMJ02n2-1eoBmk28dYwXhv3is6ROdgRGD9gk5ro8a79hbNWuM4rR0l5fKdL_pLPpC1fMXTu-LavmivhW_-0G3xSzJXBIIYlj9gL5AZ41q5_w-lbHjLtryZYqN8-FUzjpwGcjxMT3j3k8lPdQauPsW_NZd5PHAnhkQ6uUE42AMbbdNx9aGUgqfrhHtWJrjlV6NRGzkBtEUgjqwTAz_rul2bD8aS_rg7Yo2bxr2USrFErbKnxqYKH_0G00]--></g></svg>