<?xml version="1.0" encoding="us-ascii" standalone="no"?><svg xmlns="http://www.w3.org/2000/svg" xmlns:xlink="http://www.w3.org/1999/xlink" contentStyleType="text/css" height="717px" preserveAspectRatio="none" style="width:1973px;height:717px;background:#FFFFFF;" version="1.1" viewBox="0 0 1973 717" width="1973px" zoomAndPan="magnify"><defs/><g><!--class Event--><g id="elem_Event"><rect codeLine="20" fill="#F1F1F1" height="96.2959" id="Event" rx="2.5" ry="2.5" style="stroke:#181818;stroke-width:0.5;" width="123" x="132" y="614"/><ellipse cx="171.75" cy="630" fill="#F1F1F1" rx="11" ry="11" style="stroke:#181818;stroke-width:1.0;"/><path d="M169.8594,634.5625 Q169.6406,634.8281 169.5,634.9063 Q169.3594,634.9844 169.1719,634.9844 Q168.7813,634.9844 168.5391,634.7188 Q168.2969,634.4531 168.2969,633.8594 L168.2969,632.7031 Q168.2969,632.0938 168.5391,631.8359 Q168.7813,631.5781 169.1719,631.5781 Q169.4688,631.5781 169.6719,631.7344 Q169.875,631.8906 169.9844,632.2578 Q170.0938,632.625 170.2031,632.7656 Q170.4531,633.0156 171.0625,633.2813 Q171.6719,633.5469 172.4063,633.5469 Q173.5469,633.5469 174.2656,633.0156 Q174.7344,632.6875 174.7344,632.2188 Q174.7344,631.9063 174.5156,631.625 Q174.2969,631.3438 173.7813,631.1719 Q173.4531,631.0469 172.2969,630.8281 Q170.9063,630.5625 170.1875,630.2031 Q169.4688,629.8438 169.0547,629.1797 Q168.6406,628.5156 168.6406,627.7344 Q168.6406,626.5156 169.6641,625.6016 Q170.6875,624.6875 172.3281,624.6875 Q172.9844,624.6875 173.5391,624.8281 Q174.0938,624.9688 174.5625,625.2656 Q174.8906,624.9531 175.2188,624.9531 Q175.5938,624.9531 175.8281,625.2109 Q176.0625,625.4688 176.0625,626.0781 L176.0625,627.3594 Q176.0625,627.9688 175.8281,628.2266 Q175.5938,628.4844 175.2188,628.4844 Q174.9063,628.4844 174.6719,628.2969 Q174.4844,628.1563 174.3984,627.7344 Q174.3125,627.3125 174.1719,627.125 Q173.9219,626.8125 173.4453,626.6016 Q172.9688,626.3906 172.3281,626.3906 Q171.4063,626.3906 170.875,626.8125 Q170.3438,627.2344 170.3438,627.7031 Q170.3438,628.0156 170.5625,628.3125 Q170.7813,628.6094 171.2031,628.7813 Q171.4844,628.8906 172.7891,629.1484 Q174.0938,629.4063 174.7969,629.7109 Q175.5,630.0156 175.9688,630.6719 Q176.4375,631.3281 176.4375,632.2344 Q176.4375,633.5 175.5469,634.25 Q174.3594,635.25 172.5313,635.25 Q171.8281,635.25 171.1641,635.0781 Q170.5,634.9063 169.8594,634.5625 Z " fill="#000000"/><text fill="#000000" font-family="Arial" font-size="14" lengthAdjust="spacing" textLength="36" x="191.25" y="635.3115">Event</text><line style="stroke:#181818;stroke-width:0.5;" x1="133" x2="254" y1="646" y2="646"/><text fill="#000000" font-family="Arial" font-size="14" lengthAdjust="spacing" textLength="111" x="138" y="663.3608">+type: EventType</text><text fill="#000000" font-family="Arial" font-size="14" lengthAdjust="spacing" textLength="19" x="138" y="679.4595">+ts</text><text fill="#000000" font-family="Arial" font-size="14" lengthAdjust="spacing" textLength="89" x="138" y="695.5581">+payload: any</text><line style="stroke:#181818;stroke-width:0.5;" x1="133" x2="254" y1="702.2959" y2="702.2959"/></g><!--class EventBus--><g id="elem_EventBus"><rect codeLine="25" fill="#F1F1F1" height="64.0986" id="EventBus" rx="2.5" ry="2.5" style="stroke:#181818;stroke-width:0.5;" width="92" x="147.5" y="486"/><ellipse cx="162.5" cy="502" fill="#ADD1B2" rx="11" ry="11" style="stroke:#181818;stroke-width:1.0;"/><path d="M165.2656,497.875 Q165.4219,497.6563 165.6094,497.5469 Q165.7969,497.4375 166.0156,497.4375 Q166.3906,497.4375 166.625,497.6953 Q166.8594,497.9531 166.8594,498.5625 L166.8594,500.0156 Q166.8594,500.625 166.625,500.8906 Q166.3906,501.1563 166.0156,501.1563 Q165.6719,501.1563 165.4688,500.9531 Q165.2656,500.7656 165.1563,500.25 Q165.1094,499.8906 164.9219,499.7031 Q164.5938,499.3281 163.9844,499.1094 Q163.375,498.8906 162.75,498.8906 Q161.9844,498.8906 161.3516,499.2188 Q160.7188,499.5469 160.2266,500.2969 Q159.7344,501.0469 159.7344,502.0781 L159.7344,503.1719 Q159.7344,504.4063 160.625,505.2266 Q161.5156,506.0469 163.1094,506.0469 Q164.0469,506.0469 164.7031,505.7969 Q165.0938,505.6406 165.5156,505.2031 Q165.7813,504.9375 165.9297,504.8594 Q166.0781,504.7813 166.2813,504.7813 Q166.6094,504.7813 166.8672,505.0391 Q167.125,505.2969 167.125,505.6406 Q167.125,505.9844 166.7813,506.3906 Q166.2813,506.9688 165.4844,507.2969 Q164.4063,507.75 163.1094,507.75 Q161.5938,507.75 160.3906,507.125 Q159.4063,506.625 158.7188,505.5547 Q158.0313,504.4844 158.0313,503.2031 L158.0313,502.0469 Q158.0313,500.7188 158.6484,499.5703 Q159.2656,498.4219 160.3594,497.8047 Q161.4531,497.1875 162.6875,497.1875 Q163.4219,497.1875 164.0703,497.3516 Q164.7188,497.5156 165.2656,497.875 Z " fill="#000000"/><text fill="#000000" font-family="Arial" font-size="14" lengthAdjust="spacing" textLength="60" x="176.5" y="507.3115">EventBus</text><line style="stroke:#181818;stroke-width:0.5;" x1="148.5" x2="238.5" y1="518" y2="518"/><text fill="#000000" font-family="Arial" font-size="14" lengthAdjust="spacing" textLength="12" x="153.5" y="535.3608">...</text><line style="stroke:#181818;stroke-width:0.5;" x1="148.5" x2="238.5" y1="542.0986" y2="542.0986"/></g><!--class ICommandForce--><g id="elem_ICommandForce"><rect codeLine="30" fill="#F1F1F1" height="64.0986" id="ICommandForce" rx="2.5" ry="2.5" style="stroke:#181818;stroke-width:0.5;" width="146" x="666.5" y="182"/><ellipse cx="685.55" cy="198" fill="#B4A7E5" rx="11" ry="11" style="stroke:#181818;stroke-width:1.0;"/><path d="M686.5031,194.6406 L686.5031,201.2969 L688.2219,201.2969 Q688.8313,201.2969 689.0969,201.5313 Q689.3625,201.7656 689.3625,202.1563 Q689.3625,202.5313 689.0969,202.7656 Q688.8313,203 688.2219,203 L683.0813,203 Q682.4719,203 682.2063,202.7656 Q681.9406,202.5313 681.9406,202.1406 Q681.9406,201.7656 682.2063,201.5313 Q682.4719,201.2969 683.0813,201.2969 L684.8,201.2969 L684.8,194.6406 L683.0813,194.6406 Q682.4719,194.6406 682.2063,194.4063 Q681.9406,194.1719 681.9406,193.7813 Q681.9406,193.4063 682.2063,193.1719 Q682.4719,192.9375 683.0813,192.9375 L688.2219,192.9375 Q688.8313,192.9375 689.0969,193.1719 Q689.3625,193.4063 689.3625,193.7813 Q689.3625,194.1719 689.0969,194.4063 Q688.8313,194.6406 688.2219,194.6406 L686.5031,194.6406 Z " fill="#000000"/><text fill="#000000" font-family="Arial" font-size="14" font-style="italic" lengthAdjust="spacing" textLength="105" x="700.45" y="203.3115">ICommandForce</text><line style="stroke:#181818;stroke-width:0.5;" x1="667.5" x2="811.5" y1="214" y2="214"/><line style="stroke:#181818;stroke-width:0.5;" x1="667.5" x2="811.5" y1="222" y2="222"/><text fill="#000000" font-family="Arial" font-size="14" lengthAdjust="spacing" textLength="134" x="672.5" y="239.3608">+execute(p: Plan): int</text></g><!--class CommandForceFactory--><g id="elem_CommandForceFactory"><rect codeLine="33" fill="#F1F1F1" height="96.2959" id="CommandForceFactory" rx="2.5" ry="2.5" style="stroke:#181818;stroke-width:0.5;" width="1041" x="817" y="15"/><ellipse cx="1258.75" cy="31" fill="#ADD1B2" rx="11" ry="11" style="stroke:#181818;stroke-width:1.0;"/><path d="M1261.5156,26.875 Q1261.6719,26.6563 1261.8594,26.5469 Q1262.0469,26.4375 1262.2656,26.4375 Q1262.6406,26.4375 1262.875,26.6953 Q1263.1094,26.9531 1263.1094,27.5625 L1263.1094,29.0156 Q1263.1094,29.625 1262.875,29.8906 Q1262.6406,30.1563 1262.2656,30.1563 Q1261.9219,30.1563 1261.7188,29.9531 Q1261.5156,29.7656 1261.4063,29.25 Q1261.3594,28.8906 1261.1719,28.7031 Q1260.8438,28.3281 1260.2344,28.1094 Q1259.625,27.8906 1259,27.8906 Q1258.2344,27.8906 1257.6016,28.2188 Q1256.9688,28.5469 1256.4766,29.2969 Q1255.9844,30.0469 1255.9844,31.0781 L1255.9844,32.1719 Q1255.9844,33.4063 1256.875,34.2266 Q1257.7656,35.0469 1259.3594,35.0469 Q1260.2969,35.0469 1260.9531,34.7969 Q1261.3438,34.6406 1261.7656,34.2031 Q1262.0313,33.9375 1262.1797,33.8594 Q1262.3281,33.7813 1262.5313,33.7813 Q1262.8594,33.7813 1263.1172,34.0391 Q1263.375,34.2969 1263.375,34.6406 Q1263.375,34.9844 1263.0313,35.3906 Q1262.5313,35.9688 1261.7344,36.2969 Q1260.6563,36.75 1259.3594,36.75 Q1257.8438,36.75 1256.6406,36.125 Q1255.6563,35.625 1254.9688,34.5547 Q1254.2813,33.4844 1254.2813,32.2031 L1254.2813,31.0469 Q1254.2813,29.7188 1254.8984,28.5703 Q1255.5156,27.4219 1256.6094,26.8047 Q1257.7031,26.1875 1258.9375,26.1875 Q1259.6719,26.1875 1260.3203,26.3516 Q1260.9688,26.5156 1261.5156,26.875 Z " fill="#000000"/><text fill="#000000" font-family="Arial" font-size="14" lengthAdjust="spacing" textLength="149" x="1279.25" y="36.3115">CommandForceFactory</text><line style="stroke:#181818;stroke-width:0.5;" x1="818" x2="1857" y1="47" y2="47"/><line style="stroke:#181818;stroke-width:0.5;" x1="818" x2="1857" y1="55" y2="55"/><text fill="#000000" font-family="Arial" font-size="14" lengthAdjust="spacing" textLength="787" x="823" y="72.3608">+createForOp(op: Operation, mon: PLCMonitor*, bus: EventBus&amp;, oq: IOrderQueue* = nullptr): unique_ptr&lt;ICommandForce&gt;</text><text fill="#000000" font-family="Arial" font-size="14" lengthAdjust="spacing" textLength="972" x="823" y="88.4595">+createWinnerFilter(mon: PLCMonitor&amp;, bus: EventBus&amp;, fetcher: function&lt;string(const string&amp;)&gt;, defaultTimeoutMs: unsigned): unique_ptr&lt;IWinnerFilter&gt;</text><text fill="#000000" font-family="Arial" font-size="14" lengthAdjust="spacing" textLength="1029" x="823" y="104.5581">+createSystemReactionFilter(mon: PLCMonitor&amp;, bus: EventBus&amp;, fetcher: function&lt;string(const string&amp;)&gt;, defaultTimeoutMs: unsigned): unique_ptr&lt;IWinnerFilter&gt;</text></g><!--class MonitoringActionForce--><g id="elem_MonitoringActionForce"><rect codeLine="39" fill="#F1F1F1" height="64.0986" id="MonitoringActionForce" rx="2.5" ry="2.5" style="stroke:#181818;stroke-width:0.5;" width="506" x="563.5" y="326"/><ellipse cx="741.25" cy="342" fill="#ADD1B2" rx="11" ry="11" style="stroke:#181818;stroke-width:1.0;"/><path d="M744.0156,337.875 Q744.1719,337.6563 744.3594,337.5469 Q744.5469,337.4375 744.7656,337.4375 Q745.1406,337.4375 745.375,337.6953 Q745.6094,337.9531 745.6094,338.5625 L745.6094,340.0156 Q745.6094,340.625 745.375,340.8906 Q745.1406,341.1563 744.7656,341.1563 Q744.4219,341.1563 744.2188,340.9531 Q744.0156,340.7656 743.9063,340.25 Q743.8594,339.8906 743.6719,339.7031 Q743.3438,339.3281 742.7344,339.1094 Q742.125,338.8906 741.5,338.8906 Q740.7344,338.8906 740.1016,339.2188 Q739.4688,339.5469 738.9766,340.2969 Q738.4844,341.0469 738.4844,342.0781 L738.4844,343.1719 Q738.4844,344.4063 739.375,345.2266 Q740.2656,346.0469 741.8594,346.0469 Q742.7969,346.0469 743.4531,345.7969 Q743.8438,345.6406 744.2656,345.2031 Q744.5313,344.9375 744.6797,344.8594 Q744.8281,344.7813 745.0313,344.7813 Q745.3594,344.7813 745.6172,345.0391 Q745.875,345.2969 745.875,345.6406 Q745.875,345.9844 745.5313,346.3906 Q745.0313,346.9688 744.2344,347.2969 Q743.1563,347.75 741.8594,347.75 Q740.3438,347.75 739.1406,347.125 Q738.1563,346.625 737.4688,345.5547 Q736.7813,344.4844 736.7813,343.2031 L736.7813,342.0469 Q736.7813,340.7188 737.3984,339.5703 Q738.0156,338.4219 739.1094,337.8047 Q740.2031,337.1875 741.4375,337.1875 Q742.1719,337.1875 742.8203,337.3516 Q743.4688,337.5156 744.0156,337.875 Z " fill="#000000"/><text fill="#000000" font-family="Arial" font-size="14" lengthAdjust="spacing" textLength="142" x="761.75" y="347.3115">MonitoringActionForce</text><line style="stroke:#181818;stroke-width:0.5;" x1="564.5" x2="1068.5" y1="358" y2="358"/><line style="stroke:#181818;stroke-width:0.5;" x1="564.5" x2="1068.5" y1="366" y2="366"/><text fill="#000000" font-family="Arial" font-size="14" lengthAdjust="spacing" textLength="494" x="569.5" y="383.3608">+filter(winners: vector&lt;string&gt;, corr:string, processName:string): vector&lt;string&gt;</text></g><!--class IWinnerFilter--><g id="elem_IWinnerFilter"><rect codeLine="47" fill="#F1F1F1" height="64.0986" id="IWinnerFilter" rx="2.5" ry="2.5" style="stroke:#181818;stroke-width:0.5;" width="613" x="1031" y="182"/><ellipse cx="1292.25" cy="198" fill="#B4A7E5" rx="11" ry="11" style="stroke:#181818;stroke-width:1.0;"/><path d="M1293.2031,194.6406 L1293.2031,201.2969 L1294.9219,201.2969 Q1295.5313,201.2969 1295.7969,201.5313 Q1296.0625,201.7656 1296.0625,202.1563 Q1296.0625,202.5313 1295.7969,202.7656 Q1295.5313,203 1294.9219,203 L1289.7813,203 Q1289.1719,203 1288.9063,202.7656 Q1288.6406,202.5313 1288.6406,202.1406 Q1288.6406,201.7656 1288.9063,201.5313 Q1289.1719,201.2969 1289.7813,201.2969 L1291.5,201.2969 L1291.5,194.6406 L1289.7813,194.6406 Q1289.1719,194.6406 1288.9063,194.4063 Q1288.6406,194.1719 1288.6406,193.7813 Q1288.6406,193.4063 1288.9063,193.1719 Q1289.1719,192.9375 1289.7813,192.9375 L1294.9219,192.9375 Q1295.5313,192.9375 1295.7969,193.1719 Q1296.0625,193.4063 1296.0625,193.7813 Q1296.0625,194.1719 1295.7969,194.4063 Q1295.5313,194.6406 1294.9219,194.6406 L1293.2031,194.6406 Z " fill="#000000"/><text fill="#000000" font-family="Arial" font-size="14" font-style="italic" lengthAdjust="spacing" textLength="82" x="1312.75" y="203.3115">IWinnerFilter</text><line style="stroke:#181818;stroke-width:0.5;" x1="1032" x2="1643" y1="214" y2="214"/><line style="stroke:#181818;stroke-width:0.5;" x1="1032" x2="1643" y1="222" y2="222"/><text fill="#000000" font-family="Arial" font-size="14" font-style="italic" lengthAdjust="spacing" textLength="601" x="1037" y="239.3608">+filter(winners: vector&lt;string&gt;, correlationId: string, processNameForAck: string): vector&lt;string&gt;</text></g><!--class SystemReactionForce--><g id="elem_SystemReactionForce"><rect codeLine="42" fill="#F1F1F1" height="64.0986" id="SystemReactionForce" rx="2.5" ry="2.5" style="stroke:#181818;stroke-width:0.5;" width="506" x="1084.5" y="326"/><ellipse cx="1263.75" cy="342" fill="#ADD1B2" rx="11" ry="11" style="stroke:#181818;stroke-width:1.0;"/><path d="M1266.5156,337.875 Q1266.6719,337.6563 1266.8594,337.5469 Q1267.0469,337.4375 1267.2656,337.4375 Q1267.6406,337.4375 1267.875,337.6953 Q1268.1094,337.9531 1268.1094,338.5625 L1268.1094,340.0156 Q1268.1094,340.625 1267.875,340.8906 Q1267.6406,341.1563 1267.2656,341.1563 Q1266.9219,341.1563 1266.7188,340.9531 Q1266.5156,340.7656 1266.4063,340.25 Q1266.3594,339.8906 1266.1719,339.7031 Q1265.8438,339.3281 1265.2344,339.1094 Q1264.625,338.8906 1264,338.8906 Q1263.2344,338.8906 1262.6016,339.2188 Q1261.9688,339.5469 1261.4766,340.2969 Q1260.9844,341.0469 1260.9844,342.0781 L1260.9844,343.1719 Q1260.9844,344.4063 1261.875,345.2266 Q1262.7656,346.0469 1264.3594,346.0469 Q1265.2969,346.0469 1265.9531,345.7969 Q1266.3438,345.6406 1266.7656,345.2031 Q1267.0313,344.9375 1267.1797,344.8594 Q1267.3281,344.7813 1267.5313,344.7813 Q1267.8594,344.7813 1268.1172,345.0391 Q1268.375,345.2969 1268.375,345.6406 Q1268.375,345.9844 1268.0313,346.3906 Q1267.5313,346.9688 1266.7344,347.2969 Q1265.6563,347.75 1264.3594,347.75 Q1262.8438,347.75 1261.6406,347.125 Q1260.6563,346.625 1259.9688,345.5547 Q1259.2813,344.4844 1259.2813,343.2031 L1259.2813,342.0469 Q1259.2813,340.7188 1259.8984,339.5703 Q1260.5156,338.4219 1261.6094,337.8047 Q1262.7031,337.1875 1263.9375,337.1875 Q1264.6719,337.1875 1265.3203,337.3516 Q1265.9688,337.5156 1266.5156,337.875 Z " fill="#000000"/><text fill="#000000" font-family="Arial" font-size="14" lengthAdjust="spacing" textLength="139" x="1284.25" y="347.3115">SystemReactionForce</text><line style="stroke:#181818;stroke-width:0.5;" x1="1085.5" x2="1589.5" y1="358" y2="358"/><line style="stroke:#181818;stroke-width:0.5;" x1="1085.5" x2="1589.5" y1="366" y2="366"/><text fill="#000000" font-family="Arial" font-size="14" lengthAdjust="spacing" textLength="494" x="1090.5" y="383.3608">+filter(winners: vector&lt;string&gt;, corr:string, processName:string): vector&lt;string&gt;</text></g><!--class KGIngestionForce--><g id="elem_KGIngestionForce"><rect codeLine="52" fill="#F1F1F1" height="80.1973" id="KGIngestionForce" rx="2.5" ry="2.5" style="stroke:#181818;stroke-width:0.5;" width="541" x="7" y="318"/><ellipse cx="216.25" cy="334" fill="#ADD1B2" rx="11" ry="11" style="stroke:#181818;stroke-width:1.0;"/><path d="M219.0156,329.875 Q219.1719,329.6563 219.3594,329.5469 Q219.5469,329.4375 219.7656,329.4375 Q220.1406,329.4375 220.375,329.6953 Q220.6094,329.9531 220.6094,330.5625 L220.6094,332.0156 Q220.6094,332.625 220.375,332.8906 Q220.1406,333.1563 219.7656,333.1563 Q219.4219,333.1563 219.2188,332.9531 Q219.0156,332.7656 218.9063,332.25 Q218.8594,331.8906 218.6719,331.7031 Q218.3438,331.3281 217.7344,331.1094 Q217.125,330.8906 216.5,330.8906 Q215.7344,330.8906 215.1016,331.2188 Q214.4688,331.5469 213.9766,332.2969 Q213.4844,333.0469 213.4844,334.0781 L213.4844,335.1719 Q213.4844,336.4063 214.375,337.2266 Q215.2656,338.0469 216.8594,338.0469 Q217.7969,338.0469 218.4531,337.7969 Q218.8438,337.6406 219.2656,337.2031 Q219.5313,336.9375 219.6797,336.8594 Q219.8281,336.7813 220.0313,336.7813 Q220.3594,336.7813 220.6172,337.0391 Q220.875,337.2969 220.875,337.6406 Q220.875,337.9844 220.5313,338.3906 Q220.0313,338.9688 219.2344,339.2969 Q218.1563,339.75 216.8594,339.75 Q215.3438,339.75 214.1406,339.125 Q213.1563,338.625 212.4688,337.5547 Q211.7813,336.4844 211.7813,335.2031 L211.7813,334.0469 Q211.7813,332.7188 212.3984,331.5703 Q213.0156,330.4219 214.1094,329.8047 Q215.2031,329.1875 216.4375,329.1875 Q217.1719,329.1875 217.8203,329.3516 Q218.4688,329.5156 219.0156,329.875 Z " fill="#000000"/><text fill="#000000" font-family="Arial" font-size="14" lengthAdjust="spacing" textLength="114" x="236.75" y="339.3115">KGIngestionForce</text><line style="stroke:#181818;stroke-width:0.5;" x1="8" x2="547" y1="350" y2="350"/><line style="stroke:#181818;stroke-width:0.5;" x1="8" x2="547" y1="358" y2="358"/><text fill="#000000" font-family="Arial" font-size="14" lengthAdjust="spacing" textLength="529" x="13" y="375.3608">+KGIngestionForce(mon: PLCMonitor*, bus: EventBus&amp;, oq: IOrderQueue* = nullptr)</text><text fill="#000000" font-family="Arial" font-size="14" lengthAdjust="spacing" textLength="134" x="13" y="391.4595">+execute(p: Plan): int</text></g><!--class Plan--><g id="elem_Plan"><rect codeLine="58" fill="#F1F1F1" height="96.2959" id="Plan" rx="2.5" ry="2.5" style="stroke:#181818;stroke-width:0.5;" width="169" x="1691" y="166"/><ellipse cx="1757.25" cy="182" fill="#F1F1F1" rx="11" ry="11" style="stroke:#181818;stroke-width:1.0;"/><path d="M1755.3594,186.5625 Q1755.1406,186.8281 1755,186.9063 Q1754.8594,186.9844 1754.6719,186.9844 Q1754.2813,186.9844 1754.0391,186.7188 Q1753.7969,186.4531 1753.7969,185.8594 L1753.7969,184.7031 Q1753.7969,184.0938 1754.0391,183.8359 Q1754.2813,183.5781 1754.6719,183.5781 Q1754.9688,183.5781 1755.1719,183.7344 Q1755.375,183.8906 1755.4844,184.2578 Q1755.5938,184.625 1755.7031,184.7656 Q1755.9531,185.0156 1756.5625,185.2813 Q1757.1719,185.5469 1757.9063,185.5469 Q1759.0469,185.5469 1759.7656,185.0156 Q1760.2344,184.6875 1760.2344,184.2188 Q1760.2344,183.9063 1760.0156,183.625 Q1759.7969,183.3438 1759.2813,183.1719 Q1758.9531,183.0469 1757.7969,182.8281 Q1756.4063,182.5625 1755.6875,182.2031 Q1754.9688,181.8438 1754.5547,181.1797 Q1754.1406,180.5156 1754.1406,179.7344 Q1754.1406,178.5156 1755.1641,177.6016 Q1756.1875,176.6875 1757.8281,176.6875 Q1758.4844,176.6875 1759.0391,176.8281 Q1759.5938,176.9688 1760.0625,177.2656 Q1760.3906,176.9531 1760.7188,176.9531 Q1761.0938,176.9531 1761.3281,177.2109 Q1761.5625,177.4688 1761.5625,178.0781 L1761.5625,179.3594 Q1761.5625,179.9688 1761.3281,180.2266 Q1761.0938,180.4844 1760.7188,180.4844 Q1760.4063,180.4844 1760.1719,180.2969 Q1759.9844,180.1563 1759.8984,179.7344 Q1759.8125,179.3125 1759.6719,179.125 Q1759.4219,178.8125 1758.9453,178.6016 Q1758.4688,178.3906 1757.8281,178.3906 Q1756.9063,178.3906 1756.375,178.8125 Q1755.8438,179.2344 1755.8438,179.7031 Q1755.8438,180.0156 1756.0625,180.3125 Q1756.2813,180.6094 1756.7031,180.7813 Q1756.9844,180.8906 1758.2891,181.1484 Q1759.5938,181.4063 1760.2969,181.7109 Q1761,182.0156 1761.4688,182.6719 Q1761.9375,183.3281 1761.9375,184.2344 Q1761.9375,185.5 1761.0469,186.25 Q1759.8594,187.25 1758.0313,187.25 Q1757.3281,187.25 1756.6641,187.0781 Q1756,186.9063 1755.3594,186.5625 Z " fill="#000000"/><text fill="#000000" font-family="Arial" font-size="14" lengthAdjust="spacing" textLength="28" x="1777.75" y="187.3115">Plan</text><line style="stroke:#181818;stroke-width:0.5;" x1="1692" x2="1859" y1="198" y2="198"/><text fill="#000000" font-family="Arial" font-size="14" lengthAdjust="spacing" textLength="129" x="1697" y="215.3608">+correlationId: string</text><text fill="#000000" font-family="Arial" font-size="14" lengthAdjust="spacing" textLength="118" x="1697" y="231.4595">+resourceId: string</text><text fill="#000000" font-family="Arial" font-size="14" lengthAdjust="spacing" textLength="157" x="1697" y="247.5581">+ops: vector&lt;Operation&gt;</text><line style="stroke:#181818;stroke-width:0.5;" x1="1692" x2="1859" y1="254.2959" y2="254.2959"/></g><!--class Operation--><g id="elem_Operation"><rect codeLine="63" fill="#F1F1F1" height="128.4932" id="Operation" rx="2.5" ry="2.5" style="stroke:#181818;stroke-width:0.5;" width="161" x="1727" y="294"/><ellipse cx="1771.75" cy="310" fill="#F1F1F1" rx="11" ry="11" style="stroke:#181818;stroke-width:1.0;"/><path d="M1769.8594,314.5625 Q1769.6406,314.8281 1769.5,314.9063 Q1769.3594,314.9844 1769.1719,314.9844 Q1768.7813,314.9844 1768.5391,314.7188 Q1768.2969,314.4531 1768.2969,313.8594 L1768.2969,312.7031 Q1768.2969,312.0938 1768.5391,311.8359 Q1768.7813,311.5781 1769.1719,311.5781 Q1769.4688,311.5781 1769.6719,311.7344 Q1769.875,311.8906 1769.9844,312.2578 Q1770.0938,312.625 1770.2031,312.7656 Q1770.4531,313.0156 1771.0625,313.2813 Q1771.6719,313.5469 1772.4063,313.5469 Q1773.5469,313.5469 1774.2656,313.0156 Q1774.7344,312.6875 1774.7344,312.2188 Q1774.7344,311.9063 1774.5156,311.625 Q1774.2969,311.3438 1773.7813,311.1719 Q1773.4531,311.0469 1772.2969,310.8281 Q1770.9063,310.5625 1770.1875,310.2031 Q1769.4688,309.8438 1769.0547,309.1797 Q1768.6406,308.5156 1768.6406,307.7344 Q1768.6406,306.5156 1769.6641,305.6016 Q1770.6875,304.6875 1772.3281,304.6875 Q1772.9844,304.6875 1773.5391,304.8281 Q1774.0938,304.9688 1774.5625,305.2656 Q1774.8906,304.9531 1775.2188,304.9531 Q1775.5938,304.9531 1775.8281,305.2109 Q1776.0625,305.4688 1776.0625,306.0781 L1776.0625,307.3594 Q1776.0625,307.9688 1775.8281,308.2266 Q1775.5938,308.4844 1775.2188,308.4844 Q1774.9063,308.4844 1774.6719,308.2969 Q1774.4844,308.1563 1774.3984,307.7344 Q1774.3125,307.3125 1774.1719,307.125 Q1773.9219,306.8125 1773.4453,306.6016 Q1772.9688,306.3906 1772.3281,306.3906 Q1771.4063,306.3906 1770.875,306.8125 Q1770.3438,307.2344 1770.3438,307.7031 Q1770.3438,308.0156 1770.5625,308.3125 Q1770.7813,308.6094 1771.2031,308.7813 Q1771.4844,308.8906 1772.7891,309.1484 Q1774.0938,309.4063 1774.7969,309.7109 Q1775.5,310.0156 1775.9688,310.6719 Q1776.4375,311.3281 1776.4375,312.2344 Q1776.4375,313.5 1775.5469,314.25 Q1774.3594,315.25 1772.5313,315.25 Q1771.8281,315.25 1771.1641,315.0781 Q1770.5,314.9063 1769.8594,314.5625 Z " fill="#000000"/><text fill="#000000" font-family="Arial" font-size="14" lengthAdjust="spacing" textLength="63" x="1792.25" y="315.3115">Operation</text><line style="stroke:#181818;stroke-width:0.5;" x1="1728" x2="1887" y1="326" y2="326"/><text fill="#000000" font-family="Arial" font-size="14" lengthAdjust="spacing" textLength="94" x="1733" y="343.3608">+type: OpType</text><text fill="#000000" font-family="Arial" font-size="14" lengthAdjust="spacing" textLength="135" x="1733" y="359.4595">+inputs: UAValueMap</text><text fill="#000000" font-family="Arial" font-size="14" lengthAdjust="spacing" textLength="149" x="1733" y="375.5581">+expOuts: UAValueMap</text><text fill="#000000" font-family="Arial" font-size="14" lengthAdjust="spacing" textLength="78" x="1733" y="391.6567">+attach: any</text><text fill="#000000" font-family="Arial" font-size="14" lengthAdjust="spacing" textLength="95" x="1733" y="407.7554">+timeoutMs: int</text><line style="stroke:#181818;stroke-width:0.5;" x1="1728" x2="1887" y1="414.4932" y2="414.4932"/></g><!--class OpType--><g id="elem_OpType"><rect codeLine="70" fill="#F1F1F1" height="112.3945" id="OpType" rx="2.5" ry="2.5" style="stroke:#181818;stroke-width:0.5;" width="93" x="1873" y="7"/><ellipse cx="1892.5" cy="23" fill="#EB937F" rx="11" ry="11" style="stroke:#181818;stroke-width:1.0;"/><path d="M1891.3594,23.7969 L1891.3594,26.2969 L1895.6875,26.2969 L1895.6875,25.375 Q1895.6875,24.7656 1895.9297,24.5 Q1896.1719,24.2344 1896.5469,24.2344 Q1896.9219,24.2344 1897.1563,24.5 Q1897.3906,24.7656 1897.3906,25.375 L1897.3906,28 L1889.3906,28 Q1888.7656,28 1888.5078,27.7656 Q1888.25,27.5313 1888.25,27.1406 Q1888.25,26.7656 1888.5156,26.5313 Q1888.7813,26.2969 1889.3906,26.2969 L1889.6563,26.2969 L1889.6563,19.6406 L1889.3906,19.6406 Q1888.7656,19.6406 1888.5078,19.4063 Q1888.25,19.1719 1888.25,18.7813 Q1888.25,18.4063 1888.5078,18.1719 Q1888.7656,17.9375 1889.3906,17.9375 L1897.0156,17.9375 L1897.0156,20.5313 Q1897.0156,21.1406 1896.7891,21.3984 Q1896.5625,21.6563 1896.1719,21.6563 Q1895.7969,21.6563 1895.5625,21.3984 Q1895.3281,21.1406 1895.3281,20.5313 L1895.3281,19.6406 L1891.3594,19.6406 L1891.3594,22.0938 L1892.8438,22.0938 Q1892.8438,21.4375 1892.9688,21.25 Q1893.2344,20.8438 1893.7031,20.8438 Q1894.0781,20.8438 1894.3125,21.1016 Q1894.5469,21.3594 1894.5469,21.9688 L1894.5469,23.9375 Q1894.5469,24.4844 1894.4219,24.6719 Q1894.1563,25.0625 1893.7031,25.0625 Q1893.2344,25.0625 1892.9688,24.6563 Q1892.8438,24.4688 1892.8438,23.7969 L1891.3594,23.7969 Z " fill="#000000"/><text fill="#000000" font-family="Arial" font-size="14" lengthAdjust="spacing" textLength="51" x="1907.5" y="28.3115">OpType</text><line style="stroke:#181818;stroke-width:0.5;" x1="1874" x2="1965" y1="39" y2="39"/><text fill="#000000" font-family="Arial" font-size="14" lengthAdjust="spacing" textLength="81" x="1879" y="56.3608">KGIngestion,</text><text fill="#000000" font-family="Arial" font-size="14" lengthAdjust="spacing" textLength="65" x="1879" y="72.4595">WriteCSV,</text><text fill="#000000" font-family="Arial" font-size="14" lengthAdjust="spacing" textLength="75" x="1879" y="88.5581">CallMethod,</text><text fill="#000000" font-family="Arial" font-size="14" lengthAdjust="spacing" textLength="12" x="1879" y="104.6567">...</text><line style="stroke:#181818;stroke-width:0.5;" x1="1874" x2="1965" y1="111.3945" y2="111.3945"/></g><!--class KgIngestionParams--><g id="elem_KgIngestionParams"><rect codeLine="76" fill="#F1F1F1" height="128.4932" id="KgIngestionParams" rx="2.5" ry="2.5" style="stroke:#181818;stroke-width:0.5;" width="179" x="273" y="454"/><ellipse cx="299.25" cy="470" fill="#F1F1F1" rx="11" ry="11" style="stroke:#181818;stroke-width:1.0;"/><path d="M297.3594,474.5625 Q297.1406,474.8281 297,474.9063 Q296.8594,474.9844 296.6719,474.9844 Q296.2813,474.9844 296.0391,474.7188 Q295.7969,474.4531 295.7969,473.8594 L295.7969,472.7031 Q295.7969,472.0938 296.0391,471.8359 Q296.2813,471.5781 296.6719,471.5781 Q296.9688,471.5781 297.1719,471.7344 Q297.375,471.8906 297.4844,472.2578 Q297.5938,472.625 297.7031,472.7656 Q297.9531,473.0156 298.5625,473.2813 Q299.1719,473.5469 299.9063,473.5469 Q301.0469,473.5469 301.7656,473.0156 Q302.2344,472.6875 302.2344,472.2188 Q302.2344,471.9063 302.0156,471.625 Q301.7969,471.3438 301.2813,471.1719 Q300.9531,471.0469 299.7969,470.8281 Q298.4063,470.5625 297.6875,470.2031 Q296.9688,469.8438 296.5547,469.1797 Q296.1406,468.5156 296.1406,467.7344 Q296.1406,466.5156 297.1641,465.6016 Q298.1875,464.6875 299.8281,464.6875 Q300.4844,464.6875 301.0391,464.8281 Q301.5938,464.9688 302.0625,465.2656 Q302.3906,464.9531 302.7188,464.9531 Q303.0938,464.9531 303.3281,465.2109 Q303.5625,465.4688 303.5625,466.0781 L303.5625,467.3594 Q303.5625,467.9688 303.3281,468.2266 Q303.0938,468.4844 302.7188,468.4844 Q302.4063,468.4844 302.1719,468.2969 Q301.9844,468.1563 301.8984,467.7344 Q301.8125,467.3125 301.6719,467.125 Q301.4219,466.8125 300.9453,466.6016 Q300.4688,466.3906 299.8281,466.3906 Q298.9063,466.3906 298.375,466.8125 Q297.8438,467.2344 297.8438,467.7031 Q297.8438,468.0156 298.0625,468.3125 Q298.2813,468.6094 298.7031,468.7813 Q298.9844,468.8906 300.2891,469.1484 Q301.5938,469.4063 302.2969,469.7109 Q303,470.0156 303.4688,470.6719 Q303.9375,471.3281 303.9375,472.2344 Q303.9375,473.5 303.0469,474.25 Q301.8594,475.25 300.0313,475.25 Q299.3281,475.25 298.6641,475.0781 Q298,474.9063 297.3594,474.5625 Z " fill="#000000"/><text fill="#000000" font-family="Arial" font-size="14" lengthAdjust="spacing" textLength="122" x="315.75" y="475.3115">KgIngestionParams</text><line style="stroke:#181818;stroke-width:0.5;" x1="274" x2="451" y1="486" y2="486"/><text fill="#000000" font-family="Arial" font-size="14" lengthAdjust="spacing" textLength="76" x="279" y="503.3608">+corr: string</text><text fill="#000000" font-family="Arial" font-size="14" lengthAdjust="spacing" textLength="101" x="279" y="519.4595">+process: string</text><text fill="#000000" font-family="Arial" font-size="14" lengthAdjust="spacing" textLength="108" x="279" y="535.5581">+summary: string</text><text fill="#000000" font-family="Arial" font-size="14" lengthAdjust="spacing" textLength="167" x="279" y="551.6567">+snapshotWrapped: string</text><text fill="#000000" font-family="Arial" font-size="14" lengthAdjust="spacing" textLength="118" x="279" y="567.7554">+resourceId: string</text><line style="stroke:#181818;stroke-width:0.5;" x1="274" x2="451" y1="574.4932" y2="574.4932"/></g><!--class PLCMonitor--><g id="elem_PLCMonitor"><rect codeLine="84" fill="#F1F1F1" height="64.0986" id="PLCMonitor" rx="2.5" ry="2.5" style="stroke:#181818;stroke-width:0.5;" width="106" x="1605.5" y="326"/><ellipse cx="1620.5" cy="342" fill="#ADD1B2" rx="11" ry="11" style="stroke:#181818;stroke-width:1.0;"/><path d="M1623.2656,337.875 Q1623.4219,337.6563 1623.6094,337.5469 Q1623.7969,337.4375 1624.0156,337.4375 Q1624.3906,337.4375 1624.625,337.6953 Q1624.8594,337.9531 1624.8594,338.5625 L1624.8594,340.0156 Q1624.8594,340.625 1624.625,340.8906 Q1624.3906,341.1563 1624.0156,341.1563 Q1623.6719,341.1563 1623.4688,340.9531 Q1623.2656,340.7656 1623.1563,340.25 Q1623.1094,339.8906 1622.9219,339.7031 Q1622.5938,339.3281 1621.9844,339.1094 Q1621.375,338.8906 1620.75,338.8906 Q1619.9844,338.8906 1619.3516,339.2188 Q1618.7188,339.5469 1618.2266,340.2969 Q1617.7344,341.0469 1617.7344,342.0781 L1617.7344,343.1719 Q1617.7344,344.4063 1618.625,345.2266 Q1619.5156,346.0469 1621.1094,346.0469 Q1622.0469,346.0469 1622.7031,345.7969 Q1623.0938,345.6406 1623.5156,345.2031 Q1623.7813,344.9375 1623.9297,344.8594 Q1624.0781,344.7813 1624.2813,344.7813 Q1624.6094,344.7813 1624.8672,345.0391 Q1625.125,345.2969 1625.125,345.6406 Q1625.125,345.9844 1624.7813,346.3906 Q1624.2813,346.9688 1623.4844,347.2969 Q1622.4063,347.75 1621.1094,347.75 Q1619.5938,347.75 1618.3906,347.125 Q1617.4063,346.625 1616.7188,345.5547 Q1616.0313,344.4844 1616.0313,343.2031 L1616.0313,342.0469 Q1616.0313,340.7188 1616.6484,339.5703 Q1617.2656,338.4219 1618.3594,337.8047 Q1619.4531,337.1875 1620.6875,337.1875 Q1621.4219,337.1875 1622.0703,337.3516 Q1622.7188,337.5156 1623.2656,337.875 Z " fill="#000000"/><text fill="#000000" font-family="Arial" font-size="14" lengthAdjust="spacing" textLength="74" x="1634.5" y="347.3115">PLCMonitor</text><line style="stroke:#181818;stroke-width:0.5;" x1="1606.5" x2="1710.5" y1="358" y2="358"/><text fill="#000000" font-family="Arial" font-size="14" lengthAdjust="spacing" textLength="12" x="1611.5" y="375.3608">...</text><line style="stroke:#181818;stroke-width:0.5;" x1="1606.5" x2="1710.5" y1="382.0986" y2="382.0986"/></g><!--reverse link IWinnerFilter to MonitoringActionForce--><g id="link_IWinnerFilter_MonitoringActionForce"><path d="M1206.1239,250.8048 C1119.1239,274.5248 1017.19,302.3 930.26,325.99 " fill="none" id="IWinnerFilter-backto-MonitoringActionForce" style="stroke:#181818;stroke-width:1.0;stroke-dasharray:7.0,7.0;"/><polygon fill="none" points="1223.49,246.07,1204.5456,245.0161,1207.7021,256.5935,1223.49,246.07" style="stroke:#181818;stroke-width:1.0;"/></g><!--reverse link IWinnerFilter to SystemReactionForce--><g id="link_IWinnerFilter_SystemReactionForce"><path d="M1337.5,264.16 C1337.5,287.84 1337.5,302.25 1337.5,325.91 " fill="none" id="IWinnerFilter-backto-SystemReactionForce" style="stroke:#181818;stroke-width:1.0;stroke-dasharray:7.0,7.0;"/><polygon fill="none" points="1337.5,246.16,1331.5,264.16,1343.5,264.16,1337.5,246.16" style="stroke:#181818;stroke-width:1.0;"/></g><!--reverse link ICommandForce to KGIngestionForce--><g id="link_ICommandForce_KGIngestionForce"><path d="M649.0842,242.7877 C578.8642,264.3677 488.58,292.12 404.4,318 " fill="none" id="ICommandForce-backto-KGIngestionForce" style="stroke:#181818;stroke-width:1.0;stroke-dasharray:7.0,7.0;"/><polygon fill="none" points="666.29,237.5,647.3216,237.0524,650.8467,248.523,666.29,237.5" style="stroke:#181818;stroke-width:1.0;"/></g><!--link CommandForceFactory to ICommandForce--><g id="link_CommandForceFactory_ICommandForce"><path codeLine="89" d="M1148.7,111.04 C1034.72,139.44 895.91,174.03 812.78,194.74 " fill="none" id="CommandForceFactory-ICommandForce" style="stroke:#181818;stroke-width:1.0;"/></g><!--link CommandForceFactory to IWinnerFilter--><g id="link_CommandForceFactory_IWinnerFilter"><path codeLine="90" d="M1337.5,111.14 C1337.5,134.16 1337.5,155.23 1337.5,175.67 " fill="none" id="CommandForceFactory-to-IWinnerFilter" style="stroke:#181818;stroke-width:1.0;stroke-dasharray:7.0,7.0;"/><polygon fill="#181818" points="1337.5,181.67,1341.5,172.67,1337.5,176.67,1333.5,172.67,1337.5,181.67" style="stroke:#181818;stroke-width:1.0;"/><text fill="#000000" font-family="Arial" font-size="13" lengthAdjust="spacing" textLength="126" x="1366" y="140.4065">createWinnerFilter(...)</text><text fill="#000000" font-family="Arial" font-size="13" lengthAdjust="spacing" textLength="181" x="1338.5" y="155.3552">createSystemReactionFilter(...)</text></g><!--reverse link EventBus to Event--><g id="link_EventBus_Event"><path codeLine="91" d="M193.5,562.16 C193.5,580.86 193.5,593 193.5,613.98 " fill="none" id="EventBus-backto-Event" style="stroke:#181818;stroke-width:1.0;"/><polygon fill="none" points="193.5,550.16,189.5,556.16,193.5,562.16,197.5,556.16,193.5,550.16" style="stroke:#181818;stroke-width:1.0;"/><text fill="#000000" font-family="Arial" font-size="13" lengthAdjust="spacing" textLength="12" x="194.5" y="603.4065">ev</text></g><!--reverse link Plan to Operation--><g id="link_Plan_Operation"><path codeLine="92" d="M1788.7939,273.9874 C1791.0639,284.0774 1790.86,283.18 1793.25,293.75 " fill="none" id="Plan-backto-Operation" style="stroke:#181818;stroke-width:1.0;"/><polygon fill="none" points="1786.16,262.28,1783.5745,269.0116,1788.7939,273.9874,1791.3794,267.2557,1786.16,262.28" style="stroke:#181818;stroke-width:1.0;"/><text fill="#000000" font-family="Arial" font-size="13" lengthAdjust="spacing" textLength="21" x="1792.5" y="283.4065">ops</text></g><!--link IWinnerFilter to PLCMonitor--><g id="link_IWinnerFilter_PLCMonitor"><path codeLine="93" d="M1486.09,246.09 C1524.06,257.74 1563.68,273.35 1597.5,294 C1611.14,302.33 1619.8425,309.9735 1630.0925,321.3435 " fill="none" id="IWinnerFilter-to-PLCMonitor" style="stroke:#181818;stroke-width:1.0;"/><polygon fill="#181818" points="1634.11,325.8,1631.0548,316.437,1630.7621,322.0863,1625.1128,321.7936,1634.11,325.8" style="stroke:#181818;stroke-width:1.0;"/><text fill="#000000" font-family="Arial" font-size="13" lengthAdjust="spacing" textLength="28" x="1579.5" y="283.4065">uses</text></g><!--link CommandForceFactory to Plan--><g id="link_CommandForceFactory_Plan"><path codeLine="94" d="M1487.34,111.05 C1539.48,127.85 1598.24,147.27 1651.5,166 C1664.31,170.51 1672.1875,173.3354 1685.3675,178.2454 " fill="none" id="CommandForceFactory-to-Plan" style="stroke:#181818;stroke-width:1.0;"/><polygon fill="#181818" points="1690.99,180.34,1683.9526,173.4498,1686.3046,178.5945,1681.1598,180.9465,1690.99,180.34" style="stroke:#181818;stroke-width:1.0;"/><text fill="#000000" font-family="Arial" font-size="13" lengthAdjust="spacing" textLength="7" x="1627.5" y="147.9065">p</text></g><!--link KGIngestionForce to EventBus--><g id="link_KGIngestionForce_EventBus"><path codeLine="95" d="M219.43,398.09 C209.79,407.36 201.12,418.07 195.5,430 C187.39,447.22 186.27,462.5917 187.74,479.8217 " fill="none" id="KGIngestionForce-to-EventBus" style="stroke:#181818;stroke-width:1.0;stroke-dasharray:7.0,7.0;"/><polygon fill="#181818" points="188.25,485.8,191.4705,476.4925,187.825,480.8181,183.4994,477.1726,188.25,485.8" style="stroke:#181818;stroke-width:1.0;"/><text fill="#000000" font-family="Arial" font-size="13" lengthAdjust="spacing" textLength="147" x="196.5" y="443.4065">posts planned/done Acks</text></g><!--link KGIngestionForce to KgIngestionParams--><g id="link_KGIngestionForce_KgIngestionParams"><path codeLine="96" d="M320.71,398.13 C329.35,407.8 337.57,418.67 343.5,430 C347.37,437.4 348.7355,439.8002 351.1955,448.0502 " fill="none" id="KGIngestionForce-to-KgIngestionParams" style="stroke:#181818;stroke-width:1.0;stroke-dasharray:7.0,7.0;"/><polygon fill="#181818" points="352.91,453.8,354.1715,444.0323,351.4813,449.0085,346.505,446.3183,352.91,453.8" style="stroke:#181818;stroke-width:1.0;"/><text fill="#000000" font-family="Arial" font-size="13" lengthAdjust="spacing" textLength="161" x="351.5" y="443.4065">reads from Operation.attach</text></g><!--SRC=[pLRDRjj64BxpAUPaIOciE2YQ0v4AK8t841n7RfJQG56WM94ZQQ7bxcP_dCX1dYMNF4DEkUd5CbnI92KnRe0SMXuCxUpCVD_yhksQIyqCoy2kMAhUSRc41HCM8rlT989PEtBEyBbtE4cKdF5xXBEe0-FjroL2oYoatE3QmPB9Ur1pb81Snb6dzf9g3h-SdK7hHwuMswy6hbzTdBvuhvLnqELBgGn7-Zb73hERYrw3KueBveKRA-bUiGnXP3WJUt2rGc3xzDa-tD9ilsm_eK43kGxyHYZMqXbUefqpiqRk6dXIfMXHmzDVMybVIkLGihbrJAODCyFa-W6plv2BsgnZ4oQ8wU0PFFYHuRstsy_kNl1aXJ1RCq5vyd8PTLOyHS1CkmracCtHsAWZSE70AJ1ykNAXK8dZIaPEwLmyLywfh24d_wVqmOixfCJOZNMOGJVZacTCzC9TP9tnYIjLFaG0Zzr6Orm8tj3F8BBvNyqsGh4q1YOtqSSeT5EXzxktmHPWC1ZGrGvuSgwoZ38oLYP1U09ZbZXbDWKobmxDWj75lbeWWUyneHxjwXYk1PEz64Yz0ctgxtm6iyGWSqZogUugifrgD2pFHHyo9SdNo_Ch9JaPFEh3tDkuud_I1_KsXidKf6Z-yEZn4RMIz49ePmZUI_xMupzqUBv7TrZ3td8fqOoveBYw1t0dnt0BT5Hq4yF2or2lvrGB6jikpQMbSeN3IM_Otut06vwXykxAvcmiJHMc1yIQ31h4Pg7ohv45cFyFGMgKefub1t8tAYY6Hk2P5fWH7GjxXcMhFLuKWRmBLuHvXtadb2I9LQACYOjJ7xHH2Us5VCUKijwX1LJzTP2m_upDRevAf7fY3WVeYD27V1SPul_nnvYX26CoeUbkuKWP62NhtTKHrGRJomjYkKIREoF7OKuAjaLcBoyck-lZj1wj0KhheK7tf-QuyFczvR8B8XVIjggM1_s-pby1kxSoWrQnTTeIc5yOjCeJwNsfqdKHAemyYQNZ6hUnZwTwjupfIVAEFFmvkc72unNJnSBKqnOnSuubgs9bvxxg2Ir2HkcpqdT0QwIx3tI-DTpX-Umc7CwP45VeLYeDnsBNbwGlbvLXcQigDStOowPgYgodgflDdaWoRLVAtHgcDVvRIgirKdT5wslqkgnHMSQsH-JepMhL6Wo61oCNGyiJGEYzl-K3ApXNYAe7LErUwXZmBWhTbOkgReY16YVQnpqz7JQZfcLhqNudic7HiJ7ew6WAyuWg8gIXBCsZ9dLQuKzI9Ud_icHjs-sEAny3nPnQM1YLrVm7HIz6tm00]--></g></svg>