<?xml version="1.0" encoding="us-ascii" standalone="no"?><svg xmlns="http://www.w3.org/2000/svg" xmlns:xlink="http://www.w3.org/1999/xlink" contentStyleType="text/css" height="2887.5px" preserveAspectRatio="none" style="width:3665px;height:2887px;background:#FFFFFF;" version="1.1" viewBox="0 0 3665 2887" width="3665.625px" zoomAndPan="magnify"><defs/><g><!--class PLCMonitor--><g id="elem_PLCMonitor"><rect codeLine="12" fill="#F1F1F1" height="200.3082" id="PLCMonitor" rx="7.8125" ry="7.8125" style="stroke:#181818;stroke-width:1.5625;" width="331.25" x="337.5" y="2100"/><ellipse cx="384.375" cy="2150" fill="#ADD1B2" rx="34.375" ry="34.375" style="stroke:#181818;stroke-width:3.125;"/><path d="M393.0176,2137.1094 Q393.5059,2136.4258 394.0918,2136.084 Q394.6777,2135.7422 395.3613,2135.7422 Q396.5332,2135.7422 397.2656,2136.5479 Q397.998,2137.3535 397.998,2139.2578 L397.998,2143.7988 Q397.998,2145.7031 397.2656,2146.5332 Q396.5332,2147.3633 395.3613,2147.3633 Q394.2871,2147.3633 393.6523,2146.7285 Q393.0176,2146.1426 392.6758,2144.5313 Q392.5293,2143.4082 391.9434,2142.8223 Q390.918,2141.6504 389.0137,2140.9668 Q387.1094,2140.2832 385.1563,2140.2832 Q382.7637,2140.2832 380.7861,2141.3086 Q378.8086,2142.334 377.2705,2144.6777 Q375.7324,2147.0215 375.7324,2150.2441 L375.7324,2153.6621 Q375.7324,2157.5195 378.5156,2160.083 Q381.2988,2162.6465 386.2793,2162.6465 Q389.209,2162.6465 391.2598,2161.8652 Q392.4805,2161.377 393.7988,2160.0098 Q394.6289,2159.1797 395.0928,2158.9355 Q395.5566,2158.6914 396.1914,2158.6914 Q397.2168,2158.6914 398.0225,2159.4971 Q398.8281,2160.3027 398.8281,2161.377 Q398.8281,2162.4512 397.7539,2163.7207 Q396.1914,2165.5273 393.7012,2166.5527 Q390.332,2167.9688 386.2793,2167.9688 Q381.543,2167.9688 377.7832,2166.0156 Q374.707,2164.4531 372.5586,2161.1084 Q370.4102,2157.7637 370.4102,2153.7598 L370.4102,2150.1465 Q370.4102,2145.9961 372.3389,2142.4072 Q374.2676,2138.8184 377.6855,2136.8896 Q381.1035,2134.9609 384.9609,2134.9609 Q387.2559,2134.9609 389.2822,2135.4736 Q391.3086,2135.9863 393.0176,2137.1094 Z " fill="#000000"/><text fill="#000000" font-family="Arial" font-size="43.75" lengthAdjust="spacing" textLength="231.25" x="428.125" y="2166.5985">PLCMonitor</text><line style="stroke:#181818;stroke-width:1.5625;" x1="340.625" x2="665.625" y1="2200" y2="2200"/><text fill="#000000" font-family="Arial" font-size="43.75" lengthAdjust="spacing" textLength="37.5" x="356.25" y="2254.2526">...</text><line style="stroke:#181818;stroke-width:1.5625;" x1="340.625" x2="665.625" y1="2275.3082" y2="2275.3082"/></g><!--class EventBus--><g id="elem_EventBus"><rect codeLine="15" fill="#F1F1F1" height="200.3082" id="EventBus" rx="7.8125" ry="7.8125" style="stroke:#181818;stroke-width:1.5625;" width="287.5" x="21.875" y="1046.875"/><ellipse cx="68.75" cy="1096.875" fill="#ADD1B2" rx="34.375" ry="34.375" style="stroke:#181818;stroke-width:3.125;"/><path d="M77.3926,1083.9844 Q77.8809,1083.3008 78.4668,1082.959 Q79.0527,1082.6172 79.7363,1082.6172 Q80.9082,1082.6172 81.6406,1083.4229 Q82.373,1084.2285 82.373,1086.1328 L82.373,1090.6738 Q82.373,1092.5781 81.6406,1093.4082 Q80.9082,1094.2383 79.7363,1094.2383 Q78.6621,1094.2383 78.0273,1093.6035 Q77.3926,1093.0176 77.0508,1091.4063 Q76.9043,1090.2832 76.3184,1089.6973 Q75.293,1088.5254 73.3887,1087.8418 Q71.4844,1087.1582 69.5313,1087.1582 Q67.1387,1087.1582 65.1611,1088.1836 Q63.1836,1089.209 61.6455,1091.5527 Q60.1074,1093.8965 60.1074,1097.1191 L60.1074,1100.5371 Q60.1074,1104.3945 62.8906,1106.958 Q65.6738,1109.5215 70.6543,1109.5215 Q73.584,1109.5215 75.6348,1108.7402 Q76.8555,1108.252 78.1738,1106.8848 Q79.0039,1106.0547 79.4678,1105.8105 Q79.9316,1105.5664 80.5664,1105.5664 Q81.5918,1105.5664 82.3975,1106.3721 Q83.2031,1107.1777 83.2031,1108.252 Q83.2031,1109.3262 82.1289,1110.5957 Q80.5664,1112.4023 78.0762,1113.4277 Q74.707,1114.8438 70.6543,1114.8438 Q65.918,1114.8438 62.1582,1112.8906 Q59.082,1111.3281 56.9336,1107.9834 Q54.7852,1104.6387 54.7852,1100.6348 L54.7852,1097.0215 Q54.7852,1092.8711 56.7139,1089.2822 Q58.6426,1085.6934 62.0605,1083.7646 Q65.4785,1081.8359 69.3359,1081.8359 Q71.6309,1081.8359 73.6572,1082.3486 Q75.6836,1082.8613 77.3926,1083.9844 Z " fill="#000000"/><text fill="#000000" font-family="Arial" font-size="43.75" lengthAdjust="spacing" textLength="187.5" x="112.5" y="1113.4735">EventBus</text><line style="stroke:#181818;stroke-width:1.5625;" x1="25" x2="306.25" y1="1146.875" y2="1146.875"/><text fill="#000000" font-family="Arial" font-size="43.75" lengthAdjust="spacing" textLength="37.5" x="40.625" y="1201.1276">...</text><line style="stroke:#181818;stroke-width:1.5625;" x1="25" x2="306.25" y1="1222.1832" y2="1222.1832"/></g><!--class ICommandForce--><g id="elem_ICommandForce"><rect codeLine="19" fill="#F1F1F1" height="200.3082" id="ICommandForce" rx="7.8125" ry="7.8125" style="stroke:#181818;stroke-width:1.5625;" width="456.25" x="1187.5" y="559.375"/><ellipse cx="1247.0313" cy="609.375" fill="#B4A7E5" rx="34.375" ry="34.375" style="stroke:#181818;stroke-width:3.125;"/><path d="M1250.0098,598.877 L1250.0098,619.6777 L1255.3809,619.6777 Q1257.2852,619.6777 1258.1152,620.4102 Q1258.9453,621.1426 1258.9453,622.3633 Q1258.9453,623.5352 1258.1152,624.2676 Q1257.2852,625 1255.3809,625 L1239.3164,625 Q1237.4121,625 1236.582,624.2676 Q1235.752,623.5352 1235.752,622.3145 Q1235.752,621.1426 1236.582,620.4102 Q1237.4121,619.6777 1239.3164,619.6777 L1244.6875,619.6777 L1244.6875,598.877 L1239.3164,598.877 Q1237.4121,598.877 1236.582,598.1445 Q1235.752,597.4121 1235.752,596.1914 Q1235.752,595.0195 1236.582,594.2871 Q1237.4121,593.5547 1239.3164,593.5547 L1255.3809,593.5547 Q1257.2852,593.5547 1258.1152,594.2871 Q1258.9453,595.0195 1258.9453,596.1914 Q1258.9453,597.4121 1258.1152,598.1445 Q1257.2852,598.877 1255.3809,598.877 L1250.0098,598.877 Z " fill="#000000"/><text fill="#000000" font-family="Arial" font-size="43.75" font-style="italic" lengthAdjust="spacing" textLength="328.125" x="1293.5938" y="625.9735">ICommandForce</text><line style="stroke:#181818;stroke-width:1.5625;" x1="1190.625" x2="1640.625" y1="659.375" y2="659.375"/><line style="stroke:#181818;stroke-width:1.5625;" x1="1190.625" x2="1640.625" y1="684.375" y2="684.375"/><text fill="#000000" font-family="Arial" font-size="43.75" font-style="italic" lengthAdjust="spacing" textLength="418.75" x="1206.25" y="738.6276">+execute(p: Plan): int</text></g><!--class CommandForceFactory--><g id="elem_CommandForceFactory"><rect codeLine="24" fill="#F1F1F1" height="300.9247" id="CommandForceFactory" rx="7.8125" ry="7.8125" style="stroke:#181818;stroke-width:1.5625;" width="3253.125" x="145.3125" y="21.875"/><ellipse cx="1525.7813" cy="71.875" fill="#ADD1B2" rx="34.375" ry="34.375" style="stroke:#181818;stroke-width:3.125;"/><path d="M1534.4238,58.9844 Q1534.9121,58.3008 1535.498,57.959 Q1536.084,57.6172 1536.7676,57.6172 Q1537.9395,57.6172 1538.6719,58.4229 Q1539.4043,59.2285 1539.4043,61.1328 L1539.4043,65.6738 Q1539.4043,67.5781 1538.6719,68.4082 Q1537.9395,69.2383 1536.7676,69.2383 Q1535.6934,69.2383 1535.0586,68.6035 Q1534.4238,68.0176 1534.082,66.4063 Q1533.9355,65.2832 1533.3496,64.6973 Q1532.3242,63.5254 1530.4199,62.8418 Q1528.5156,62.1582 1526.5625,62.1582 Q1524.1699,62.1582 1522.1924,63.1836 Q1520.2148,64.209 1518.6768,66.5527 Q1517.1387,68.8965 1517.1387,72.1191 L1517.1387,75.5371 Q1517.1387,79.3945 1519.9219,81.958 Q1522.7051,84.5215 1527.6855,84.5215 Q1530.6152,84.5215 1532.666,83.7402 Q1533.8867,83.252 1535.2051,81.8848 Q1536.0352,81.0547 1536.499,80.8105 Q1536.9629,80.5664 1537.5977,80.5664 Q1538.623,80.5664 1539.4287,81.3721 Q1540.2344,82.1777 1540.2344,83.252 Q1540.2344,84.3262 1539.1602,85.5957 Q1537.5977,87.4023 1535.1074,88.4277 Q1531.7383,89.8438 1527.6855,89.8438 Q1522.9492,89.8438 1519.1895,87.8906 Q1516.1133,86.3281 1513.9648,82.9834 Q1511.8164,79.6387 1511.8164,75.6348 L1511.8164,72.0215 Q1511.8164,67.8711 1513.7451,64.2822 Q1515.6738,60.6934 1519.0918,58.7646 Q1522.5098,56.8359 1526.3672,56.8359 Q1528.6621,56.8359 1530.6885,57.3486 Q1532.7148,57.8613 1534.4238,58.9844 Z " fill="#000000"/><text fill="#000000" font-family="Arial" font-size="43.75" lengthAdjust="spacing" textLength="465.625" x="1589.8438" y="88.4735">CommandForceFactory</text><line style="stroke:#181818;stroke-width:1.5625;" x1="148.4375" x2="3395.3125" y1="121.875" y2="121.875"/><line style="stroke:#181818;stroke-width:1.5625;" x1="148.4375" x2="3395.3125" y1="146.875" y2="146.875"/><text fill="#000000" font-family="Arial" font-size="43.75" lengthAdjust="spacing" textLength="2459.375" x="164.0625" y="201.1276">+createForOp(op: Operation, mon: PLCMonitor*, bus: EventBus&amp;, oq: IOrderQueue* = nullptr): unique_ptr&lt;ICommandForce&gt;</text><text fill="#000000" font-family="Arial" font-size="43.75" lengthAdjust="spacing" textLength="3037.5" x="164.0625" y="251.4359">+createWinnerFilter(mon: PLCMonitor&amp;, bus: EventBus&amp;, fetcher: function&lt;string(const string&amp;)&gt;, defaultTimeoutMs: unsigned): unique_ptr&lt;IWinnerFilter&gt;</text><text fill="#000000" font-family="Arial" font-size="43.75" lengthAdjust="spacing" textLength="3215.625" x="164.0625" y="301.7441">+createSystemReactionFilter(mon: PLCMonitor&amp;, bus: EventBus&amp;, fetcher: function&lt;string(const string&amp;)&gt;, defaultTimeoutMs: unsigned): unique_ptr&lt;IWinnerFilter&gt;</text></g><!--class PLCCommandForce--><g id="elem_PLCCommandForce"><rect codeLine="31" fill="#F1F1F1" height="250.6165" id="PLCCommandForce" rx="7.8125" ry="7.8125" style="stroke:#181818;stroke-width:1.5625;" width="500" x="418.75" y="1021.875"/><ellipse cx="465.625" cy="1071.875" fill="#ADD1B2" rx="34.375" ry="34.375" style="stroke:#181818;stroke-width:3.125;"/><path d="M474.2676,1058.9844 Q474.7559,1058.3008 475.3418,1057.959 Q475.9277,1057.6172 476.6113,1057.6172 Q477.7832,1057.6172 478.5156,1058.4229 Q479.248,1059.2285 479.248,1061.1328 L479.248,1065.6738 Q479.248,1067.5781 478.5156,1068.4082 Q477.7832,1069.2383 476.6113,1069.2383 Q475.5371,1069.2383 474.9023,1068.6035 Q474.2676,1068.0176 473.9258,1066.4063 Q473.7793,1065.2832 473.1934,1064.6973 Q472.168,1063.5254 470.2637,1062.8418 Q468.3594,1062.1582 466.4063,1062.1582 Q464.0137,1062.1582 462.0361,1063.1836 Q460.0586,1064.209 458.5205,1066.5527 Q456.9824,1068.8965 456.9824,1072.1191 L456.9824,1075.5371 Q456.9824,1079.3945 459.7656,1081.958 Q462.5488,1084.5215 467.5293,1084.5215 Q470.459,1084.5215 472.5098,1083.7402 Q473.7305,1083.252 475.0488,1081.8848 Q475.8789,1081.0547 476.3428,1080.8105 Q476.8066,1080.5664 477.4414,1080.5664 Q478.4668,1080.5664 479.2725,1081.3721 Q480.0781,1082.1777 480.0781,1083.252 Q480.0781,1084.3262 479.0039,1085.5957 Q477.4414,1087.4023 474.9512,1088.4277 Q471.582,1089.8438 467.5293,1089.8438 Q462.793,1089.8438 459.0332,1087.8906 Q455.957,1086.3281 453.8086,1082.9834 Q451.6602,1079.6387 451.6602,1075.6348 L451.6602,1072.0215 Q451.6602,1067.8711 453.5889,1064.2822 Q455.5176,1060.6934 458.9355,1058.7646 Q462.3535,1056.8359 466.2109,1056.8359 Q468.5059,1056.8359 470.5322,1057.3486 Q472.5586,1057.8613 474.2676,1058.9844 Z " fill="#000000"/><text fill="#000000" font-family="Arial" font-size="43.75" lengthAdjust="spacing" textLength="400" x="509.375" y="1088.4735">PLCCommandForce</text><line style="stroke:#181818;stroke-width:1.5625;" x1="421.875" x2="915.625" y1="1121.875" y2="1121.875"/><text fill="#000000" font-family="Arial" font-size="43.75" lengthAdjust="spacing" textLength="37.5" x="437.5" y="1176.1276">...</text><line style="stroke:#181818;stroke-width:1.5625;" x1="421.875" x2="915.625" y1="1197.1832" y2="1197.1832"/><text fill="#000000" font-family="Arial" font-size="43.75" lengthAdjust="spacing" textLength="418.75" x="437.5" y="1251.4359">+execute(p: Plan): int</text></g><!--class WriteCsvForce--><g id="elem_WriteCsvForce"><rect codeLine="35" fill="#F1F1F1" height="250.6165" id="WriteCsvForce" rx="7.8125" ry="7.8125" style="stroke:#181818;stroke-width:1.5625;" width="456.25" x="1028.125" y="1021.875"/><ellipse cx="1103.125" cy="1071.875" fill="#ADD1B2" rx="34.375" ry="34.375" style="stroke:#181818;stroke-width:3.125;"/><path d="M1111.7676,1058.9844 Q1112.2559,1058.3008 1112.8418,1057.959 Q1113.4277,1057.6172 1114.1113,1057.6172 Q1115.2832,1057.6172 1116.0156,1058.4229 Q1116.748,1059.2285 1116.748,1061.1328 L1116.748,1065.6738 Q1116.748,1067.5781 1116.0156,1068.4082 Q1115.2832,1069.2383 1114.1113,1069.2383 Q1113.0371,1069.2383 1112.4023,1068.6035 Q1111.7676,1068.0176 1111.4258,1066.4063 Q1111.2793,1065.2832 1110.6934,1064.6973 Q1109.668,1063.5254 1107.7637,1062.8418 Q1105.8594,1062.1582 1103.9063,1062.1582 Q1101.5137,1062.1582 1099.5361,1063.1836 Q1097.5586,1064.209 1096.0205,1066.5527 Q1094.4824,1068.8965 1094.4824,1072.1191 L1094.4824,1075.5371 Q1094.4824,1079.3945 1097.2656,1081.958 Q1100.0488,1084.5215 1105.0293,1084.5215 Q1107.959,1084.5215 1110.0098,1083.7402 Q1111.2305,1083.252 1112.5488,1081.8848 Q1113.3789,1081.0547 1113.8428,1080.8105 Q1114.3066,1080.5664 1114.9414,1080.5664 Q1115.9668,1080.5664 1116.7725,1081.3721 Q1117.5781,1082.1777 1117.5781,1083.252 Q1117.5781,1084.3262 1116.5039,1085.5957 Q1114.9414,1087.4023 1112.4512,1088.4277 Q1109.082,1089.8438 1105.0293,1089.8438 Q1100.293,1089.8438 1096.5332,1087.8906 Q1093.457,1086.3281 1091.3086,1082.9834 Q1089.1602,1079.6387 1089.1602,1075.6348 L1089.1602,1072.0215 Q1089.1602,1067.8711 1091.0889,1064.2822 Q1093.0176,1060.6934 1096.4355,1058.7646 Q1099.8535,1056.8359 1103.7109,1056.8359 Q1106.0059,1056.8359 1108.0322,1057.3486 Q1110.0586,1057.8613 1111.7676,1058.9844 Z " fill="#000000"/><text fill="#000000" font-family="Arial" font-size="43.75" lengthAdjust="spacing" textLength="293.75" x="1153.125" y="1088.4735">WriteCsvForce</text><line style="stroke:#181818;stroke-width:1.5625;" x1="1031.25" x2="1481.25" y1="1121.875" y2="1121.875"/><text fill="#000000" font-family="Arial" font-size="43.75" lengthAdjust="spacing" textLength="37.5" x="1046.875" y="1176.1276">...</text><line style="stroke:#181818;stroke-width:1.5625;" x1="1031.25" x2="1481.25" y1="1197.1832" y2="1197.1832"/><text fill="#000000" font-family="Arial" font-size="43.75" lengthAdjust="spacing" textLength="418.75" x="1046.875" y="1251.4359">+execute(p: Plan): int</text></g><!--class KGIngestionForce--><g id="elem_KGIngestionForce"><rect codeLine="39" fill="#F1F1F1" height="250.6165" id="KGIngestionForce" rx="7.8125" ry="7.8125" style="stroke:#181818;stroke-width:1.5625;" width="456.25" x="1593.75" y="1021.875"/><ellipse cx="1640.625" cy="1071.875" fill="#ADD1B2" rx="34.375" ry="34.375" style="stroke:#181818;stroke-width:3.125;"/><path d="M1649.2676,1058.9844 Q1649.7559,1058.3008 1650.3418,1057.959 Q1650.9277,1057.6172 1651.6113,1057.6172 Q1652.7832,1057.6172 1653.5156,1058.4229 Q1654.248,1059.2285 1654.248,1061.1328 L1654.248,1065.6738 Q1654.248,1067.5781 1653.5156,1068.4082 Q1652.7832,1069.2383 1651.6113,1069.2383 Q1650.5371,1069.2383 1649.9023,1068.6035 Q1649.2676,1068.0176 1648.9258,1066.4063 Q1648.7793,1065.2832 1648.1934,1064.6973 Q1647.168,1063.5254 1645.2637,1062.8418 Q1643.3594,1062.1582 1641.4063,1062.1582 Q1639.0137,1062.1582 1637.0361,1063.1836 Q1635.0586,1064.209 1633.5205,1066.5527 Q1631.9824,1068.8965 1631.9824,1072.1191 L1631.9824,1075.5371 Q1631.9824,1079.3945 1634.7656,1081.958 Q1637.5488,1084.5215 1642.5293,1084.5215 Q1645.459,1084.5215 1647.5098,1083.7402 Q1648.7305,1083.252 1650.0488,1081.8848 Q1650.8789,1081.0547 1651.3428,1080.8105 Q1651.8066,1080.5664 1652.4414,1080.5664 Q1653.4668,1080.5664 1654.2725,1081.3721 Q1655.0781,1082.1777 1655.0781,1083.252 Q1655.0781,1084.3262 1654.0039,1085.5957 Q1652.4414,1087.4023 1649.9512,1088.4277 Q1646.582,1089.8438 1642.5293,1089.8438 Q1637.793,1089.8438 1634.0332,1087.8906 Q1630.957,1086.3281 1628.8086,1082.9834 Q1626.6602,1079.6387 1626.6602,1075.6348 L1626.6602,1072.0215 Q1626.6602,1067.8711 1628.5889,1064.2822 Q1630.5176,1060.6934 1633.9355,1058.7646 Q1637.3535,1056.8359 1641.2109,1056.8359 Q1643.5059,1056.8359 1645.5322,1057.3486 Q1647.5586,1057.8613 1649.2676,1058.9844 Z " fill="#000000"/><text fill="#000000" font-family="Arial" font-size="43.75" lengthAdjust="spacing" textLength="356.25" x="1684.375" y="1088.4735">KGIngestionForce</text><line style="stroke:#181818;stroke-width:1.5625;" x1="1596.875" x2="2046.875" y1="1121.875" y2="1121.875"/><text fill="#000000" font-family="Arial" font-size="43.75" lengthAdjust="spacing" textLength="37.5" x="1612.5" y="1176.1276">...</text><line style="stroke:#181818;stroke-width:1.5625;" x1="1596.875" x2="2046.875" y1="1197.1832" y2="1197.1832"/><text fill="#000000" font-family="Arial" font-size="43.75" lengthAdjust="spacing" textLength="418.75" x="1612.5" y="1251.4359">+execute(p: Plan): int</text></g><!--class KgIngestionParams--><g id="elem_KgIngestionParams"><rect codeLine="44" fill="#F1F1F1" height="401.5411" id="KgIngestionParams" rx="7.8125" ry="7.8125" style="stroke:#181818;stroke-width:1.5625;" width="559.375" x="779.6875" y="2000"/><ellipse cx="861.7188" cy="2050" fill="#F1F1F1" rx="34.375" ry="34.375" style="stroke:#181818;stroke-width:3.125;"/><path d="M855.8105,2064.2578 Q855.127,2065.0879 854.6875,2065.332 Q854.248,2065.5762 853.6621,2065.5762 Q852.4414,2065.5762 851.6846,2064.7461 Q850.9277,2063.916 850.9277,2062.0605 L850.9277,2058.4473 Q850.9277,2056.543 851.6846,2055.7373 Q852.4414,2054.9316 853.6621,2054.9316 Q854.5898,2054.9316 855.2246,2055.4199 Q855.8594,2055.9082 856.2012,2057.0557 Q856.543,2058.2031 856.8848,2058.6426 Q857.666,2059.4238 859.5703,2060.2539 Q861.4746,2061.084 863.7695,2061.084 Q867.334,2061.084 869.5801,2059.4238 Q871.0449,2058.3984 871.0449,2056.9336 Q871.0449,2055.957 870.3613,2055.0781 Q869.6777,2054.1992 868.0664,2053.6621 Q867.041,2053.2715 863.4277,2052.5879 Q859.082,2051.7578 856.8359,2050.6348 Q854.5898,2049.5117 853.2959,2047.4365 Q852.002,2045.3613 852.002,2042.9199 Q852.002,2039.1113 855.2002,2036.2549 Q858.3984,2033.3984 863.5254,2033.3984 Q865.5762,2033.3984 867.3096,2033.8379 Q869.043,2034.2773 870.5078,2035.2051 Q871.5332,2034.2285 872.5586,2034.2285 Q873.7305,2034.2285 874.4629,2035.0342 Q875.1953,2035.8398 875.1953,2037.7441 L875.1953,2041.748 Q875.1953,2043.6523 874.4629,2044.458 Q873.7305,2045.2637 872.5586,2045.2637 Q871.582,2045.2637 870.8496,2044.6777 Q870.2637,2044.2383 869.9951,2042.9199 Q869.7266,2041.6016 869.2871,2041.0156 Q868.5059,2040.0391 867.0166,2039.3799 Q865.5273,2038.7207 863.5254,2038.7207 Q860.6445,2038.7207 858.9844,2040.0391 Q857.3242,2041.3574 857.3242,2042.8223 Q857.3242,2043.7988 858.0078,2044.7266 Q858.6914,2045.6543 860.0098,2046.1914 Q860.8887,2046.5332 864.9658,2047.3389 Q869.043,2048.1445 871.2402,2049.0967 Q873.4375,2050.0488 874.9023,2052.0996 Q876.3672,2054.1504 876.3672,2056.9824 Q876.3672,2060.9375 873.584,2063.2813 Q869.873,2066.4063 864.1602,2066.4063 Q861.9629,2066.4063 859.8877,2065.8691 Q857.8125,2065.332 855.8105,2064.2578 Z " fill="#000000"/><text fill="#000000" font-family="Arial" font-size="43.75" lengthAdjust="spacing" textLength="381.25" x="913.2813" y="2066.5985">KgIngestionParams</text><line style="stroke:#181818;stroke-width:1.5625;" x1="782.8125" x2="1335.9375" y1="2100" y2="2100"/><text fill="#000000" font-family="Arial" font-size="43.75" lengthAdjust="spacing" textLength="237.5" x="798.4375" y="2154.2526">+corr: string</text><text fill="#000000" font-family="Arial" font-size="43.75" lengthAdjust="spacing" textLength="315.625" x="798.4375" y="2204.5609">+process: string</text><text fill="#000000" font-family="Arial" font-size="43.75" lengthAdjust="spacing" textLength="337.5" x="798.4375" y="2254.8691">+summary: string</text><text fill="#000000" font-family="Arial" font-size="43.75" lengthAdjust="spacing" textLength="521.875" x="798.4375" y="2305.1773">+snapshotWrapped: string</text><text fill="#000000" font-family="Arial" font-size="43.75" lengthAdjust="spacing" textLength="368.75" x="798.4375" y="2355.4855">+resourceId: string</text><line style="stroke:#181818;stroke-width:1.5625;" x1="782.8125" x2="1335.9375" y1="2376.5411" y2="2376.5411"/></g><!--class Plan--><g id="elem_Plan"><rect codeLine="52" fill="#F1F1F1" height="300.9247" id="Plan" rx="7.8125" ry="7.8125" style="stroke:#181818;stroke-width:1.5625;" width="528.125" x="2160.9375" y="996.875"/><ellipse cx="2367.9688" cy="1046.875" fill="#F1F1F1" rx="34.375" ry="34.375" style="stroke:#181818;stroke-width:3.125;"/><path d="M2362.0605,1061.1328 Q2361.377,1061.9629 2360.9375,1062.207 Q2360.498,1062.4512 2359.9121,1062.4512 Q2358.6914,1062.4512 2357.9346,1061.6211 Q2357.1777,1060.791 2357.1777,1058.9355 L2357.1777,1055.3223 Q2357.1777,1053.418 2357.9346,1052.6123 Q2358.6914,1051.8066 2359.9121,1051.8066 Q2360.8398,1051.8066 2361.4746,1052.2949 Q2362.1094,1052.7832 2362.4512,1053.9307 Q2362.793,1055.0781 2363.1348,1055.5176 Q2363.916,1056.2988 2365.8203,1057.1289 Q2367.7246,1057.959 2370.0195,1057.959 Q2373.584,1057.959 2375.8301,1056.2988 Q2377.2949,1055.2734 2377.2949,1053.8086 Q2377.2949,1052.832 2376.6113,1051.9531 Q2375.9277,1051.0742 2374.3164,1050.5371 Q2373.291,1050.1465 2369.6777,1049.4629 Q2365.332,1048.6328 2363.0859,1047.5098 Q2360.8398,1046.3867 2359.5459,1044.3115 Q2358.252,1042.2363 2358.252,1039.7949 Q2358.252,1035.9863 2361.4502,1033.1299 Q2364.6484,1030.2734 2369.7754,1030.2734 Q2371.8262,1030.2734 2373.5596,1030.7129 Q2375.293,1031.1523 2376.7578,1032.0801 Q2377.7832,1031.1035 2378.8086,1031.1035 Q2379.9805,1031.1035 2380.7129,1031.9092 Q2381.4453,1032.7148 2381.4453,1034.6191 L2381.4453,1038.623 Q2381.4453,1040.5273 2380.7129,1041.333 Q2379.9805,1042.1387 2378.8086,1042.1387 Q2377.832,1042.1387 2377.0996,1041.5527 Q2376.5137,1041.1133 2376.2451,1039.7949 Q2375.9766,1038.4766 2375.5371,1037.8906 Q2374.7559,1036.9141 2373.2666,1036.2549 Q2371.7773,1035.5957 2369.7754,1035.5957 Q2366.8945,1035.5957 2365.2344,1036.9141 Q2363.5742,1038.2324 2363.5742,1039.6973 Q2363.5742,1040.6738 2364.2578,1041.6016 Q2364.9414,1042.5293 2366.2598,1043.0664 Q2367.1387,1043.4082 2371.2158,1044.2139 Q2375.293,1045.0195 2377.4902,1045.9717 Q2379.6875,1046.9238 2381.1523,1048.9746 Q2382.6172,1051.0254 2382.6172,1053.8574 Q2382.6172,1057.8125 2379.834,1060.1563 Q2376.123,1063.2813 2370.4102,1063.2813 Q2368.2129,1063.2813 2366.1377,1062.7441 Q2364.0625,1062.207 2362.0605,1061.1328 Z " fill="#000000"/><text fill="#000000" font-family="Arial" font-size="43.75" lengthAdjust="spacing" textLength="87.5" x="2432.0313" y="1063.4735">Plan</text><line style="stroke:#181818;stroke-width:1.5625;" x1="2164.0625" x2="2685.9375" y1="1096.875" y2="1096.875"/><text fill="#000000" font-family="Arial" font-size="43.75" lengthAdjust="spacing" textLength="403.125" x="2179.6875" y="1151.1276">+correlationId: string</text><text fill="#000000" font-family="Arial" font-size="43.75" lengthAdjust="spacing" textLength="368.75" x="2179.6875" y="1201.4359">+resourceId: string</text><text fill="#000000" font-family="Arial" font-size="43.75" lengthAdjust="spacing" textLength="490.625" x="2179.6875" y="1251.7441">+ops: vector&lt;Operation&gt;</text><line style="stroke:#181818;stroke-width:1.5625;" x1="2164.0625" x2="2685.9375" y1="1272.7997" y2="1272.7997"/></g><!--class Operation--><g id="elem_Operation"><rect codeLine="58" fill="#F1F1F1" height="401.5411" id="Operation" rx="7.8125" ry="7.8125" style="stroke:#181818;stroke-width:1.5625;" width="503.125" x="3142.1875" y="2000"/><ellipse cx="3282.0313" cy="2050" fill="#F1F1F1" rx="34.375" ry="34.375" style="stroke:#181818;stroke-width:3.125;"/><path d="M3276.123,2064.2578 Q3275.4395,2065.0879 3275,2065.332 Q3274.5605,2065.5762 3273.9746,2065.5762 Q3272.7539,2065.5762 3271.9971,2064.7461 Q3271.2402,2063.916 3271.2402,2062.0605 L3271.2402,2058.4473 Q3271.2402,2056.543 3271.9971,2055.7373 Q3272.7539,2054.9316 3273.9746,2054.9316 Q3274.9023,2054.9316 3275.5371,2055.4199 Q3276.1719,2055.9082 3276.5137,2057.0557 Q3276.8555,2058.2031 3277.1973,2058.6426 Q3277.9785,2059.4238 3279.8828,2060.2539 Q3281.7871,2061.084 3284.082,2061.084 Q3287.6465,2061.084 3289.8926,2059.4238 Q3291.3574,2058.3984 3291.3574,2056.9336 Q3291.3574,2055.957 3290.6738,2055.0781 Q3289.9902,2054.1992 3288.3789,2053.6621 Q3287.3535,2053.2715 3283.7402,2052.5879 Q3279.3945,2051.7578 3277.1484,2050.6348 Q3274.9023,2049.5117 3273.6084,2047.4365 Q3272.3145,2045.3613 3272.3145,2042.9199 Q3272.3145,2039.1113 3275.5127,2036.2549 Q3278.7109,2033.3984 3283.8379,2033.3984 Q3285.8887,2033.3984 3287.6221,2033.8379 Q3289.3555,2034.2773 3290.8203,2035.2051 Q3291.8457,2034.2285 3292.8711,2034.2285 Q3294.043,2034.2285 3294.7754,2035.0342 Q3295.5078,2035.8398 3295.5078,2037.7441 L3295.5078,2041.748 Q3295.5078,2043.6523 3294.7754,2044.458 Q3294.043,2045.2637 3292.8711,2045.2637 Q3291.8945,2045.2637 3291.1621,2044.6777 Q3290.5762,2044.2383 3290.3076,2042.9199 Q3290.0391,2041.6016 3289.5996,2041.0156 Q3288.8184,2040.0391 3287.3291,2039.3799 Q3285.8398,2038.7207 3283.8379,2038.7207 Q3280.957,2038.7207 3279.2969,2040.0391 Q3277.6367,2041.3574 3277.6367,2042.8223 Q3277.6367,2043.7988 3278.3203,2044.7266 Q3279.0039,2045.6543 3280.3223,2046.1914 Q3281.2012,2046.5332 3285.2783,2047.3389 Q3289.3555,2048.1445 3291.5527,2049.0967 Q3293.75,2050.0488 3295.2148,2052.0996 Q3296.6797,2054.1504 3296.6797,2056.9824 Q3296.6797,2060.9375 3293.8965,2063.2813 Q3290.1855,2066.4063 3284.4727,2066.4063 Q3282.2754,2066.4063 3280.2002,2065.8691 Q3278.125,2065.332 3276.123,2064.2578 Z " fill="#000000"/><text fill="#000000" font-family="Arial" font-size="43.75" lengthAdjust="spacing" textLength="196.875" x="3346.0938" y="2066.5985">Operation</text><line style="stroke:#181818;stroke-width:1.5625;" x1="3145.3125" x2="3642.1875" y1="2100" y2="2100"/><text fill="#000000" font-family="Arial" font-size="43.75" lengthAdjust="spacing" textLength="293.75" x="3160.9375" y="2154.2526">+type: OpType</text><text fill="#000000" font-family="Arial" font-size="43.75" lengthAdjust="spacing" textLength="421.875" x="3160.9375" y="2204.5609">+inputs: UAValueMap</text><text fill="#000000" font-family="Arial" font-size="43.75" lengthAdjust="spacing" textLength="465.625" x="3160.9375" y="2254.8691">+expOuts: UAValueMap</text><text fill="#000000" font-family="Arial" font-size="43.75" lengthAdjust="spacing" textLength="243.75" x="3160.9375" y="2305.1773">+attach: any</text><text fill="#000000" font-family="Arial" font-size="43.75" lengthAdjust="spacing" textLength="296.875" x="3160.9375" y="2355.4855">+timeoutMs: int</text><line style="stroke:#181818;stroke-width:1.5625;" x1="3145.3125" x2="3642.1875" y1="2376.5411" y2="2376.5411"/></g><!--class OpType--><g id="elem_OpType"><rect codeLine="65" fill="#F1F1F1" height="703.3905" id="OpType" rx="7.8125" ry="7.8125" style="stroke:#181818;stroke-width:1.5625;" width="396.875" x="2635.9375" y="1848.4375"/><ellipse cx="2744.6875" cy="1898.4375" fill="#EB937F" rx="34.375" ry="34.375" style="stroke:#181818;stroke-width:3.125;"/><path d="M2741.123,1900.9277 L2741.123,1908.7402 L2754.6484,1908.7402 L2754.6484,1905.8594 Q2754.6484,1903.9551 2755.4053,1903.125 Q2756.1621,1902.2949 2757.334,1902.2949 Q2758.5059,1902.2949 2759.2383,1903.125 Q2759.9707,1903.9551 2759.9707,1905.8594 L2759.9707,1914.0625 L2734.9707,1914.0625 Q2733.0176,1914.0625 2732.2119,1913.3301 Q2731.4063,1912.5977 2731.4063,1911.377 Q2731.4063,1910.2051 2732.2363,1909.4727 Q2733.0664,1908.7402 2734.9707,1908.7402 L2735.8008,1908.7402 L2735.8008,1887.9395 L2734.9707,1887.9395 Q2733.0176,1887.9395 2732.2119,1887.207 Q2731.4063,1886.4746 2731.4063,1885.2539 Q2731.4063,1884.082 2732.2119,1883.3496 Q2733.0176,1882.6172 2734.9707,1882.6172 L2758.7988,1882.6172 L2758.7988,1890.7227 Q2758.7988,1892.627 2758.0908,1893.4326 Q2757.3828,1894.2383 2756.1621,1894.2383 Q2754.9902,1894.2383 2754.2578,1893.4326 Q2753.5254,1892.627 2753.5254,1890.7227 L2753.5254,1887.9395 L2741.123,1887.9395 L2741.123,1895.6055 L2745.7617,1895.6055 Q2745.7617,1893.5547 2746.1523,1892.9688 Q2746.9824,1891.6992 2748.4473,1891.6992 Q2749.6191,1891.6992 2750.3516,1892.5049 Q2751.084,1893.3105 2751.084,1895.2148 L2751.084,1901.3672 Q2751.084,1903.0762 2750.6934,1903.6621 Q2749.8633,1904.8828 2748.4473,1904.8828 Q2746.9824,1904.8828 2746.1523,1903.6133 Q2745.7617,1903.0273 2745.7617,1900.9277 L2741.123,1900.9277 Z " fill="#000000"/><text fill="#000000" font-family="Arial" font-size="43.75" lengthAdjust="spacing" textLength="159.375" x="2802.1875" y="1915.036">OpType</text><line style="stroke:#181818;stroke-width:1.5625;" x1="2639.0625" x2="3029.6875" y1="1948.4375" y2="1948.4375"/><text fill="#000000" font-family="Arial" font-size="43.75" lengthAdjust="spacing" textLength="203.125" x="2654.6875" y="2002.6901">WriteBool,</text><text fill="#000000" font-family="Arial" font-size="43.75" lengthAdjust="spacing" textLength="209.375" x="2654.6875" y="2052.9984">PulseBool,</text><text fill="#000000" font-family="Arial" font-size="43.75" lengthAdjust="spacing" textLength="212.5" x="2654.6875" y="2103.3066">WriteInt32,</text><text fill="#000000" font-family="Arial" font-size="43.75" lengthAdjust="spacing" textLength="234.375" x="2654.6875" y="2153.6148">CallMethod,</text><text fill="#000000" font-family="Arial" font-size="43.75" lengthAdjust="spacing" textLength="156.25" x="2654.6875" y="2203.923">WaitMs,</text><text fill="#000000" font-family="Arial" font-size="43.75" lengthAdjust="spacing" textLength="243.75" x="2654.6875" y="2254.2313">ReadCheck,</text><text fill="#000000" font-family="Arial" font-size="43.75" lengthAdjust="spacing" textLength="309.375" x="2654.6875" y="2304.5395">BlockResource,</text><text fill="#000000" font-family="Arial" font-size="43.75" lengthAdjust="spacing" textLength="309.375" x="2654.6875" y="2354.8477">RerouteOrders,</text><text fill="#000000" font-family="Arial" font-size="43.75" lengthAdjust="spacing" textLength="359.375" x="2654.6875" y="2405.1559">UnblockResource,</text><text fill="#000000" font-family="Arial" font-size="43.75" lengthAdjust="spacing" textLength="253.125" x="2654.6875" y="2455.4642">KGIngestion,</text><text fill="#000000" font-family="Arial" font-size="43.75" lengthAdjust="spacing" textLength="190.625" x="2654.6875" y="2505.7724">WriteCSV</text><line style="stroke:#181818;stroke-width:1.5625;" x1="2639.0625" x2="3029.6875" y1="2526.828" y2="2526.828"/></g><!--class KG_Interface--><g id="elem_KG_Interface"><rect codeLine="80" fill="#F1F1F1" height="1331.7688" id="KG_Interface" rx="7.8125" ry="7.8125" style="stroke:#181818;stroke-width:1.5625;" width="1075" x="1450" y="1534.375"/><ellipse cx="1844.5313" cy="1596.7148" fill="#ADD1B2" rx="34.375" ry="34.375" style="stroke:#181818;stroke-width:3.125;"/><path d="M1853.1738,1583.8242 Q1853.6621,1583.1406 1854.248,1582.7988 Q1854.834,1582.457 1855.5176,1582.457 Q1856.6895,1582.457 1857.4219,1583.2626 Q1858.1543,1584.0683 1858.1543,1585.9726 L1858.1543,1590.5136 Q1858.1543,1592.4179 1857.4219,1593.248 Q1856.6895,1594.0781 1855.5176,1594.0781 Q1854.4434,1594.0781 1853.8086,1593.4433 Q1853.1738,1592.8574 1852.832,1591.246 Q1852.6855,1590.123 1852.0996,1589.537 Q1851.0742,1588.3652 1849.1699,1587.6816 Q1847.2656,1586.998 1845.3125,1586.998 Q1842.9199,1586.998 1840.9424,1588.0234 Q1838.9648,1589.0488 1837.4268,1591.3925 Q1835.8887,1593.7363 1835.8887,1596.9589 L1835.8887,1600.3769 Q1835.8887,1604.2343 1838.6719,1606.7978 Q1841.4551,1609.3613 1846.4355,1609.3613 Q1849.3652,1609.3613 1851.416,1608.58 Q1852.6367,1608.0917 1853.9551,1606.7245 Q1854.7852,1605.8945 1855.249,1605.6503 Q1855.7129,1605.4062 1856.3477,1605.4062 Q1857.373,1605.4062 1858.1787,1606.2119 Q1858.9844,1607.0175 1858.9844,1608.0917 Q1858.9844,1609.166 1857.9102,1610.4355 Q1856.3477,1612.2421 1853.8574,1613.2675 Q1850.4883,1614.6835 1846.4355,1614.6835 Q1841.6992,1614.6835 1837.9395,1612.7304 Q1834.8633,1611.1679 1832.7148,1607.8232 Q1830.5664,1604.4785 1830.5664,1600.4745 L1830.5664,1596.8613 Q1830.5664,1592.7109 1832.4951,1589.122 Q1834.4238,1585.5331 1837.8418,1583.6044 Q1841.2598,1581.6757 1845.1172,1581.6757 Q1847.4121,1581.6757 1849.4385,1582.1884 Q1851.4648,1582.7011 1853.1738,1583.8242 Z " fill="#000000"/><text fill="#000000" font-family="Arial" font-size="37.5" font-style="italic" lengthAdjust="spacing" textLength="162.5" x="1957.0313" y="1585.788">&#171;Python&#187;</text><text fill="#000000" font-family="Arial" font-size="43.75" lengthAdjust="spacing" textLength="259.375" x="1908.5938" y="1634.874">KG_Interface</text><line style="stroke:#181818;stroke-width:1.5625;" x1="1453.125" x2="2521.875" y1="1659.0546" y2="1659.0546"/><text fill="#000000" font-family="Arial" font-size="43.75" lengthAdjust="spacing" textLength="371.875" x="1468.75" y="1713.3072">-ontology_path: str</text><text fill="#000000" font-family="Arial" font-size="43.75" lengthAdjust="spacing" textLength="212.5" x="1468.75" y="1763.6154">-ont_iri: str</text><text fill="#000000" font-family="Arial" font-size="43.75" lengthAdjust="spacing" textLength="321.875" x="1468.75" y="1813.9236">-class_prefix: str</text><text fill="#000000" font-family="Arial" font-size="43.75" lengthAdjust="spacing" textLength="271.875" x="1468.75" y="1864.2319">-op_prefix: str</text><text fill="#000000" font-family="Arial" font-size="43.75" lengthAdjust="spacing" textLength="271.875" x="1468.75" y="1914.5401">-dp_prefix: str</text><text fill="#000000" font-family="Arial" font-size="43.75" lengthAdjust="spacing" textLength="390.625" x="1468.75" y="1964.8483">-graph: rdflib.Graph</text><text fill="#000000" font-family="Arial" font-size="43.75" lengthAdjust="spacing" textLength="678.125" x="1468.75" y="2015.1566">-CL: rdflib.namespace.Namespace</text><text fill="#000000" font-family="Arial" font-size="43.75" lengthAdjust="spacing" textLength="684.375" x="1468.75" y="2065.4648">-OP: rdflib.namespace.Namespace</text><text fill="#000000" font-family="Arial" font-size="43.75" lengthAdjust="spacing" textLength="681.25" x="1468.75" y="2115.773">-DP: rdflib.namespace.Namespace</text><text fill="#000000" font-family="Arial" font-size="43.75" lengthAdjust="spacing" textLength="121.875" x="1468.75" y="2166.0812">id: str,</text><text fill="#000000" font-family="Arial" font-size="43.75" lengthAdjust="spacing" textLength="481.25" x="1468.75" y="2216.3895">failureModeIRI: str|None,</text><text fill="#000000" font-family="Arial" font-size="43.75" lengthAdjust="spacing" textLength="621.875" x="1468.75" y="2266.6977">monActIRI: Sequence[str]|None,</text><text fill="#000000" font-family="Arial" font-size="43.75" lengthAdjust="spacing" textLength="287.5" x="1468.75" y="2317.0059">srIRI: str|None,</text><text fill="#000000" font-family="Arial" font-size="43.75" lengthAdjust="spacing" textLength="346.875" x="1468.75" y="2367.3141">lastSkillName: str,</text><text fill="#000000" font-family="Arial" font-size="43.75" lengthAdjust="spacing" textLength="428.125" x="1468.75" y="2417.6224">lastProcessName: str,</text><text fill="#000000" font-family="Arial" font-size="43.75" lengthAdjust="spacing" textLength="265.625" x="1468.75" y="2467.9306">summary: str,</text><text fill="#000000" font-family="Arial" font-size="43.75" lengthAdjust="spacing" textLength="318.75" x="1468.75" y="2518.2388">plcSnapshot: str</text><line style="stroke:#181818;stroke-width:1.5625;" x1="1453.125" x2="2521.875" y1="2539.2944" y2="2539.2944"/><text fill="#000000" font-family="Arial" font-size="43.75" lengthAdjust="spacing" textLength="340.625" x="1468.75" y="2593.5471">+__init__(): None</text><text fill="#000000" font-family="Arial" font-size="43.75" lengthAdjust="spacing" textLength="1037.5" x="1468.75" y="2643.8553">+getFailureModeParameters(interruptedSkill: str): str</text><text fill="#000000" font-family="Arial" font-size="43.75" lengthAdjust="spacing" textLength="1009.375" x="1468.75" y="2694.1635">+getMonitoringActionForFailureMode(FMIri: str): str</text><text fill="#000000" font-family="Arial" font-size="43.75" lengthAdjust="spacing" textLength="984.375" x="1468.75" y="2744.4717">+getSystemreactionForFailureMode(FMIri: str): str</text><text fill="#000000" font-family="Arial" font-size="43.75" lengthAdjust="spacing" textLength="465.625" x="1468.75" y="2794.78">+ingestOccuredFailure(</text><text fill="#000000" font-family="Arial" font-size="43.75" lengthAdjust="spacing" textLength="125" x="1468.75" y="2845.0882">): bool</text></g><!--reverse link ICommandForce to PLCCommandForce--><g id="link_ICommandForce_PLCCommandForce"><path d="M1217.1848,790.3429 C1099.9661,865.8742 984.0938,940.5625 858.1563,1021.6875 " fill="none" id="ICommandForce-backto-PLCCommandForce" style="stroke:#181818;stroke-width:3.125;stroke-dasharray:7.0,7.0;"/><polygon fill="none" points="1264.4688,759.875,1207.0289,774.5816,1227.3408,806.1042,1264.4688,759.875" style="stroke:#181818;stroke-width:3.125;"/></g><!--reverse link ICommandForce to WriteCsvForce--><g id="link_ICommandForce_WriteCsvForce"><path d="M1365.6999,813.2759 C1340.6999,888.8071 1323.5313,940.5625 1296.6563,1021.6875 " fill="none" id="ICommandForce-backto-WriteCsvForce" style="stroke:#181818;stroke-width:3.125;stroke-dasharray:7.0,7.0;"/><polygon fill="none" points="1383.375,759.875,1347.8996,807.3842,1383.5002,819.1676,1383.375,759.875" style="stroke:#181818;stroke-width:3.125;"/></g><!--reverse link ICommandForce to KGIngestionForce--><g id="link_ICommandForce_KGIngestionForce"><path d="M1534.1246,802.8606 C1597.8746,878.3919 1650.3438,940.5625 1718.8438,1021.6875 " fill="none" id="ICommandForce-backto-KGIngestionForce" style="stroke:#181818;stroke-width:3.125;stroke-dasharray:7.0,7.0;"/><polygon fill="none" points="1497.8438,759.875,1519.796,814.9542,1548.4531,790.767,1497.8438,759.875" style="stroke:#181818;stroke-width:3.125;"/></g><!--link CommandForceFactory to ICommandForce--><g id="link_CommandForceFactory_ICommandForce"><path codeLine="108" d="M1663.0625,322 C1606.1563,398.8438 1538.125,490.7812 1487.7813,558.7812 " fill="none" id="CommandForceFactory-ICommandForce" style="stroke:#181818;stroke-width:3.125;"/><text fill="#000000" font-family="Arial" font-size="40.625" lengthAdjust="spacing" textLength="228.125" x="1596.875" y="457.5203">create/return</text></g><!--link PLCCommandForce to PLCMonitor--><g id="link_PLCCommandForce_PLCMonitor"><path codeLine="109" d="M649.4375,1272.125 C616.2188,1481.9375 551.9611,1888.2303 521.5861,2080.2303 " fill="none" id="PLCCommandForce-to-PLCMonitor" style="stroke:#181818;stroke-width:3.125;"/><polygon fill="#181818" points="518.6563,2098.75,535.3975,2072.9237,521.0978,2083.3169,510.7046,2069.0172,518.6563,2098.75" style="stroke:#181818;stroke-width:3.125;"/><text fill="#000000" font-family="Arial" font-size="40.625" lengthAdjust="spacing" textLength="203.125" x="634.375" y="1432.5203">uses (mon)</text></g><!--link ICommandForce to EventBus--><g id="link_ICommandForce_EventBus"><path codeLine="110" d="M1186.625,706.125 C965.4063,754.8125 626,847.0938 362.5,996.875 C336.9063,1011.4062 310.8125,1028.7813 286.3438,1046.4063 " fill="none" id="ICommandForce-EventBus" style="stroke:#181818;stroke-width:3.125;"/><text fill="#000000" font-family="Arial" font-size="40.625" lengthAdjust="spacing" textLength="303.125" x="668.75" y="895.0203">posts/acks (bus)</text></g><!--link KGIngestionForce to KgIngestionParams--><g id="link_KGIngestionForce_KgIngestionParams"><path codeLine="111" d="M1658.875,1271.9063 C1572.6563,1342 1469.3438,1435.625 1393.75,1534.375 C1284.5,1677.0938 1202.3908,1843.7547 1143.5783,1981.5672 " fill="none" id="KGIngestionForce-to-KgIngestionParams" style="stroke:#181818;stroke-width:3.125;"/><polygon fill="#181818" points="1136.2188,1998.8125,1158.7549,1977.851,1142.3517,1984.4414,1135.7612,1968.0382,1136.2188,1998.8125" style="stroke:#181818;stroke-width:3.125;"/></g><!--reverse link Plan to Operation--><g id="link_Plan_Operation"><path codeLine="112" d="M2723.4635,1273.4818 C2856.401,1337.9193 2978.2188,1414.4688 3087.5,1534.375 C3208.6875,1667.375 3289.6563,1856.6563 3337.75,1998.875 " fill="none" id="Plan-backto-Operation" style="stroke:#181818;stroke-width:3.125;"/><polygon fill="none" points="2689.7188,1257.125,2701.1389,1276.5516,2723.4635,1273.4818,2712.0434,1254.0551,2689.7188,1257.125" style="stroke:#181818;stroke-width:3.125;"/></g><!--link CommandForceFactory to Plan--><g id="link_CommandForceFactory_Plan"><path codeLine="113" d="M1871.0625,322.125 C1994.1875,504.75 2192.4253,798.7654 2315.4565,981.2654 " fill="none" id="CommandForceFactory-to-Plan" style="stroke:#181818;stroke-width:3.125;"/><polygon fill="#181818" points="2325.9375,996.8125,2320.5808,966.5046,2317.2034,983.8566,2299.8513,980.4792,2325.9375,996.8125" style="stroke:#181818;stroke-width:3.125;"/></g><!--link KGIngestionForce to KG_Interface--><g id="link_KGIngestionForce_KG_Interface"><path codeLine="114" d="M1841.1875,1272.125 C1852.1563,1341.4375 1863.9123,1415.6993 1879.7561,1515.7931 " fill="none" id="KGIngestionForce-to-KG_Interface" style="stroke:#181818;stroke-width:3.125;"/><polygon fill="#181818" points="1882.6875,1534.3125,1890.6367,1504.5791,1880.2446,1518.8796,1865.9441,1508.4876,1882.6875,1534.3125" style="stroke:#181818;stroke-width:3.125;"/></g><!--link ICommandForce to Plan--><g id="link_ICommandForce_Plan"><path codeLine="115" d="M1582.625,759.7188 C1664.7188,805.7813 1765.875,860 1859.375,903.125 C1964.7813,951.7187 1996.125,951.9375 2103.125,996.875 C2121.8125,1004.7188 2123.8495,1005.4934 2143.162,1013.9309 " fill="none" id="ICommandForce-to-Plan" style="stroke:#181818;stroke-width:3.125;"/><polygon fill="#181818" points="2160.3438,1021.4375,2139.5755,998.7231,2146.0256,1015.182,2129.5667,1021.6321,2160.3438,1021.4375" style="stroke:#181818;stroke-width:3.125;"/><text fill="#000000" font-family="Arial" font-size="40.625" lengthAdjust="spacing" textLength="21.875" x="1862.5" y="895.0203">p</text></g><!--SRC=[pLRTRo8t47_Vly9F0Iw4f7Tg7n11IcWvhUu8DDnT7geAURq3M7Xjdp_IezVyxnrxTs49HAdKFfINn3FZt_pcqziYrzVNPFPnD595GMK-LeO1OGQeuqeIJTsQj9agD6Mk4smJk-5IKqCBacjEtbrTDIMmf5wuiPBkZXP0RWodeg5dWbfxuvpXcNUGCYNd_4yWLqdh94PK_l1J0y2kQQx-u795bbHOI9pIn2cIAUSKNkK6ME2TjDOy1mA5TbjIG961iUY3KO5ulRS_9acBNE2Ft7lfE1BDgENCHbaIIOQKJ9JaJXdoFI6ar-ibJvNgbqUGxjRRXYBXqe5PKinTUf39OFATPjOPJE0JEOTlm33qjkwJcQ2oqoTuCm1KXCPefiosoQI9Lwi3x7ci4g1ygjiA0QSQJ2nRbnHAzXiXlEcIpDl-ZlbPbwYlVP9EJGxcLmyUtf1h8hqGsXdav2N_wc61Xy51ECEzsmSk9PWn5nXt-vcxisDtIt1i3QPFbbx64Wqm9LX7x2rf7IaFPvrXjwx_9ooBycvY0nlBLnBoPyIQ31h4vblheBW76jtyVmWsQXnIQN6i8j-SP5livbZNphCEF6WbNcW11HAs9thiXSOwRDm7mnsCxED_XVVXVIfNO6EU_pLa2rFicMisPLA9FgnsVcPX3TYg_vN1UfML2MTj5ERLDaNM8mcpFH19gkrQkGT3jOQygJ9WbKUwwLxwL1SjC2QN-nahArKHZCeT9n3H8dqD6wLA8zr72CKVxA13hpYr0eVzYAYLZxtdwCXjDOIH_uH_mnatf7S8zldc2nKU9bINATVJ4sBg76NhFg5o6x7shLnk8v2-gB2ZjzWujqg9Bi7JpEFgtPsYBfNktTju754X9aXTvTsWf1nXem8dCX-jWMtYwLOejhclSbBf3NA0MFtoncUP7LYXgD5nU-UZ-HVaZFDLT-KYtMtZmM2sHJ9oE8o1N11yLfHGg-qYF6sn5BLumGtV2oBMGXjOycyDCtqaoez5Asmjn3RvKl2izpwSedpqSIUK-3nQV5IXTrV_5qscirTDVdxDv9mi5Xptt6BHnXcxKx8KOaEDAHVUm4Jb40S9C4ss7TykupNkelc62n43wTJXn8lLtiIklM7Lk3UmskD9MkNky5gvYqszY__19HxBEsKChVBAkesQyEFbw7IhutAFbTwdKVLN2BRMuyv7ib4r1rpAai5lQFFxWP4r9-zYyLtCHSZhWTUWcPMBvaZNt3QrJ0ishpPE7IKX6726ynDwTlSbKcsDwYFarAEFLWTRjLz-fy6b0UUDJ9u_61SNm-Pd33vEDZmxc9TEaZwpt7_K43JKoZfxITa6pV6Xx2H7cpvW7wtb9Ev1XMYxPVL28CEuCb-0RSpl4S_oOg2O_0q0]--></g></svg>