<?xml version="1.0" encoding="us-ascii" standalone="no"?><svg xmlns="http://www.w3.org/2000/svg" xmlns:xlink="http://www.w3.org/1999/xlink" contentStyleType="text/css" height="532px" preserveAspectRatio="none" style="width:1284px;height:532px;background:#FFFFFF;" version="1.1" viewBox="0 0 1284 532" width="1284px" zoomAndPan="magnify"><defs/><g><!--class ReactiveObserver--><g id="elem_ReactiveObserver"><rect codeLine="20" fill="#F1F1F1" height="64.0986" id="ReactiveObserver" rx="2.5" ry="2.5" style="stroke:#181818;stroke-width:0.5;" width="144" x="366.5" y="272"/><ellipse cx="381.5" cy="288" fill="#A9DCDF" rx="11" ry="11" style="stroke:#181818;stroke-width:1.0;"/><path d="M383.6875,289.7656 L379.5469,289.7656 L379.125,290.7969 L379.5469,290.7969 Q380.1563,290.7969 380.4219,291.0313 Q380.6875,291.2656 380.6875,291.6563 Q380.6875,292.0313 380.4219,292.2656 Q380.1563,292.5 379.5469,292.5 L377.25,292.5 Q376.6406,292.5 376.3828,292.2656 Q376.125,292.0313 376.125,291.6406 Q376.125,291.2656 376.3984,291.0234 Q376.6719,290.7813 377.2969,290.7969 L379.9688,284.1406 L378.8594,284.1406 Q378.25,284.1406 377.9844,283.9063 Q377.7188,283.6719 377.7188,283.2813 Q377.7188,282.9063 377.9844,282.6719 Q378.25,282.4375 378.8594,282.4375 L382.5313,282.4375 L385.9219,290.7969 Q386.5156,290.7969 386.7031,290.9375 Q387.0938,291.2031 387.0938,291.6563 Q387.0938,292.0313 386.8359,292.2656 Q386.5781,292.5 385.9688,292.5 L383.6719,292.5 Q383.0625,292.5 382.7969,292.2656 Q382.5313,292.0313 382.5313,291.6406 Q382.5313,291.2656 382.7969,291.0313 Q383.0625,290.7969 383.6719,290.7969 L384.0938,290.7969 L383.6875,289.7656 Z M382.9688,288.0625 L381.6094,284.6875 L380.2344,288.0625 L382.9688,288.0625 Z " fill="#000000"/><text fill="#000000" font-family="Arial" font-size="14" font-style="italic" lengthAdjust="spacing" textLength="112" x="395.5" y="293.3115">ReactiveObserver</text><line style="stroke:#181818;stroke-width:0.5;" x1="367.5" x2="509.5" y1="304" y2="304"/><line style="stroke:#181818;stroke-width:0.5;" x1="367.5" x2="509.5" y1="312" y2="312"/><text fill="#000000" font-family="Arial" font-size="14" font-style="italic" lengthAdjust="spacing" textLength="126" x="372.5" y="329.3608">+onEvent(ev: Event)</text></g><!--class Event--><g id="elem_Event"><rect codeLine="25" fill="#F1F1F1" height="96.2959" id="Event" rx="2.5" ry="2.5" style="stroke:#181818;stroke-width:0.5;" width="123" x="675" y="256"/><ellipse cx="714.75" cy="272" fill="#F1F1F1" rx="11" ry="11" style="stroke:#181818;stroke-width:1.0;"/><path d="M712.8594,276.5625 Q712.6406,276.8281 712.5,276.9063 Q712.3594,276.9844 712.1719,276.9844 Q711.7813,276.9844 711.5391,276.7188 Q711.2969,276.4531 711.2969,275.8594 L711.2969,274.7031 Q711.2969,274.0938 711.5391,273.8359 Q711.7813,273.5781 712.1719,273.5781 Q712.4688,273.5781 712.6719,273.7344 Q712.875,273.8906 712.9844,274.2578 Q713.0938,274.625 713.2031,274.7656 Q713.4531,275.0156 714.0625,275.2813 Q714.6719,275.5469 715.4063,275.5469 Q716.5469,275.5469 717.2656,275.0156 Q717.7344,274.6875 717.7344,274.2188 Q717.7344,273.9063 717.5156,273.625 Q717.2969,273.3438 716.7813,273.1719 Q716.4531,273.0469 715.2969,272.8281 Q713.9063,272.5625 713.1875,272.2031 Q712.4688,271.8438 712.0547,271.1797 Q711.6406,270.5156 711.6406,269.7344 Q711.6406,268.5156 712.6641,267.6016 Q713.6875,266.6875 715.3281,266.6875 Q715.9844,266.6875 716.5391,266.8281 Q717.0938,266.9688 717.5625,267.2656 Q717.8906,266.9531 718.2188,266.9531 Q718.5938,266.9531 718.8281,267.2109 Q719.0625,267.4688 719.0625,268.0781 L719.0625,269.3594 Q719.0625,269.9688 718.8281,270.2266 Q718.5938,270.4844 718.2188,270.4844 Q717.9063,270.4844 717.6719,270.2969 Q717.4844,270.1563 717.3984,269.7344 Q717.3125,269.3125 717.1719,269.125 Q716.9219,268.8125 716.4453,268.6016 Q715.9688,268.3906 715.3281,268.3906 Q714.4063,268.3906 713.875,268.8125 Q713.3438,269.2344 713.3438,269.7031 Q713.3438,270.0156 713.5625,270.3125 Q713.7813,270.6094 714.2031,270.7813 Q714.4844,270.8906 715.7891,271.1484 Q717.0938,271.4063 717.7969,271.7109 Q718.5,272.0156 718.9688,272.6719 Q719.4375,273.3281 719.4375,274.2344 Q719.4375,275.5 718.5469,276.25 Q717.3594,277.25 715.5313,277.25 Q714.8281,277.25 714.1641,277.0781 Q713.5,276.9063 712.8594,276.5625 Z " fill="#000000"/><text fill="#000000" font-family="Arial" font-size="14" lengthAdjust="spacing" textLength="36" x="734.25" y="277.3115">Event</text><line style="stroke:#181818;stroke-width:0.5;" x1="676" x2="797" y1="288" y2="288"/><text fill="#000000" font-family="Arial" font-size="14" lengthAdjust="spacing" textLength="111" x="681" y="305.3608">+type: EventType</text><text fill="#000000" font-family="Arial" font-size="14" lengthAdjust="spacing" textLength="19" x="681" y="321.4595">+ts</text><text fill="#000000" font-family="Arial" font-size="14" lengthAdjust="spacing" textLength="89" x="681" y="337.5581">+payload: any</text><line style="stroke:#181818;stroke-width:0.5;" x1="676" x2="797" y1="344.2959" y2="344.2959"/></g><!--class EventType--><g id="elem_EventType"><rect codeLine="31" fill="#F1F1F1" height="160.6904" id="EventType" rx="2.5" ry="2.5" style="stroke:#181818;stroke-width:0.5;" width="140" x="1137.5" y="12.5"/><ellipse cx="1170.5" cy="28.5" fill="#EB937F" rx="11" ry="11" style="stroke:#181818;stroke-width:1.0;"/><path d="M1169.3594,29.2969 L1169.3594,31.7969 L1173.6875,31.7969 L1173.6875,30.875 Q1173.6875,30.2656 1173.9297,30 Q1174.1719,29.7344 1174.5469,29.7344 Q1174.9219,29.7344 1175.1563,30 Q1175.3906,30.2656 1175.3906,30.875 L1175.3906,33.5 L1167.3906,33.5 Q1166.7656,33.5 1166.5078,33.2656 Q1166.25,33.0313 1166.25,32.6406 Q1166.25,32.2656 1166.5156,32.0313 Q1166.7813,31.7969 1167.3906,31.7969 L1167.6563,31.7969 L1167.6563,25.1406 L1167.3906,25.1406 Q1166.7656,25.1406 1166.5078,24.9063 Q1166.25,24.6719 1166.25,24.2813 Q1166.25,23.9063 1166.5078,23.6719 Q1166.7656,23.4375 1167.3906,23.4375 L1175.0156,23.4375 L1175.0156,26.0313 Q1175.0156,26.6406 1174.7891,26.8984 Q1174.5625,27.1563 1174.1719,27.1563 Q1173.7969,27.1563 1173.5625,26.8984 Q1173.3281,26.6406 1173.3281,26.0313 L1173.3281,25.1406 L1169.3594,25.1406 L1169.3594,27.5938 L1170.8438,27.5938 Q1170.8438,26.9375 1170.9688,26.75 Q1171.2344,26.3438 1171.7031,26.3438 Q1172.0781,26.3438 1172.3125,26.6016 Q1172.5469,26.8594 1172.5469,27.4688 L1172.5469,29.4375 Q1172.5469,29.9844 1172.4219,30.1719 Q1172.1563,30.5625 1171.7031,30.5625 Q1171.2344,30.5625 1170.9688,30.1563 Q1170.8438,29.9688 1170.8438,29.2969 L1169.3594,29.2969 Z " fill="#000000"/><text fill="#000000" font-family="Arial" font-size="14" lengthAdjust="spacing" textLength="68" x="1188.5" y="33.8115">EventType</text><line style="stroke:#181818;stroke-width:0.5;" x1="1138.5" x2="1276.5" y1="44.5" y2="44.5"/><text fill="#000000" font-family="Arial" font-size="14" lengthAdjust="spacing" textLength="90" x="1143.5" y="61.8608">evSRPlanned,</text><text fill="#000000" font-family="Arial" font-size="14" lengthAdjust="spacing" textLength="72" x="1143.5" y="77.9595">evSRDone,</text><text fill="#000000" font-family="Arial" font-size="14" lengthAdjust="spacing" textLength="118" x="1143.5" y="94.0581">evMonActPlanned,</text><text fill="#000000" font-family="Arial" font-size="14" lengthAdjust="spacing" textLength="100" x="1143.5" y="110.1567">evMonActDone,</text><text fill="#000000" font-family="Arial" font-size="14" lengthAdjust="spacing" textLength="93" x="1143.5" y="126.2554">evProcessFail,</text><text fill="#000000" font-family="Arial" font-size="14" lengthAdjust="spacing" textLength="128" x="1143.5" y="142.354">evIngestionPlanned,</text><text fill="#000000" font-family="Arial" font-size="14" lengthAdjust="spacing" textLength="106" x="1143.5" y="158.4526">evIngestionDone</text><line style="stroke:#181818;stroke-width:0.5;" x1="1138.5" x2="1276.5" y1="165.1904" y2="165.1904"/></g><!--class EventBus--><g id="elem_EventBus"><rect codeLine="41" fill="#F1F1F1" height="128.4932" id="EventBus" rx="2.5" ry="2.5" style="stroke:#181818;stroke-width:0.5;" width="379" x="743" y="29"/><ellipse cx="898.25" cy="45" fill="#ADD1B2" rx="11" ry="11" style="stroke:#181818;stroke-width:1.0;"/><path d="M901.0156,40.875 Q901.1719,40.6563 901.3594,40.5469 Q901.5469,40.4375 901.7656,40.4375 Q902.1406,40.4375 902.375,40.6953 Q902.6094,40.9531 902.6094,41.5625 L902.6094,43.0156 Q902.6094,43.625 902.375,43.8906 Q902.1406,44.1563 901.7656,44.1563 Q901.4219,44.1563 901.2188,43.9531 Q901.0156,43.7656 900.9063,43.25 Q900.8594,42.8906 900.6719,42.7031 Q900.3438,42.3281 899.7344,42.1094 Q899.125,41.8906 898.5,41.8906 Q897.7344,41.8906 897.1016,42.2188 Q896.4688,42.5469 895.9766,43.2969 Q895.4844,44.0469 895.4844,45.0781 L895.4844,46.1719 Q895.4844,47.4063 896.375,48.2266 Q897.2656,49.0469 898.8594,49.0469 Q899.7969,49.0469 900.4531,48.7969 Q900.8438,48.6406 901.2656,48.2031 Q901.5313,47.9375 901.6797,47.8594 Q901.8281,47.7813 902.0313,47.7813 Q902.3594,47.7813 902.6172,48.0391 Q902.875,48.2969 902.875,48.6406 Q902.875,48.9844 902.5313,49.3906 Q902.0313,49.9688 901.2344,50.2969 Q900.1563,50.75 898.8594,50.75 Q897.3438,50.75 896.1406,50.125 Q895.1563,49.625 894.4688,48.5547 Q893.7813,47.4844 893.7813,46.2031 L893.7813,45.0469 Q893.7813,43.7188 894.3984,42.5703 Q895.0156,41.4219 896.1094,40.8047 Q897.2031,40.1875 898.4375,40.1875 Q899.1719,40.1875 899.8203,40.3516 Q900.4688,40.5156 901.0156,40.875 Z " fill="#000000"/><text fill="#000000" font-family="Arial" font-size="14" lengthAdjust="spacing" textLength="60" x="918.75" y="50.3115">EventBus</text><line style="stroke:#181818;stroke-width:0.5;" x1="744" x2="1121" y1="61" y2="61"/><line style="stroke:#181818;stroke-width:0.5;" x1="744" x2="1121" y1="69" y2="69"/><text fill="#000000" font-family="Arial" font-size="14" lengthAdjust="spacing" textLength="367" x="749" y="86.3608">+subscribe(t: EventType, obs, priority): SubscriptionToken</text><text fill="#000000" font-family="Arial" font-size="14" lengthAdjust="spacing" textLength="274" x="749" y="102.4595">+unsubscribe(tok: SubscriptionToken): void</text><text fill="#000000" font-family="Arial" font-size="14" lengthAdjust="spacing" textLength="138" x="749" y="118.5581">+post(ev: Event): void</text><text fill="#000000" font-family="Arial" font-size="14" lengthAdjust="spacing" textLength="171" x="749" y="134.6567">+post_now(ev: Event): void</text><text fill="#000000" font-family="Arial" font-size="14" lengthAdjust="spacing" textLength="194" x="749" y="150.7554">+process(maxEvents=32): void</text></g><!--class ReactionPlannedAck--><g id="elem_ReactionPlannedAck"><rect codeLine="50" fill="#F1F1F1" height="96.2959" id="ReactionPlannedAck" rx="2.5" ry="2.5" style="stroke:#181818;stroke-width:0.5;" width="163" x="324" y="421"/><ellipse cx="339" cy="437" fill="#F1F1F1" rx="11" ry="11" style="stroke:#181818;stroke-width:1.0;"/><path d="M337.1094,441.5625 Q336.8906,441.8281 336.75,441.9063 Q336.6094,441.9844 336.4219,441.9844 Q336.0313,441.9844 335.7891,441.7188 Q335.5469,441.4531 335.5469,440.8594 L335.5469,439.7031 Q335.5469,439.0938 335.7891,438.8359 Q336.0313,438.5781 336.4219,438.5781 Q336.7188,438.5781 336.9219,438.7344 Q337.125,438.8906 337.2344,439.2578 Q337.3438,439.625 337.4531,439.7656 Q337.7031,440.0156 338.3125,440.2813 Q338.9219,440.5469 339.6563,440.5469 Q340.7969,440.5469 341.5156,440.0156 Q341.9844,439.6875 341.9844,439.2188 Q341.9844,438.9063 341.7656,438.625 Q341.5469,438.3438 341.0313,438.1719 Q340.7031,438.0469 339.5469,437.8281 Q338.1563,437.5625 337.4375,437.2031 Q336.7188,436.8438 336.3047,436.1797 Q335.8906,435.5156 335.8906,434.7344 Q335.8906,433.5156 336.9141,432.6016 Q337.9375,431.6875 339.5781,431.6875 Q340.2344,431.6875 340.7891,431.8281 Q341.3438,431.9688 341.8125,432.2656 Q342.1406,431.9531 342.4688,431.9531 Q342.8438,431.9531 343.0781,432.2109 Q343.3125,432.4688 343.3125,433.0781 L343.3125,434.3594 Q343.3125,434.9688 343.0781,435.2266 Q342.8438,435.4844 342.4688,435.4844 Q342.1563,435.4844 341.9219,435.2969 Q341.7344,435.1563 341.6484,434.7344 Q341.5625,434.3125 341.4219,434.125 Q341.1719,433.8125 340.6953,433.6016 Q340.2188,433.3906 339.5781,433.3906 Q338.6563,433.3906 338.125,433.8125 Q337.5938,434.2344 337.5938,434.7031 Q337.5938,435.0156 337.8125,435.3125 Q338.0313,435.6094 338.4531,435.7813 Q338.7344,435.8906 340.0391,436.1484 Q341.3438,436.4063 342.0469,436.7109 Q342.75,437.0156 343.2188,437.6719 Q343.6875,438.3281 343.6875,439.2344 Q343.6875,440.5 342.7969,441.25 Q341.6094,442.25 339.7813,442.25 Q339.0781,442.25 338.4141,442.0781 Q337.75,441.9063 337.1094,441.5625 Z " fill="#000000"/><text fill="#000000" font-family="Arial" font-size="14" lengthAdjust="spacing" textLength="131" x="353" y="442.3115">ReactionPlannedAck</text><line style="stroke:#181818;stroke-width:0.5;" x1="325" x2="486" y1="453" y2="453"/><text fill="#000000" font-family="Arial" font-size="14" lengthAdjust="spacing" textLength="129" x="330" y="470.3608">+correlationId: string</text><text fill="#000000" font-family="Arial" font-size="14" lengthAdjust="spacing" textLength="118" x="330" y="486.4595">+resourceId: string</text><text fill="#000000" font-family="Arial" font-size="14" lengthAdjust="spacing" textLength="108" x="330" y="502.5581">+summary: string</text><line style="stroke:#181818;stroke-width:0.5;" x1="325" x2="486" y1="509.2959" y2="509.2959"/></g><!--class ReactionDoneAck--><g id="elem_ReactionDoneAck"><rect codeLine="55" fill="#F1F1F1" height="96.2959" id="ReactionDoneAck" rx="2.5" ry="2.5" style="stroke:#181818;stroke-width:0.5;" width="145" x="502" y="421"/><ellipse cx="517" cy="437" fill="#F1F1F1" rx="11" ry="11" style="stroke:#181818;stroke-width:1.0;"/><path d="M515.1094,441.5625 Q514.8906,441.8281 514.75,441.9063 Q514.6094,441.9844 514.4219,441.9844 Q514.0313,441.9844 513.7891,441.7188 Q513.5469,441.4531 513.5469,440.8594 L513.5469,439.7031 Q513.5469,439.0938 513.7891,438.8359 Q514.0313,438.5781 514.4219,438.5781 Q514.7188,438.5781 514.9219,438.7344 Q515.125,438.8906 515.2344,439.2578 Q515.3438,439.625 515.4531,439.7656 Q515.7031,440.0156 516.3125,440.2813 Q516.9219,440.5469 517.6563,440.5469 Q518.7969,440.5469 519.5156,440.0156 Q519.9844,439.6875 519.9844,439.2188 Q519.9844,438.9063 519.7656,438.625 Q519.5469,438.3438 519.0313,438.1719 Q518.7031,438.0469 517.5469,437.8281 Q516.1563,437.5625 515.4375,437.2031 Q514.7188,436.8438 514.3047,436.1797 Q513.8906,435.5156 513.8906,434.7344 Q513.8906,433.5156 514.9141,432.6016 Q515.9375,431.6875 517.5781,431.6875 Q518.2344,431.6875 518.7891,431.8281 Q519.3438,431.9688 519.8125,432.2656 Q520.1406,431.9531 520.4688,431.9531 Q520.8438,431.9531 521.0781,432.2109 Q521.3125,432.4688 521.3125,433.0781 L521.3125,434.3594 Q521.3125,434.9688 521.0781,435.2266 Q520.8438,435.4844 520.4688,435.4844 Q520.1563,435.4844 519.9219,435.2969 Q519.7344,435.1563 519.6484,434.7344 Q519.5625,434.3125 519.4219,434.125 Q519.1719,433.8125 518.6953,433.6016 Q518.2188,433.3906 517.5781,433.3906 Q516.6563,433.3906 516.125,433.8125 Q515.5938,434.2344 515.5938,434.7031 Q515.5938,435.0156 515.8125,435.3125 Q516.0313,435.6094 516.4531,435.7813 Q516.7344,435.8906 518.0391,436.1484 Q519.3438,436.4063 520.0469,436.7109 Q520.75,437.0156 521.2188,437.6719 Q521.6875,438.3281 521.6875,439.2344 Q521.6875,440.5 520.7969,441.25 Q519.6094,442.25 517.7813,442.25 Q517.0781,442.25 516.4141,442.0781 Q515.75,441.9063 515.1094,441.5625 Z " fill="#000000"/><text fill="#000000" font-family="Arial" font-size="14" lengthAdjust="spacing" textLength="113" x="531" y="442.3115">ReactionDoneAck</text><line style="stroke:#181818;stroke-width:0.5;" x1="503" x2="646" y1="453" y2="453"/><text fill="#000000" font-family="Arial" font-size="14" lengthAdjust="spacing" textLength="129" x="508" y="470.3608">+correlationId: string</text><text fill="#000000" font-family="Arial" font-size="14" lengthAdjust="spacing" textLength="43" x="508" y="486.4595">+rc: int</text><text fill="#000000" font-family="Arial" font-size="14" lengthAdjust="spacing" textLength="108" x="508" y="502.5581">+summary: string</text><line style="stroke:#181818;stroke-width:0.5;" x1="503" x2="646" y1="509.2959" y2="509.2959"/></g><!--class ProcessFailAck--><g id="elem_ProcessFailAck"><rect codeLine="60" fill="#F1F1F1" height="96.2959" id="ProcessFailAck" rx="2.5" ry="2.5" style="stroke:#181818;stroke-width:0.5;" width="149" x="662" y="421"/><ellipse cx="686" cy="437" fill="#F1F1F1" rx="11" ry="11" style="stroke:#181818;stroke-width:1.0;"/><path d="M684.1094,441.5625 Q683.8906,441.8281 683.75,441.9063 Q683.6094,441.9844 683.4219,441.9844 Q683.0313,441.9844 682.7891,441.7188 Q682.5469,441.4531 682.5469,440.8594 L682.5469,439.7031 Q682.5469,439.0938 682.7891,438.8359 Q683.0313,438.5781 683.4219,438.5781 Q683.7188,438.5781 683.9219,438.7344 Q684.125,438.8906 684.2344,439.2578 Q684.3438,439.625 684.4531,439.7656 Q684.7031,440.0156 685.3125,440.2813 Q685.9219,440.5469 686.6563,440.5469 Q687.7969,440.5469 688.5156,440.0156 Q688.9844,439.6875 688.9844,439.2188 Q688.9844,438.9063 688.7656,438.625 Q688.5469,438.3438 688.0313,438.1719 Q687.7031,438.0469 686.5469,437.8281 Q685.1563,437.5625 684.4375,437.2031 Q683.7188,436.8438 683.3047,436.1797 Q682.8906,435.5156 682.8906,434.7344 Q682.8906,433.5156 683.9141,432.6016 Q684.9375,431.6875 686.5781,431.6875 Q687.2344,431.6875 687.7891,431.8281 Q688.3438,431.9688 688.8125,432.2656 Q689.1406,431.9531 689.4688,431.9531 Q689.8438,431.9531 690.0781,432.2109 Q690.3125,432.4688 690.3125,433.0781 L690.3125,434.3594 Q690.3125,434.9688 690.0781,435.2266 Q689.8438,435.4844 689.4688,435.4844 Q689.1563,435.4844 688.9219,435.2969 Q688.7344,435.1563 688.6484,434.7344 Q688.5625,434.3125 688.4219,434.125 Q688.1719,433.8125 687.6953,433.6016 Q687.2188,433.3906 686.5781,433.3906 Q685.6563,433.3906 685.125,433.8125 Q684.5938,434.2344 684.5938,434.7031 Q684.5938,435.0156 684.8125,435.3125 Q685.0313,435.6094 685.4531,435.7813 Q685.7344,435.8906 687.0391,436.1484 Q688.3438,436.4063 689.0469,436.7109 Q689.75,437.0156 690.2188,437.6719 Q690.6875,438.3281 690.6875,439.2344 Q690.6875,440.5 689.7969,441.25 Q688.6094,442.25 686.7813,442.25 Q686.0781,442.25 685.4141,442.0781 Q684.75,441.9063 684.1094,441.5625 Z " fill="#000000"/><text fill="#000000" font-family="Arial" font-size="14" lengthAdjust="spacing" textLength="97" x="702" y="442.3115">ProcessFailAck</text><line style="stroke:#181818;stroke-width:0.5;" x1="663" x2="810" y1="453" y2="453"/><text fill="#000000" font-family="Arial" font-size="14" lengthAdjust="spacing" textLength="129" x="668" y="470.3608">+correlationId: string</text><text fill="#000000" font-family="Arial" font-size="14" lengthAdjust="spacing" textLength="137" x="668" y="486.4595">+processName: string</text><text fill="#000000" font-family="Arial" font-size="14" lengthAdjust="spacing" textLength="108" x="668" y="502.5581">+summary: string</text><line style="stroke:#181818;stroke-width:0.5;" x1="663" x2="810" y1="509.2959" y2="509.2959"/></g><!--class IngestionPlannedAck--><g id="elem_IngestionPlannedAck"><rect codeLine="65" fill="#F1F1F1" height="112.3945" id="IngestionPlannedAck" rx="2.5" ry="2.5" style="stroke:#181818;stroke-width:0.5;" width="164" x="826.5" y="413"/><ellipse cx="841.5" cy="429" fill="#F1F1F1" rx="11" ry="11" style="stroke:#181818;stroke-width:1.0;"/><path d="M839.6094,433.5625 Q839.3906,433.8281 839.25,433.9063 Q839.1094,433.9844 838.9219,433.9844 Q838.5313,433.9844 838.2891,433.7188 Q838.0469,433.4531 838.0469,432.8594 L838.0469,431.7031 Q838.0469,431.0938 838.2891,430.8359 Q838.5313,430.5781 838.9219,430.5781 Q839.2188,430.5781 839.4219,430.7344 Q839.625,430.8906 839.7344,431.2578 Q839.8438,431.625 839.9531,431.7656 Q840.2031,432.0156 840.8125,432.2813 Q841.4219,432.5469 842.1563,432.5469 Q843.2969,432.5469 844.0156,432.0156 Q844.4844,431.6875 844.4844,431.2188 Q844.4844,430.9063 844.2656,430.625 Q844.0469,430.3438 843.5313,430.1719 Q843.2031,430.0469 842.0469,429.8281 Q840.6563,429.5625 839.9375,429.2031 Q839.2188,428.8438 838.8047,428.1797 Q838.3906,427.5156 838.3906,426.7344 Q838.3906,425.5156 839.4141,424.6016 Q840.4375,423.6875 842.0781,423.6875 Q842.7344,423.6875 843.2891,423.8281 Q843.8438,423.9688 844.3125,424.2656 Q844.6406,423.9531 844.9688,423.9531 Q845.3438,423.9531 845.5781,424.2109 Q845.8125,424.4688 845.8125,425.0781 L845.8125,426.3594 Q845.8125,426.9688 845.5781,427.2266 Q845.3438,427.4844 844.9688,427.4844 Q844.6563,427.4844 844.4219,427.2969 Q844.2344,427.1563 844.1484,426.7344 Q844.0625,426.3125 843.9219,426.125 Q843.6719,425.8125 843.1953,425.6016 Q842.7188,425.3906 842.0781,425.3906 Q841.1563,425.3906 840.625,425.8125 Q840.0938,426.2344 840.0938,426.7031 Q840.0938,427.0156 840.3125,427.3125 Q840.5313,427.6094 840.9531,427.7813 Q841.2344,427.8906 842.5391,428.1484 Q843.8438,428.4063 844.5469,428.7109 Q845.25,429.0156 845.7188,429.6719 Q846.1875,430.3281 846.1875,431.2344 Q846.1875,432.5 845.2969,433.25 Q844.1094,434.25 842.2813,434.25 Q841.5781,434.25 840.9141,434.0781 Q840.25,433.9063 839.6094,433.5625 Z " fill="#000000"/><text fill="#000000" font-family="Arial" font-size="14" lengthAdjust="spacing" textLength="132" x="855.5" y="434.3115">IngestionPlannedAck</text><line style="stroke:#181818;stroke-width:0.5;" x1="827.5" x2="989.5" y1="445" y2="445"/><text fill="#000000" font-family="Arial" font-size="14" lengthAdjust="spacing" textLength="129" x="832.5" y="462.3608">+correlationId: string</text><text fill="#000000" font-family="Arial" font-size="14" lengthAdjust="spacing" textLength="146" x="832.5" y="478.4595">+individualName: string</text><text fill="#000000" font-family="Arial" font-size="14" lengthAdjust="spacing" textLength="101" x="832.5" y="494.5581">+process: string</text><text fill="#000000" font-family="Arial" font-size="14" lengthAdjust="spacing" textLength="108" x="832.5" y="510.6567">+summary: string</text><line style="stroke:#181818;stroke-width:0.5;" x1="827.5" x2="989.5" y1="517.3945" y2="517.3945"/></g><!--class IngestionDoneAck--><g id="elem_IngestionDoneAck"><rect codeLine="71" fill="#F1F1F1" height="96.2959" id="IngestionDoneAck" rx="2.5" ry="2.5" style="stroke:#181818;stroke-width:0.5;" width="146" x="1005.5" y="421"/><ellipse cx="1020.5" cy="437" fill="#F1F1F1" rx="11" ry="11" style="stroke:#181818;stroke-width:1.0;"/><path d="M1018.6094,441.5625 Q1018.3906,441.8281 1018.25,441.9063 Q1018.1094,441.9844 1017.9219,441.9844 Q1017.5313,441.9844 1017.2891,441.7188 Q1017.0469,441.4531 1017.0469,440.8594 L1017.0469,439.7031 Q1017.0469,439.0938 1017.2891,438.8359 Q1017.5313,438.5781 1017.9219,438.5781 Q1018.2188,438.5781 1018.4219,438.7344 Q1018.625,438.8906 1018.7344,439.2578 Q1018.8438,439.625 1018.9531,439.7656 Q1019.2031,440.0156 1019.8125,440.2813 Q1020.4219,440.5469 1021.1563,440.5469 Q1022.2969,440.5469 1023.0156,440.0156 Q1023.4844,439.6875 1023.4844,439.2188 Q1023.4844,438.9063 1023.2656,438.625 Q1023.0469,438.3438 1022.5313,438.1719 Q1022.2031,438.0469 1021.0469,437.8281 Q1019.6563,437.5625 1018.9375,437.2031 Q1018.2188,436.8438 1017.8047,436.1797 Q1017.3906,435.5156 1017.3906,434.7344 Q1017.3906,433.5156 1018.4141,432.6016 Q1019.4375,431.6875 1021.0781,431.6875 Q1021.7344,431.6875 1022.2891,431.8281 Q1022.8438,431.9688 1023.3125,432.2656 Q1023.6406,431.9531 1023.9688,431.9531 Q1024.3438,431.9531 1024.5781,432.2109 Q1024.8125,432.4688 1024.8125,433.0781 L1024.8125,434.3594 Q1024.8125,434.9688 1024.5781,435.2266 Q1024.3438,435.4844 1023.9688,435.4844 Q1023.6563,435.4844 1023.4219,435.2969 Q1023.2344,435.1563 1023.1484,434.7344 Q1023.0625,434.3125 1022.9219,434.125 Q1022.6719,433.8125 1022.1953,433.6016 Q1021.7188,433.3906 1021.0781,433.3906 Q1020.1563,433.3906 1019.625,433.8125 Q1019.0938,434.2344 1019.0938,434.7031 Q1019.0938,435.0156 1019.3125,435.3125 Q1019.5313,435.6094 1019.9531,435.7813 Q1020.2344,435.8906 1021.5391,436.1484 Q1022.8438,436.4063 1023.5469,436.7109 Q1024.25,437.0156 1024.7188,437.6719 Q1025.1875,438.3281 1025.1875,439.2344 Q1025.1875,440.5 1024.2969,441.25 Q1023.1094,442.25 1021.2813,442.25 Q1020.5781,442.25 1019.9141,442.0781 Q1019.25,441.9063 1018.6094,441.5625 Z " fill="#000000"/><text fill="#000000" font-family="Arial" font-size="14" lengthAdjust="spacing" textLength="114" x="1034.5" y="442.3115">IngestionDoneAck</text><line style="stroke:#181818;stroke-width:0.5;" x1="1006.5" x2="1150.5" y1="453" y2="453"/><text fill="#000000" font-family="Arial" font-size="14" lengthAdjust="spacing" textLength="129" x="1011.5" y="470.3608">+correlationId: string</text><text fill="#000000" font-family="Arial" font-size="14" lengthAdjust="spacing" textLength="43" x="1011.5" y="486.4595">+rc: int</text><text fill="#000000" font-family="Arial" font-size="14" lengthAdjust="spacing" textLength="108" x="1011.5" y="502.5581">+message: string</text><line style="stroke:#181818;stroke-width:0.5;" x1="1006.5" x2="1150.5" y1="509.2959" y2="509.2959"/></g><!--class AckLogger--><g id="elem_AckLogger"><rect codeLine="78" fill="#F1F1F1" height="64.0986" id="AckLogger" rx="2.5" ry="2.5" style="stroke:#181818;stroke-width:0.5;" width="175" x="7" y="61"/><ellipse cx="56.25" cy="77" fill="#ADD1B2" rx="11" ry="11" style="stroke:#181818;stroke-width:1.0;"/><path d="M59.0156,72.875 Q59.1719,72.6563 59.3594,72.5469 Q59.5469,72.4375 59.7656,72.4375 Q60.1406,72.4375 60.375,72.6953 Q60.6094,72.9531 60.6094,73.5625 L60.6094,75.0156 Q60.6094,75.625 60.375,75.8906 Q60.1406,76.1563 59.7656,76.1563 Q59.4219,76.1563 59.2188,75.9531 Q59.0156,75.7656 58.9063,75.25 Q58.8594,74.8906 58.6719,74.7031 Q58.3438,74.3281 57.7344,74.1094 Q57.125,73.8906 56.5,73.8906 Q55.7344,73.8906 55.1016,74.2188 Q54.4688,74.5469 53.9766,75.2969 Q53.4844,76.0469 53.4844,77.0781 L53.4844,78.1719 Q53.4844,79.4063 54.375,80.2266 Q55.2656,81.0469 56.8594,81.0469 Q57.7969,81.0469 58.4531,80.7969 Q58.8438,80.6406 59.2656,80.2031 Q59.5313,79.9375 59.6797,79.8594 Q59.8281,79.7813 60.0313,79.7813 Q60.3594,79.7813 60.6172,80.0391 Q60.875,80.2969 60.875,80.6406 Q60.875,80.9844 60.5313,81.3906 Q60.0313,81.9688 59.2344,82.2969 Q58.1563,82.75 56.8594,82.75 Q55.3438,82.75 54.1406,82.125 Q53.1563,81.625 52.4688,80.5547 Q51.7813,79.4844 51.7813,78.2031 L51.7813,77.0469 Q51.7813,75.7188 52.3984,74.5703 Q53.0156,73.4219 54.1094,72.8047 Q55.2031,72.1875 56.4375,72.1875 Q57.1719,72.1875 57.8203,72.3516 Q58.4688,72.5156 59.0156,72.875 Z " fill="#000000"/><text fill="#000000" font-family="Arial" font-size="14" lengthAdjust="spacing" textLength="68" x="76.75" y="82.3115">AckLogger</text><line style="stroke:#181818;stroke-width:0.5;" x1="8" x2="181" y1="93" y2="93"/><line style="stroke:#181818;stroke-width:0.5;" x1="8" x2="181" y1="101" y2="101"/><text fill="#000000" font-family="Arial" font-size="14" lengthAdjust="spacing" textLength="163" x="13" y="118.3608">+onEvent(ev: Event): void</text></g><g id="elem_GMN21"><path d="M197.5,6 L197.5,89 L182.19,93 L197.5,97 L197.5,180.436 A0,0 0 0 0 197.5,180.436 L727.5,180.436 A0,0 0 0 0 727.5,180.436 L727.5,16 L717.5,6 L197.5,6 A0,0 0 0 0 197.5,6 " fill="#FEFFDD" style="stroke:#181818;stroke-width:0.5;"/><path d="M717.5,6 L717.5,16 L727.5,16 L717.5,6 " fill="#FEFFDD" style="stroke:#181818;stroke-width:0.5;"/><text fill="#000000" font-family="Arial" font-size="13" lengthAdjust="spacing" textLength="117" x="203.5" y="23.4065">Switch &#252;ber ev.type:</text><text fill="#000000" font-family="Arial" font-size="13" lengthAdjust="spacing" textLength="205" x="207.5" y="38.3552">- evSRPlanned / evMonActPlanned:</text><text fill="#000000" font-family="Arial" font-size="13" lengthAdjust="spacing" textLength="408" x="223.5" y="53.304">any_cast&lt;ReactionPlannedAck*&gt; und loggt corr, resourceId, summary</text><text fill="#000000" font-family="Arial" font-size="13" lengthAdjust="spacing" textLength="171" x="207.5" y="68.2527">- evSRDone / evMonActDone:</text><text fill="#000000" font-family="Arial" font-size="13" lengthAdjust="spacing" textLength="342" x="223.5" y="83.2014">any_cast&lt;ReactionDoneAck*&gt; und loggt corr, rc, summary</text><text fill="#000000" font-family="Arial" font-size="13" lengthAdjust="spacing" textLength="93" x="207.5" y="98.1501">- evProcessFail:</text><text fill="#000000" font-family="Arial" font-size="13" lengthAdjust="spacing" textLength="399" x="223.5" y="113.0989">any_cast&lt;ProcessFailAck*&gt; und loggt corr, processName, summary</text><text fill="#000000" font-family="Arial" font-size="13" lengthAdjust="spacing" textLength="123" x="207.5" y="128.0476">- evIngestionPlanned:</text><text fill="#000000" font-family="Arial" font-size="13" lengthAdjust="spacing" textLength="489" x="223.5" y="142.9963">any_cast&lt;IngestionPlannedAck*&gt; und loggt corr, individualName, process, summary</text><text fill="#000000" font-family="Arial" font-size="13" lengthAdjust="spacing" textLength="106" x="207.5" y="157.9451">- evIngestionDone:</text><text fill="#000000" font-family="Arial" font-size="13" lengthAdjust="spacing" textLength="342" x="223.5" y="172.8938">any_cast&lt;IngestionDoneAck*&gt; und loggt corr, rc, message</text></g><!--link AckLogger to ReactiveObserver--><g id="link_AckLogger_ReactiveObserver"><path codeLine="83" d="M124.76,125.4 C142.57,142.82 166.14,164.11 189.5,180 C245.52,218.1 298.5425,244.2534 349.8825,266.5734 " fill="none" id="AckLogger-to-ReactiveObserver" style="stroke:#181818;stroke-width:1.0;"/><polygon fill="none" points="366.39,273.75,352.2747,261.0709,347.4903,272.0759,366.39,273.75" style="stroke:#181818;stroke-width:1.0;"/></g><!--link EventBus to ReactiveObserver--><g id="link_EventBus_ReactiveObserver"><path codeLine="84" d="M827.41,157.05 C785.44,180.64 736.09,206.43 689.5,226 C630.88,250.62 561.61,271.27 510.71,284.97 " fill="none" id="EventBus-ReactiveObserver" style="stroke:#181818;stroke-width:1.0;"/><text fill="#000000" font-family="Arial" font-size="13" lengthAdjust="spacing" textLength="21" x="724.5" y="223.4065">obs</text></g><!--reverse link EventBus to Event--><g id="link_EventBus_Event"><path codeLine="85" d="M876.1184,166.4878 C857.9484,188.8778 844.26,204.52 823.5,226 C813.83,236.01 803.05,246.22 792.46,255.79 " fill="none" id="EventBus-backto-Event" style="stroke:#181818;stroke-width:1.0;"/><polygon fill="none" points="883.68,157.17,876.7932,159.3084,876.1184,166.4878,883.0051,164.3495,883.68,157.17" style="stroke:#181818;stroke-width:1.0;"/><text fill="#000000" font-family="Arial" font-size="13" lengthAdjust="spacing" textLength="12" x="836.5" y="223.4065">ev</text></g><!--link AckLogger to Event--><g id="link_AckLogger_Event"><path codeLine="87" d="M121.03,125.05 C138.62,143.7 163.23,166.38 189.5,180 C200.4,185.65 528.398,257.6004 669.088,288.3104 " fill="none" id="AckLogger-to-Event" style="stroke:#181818;stroke-width:1.0;stroke-dasharray:7.0,7.0;"/><polygon fill="#181818" points="674.95,289.59,667.0101,283.7627,670.065,288.5237,665.304,291.5786,674.95,289.59" style="stroke:#181818;stroke-width:1.0;"/><text fill="#000000" font-family="Arial" font-size="13" lengthAdjust="spacing" textLength="191" x="373.5" y="223.4065">reads ev.type, payload(any_cast)</text></g><!--reverse link Event to ReactionPlannedAck--><g id="link_Event_ReactionPlannedAck"><path codeLine="90" d="M663.6791,334.4659 C614.1191,355.0659 554.28,381.37 494.5,413 C489.84,415.46 485.1,418.07 480.35,420.77 " fill="none" id="Event-backto-ReactionPlannedAck" style="stroke:#181818;stroke-width:1.0;"/><polygon fill="none" points="674.76,329.86,667.6843,328.4693,663.6791,334.4659,670.7548,335.8566,674.76,329.86" style="stroke:#181818;stroke-width:1.0;"/></g><!--reverse link Event to ReactionDoneAck--><g id="link_Event_ReactionDoneAck"><path codeLine="91" d="M681.1803,360.6608 C659.6903,382.2808 642.73,399.35 621.25,420.96 " fill="none" id="Event-backto-ReactionDoneAck" style="stroke:#181818;stroke-width:1.0;"/><polygon fill="none" points="689.64,352.15,682.5732,353.5855,681.1803,360.6608,688.2471,359.2253,689.64,352.15" style="stroke:#181818;stroke-width:1.0;"/></g><!--reverse link Event to ProcessFailAck--><g id="link_Event_ProcessFailAck"><path codeLine="92" d="M736.5,364.15 C736.5,385.77 736.5,399.35 736.5,420.96 " fill="none" id="Event-backto-ProcessFailAck" style="stroke:#181818;stroke-width:1.0;"/><polygon fill="none" points="736.5,352.15,732.5,358.15,736.5,364.15,740.5,358.15,736.5,352.15" style="stroke:#181818;stroke-width:1.0;"/></g><!--reverse link Event to IngestionPlannedAck--><g id="link_Event_IngestionPlannedAck"><path codeLine="93" d="M794.9604,360.404 C815.0004,379.394 829.55,393.18 850.36,412.9 " fill="none" id="Event-backto-IngestionPlannedAck" style="stroke:#181818;stroke-width:1.0;"/><polygon fill="none" points="786.25,352.15,787.8539,359.1805,794.9604,360.404,793.3565,353.3735,786.25,352.15" style="stroke:#181818;stroke-width:1.0;"/></g><!--reverse link Event to IngestionDoneAck--><g id="link_Event_IngestionDoneAck"><path codeLine="94" d="M809.2839,330.2434 C863.4739,349.8534 932.54,377.25 998.5,413 C1003.09,415.49 1007.75,418.18 1012.38,420.99 " fill="none" id="Event-backto-IngestionDoneAck" style="stroke:#181818;stroke-width:1.0;"/><polygon fill="none" points="798,326.16,802.2808,331.963,809.2839,330.2434,805.0031,324.4404,798,326.16" style="stroke:#181818;stroke-width:1.0;"/></g><!--SRC=[bLRBRjiu5DthA-vgx4mTDvsWNHXjW1HjYc3w2E9Y5jqK57Kj4v98WQIKEcs-fPlvXbbbvn-RIqgMA5lfGmj3kezpBk-Bdi0rCcw5ak-OP2bgE8OBnIk32V2S6GE9OAbc1KoLp3VqfP5RUj6OCqj6TbEYWJyWGr9YQOuYambPCkTYrYnHDqAci6AvmK3ZeS-jrIAkB5vo9PVY5k4aci35zZv5I9ZnN9c5bCbRK35AG24NqQH7IKe1foSdCFeGr6fxh-7g_PlZrrzAfIrCHIgL5aYlCGfO_lCcZ3R15QjoUw6aVSyAX7CjM3wWwmryj4-U3UbIlVrl-nqr9T7Pm0jYCOQ-uIsQcEaCXGtuf4hGO0bFdeu6_xTK5YMBZMKo2SFGJ6REx_Jf-Aa_eSX3HyvoYdN-37xuaEDjPRR_sjjSy3N2CcCvPQgIQJHPYmG1Yz9keC0YHcsYIOuh2rQ15kdQjcr1NHHPLJfnhAnLHI2Vm34zy26cXDIKePWPzAB8HQgf1zjEhB6p-He1VDsfx-2Hagzhb7QAzGBysr5q5-sGlG3CnbYaPYs450NBeHPuSzJm44n5B8sTWtxaUhT5-aYlNcJSRyaskMB90fZSE0gKLT7RUMUibzTNEPCIancqtw-Kn9b_VwVaERT3VIFhRQwqujGV5qpaZU1IfcXSieP-dTYvkcYQkVJXlAnCSnHJnORJDE7K1YUQqToO6PHQKDlRpT42berTwV0-gWobSwvauAwo4Iloh9L8V6wK2IimL7oMwcPSsHnsMh0lNcLUdFwrK_SrFESPjBatC5rfwY0IcVbwMCBTochpvBny4hZIVYsHwfAAHzQqUvn2er6LvZYKcgeecDvqehjzV9VmNm3d2n3I_X0ngFNF0TjSkINqI-7kzytF6OHCH2sIYkNx92ttx_7-TfuAeg3B9e0CEk2jIlqzv0hUj7elz0o7Q-2WaQxR24m34w9-EpjOD54tIzvrRmijt13r9ghRDGiQpYZ0di_FEer6ry9OpwqVmxQffxHFFdDcQ75Hf8rjguA2bQMxAZiRi4odQEb6RGnL5rnOwH5bMuv0Cso_G37IEcFQ7U8klIznpMhQAU3kg2R5_gsv3DIghnZLQtaZB5_3zfukZbr65YIdVnh14eN7-slJsxXdbv3dXwV_ymmgcK1EN1PSvysWd_KPjAtRaxc314pkys6QzjHZ7Fm0EqZn8U8m_oE0mSWV8E_Nw11-f8eZ7CEXxpWVvXlFpdvJF92UTiJfwanyb_mF]--></g></svg>