<?xml version="1.0" encoding="us-ascii" standalone="no"?><svg xmlns="http://www.w3.org/2000/svg" xmlns:xlink="http://www.w3.org/1999/xlink" contentStyleType="text/css" height="774px" preserveAspectRatio="none" style="width:1194px;height:774px;background:#FFFFFF;" version="1.1" viewBox="0 0 1194 774" width="1194px" zoomAndPan="magnify"><defs/><g><line style="stroke:#181818;stroke-width:0.5;stroke-dasharray:5.0,5.0;" x1="54" x2="54" y1="81.0986" y2="767.7715"/><line style="stroke:#181818;stroke-width:0.5;stroke-dasharray:5.0,5.0;" x1="144" x2="144" y1="81.0986" y2="767.7715"/><line style="stroke:#181818;stroke-width:0.5;stroke-dasharray:5.0,5.0;" x1="223" x2="223" y1="81.0986" y2="767.7715"/><line style="stroke:#181818;stroke-width:0.5;stroke-dasharray:5.0,5.0;" x1="310" x2="310" y1="81.0986" y2="767.7715"/><line style="stroke:#181818;stroke-width:0.5;stroke-dasharray:5.0,5.0;" x1="396" x2="396" y1="81.0986" y2="767.7715"/><line style="stroke:#181818;stroke-width:0.5;stroke-dasharray:5.0,5.0;" x1="696" x2="696" y1="81.0986" y2="767.7715"/><line style="stroke:#181818;stroke-width:0.5;stroke-dasharray:5.0,5.0;" x1="892.5" x2="892.5" y1="81.0986" y2="767.7715"/><line style="stroke:#181818;stroke-width:0.5;stroke-dasharray:5.0,5.0;" x1="992.5" x2="992.5" y1="81.0986" y2="767.7715"/><line style="stroke:#181818;stroke-width:0.5;stroke-dasharray:5.0,5.0;" x1="1070.5" x2="1070.5" y1="81.0986" y2="767.7715"/><line style="stroke:#181818;stroke-width:0.5;stroke-dasharray:5.0,5.0;" x1="1152.5" x2="1152.5" y1="81.0986" y2="767.7715"/><text fill="#000000" font-family="Arial" font-size="14" lengthAdjust="spacing" textLength="93" x="5" y="78.3608">SPS (OPC UA)</text><ellipse cx="54.5" cy="13.5" fill="#E2E2F0" rx="8" ry="8" style="stroke:#181818;stroke-width:0.5;"/><path d="M54.5,21.5 L54.5,48.5 M41.5,29.5 L67.5,29.5 M54.5,48.5 L41.5,63.5 M54.5,48.5 L67.5,63.5 " fill="none" style="stroke:#181818;stroke-width:0.5;"/><rect fill="#E2E2F0" height="46.1973" rx="2.5" ry="2.5" style="stroke:#181818;stroke-width:0.5;" width="61" x="114" y="33.9014"/><text fill="#000000" font-family="Arial" font-size="14" lengthAdjust="spacing" textLength="31" x="129" y="54.2622">:PLC</text><text fill="#000000" font-family="Arial" font-size="14" lengthAdjust="spacing" textLength="47" x="121" y="70.3608">Monitor</text><rect fill="#E2E2F0" height="62.2959" rx="2.5" ry="2.5" style="stroke:#181818;stroke-width:0.5;" width="76" x="185" y="17.8027"/><text fill="#000000" font-family="Arial" font-size="14" lengthAdjust="spacing" textLength="62" x="192" y="38.1636">:Inventory</text><text fill="#000000" font-family="Arial" font-size="14" lengthAdjust="spacing" textLength="60" x="193" y="54.2622">Snapshot</text><text fill="#000000" font-family="Arial" font-size="14" lengthAdjust="spacing" textLength="26" x="210" y="70.3608">Utils</text><rect fill="#E2E2F0" height="30.0986" rx="2.5" ry="2.5" style="stroke:#181818;stroke-width:0.5;" width="78" x="271" y="50"/><text fill="#000000" font-family="Arial" font-size="14" lengthAdjust="spacing" textLength="64" x="278" y="70.3608">:EventBus</text><rect fill="#E2E2F0" height="46.1973" rx="2.5" ry="2.5" style="stroke:#181818;stroke-width:0.5;" width="74" x="359" y="33.9014"/><text fill="#000000" font-family="Arial" font-size="14" lengthAdjust="spacing" textLength="60" x="366" y="54.2622">:Reaction</text><text fill="#000000" font-family="Arial" font-size="14" lengthAdjust="spacing" textLength="56" x="368" y="70.3608">Manager</text><rect fill="#E2E2F0" height="62.2959" rx="2.5" ry="2.5" style="stroke:#181818;stroke-width:0.5;" width="82" x="655" y="17.8027"/><text fill="#000000" font-family="Arial" font-size="14" lengthAdjust="spacing" textLength="68" x="662" y="38.1636">:Command</text><text fill="#000000" font-family="Arial" font-size="14" lengthAdjust="spacing" textLength="37" x="677.5" y="54.2622">Force</text><text fill="#000000" font-family="Arial" font-size="14" lengthAdjust="spacing" textLength="48" x="672" y="70.3608">Factory</text><rect fill="#E2E2F0" height="46.1973" rx="2.5" ry="2.5" style="stroke:#181818;stroke-width:0.5;" width="85" x="850.5" y="33.9014"/><text fill="#000000" font-family="Arial" font-size="14" lengthAdjust="spacing" textLength="71" x="857.5" y="54.2622">:ICommand</text><text fill="#000000" font-family="Arial" font-size="14" lengthAdjust="spacing" textLength="37" x="874.5" y="70.3608">Force</text><rect fill="#E2E2F0" height="46.1973" rx="2.5" ry="2.5" style="stroke:#181818;stroke-width:0.5;" width="73" x="956.5" y="33.9014"/><text fill="#000000" font-family="Arial" font-size="14" lengthAdjust="spacing" textLength="48" x="969" y="54.2622">:Failure</text><text fill="#000000" font-family="Arial" font-size="14" lengthAdjust="spacing" textLength="59" x="963.5" y="70.3608">Recorder</text><rect fill="#E2E2F0" height="46.1973" rx="2.5" ry="2.5" style="stroke:#181818;stroke-width:0.5;" width="63" x="1039.5" y="33.9014"/><text fill="#000000" font-family="Arial" font-size="14" lengthAdjust="spacing" textLength="35" x="1053.5" y="54.2622">:Time</text><text fill="#000000" font-family="Arial" font-size="14" lengthAdjust="spacing" textLength="49" x="1046.5" y="70.3608">Blogger</text><rect fill="#E2E2F0" height="46.1973" rx="2.5" ry="2.5" style="stroke:#181818;stroke-width:0.5;" width="59" x="1123.5" y="33.9014"/><text fill="#000000" font-family="Arial" font-size="14" lengthAdjust="spacing" textLength="27" x="1139.5" y="54.2622">:Ack</text><text fill="#000000" font-family="Arial" font-size="14" lengthAdjust="spacing" textLength="45" x="1130.5" y="70.3608">Logger</text><rect fill="#EEEEEE" height="3" style="stroke:#EEEEEE;stroke-width:1.0;" width="1187.5" x="0" y="111.573"/><line style="stroke:#000000;stroke-width:1.0;" x1="0" x2="1187.5" y1="111.573" y2="111.573"/><line style="stroke:#000000;stroke-width:1.0;" x1="0" x2="1187.5" y1="114.573" y2="114.573"/><rect fill="#EEEEEE" height="22.9487" style="stroke:#000000;stroke-width:2.0;" width="126" x="530.75" y="101.0986"/><text fill="#000000" font-family="Arial" font-size="13" font-weight="bold" lengthAdjust="spacing" textLength="112" x="536.75" y="117.5051">Plan and Execute</text><line style="stroke:#181818;stroke-width:1.0;" x1="396" x2="438" y1="156.146" y2="156.146"/><line style="stroke:#181818;stroke-width:1.0;" x1="438" x2="438" y1="156.146" y2="169.146"/><line style="stroke:#181818;stroke-width:1.0;" x1="397" x2="438" y1="169.146" y2="169.146"/><polygon fill="#181818" points="407,165.146,397,169.146,407,173.146,403,169.146" style="stroke:#181818;stroke-width:1.0;"/><text fill="#000000" font-family="Arial" font-size="14" lengthAdjust="spacing" textLength="197" x="403" y="151.4082">normalize / compare / buildPlan</text><polygon fill="#181818" points="684,195.2446,694,199.2446,684,203.2446,688,199.2446" style="stroke:#181818;stroke-width:1.0;"/><line style="stroke:#181818;stroke-width:1.0;" x1="396" x2="690" y1="199.2446" y2="199.2446"/><text fill="#000000" font-family="Arial" font-size="14" lengthAdjust="spacing" textLength="276" x="403" y="194.5068">createCommandForceForPlanAndAck(plan)</text><polygon fill="#181818" points="881,225.3433,891,229.3433,881,233.3433,885,229.3433" style="stroke:#181818;stroke-width:1.0;"/><line style="stroke:#181818;stroke-width:1.0;" x1="696" x2="887" y1="229.3433" y2="229.3433"/><text fill="#000000" font-family="Arial" font-size="14" lengthAdjust="spacing" textLength="173" x="703" y="224.6055">createForOp(op, mon, bus)</text><polygon fill="#181818" points="321,255.4419,311,259.4419,321,263.4419,317,259.4419" style="stroke:#181818;stroke-width:1.0;"/><line style="stroke:#181818;stroke-width:1.0;" x1="315" x2="892" y1="259.4419" y2="259.4419"/><text fill="#000000" font-family="Arial" font-size="14" lengthAdjust="spacing" textLength="156" x="327" y="254.7041">post evSRPlanned (corr)</text><polygon fill="#181818" points="1141,285.5405,1151,289.5405,1141,293.5405,1145,289.5405" style="stroke:#181818;stroke-width:1.0;"/><line style="stroke:#181818;stroke-width:1.0;" x1="310" x2="1147" y1="289.5405" y2="289.5405"/><text fill="#000000" font-family="Arial" font-size="14" lengthAdjust="spacing" textLength="148" x="317" y="284.8027">onEvent(evSRPlanned)</text><line style="stroke:#181818;stroke-width:1.0;" x1="893" x2="935" y1="319.6392" y2="319.6392"/><line style="stroke:#181818;stroke-width:1.0;" x1="935" x2="935" y1="319.6392" y2="332.6392"/><line style="stroke:#181818;stroke-width:1.0;" x1="894" x2="935" y1="332.6392" y2="332.6392"/><polygon fill="#181818" points="904,328.6392,894,332.6392,904,336.6392,900,332.6392" style="stroke:#181818;stroke-width:1.0;"/><text fill="#000000" font-family="Arial" font-size="14" lengthAdjust="spacing" textLength="86" x="900" y="314.9014">execute(plan)</text><polygon fill="#181818" points="321,358.7378,311,362.7378,321,366.7378,317,362.7378" style="stroke:#181818;stroke-width:1.0;"/><line style="stroke:#181818;stroke-width:1.0;" x1="315" x2="892" y1="362.7378" y2="362.7378"/><text fill="#000000" font-family="Arial" font-size="14" lengthAdjust="spacing" textLength="235" x="327" y="358">post evSRDone (rc) or evProcessFail</text><polygon fill="#181818" points="1141,388.8364,1151,392.8364,1141,396.8364,1145,392.8364" style="stroke:#181818;stroke-width:1.0;"/><line style="stroke:#181818;stroke-width:1.0;" x1="310" x2="1147" y1="392.8364" y2="392.8364"/><text fill="#000000" font-family="Arial" font-size="14" lengthAdjust="spacing" textLength="231" x="317" y="388.0986">onEvent(evSRDone / evProcessFail)</text><polygon fill="#181818" points="1059,418.9351,1069,422.9351,1059,426.9351,1063,422.9351" style="stroke:#181818;stroke-width:1.0;"/><line style="stroke:#181818;stroke-width:1.0;" x1="310" x2="1065" y1="422.9351" y2="422.9351"/><text fill="#000000" font-family="Arial" font-size="14" lengthAdjust="spacing" textLength="74" x="317" y="418.1973">onEvent(...)</text><rect fill="#EEEEEE" height="3" style="stroke:#EEEEEE;stroke-width:1.0;" width="1187.5" x="0" y="451.4094"/><line style="stroke:#000000;stroke-width:1.0;" x1="0" x2="1187.5" y1="451.4094" y2="451.4094"/><line style="stroke:#000000;stroke-width:1.0;" x1="0" x2="1187.5" y1="454.4094" y2="454.4094"/><rect fill="#EEEEEE" height="22.9487" style="stroke:#000000;stroke-width:2.0;" width="95" x="546.25" y="440.9351"/><text fill="#000000" font-family="Arial" font-size="13" font-weight="bold" lengthAdjust="spacing" textLength="81" x="552.25" y="457.3416">KG Ingestion</text><polygon fill="#181818" points="981,491.9824,991,495.9824,981,499.9824,985,495.9824" style="stroke:#181818;stroke-width:1.0;"/><line style="stroke:#181818;stroke-width:1.0;" x1="310" x2="987" y1="495.9824" y2="495.9824"/><text fill="#000000" font-family="Arial" font-size="14" lengthAdjust="spacing" textLength="231" x="317" y="491.2446">onEvent(evSRDone / evProcessFail)</text><polygon fill="#181818" points="707,522.0811,697,526.0811,707,530.0811,703,526.0811" style="stroke:#181818;stroke-width:1.0;"/><line style="stroke:#181818;stroke-width:1.0;" x1="701" x2="992" y1="526.0811" y2="526.0811"/><text fill="#000000" font-family="Arial" font-size="14" lengthAdjust="spacing" textLength="219" x="713" y="521.3433">createForOp(KGIngestion, ..., bus)</text><polygon fill="#181818" points="881,552.1797,891,556.1797,881,560.1797,885,556.1797" style="stroke:#181818;stroke-width:1.0;"/><line style="stroke:#181818;stroke-width:1.0;" x1="696" x2="887" y1="556.1797" y2="556.1797"/><text fill="#000000" font-family="Arial" font-size="14" lengthAdjust="spacing" textLength="114" x="703" y="551.4419">KGIngestionForce</text><polygon fill="#181818" points="321,582.2783,311,586.2783,321,590.2783,317,586.2783" style="stroke:#181818;stroke-width:1.0;"/><line style="stroke:#181818;stroke-width:1.0;" x1="315" x2="892" y1="586.2783" y2="586.2783"/><text fill="#000000" font-family="Arial" font-size="14" lengthAdjust="spacing" textLength="194" x="327" y="581.5405">post evIngestionPlanned (corr)</text><polygon fill="#181818" points="1141,612.377,1151,616.377,1141,620.377,1145,616.377" style="stroke:#181818;stroke-width:1.0;"/><line style="stroke:#181818;stroke-width:1.0;" x1="310" x2="1147" y1="616.377" y2="616.377"/><text fill="#000000" font-family="Arial" font-size="14" lengthAdjust="spacing" textLength="186" x="317" y="611.6392">onEvent(evIngestionPlanned)</text><polygon fill="#181818" points="321,642.4756,311,646.4756,321,650.4756,317,646.4756" style="stroke:#181818;stroke-width:1.0;"/><line style="stroke:#181818;stroke-width:1.0;" x1="315" x2="892" y1="646.4756" y2="646.4756"/><text fill="#000000" font-family="Arial" font-size="14" lengthAdjust="spacing" textLength="196" x="327" y="641.7378">post evIngestionDone (corr, rc)</text><polygon fill="#181818" points="1141,672.5742,1151,676.5742,1141,680.5742,1145,676.5742" style="stroke:#181818;stroke-width:1.0;"/><line style="stroke:#181818;stroke-width:1.0;" x1="310" x2="1147" y1="676.5742" y2="676.5742"/><text fill="#000000" font-family="Arial" font-size="14" lengthAdjust="spacing" textLength="168" x="317" y="671.8364">onEvent(evIngestionDone)</text><polygon fill="#181818" points="1059,702.6729,1069,706.6729,1059,710.6729,1063,706.6729" style="stroke:#181818;stroke-width:1.0;"/><line style="stroke:#181818;stroke-width:1.0;" x1="310" x2="1065" y1="706.6729" y2="706.6729"/><text fill="#000000" font-family="Arial" font-size="14" lengthAdjust="spacing" textLength="74" x="317" y="701.9351">onEvent(...)</text><line style="stroke:#181818;stroke-width:1.0;" x1="1071" x2="1113" y1="736.7715" y2="736.7715"/><line style="stroke:#181818;stroke-width:1.0;" x1="1113" x2="1113" y1="736.7715" y2="749.7715"/><line style="stroke:#181818;stroke-width:1.0;" x1="1072" x2="1113" y1="749.7715" y2="749.7715"/><polygon fill="#181818" points="1082,745.7715,1072,749.7715,1082,753.7715,1078,749.7715" style="stroke:#181818;stroke-width:1.0;"/><text fill="#000000" font-family="Arial" font-size="14" lengthAdjust="spacing" textLength="68" x="1078" y="732.0337">finish(corr)</text><!--SRC=[ZPJFRjf04CRlVefHBi4Ia5RAAHAL38sZ2cYGWHkNnHvW5NlMtLq3wVFqCNhBYtNMDlyickI2hPtVV3FpxU1Rw7HWYRl260kP99c955PlVpKiDKgBC5HPBgnSobJQjp-MSMyZ4uILKdQfzfvvaPGBBJ8m6v6edQGrh4Hgy2oIu4eKgGqLsPyYGmYq5Ebv9luga6AS26rbB7D19JkLln6-tby1WzWg_G6YjTgT8xSd9XFxCHeZrbW6xxzumWd2pNGoXTRpP03pmBy1OO0FlFpK5TmyJ4Q31OqLIKue4JuODvWVj4NY-Ek2fYHoir5sGNChKrDcS7ZUo7Xq2VsYYlEp4OwG6vIAkB8WRhkg73Nh3bIM2KeM52eT8p_AiLvBU126pIulyQgrGPCAXKmBpM8HnaedTUamQc0pcJ7JJzNwqDsitq22-6L1enCGZ3olrvkaWe2xWCSzneN5Ni-Bnj3vnjF10v3Il93kakuWTfketTkoa6dY4ckKPsCsrYWiraEL8_6Fem9Ak7OhvrVVSoodyA375CQUyvRAsv0fQhEwyJqNPuolWh5SyPy3jzF8gH4cq68hjE-vA4F1Y1b5vHsspZ3VEyXKrR2Qi6xaUeNlYX1QElQ1zn6t4wrYtbHt2V-jLgRSNSB7tcRzCxhRxVhEy-4Jx-0QZLifzhj6m-XJmemrBA_y6puTDTl0bMeZB_m-OyeBkch24VcKsqtQVr-pyjS9je5T_aZKuUzuoIU7ynL_EyscRjNx1m00]--></g></svg>